G75*
G70*
%OFA0B0*%
%FSLAX24Y24*%
%IPPOS*%
%LPD*%
%AMOC8*
5,1,8,0,0,1.08239X$1,22.5*
%
%ADD10C,0.0000*%
%ADD11C,0.0150*%
%ADD12C,0.0090*%
%ADD13C,0.0039*%
%ADD14C,0.0060*%
%ADD15C,0.0320*%
%ADD16C,0.0160*%
%ADD17R,0.0120X0.0040*%
%ADD18R,0.0160X0.0040*%
%ADD19R,0.0040X0.0040*%
%ADD20R,0.0080X0.0040*%
%ADD21R,0.0200X0.0040*%
%ADD22R,0.0280X0.0040*%
%ADD23R,0.0240X0.0040*%
%ADD24R,0.1520X0.0040*%
%ADD25R,0.0480X0.0040*%
%ADD26R,0.0320X0.0040*%
%ADD27R,0.1400X0.0040*%
%ADD28R,0.0360X0.0040*%
%ADD29R,0.0680X0.0040*%
%ADD30R,0.0520X0.0040*%
%ADD31R,0.0920X0.0040*%
%ADD32R,0.1360X0.0040*%
%ADD33R,0.0400X0.0040*%
%ADD34R,0.0440X0.0040*%
%ADD35R,0.1040X0.0040*%
%ADD36R,0.0800X0.0040*%
%ADD37R,0.0640X0.0040*%
%ADD38R,0.0560X0.0040*%
%ADD39R,0.0760X0.0040*%
%ADD40R,0.0025X0.0025*%
%ADD41R,0.0026X0.0025*%
%ADD42R,0.0024X0.0025*%
%ADD43R,0.0050X0.0025*%
%ADD44R,0.0075X0.0025*%
%ADD45R,0.0100X0.0025*%
%ADD46R,0.2574X0.0025*%
%ADD47R,0.1675X0.0025*%
%ADD48R,0.3199X0.0025*%
%ADD49R,0.2800X0.0025*%
%ADD50R,0.0125X0.0025*%
%ADD51R,0.0975X0.0025*%
%ADD52R,0.0974X0.0025*%
%ADD53R,0.0400X0.0025*%
%ADD54R,0.0051X0.0025*%
%ADD55R,0.0074X0.0025*%
%ADD56R,0.0076X0.0025*%
%ADD57R,0.0049X0.0025*%
%ADD58R,0.0350X0.0025*%
%ADD59R,0.0099X0.0025*%
%ADD60R,0.7249X0.0025*%
%ADD61R,0.4951X0.0025*%
%ADD62R,0.0300X0.0025*%
%ADD63R,0.0326X0.0025*%
%ADD64R,0.0224X0.0025*%
%ADD65R,0.0200X0.0025*%
%ADD66R,0.0375X0.0025*%
%ADD67R,0.0249X0.0025*%
%ADD68R,0.0251X0.0025*%
%ADD69R,0.0426X0.0025*%
%ADD70R,0.0250X0.0025*%
%ADD71R,0.0199X0.0025*%
%ADD72R,0.0299X0.0025*%
%ADD73R,0.0301X0.0025*%
%ADD74R,0.0399X0.0025*%
%ADD75R,0.0325X0.0025*%
%ADD76R,0.0175X0.0025*%
%ADD77R,0.0324X0.0025*%
%ADD78R,0.0124X0.0025*%
%ADD79R,0.0126X0.0025*%
%ADD80R,0.0750X0.0025*%
%ADD81R,0.0475X0.0025*%
%ADD82R,0.0201X0.0025*%
%ADD83R,0.0700X0.0025*%
%ADD84R,0.0275X0.0025*%
%ADD85R,0.0225X0.0025*%
%ADD86R,0.0374X0.0025*%
%ADD87R,0.0149X0.0025*%
%ADD88R,0.0176X0.0025*%
%ADD89R,0.0826X0.0025*%
%ADD90R,0.0550X0.0025*%
%ADD91R,0.0150X0.0025*%
%ADD92R,0.0601X0.0025*%
%ADD93R,0.0424X0.0025*%
%ADD94R,0.0850X0.0025*%
%ADD95R,0.0575X0.0025*%
%ADD96R,0.0725X0.0025*%
%ADD97R,0.0425X0.0025*%
%ADD98R,0.0151X0.0025*%
%ADD99R,0.0625X0.0025*%
%ADD100R,0.0500X0.0025*%
%ADD101R,0.0451X0.0025*%
%ADD102R,0.0101X0.0025*%
%ADD103R,0.0526X0.0025*%
%ADD104R,0.0875X0.0025*%
%ADD105R,0.0351X0.0025*%
%ADD106R,0.0174X0.0025*%
%ADD107R,0.0650X0.0025*%
%ADD108R,0.0674X0.0025*%
%ADD109R,0.0551X0.0025*%
%ADD110R,0.0600X0.0025*%
%ADD111R,0.0276X0.0025*%
%ADD112R,0.0274X0.0025*%
%ADD113R,0.0574X0.0025*%
%ADD114R,0.0226X0.0025*%
%ADD115R,0.0576X0.0025*%
%ADD116R,0.0349X0.0025*%
%ADD117R,0.0524X0.0025*%
%ADD118R,0.0474X0.0025*%
%ADD119R,0.0776X0.0025*%
%ADD120R,0.0401X0.0025*%
%ADD121R,0.0476X0.0025*%
%ADD122R,0.0449X0.0025*%
%ADD123R,0.0801X0.0025*%
%ADD124R,0.0376X0.0025*%
%ADD125R,0.0675X0.0025*%
%ADD126R,0.0599X0.0025*%
%ADD127R,0.0501X0.0025*%
%ADD128R,0.0525X0.0025*%
%ADD129R,0.0549X0.0025*%
%ADD130R,0.0899X0.0025*%
%ADD131R,0.8050X0.0025*%
%ADD132C,0.0010*%
%ADD133C,0.0050*%
%ADD134R,0.0007X0.1640*%
%ADD135R,0.0007X0.1667*%
%ADD136R,0.0007X0.1680*%
%ADD137R,0.0007X0.1693*%
%ADD138R,0.0007X0.1707*%
%ADD139R,0.0007X0.1714*%
%ADD140R,0.0007X0.1720*%
%ADD141R,0.0007X0.1726*%
%ADD142R,0.0007X0.1733*%
%ADD143R,0.0007X0.1733*%
%ADD144R,0.0007X0.0360*%
%ADD145R,0.0007X0.0360*%
%ADD146R,0.0007X0.0053*%
%ADD147R,0.0007X0.0093*%
%ADD148R,0.0007X0.0120*%
%ADD149R,0.0007X0.0140*%
%ADD150R,0.0007X0.0160*%
%ADD151R,0.0007X0.0173*%
%ADD152R,0.0007X0.0187*%
%ADD153R,0.0007X0.0194*%
%ADD154R,0.0007X0.0206*%
%ADD155R,0.0007X0.0213*%
%ADD156R,0.0007X0.2660*%
%ADD157R,0.0007X0.2660*%
%ADD158R,0.0007X0.2667*%
%ADD159R,0.0007X0.2667*%
%ADD160R,0.0007X0.0234*%
%ADD161R,0.0007X0.0234*%
%ADD162R,0.0007X0.0240*%
%ADD163R,0.0007X0.0274*%
%ADD164R,0.0007X0.0314*%
%ADD165R,0.0007X0.0347*%
%ADD166R,0.0007X0.0373*%
%ADD167R,0.0007X0.0406*%
%ADD168R,0.0007X0.0427*%
%ADD169R,0.0007X0.0453*%
%ADD170R,0.0007X0.0474*%
%ADD171R,0.0007X0.0747*%
%ADD172R,0.0007X0.0740*%
%ADD173R,0.0007X0.0493*%
%ADD174R,0.0007X0.0747*%
%ADD175R,0.0007X0.0740*%
%ADD176R,0.0007X0.0520*%
%ADD177R,0.0007X0.0533*%
%ADD178R,0.0007X0.0554*%
%ADD179R,0.0007X0.0573*%
%ADD180R,0.0007X0.0587*%
%ADD181R,0.0007X0.0606*%
%ADD182R,0.0007X0.0620*%
%ADD183R,0.0007X0.0634*%
%ADD184R,0.0007X0.0653*%
%ADD185R,0.0007X0.0667*%
%ADD186R,0.0007X0.0680*%
%ADD187R,0.0007X0.0693*%
%ADD188R,0.0007X0.0707*%
%ADD189R,0.0007X0.0714*%
%ADD190R,0.0007X0.0726*%
%ADD191R,0.0007X0.0754*%
%ADD192R,0.0007X0.0760*%
%ADD193R,0.0007X0.0773*%
%ADD194R,0.0007X0.0787*%
%ADD195R,0.0007X0.0794*%
%ADD196R,0.0007X0.0806*%
%ADD197R,0.0007X0.0813*%
%ADD198R,0.0007X0.0827*%
%ADD199R,0.0007X0.0834*%
%ADD200R,0.0007X0.0840*%
%ADD201R,0.0007X0.0853*%
%ADD202R,0.0007X0.0860*%
%ADD203R,0.0007X0.0867*%
%ADD204R,0.0007X0.0874*%
%ADD205R,0.0007X0.0880*%
%ADD206R,0.0007X0.0893*%
%ADD207R,0.0007X0.0900*%
%ADD208R,0.0007X0.0907*%
%ADD209R,0.0007X0.0914*%
%ADD210R,0.0007X0.0920*%
%ADD211R,0.0007X0.0926*%
%ADD212R,0.0007X0.0933*%
%ADD213R,0.0007X0.0940*%
%ADD214R,0.0007X0.0947*%
%ADD215R,0.0007X0.0954*%
%ADD216R,0.0007X0.0960*%
%ADD217R,0.0007X0.0966*%
%ADD218R,0.0007X0.0973*%
%ADD219R,0.0007X0.0980*%
%ADD220R,0.0007X0.0980*%
%ADD221R,0.0007X0.0987*%
%ADD222R,0.0007X0.0994*%
%ADD223R,0.0007X0.1000*%
%ADD224R,0.0007X0.1000*%
%ADD225R,0.0007X0.1006*%
%ADD226R,0.0007X0.1013*%
%ADD227R,0.0007X0.1020*%
%ADD228R,0.0007X0.1027*%
%ADD229R,0.0007X0.1034*%
%ADD230R,0.0007X0.1040*%
%ADD231R,0.0007X0.1040*%
%ADD232R,0.0007X0.1046*%
%ADD233R,0.0007X0.1053*%
%ADD234R,0.0007X0.1053*%
%ADD235R,0.0007X0.1060*%
%ADD236R,0.0007X0.1060*%
%ADD237R,0.0007X0.1067*%
%ADD238R,0.0007X0.1067*%
%ADD239R,0.0007X0.1074*%
%ADD240R,0.0007X0.0307*%
%ADD241R,0.0007X0.0300*%
%ADD242R,0.0007X0.1080*%
%ADD243R,0.0007X0.0307*%
%ADD244R,0.0007X0.0300*%
%ADD245R,0.0007X0.1080*%
%ADD246R,0.0007X0.1086*%
%ADD247R,0.0007X0.1086*%
%ADD248R,0.0007X0.1093*%
%ADD249R,0.0007X0.1093*%
%ADD250R,0.0007X0.1100*%
%ADD251R,0.0007X0.1100*%
%ADD252R,0.0007X0.1107*%
%ADD253R,0.0007X0.1107*%
%ADD254R,0.0007X0.1114*%
%ADD255R,0.0007X0.1114*%
%ADD256R,0.0007X0.1154*%
%ADD257R,0.0007X0.1180*%
%ADD258R,0.0007X0.1200*%
%ADD259R,0.0007X0.1213*%
%ADD260R,0.0007X0.1227*%
%ADD261R,0.0007X0.1240*%
%ADD262R,0.0007X0.1246*%
%ADD263R,0.0007X0.1253*%
%ADD264R,0.0007X0.1260*%
%ADD265R,0.0007X0.1267*%
%ADD266R,0.0007X0.1267*%
%ADD267R,0.0007X0.1260*%
%ADD268R,0.0007X0.1253*%
%ADD269R,0.0007X0.1246*%
%ADD270R,0.0007X0.1227*%
%ADD271R,0.0007X0.1213*%
%ADD272R,0.0007X0.1180*%
%ADD273R,0.0007X0.1154*%
%ADD274R,0.0007X0.0233*%
%ADD275R,0.0007X0.0233*%
%ADD276R,0.0007X0.0226*%
%ADD277R,0.0007X0.0220*%
%ADD278R,0.0007X0.0214*%
%ADD279R,0.0007X0.0220*%
%ADD280R,0.0007X0.0207*%
%ADD281R,0.0007X0.0200*%
%ADD282R,0.0007X0.0193*%
%ADD283R,0.0007X0.0180*%
%ADD284R,0.0007X0.0167*%
%ADD285R,0.0007X0.0153*%
%ADD286R,0.0007X0.0134*%
%ADD287R,0.0007X0.0113*%
%ADD288R,0.0007X0.0080*%
%ADD289R,0.0007X0.0026*%
%ADD290R,0.0007X0.0020*%
%ADD291R,0.0007X0.1720*%
%ADD292R,0.0007X0.1714*%
%ADD293R,0.0007X0.1693*%
%ADD294R,0.0007X0.1680*%
%ADD295R,0.0007X0.1660*%
%ADD296R,0.0007X0.1627*%
%ADD297R,0.0007X0.0947*%
%ADD298R,0.0007X0.0907*%
%ADD299C,0.0020*%
%ADD300R,0.7026X0.0026*%
%ADD301R,0.7026X0.0026*%
%ADD302R,0.0079X0.0026*%
%ADD303R,0.0079X0.0026*%
%ADD304R,0.0211X0.0026*%
%ADD305R,0.0184X0.0026*%
%ADD306R,0.4895X0.0026*%
%ADD307R,0.0184X0.0026*%
%ADD308R,0.0211X0.0026*%
%ADD309R,0.4868X0.0026*%
%ADD310R,0.0158X0.0026*%
%ADD311R,0.0184X0.0026*%
%ADD312R,0.4842X0.0026*%
%ADD313R,0.0131X0.0026*%
%ADD314R,0.4816X0.0026*%
%ADD315R,0.0132X0.0026*%
%ADD316R,0.4790X0.0026*%
%ADD317R,0.0132X0.0026*%
%ADD318R,0.0131X0.0026*%
%ADD319R,0.4790X0.0026*%
%ADD320R,0.4763X0.0026*%
%ADD321R,0.0105X0.0026*%
%ADD322R,0.0132X0.0026*%
%ADD323R,0.0263X0.0026*%
%ADD324R,0.0343X0.0026*%
%ADD325R,0.0447X0.0026*%
%ADD326R,0.0290X0.0026*%
%ADD327R,0.0552X0.0026*%
%ADD328R,0.0289X0.0026*%
%ADD329R,0.0842X0.0026*%
%ADD330R,0.0237X0.0026*%
%ADD331R,0.0395X0.0026*%
%ADD332R,0.0106X0.0026*%
%ADD333R,0.0210X0.0026*%
%ADD334R,0.0868X0.0026*%
%ADD335R,0.0185X0.0026*%
%ADD336R,0.0263X0.0026*%
%ADD337R,0.0237X0.0026*%
%ADD338R,0.0447X0.0026*%
%ADD339R,0.0105X0.0026*%
%ADD340R,0.0158X0.0026*%
%ADD341R,0.0395X0.0026*%
%ADD342R,0.0868X0.0026*%
%ADD343R,0.0157X0.0026*%
%ADD344R,0.0658X0.0026*%
%ADD345R,0.0895X0.0026*%
%ADD346R,0.0052X0.0026*%
%ADD347R,0.0369X0.0026*%
%ADD348R,0.0342X0.0026*%
%ADD349R,0.0921X0.0026*%
%ADD350R,0.0053X0.0026*%
%ADD351R,0.0027X0.0026*%
%ADD352R,0.0079X0.0026*%
%ADD353R,0.0106X0.0026*%
%ADD354R,0.0421X0.0026*%
%ADD355R,0.0026X0.0026*%
%ADD356R,0.0053X0.0026*%
%ADD357R,0.0079X0.0026*%
%ADD358R,0.0737X0.0026*%
%ADD359R,0.0210X0.0026*%
%ADD360R,0.0947X0.0026*%
%ADD361R,0.0394X0.0026*%
%ADD362R,0.0026X0.0026*%
%ADD363R,0.0737X0.0026*%
%ADD364R,0.0947X0.0026*%
%ADD365R,0.0368X0.0026*%
%ADD366R,0.0685X0.0026*%
%ADD367R,0.0027X0.0026*%
%ADD368R,0.0974X0.0026*%
%ADD369R,0.0474X0.0026*%
%ADD370R,0.0316X0.0026*%
%ADD371R,0.0236X0.0026*%
%ADD372R,0.0315X0.0026*%
%ADD373R,0.0237X0.0026*%
%ADD374R,0.1000X0.0026*%
%ADD375R,0.0421X0.0026*%
%ADD376R,0.0289X0.0026*%
%ADD377R,0.0184X0.0026*%
%ADD378R,0.1000X0.0026*%
%ADD379R,0.0500X0.0026*%
%ADD380R,0.1026X0.0026*%
%ADD381R,0.2263X0.0026*%
%ADD382R,0.0631X0.0026*%
%ADD383R,0.1579X0.0026*%
%ADD384R,0.4816X0.0026*%
%ADD385C,0.0080*%
%ADD386R,0.0689X0.0370*%
%ADD387C,0.0001*%
D10*
X006353Y016882D02*
X006353Y017551D01*
X007263Y017551D01*
X007263Y017469D01*
X007034Y017469D01*
X007034Y016882D01*
X006353Y016882D01*
X029336Y004277D02*
X029338Y004327D01*
X029344Y004377D01*
X029354Y004426D01*
X029368Y004474D01*
X029385Y004521D01*
X029406Y004566D01*
X029431Y004610D01*
X029459Y004651D01*
X029491Y004690D01*
X029525Y004727D01*
X029562Y004761D01*
X029602Y004791D01*
X029644Y004818D01*
X029688Y004842D01*
X029734Y004863D01*
X029781Y004879D01*
X029829Y004892D01*
X029879Y004901D01*
X029928Y004906D01*
X029979Y004907D01*
X030029Y004904D01*
X030078Y004897D01*
X030127Y004886D01*
X030175Y004871D01*
X030221Y004853D01*
X030266Y004831D01*
X030309Y004805D01*
X030350Y004776D01*
X030389Y004744D01*
X030425Y004709D01*
X030457Y004671D01*
X030487Y004631D01*
X030514Y004588D01*
X030537Y004544D01*
X030556Y004498D01*
X030572Y004450D01*
X030584Y004401D01*
X030592Y004352D01*
X030596Y004302D01*
X030596Y004252D01*
X030592Y004202D01*
X030584Y004153D01*
X030572Y004104D01*
X030556Y004056D01*
X030537Y004010D01*
X030514Y003966D01*
X030487Y003923D01*
X030457Y003883D01*
X030425Y003845D01*
X030389Y003810D01*
X030350Y003778D01*
X030309Y003749D01*
X030266Y003723D01*
X030221Y003701D01*
X030175Y003683D01*
X030127Y003668D01*
X030078Y003657D01*
X030029Y003650D01*
X029979Y003647D01*
X029928Y003648D01*
X029879Y003653D01*
X029829Y003662D01*
X029781Y003675D01*
X029734Y003691D01*
X029688Y003712D01*
X029644Y003736D01*
X029602Y003763D01*
X029562Y003793D01*
X029525Y003827D01*
X029491Y003864D01*
X029459Y003903D01*
X029431Y003944D01*
X029406Y003988D01*
X029385Y004033D01*
X029368Y004080D01*
X029354Y004128D01*
X029344Y004177D01*
X029338Y004227D01*
X029336Y004277D01*
D11*
X012844Y001991D02*
X012370Y001991D01*
X010915Y002148D02*
X010441Y002148D01*
X010678Y001912D02*
X010678Y002385D01*
X008946Y001991D02*
X008472Y001991D01*
X006978Y002070D02*
X006504Y002070D01*
X006741Y002307D02*
X006741Y001833D01*
X005009Y001991D02*
X004535Y001991D01*
X003041Y001991D02*
X002567Y001991D01*
X002804Y002228D02*
X002804Y001754D01*
D12*
X006537Y004283D02*
X006537Y004693D01*
X006401Y004693D02*
X006674Y004693D01*
X006861Y004693D02*
X006861Y004351D01*
X006929Y004283D01*
X007066Y004283D01*
X007135Y004351D01*
X007135Y004693D01*
X007321Y004625D02*
X007321Y004488D01*
X007390Y004420D01*
X007595Y004420D01*
X007595Y004283D02*
X007595Y004693D01*
X007390Y004693D01*
X007321Y004625D01*
X007782Y004693D02*
X008055Y004693D01*
X007919Y004693D02*
X007919Y004283D01*
X008242Y004351D02*
X008242Y004693D01*
X008516Y004693D02*
X008516Y004351D01*
X008447Y004283D01*
X008311Y004283D01*
X008242Y004351D01*
X008703Y004351D02*
X008703Y004625D01*
X008771Y004693D01*
X008908Y004693D01*
X008976Y004625D01*
X008976Y004351D01*
X008908Y004283D01*
X008771Y004283D01*
X008703Y004351D01*
X002323Y010592D02*
X002254Y010524D01*
X002186Y010524D01*
X002118Y010592D01*
X002118Y010729D01*
X002049Y010798D01*
X001981Y010798D01*
X001913Y010729D01*
X001913Y010592D01*
X001981Y010524D01*
X002323Y010592D02*
X002323Y010729D01*
X002254Y010798D01*
X002323Y010984D02*
X001913Y010984D01*
X001913Y011258D01*
X001913Y011445D02*
X002323Y011445D01*
X002323Y011650D01*
X002254Y011718D01*
X002118Y011718D01*
X002049Y011650D01*
X002049Y011445D01*
X002049Y011582D02*
X001913Y011718D01*
X002049Y011905D02*
X001913Y012042D01*
X002049Y012179D01*
X002323Y012179D01*
X002254Y012366D02*
X001981Y012366D01*
X001913Y012434D01*
X001913Y012571D01*
X001981Y012639D01*
X002254Y012639D01*
X002323Y012571D01*
X002323Y012434D01*
X002254Y012366D01*
X002323Y011905D02*
X002049Y011905D01*
X002323Y011258D02*
X002323Y010984D01*
X002118Y010984D02*
X002118Y011121D01*
D13*
X001857Y001160D02*
X029607Y001160D01*
X030232Y001785D01*
X030232Y002410D01*
X031107Y003285D01*
X031107Y017410D01*
X029982Y018535D01*
X029982Y021910D01*
X029357Y022535D01*
X002232Y022535D01*
X002167Y022529D01*
X002104Y022520D01*
X002041Y022506D01*
X001979Y022489D01*
X001918Y022468D01*
X001858Y022444D01*
X001800Y022415D01*
X001744Y022384D01*
X001690Y022349D01*
X001638Y022311D01*
X001589Y022270D01*
X001542Y022225D01*
X001497Y022178D01*
X001456Y022129D01*
X001418Y022077D01*
X001383Y022023D01*
X001352Y021967D01*
X001323Y021909D01*
X001299Y021849D01*
X001278Y021788D01*
X001261Y021726D01*
X001247Y021663D01*
X001238Y021600D01*
X001232Y021535D01*
X001232Y001785D01*
X001234Y001736D01*
X001240Y001687D01*
X001249Y001639D01*
X001263Y001592D01*
X001280Y001546D01*
X001300Y001501D01*
X001324Y001458D01*
X001351Y001418D01*
X001382Y001379D01*
X001415Y001343D01*
X001451Y001310D01*
X001490Y001279D01*
X001530Y001252D01*
X001573Y001228D01*
X001618Y001208D01*
X001664Y001191D01*
X001711Y001177D01*
X001759Y001168D01*
X001808Y001162D01*
X001857Y001160D01*
X006694Y005222D02*
X006801Y007590D01*
X006801Y007590D01*
X007461Y007563D01*
X007368Y007483D02*
X007355Y007170D01*
X006895Y007190D01*
X006901Y007510D01*
X006915Y007503D02*
X007368Y007483D01*
X007013Y007336D02*
X007015Y007354D01*
X007021Y007372D01*
X007030Y007388D01*
X007042Y007401D01*
X007057Y007412D01*
X007074Y007420D01*
X007092Y007424D01*
X007110Y007424D01*
X007128Y007420D01*
X007145Y007412D01*
X007160Y007401D01*
X007172Y007388D01*
X007181Y007372D01*
X007187Y007354D01*
X007189Y007336D01*
X007187Y007318D01*
X007181Y007300D01*
X007172Y007284D01*
X007160Y007271D01*
X007145Y007260D01*
X007128Y007252D01*
X007110Y007248D01*
X007092Y007248D01*
X007074Y007252D01*
X007057Y007260D01*
X007042Y007271D01*
X007030Y007284D01*
X007021Y007300D01*
X007015Y007318D01*
X007013Y007336D01*
X006875Y007076D02*
X006808Y005676D01*
X008389Y005556D01*
X008529Y007016D01*
X006875Y007076D01*
X007461Y007564D02*
X007460Y007531D01*
X007463Y007498D01*
X007469Y007465D01*
X007479Y007434D01*
X007492Y007403D01*
X007509Y007375D01*
X007528Y007348D01*
X007551Y007324D01*
X007576Y007302D01*
X007603Y007284D01*
X007633Y007269D01*
X007664Y007257D01*
X007696Y007248D01*
X007728Y007243D01*
X007761Y007242D01*
X007794Y007245D01*
X007827Y007251D01*
X007858Y007261D01*
X007889Y007274D01*
X007917Y007291D01*
X007944Y007310D01*
X007968Y007333D01*
X007990Y007358D01*
X008008Y007385D01*
X008023Y007415D01*
X008035Y007446D01*
X008044Y007478D01*
X008049Y007510D01*
X008048Y007510D02*
X008649Y007476D01*
X008489Y005082D01*
X007895Y005135D01*
X007995Y005209D02*
X008015Y005482D01*
X008415Y005435D01*
X008402Y005175D01*
X008002Y005209D01*
X008121Y005315D02*
X008123Y005330D01*
X008129Y005344D01*
X008138Y005357D01*
X008149Y005367D01*
X008163Y005373D01*
X008178Y005376D01*
X008193Y005375D01*
X008208Y005370D01*
X008221Y005362D01*
X008231Y005351D01*
X008239Y005337D01*
X008243Y005323D01*
X008243Y005307D01*
X008239Y005293D01*
X008231Y005279D01*
X008221Y005268D01*
X008208Y005260D01*
X008193Y005255D01*
X008178Y005254D01*
X008163Y005257D01*
X008149Y005263D01*
X008138Y005273D01*
X008129Y005286D01*
X008123Y005300D01*
X008121Y005315D01*
X007895Y005135D02*
X007896Y005167D01*
X007892Y005199D01*
X007885Y005230D01*
X007874Y005260D01*
X007860Y005288D01*
X007842Y005315D01*
X007822Y005339D01*
X007799Y005361D01*
X007773Y005381D01*
X007746Y005397D01*
X007716Y005409D01*
X007686Y005418D01*
X007655Y005424D01*
X007623Y005426D01*
X007591Y005424D01*
X007560Y005419D01*
X007529Y005410D01*
X007500Y005397D01*
X007472Y005381D01*
X007446Y005362D01*
X007423Y005341D01*
X007403Y005316D01*
X007385Y005290D01*
X007371Y005261D01*
X007360Y005231D01*
X007352Y005200D01*
X007349Y005169D01*
X007348Y005169D02*
X006694Y005222D01*
X006781Y005302D02*
X007268Y005255D01*
X007275Y005249D02*
X007308Y005516D01*
X006801Y005569D01*
X006781Y005302D01*
X006947Y005409D02*
X006949Y005425D01*
X006954Y005441D01*
X006963Y005455D01*
X006975Y005467D01*
X006989Y005476D01*
X007005Y005481D01*
X007021Y005483D01*
X007037Y005481D01*
X007053Y005476D01*
X007067Y005467D01*
X007079Y005455D01*
X007088Y005441D01*
X007093Y005425D01*
X007095Y005409D01*
X007093Y005393D01*
X007088Y005377D01*
X007079Y005363D01*
X007067Y005351D01*
X007053Y005342D01*
X007037Y005337D01*
X007021Y005335D01*
X007005Y005337D01*
X006989Y005342D01*
X006975Y005351D01*
X006963Y005363D01*
X006954Y005377D01*
X006949Y005393D01*
X006947Y005409D01*
X008102Y007163D02*
X008128Y007423D01*
X008115Y007436D02*
X008535Y007410D01*
X008522Y007143D01*
X008102Y007163D01*
X008234Y007283D02*
X008236Y007300D01*
X008241Y007317D01*
X008251Y007332D01*
X008263Y007345D01*
X008277Y007355D01*
X008293Y007361D01*
X008311Y007364D01*
X008328Y007363D01*
X008345Y007358D01*
X008360Y007350D01*
X008374Y007339D01*
X008384Y007325D01*
X008392Y007309D01*
X008396Y007292D01*
X008396Y007274D01*
X008392Y007257D01*
X008384Y007241D01*
X008374Y007227D01*
X008360Y007216D01*
X008345Y007208D01*
X008328Y007203D01*
X008311Y007202D01*
X008293Y007205D01*
X008277Y007211D01*
X008263Y007221D01*
X008251Y007234D01*
X008241Y007249D01*
X008236Y007266D01*
X008234Y007283D01*
X004613Y006990D02*
X003653Y006076D01*
X003666Y006089D02*
X003593Y006036D01*
X003373Y006096D02*
X004493Y007170D01*
X004427Y007250D01*
X004420Y007256D02*
X004520Y007156D01*
X003179Y005849D01*
X002905Y005962D02*
X002907Y005992D01*
X002913Y006021D01*
X002922Y006050D01*
X002935Y006077D01*
X002951Y006102D01*
X002971Y006125D01*
X002993Y006145D01*
X003018Y006162D01*
X003044Y006176D01*
X003072Y006186D01*
X003102Y006193D01*
X003131Y006196D01*
X003161Y006195D01*
X003191Y006190D01*
X003220Y006182D01*
X003247Y006169D01*
X003273Y006154D01*
X003296Y006135D01*
X003317Y006114D01*
X003335Y006090D01*
X003350Y006064D01*
X003361Y006036D01*
X003369Y006007D01*
X003373Y005977D01*
X003373Y005947D01*
X003369Y005917D01*
X003361Y005888D01*
X003350Y005860D01*
X003335Y005834D01*
X003317Y005810D01*
X003296Y005789D01*
X003273Y005770D01*
X003247Y005755D01*
X003220Y005742D01*
X003191Y005734D01*
X003161Y005729D01*
X003131Y005728D01*
X003102Y005731D01*
X003072Y005738D01*
X003044Y005748D01*
X003018Y005762D01*
X002993Y005779D01*
X002971Y005799D01*
X002951Y005822D01*
X002935Y005847D01*
X002922Y005874D01*
X002913Y005903D01*
X002907Y005932D01*
X002905Y005962D01*
X002763Y005969D02*
X002765Y006004D01*
X002771Y006038D01*
X002780Y006071D01*
X002794Y006104D01*
X002811Y006134D01*
X002831Y006162D01*
X002854Y006188D01*
X002880Y006211D01*
X002908Y006231D01*
X002938Y006248D01*
X002971Y006262D01*
X003004Y006271D01*
X003038Y006277D01*
X003073Y006279D01*
X003108Y006277D01*
X003142Y006271D01*
X003175Y006262D01*
X003208Y006248D01*
X003238Y006231D01*
X003266Y006211D01*
X003292Y006188D01*
X003315Y006162D01*
X003335Y006134D01*
X003352Y006104D01*
X003366Y006071D01*
X003375Y006038D01*
X003381Y006004D01*
X003383Y005969D01*
X003381Y005934D01*
X003375Y005900D01*
X003366Y005867D01*
X003352Y005834D01*
X003335Y005804D01*
X003315Y005776D01*
X003292Y005750D01*
X003266Y005727D01*
X003238Y005707D01*
X003208Y005690D01*
X003175Y005676D01*
X003142Y005667D01*
X003108Y005661D01*
X003073Y005659D01*
X003038Y005661D01*
X003004Y005667D01*
X002971Y005676D01*
X002938Y005690D01*
X002908Y005707D01*
X002880Y005727D01*
X002854Y005750D01*
X002831Y005776D01*
X002811Y005804D01*
X002794Y005834D01*
X002780Y005867D01*
X002771Y005900D01*
X002765Y005934D01*
X002763Y005969D01*
X002872Y005969D02*
X002874Y005998D01*
X002880Y006026D01*
X002889Y006053D01*
X002902Y006078D01*
X002918Y006102D01*
X002937Y006123D01*
X002959Y006141D01*
X002983Y006157D01*
X003009Y006169D01*
X003036Y006177D01*
X003065Y006182D01*
X003093Y006183D01*
X003122Y006180D01*
X003149Y006173D01*
X003176Y006163D01*
X003201Y006149D01*
X003224Y006132D01*
X003245Y006113D01*
X003262Y006090D01*
X003277Y006066D01*
X003288Y006039D01*
X003296Y006012D01*
X003300Y005983D01*
X003300Y005955D01*
X003296Y005926D01*
X003288Y005899D01*
X003277Y005872D01*
X003262Y005848D01*
X003245Y005825D01*
X003224Y005806D01*
X003201Y005789D01*
X003176Y005775D01*
X003149Y005765D01*
X003122Y005758D01*
X003093Y005755D01*
X003065Y005756D01*
X003036Y005761D01*
X003009Y005769D01*
X002983Y005781D01*
X002959Y005797D01*
X002937Y005815D01*
X002918Y005836D01*
X002902Y005860D01*
X002889Y005885D01*
X002880Y005912D01*
X002874Y005940D01*
X002872Y005969D01*
X002897Y005962D02*
X002899Y005989D01*
X002905Y006015D01*
X002914Y006041D01*
X002927Y006064D01*
X002943Y006086D01*
X002962Y006105D01*
X002984Y006121D01*
X003007Y006134D01*
X003033Y006143D01*
X003059Y006149D01*
X003086Y006151D01*
X003113Y006149D01*
X003139Y006143D01*
X003165Y006134D01*
X003188Y006121D01*
X003210Y006105D01*
X003229Y006086D01*
X003245Y006064D01*
X003258Y006041D01*
X003267Y006015D01*
X003273Y005989D01*
X003275Y005962D01*
X003273Y005935D01*
X003267Y005909D01*
X003258Y005883D01*
X003245Y005860D01*
X003229Y005838D01*
X003210Y005819D01*
X003188Y005803D01*
X003165Y005790D01*
X003139Y005781D01*
X003113Y005775D01*
X003086Y005773D01*
X003059Y005775D01*
X003033Y005781D01*
X003007Y005790D01*
X002984Y005803D01*
X002962Y005819D01*
X002943Y005838D01*
X002927Y005860D01*
X002914Y005883D01*
X002905Y005909D01*
X002899Y005935D01*
X002897Y005962D01*
X003033Y005956D02*
X003035Y005970D01*
X003041Y005984D01*
X003050Y005995D01*
X003062Y006003D01*
X003075Y006008D01*
X003090Y006009D01*
X003104Y006006D01*
X003117Y005999D01*
X003127Y005989D01*
X003135Y005977D01*
X003139Y005963D01*
X003139Y005949D01*
X003135Y005935D01*
X003127Y005923D01*
X003117Y005913D01*
X003104Y005906D01*
X003090Y005903D01*
X003075Y005904D01*
X003062Y005909D01*
X003050Y005917D01*
X003041Y005928D01*
X003035Y005942D01*
X003033Y005956D01*
X003066Y005949D02*
X003068Y005957D01*
X003073Y005964D01*
X003080Y005968D01*
X003088Y005969D01*
X003096Y005966D01*
X003102Y005961D01*
X003106Y005953D01*
X003106Y005945D01*
X003102Y005937D01*
X003096Y005932D01*
X003088Y005929D01*
X003080Y005930D01*
X003073Y005934D01*
X003068Y005941D01*
X003066Y005949D01*
X003013Y005956D02*
X003015Y005973D01*
X003020Y005990D01*
X003029Y006004D01*
X003041Y006017D01*
X003056Y006027D01*
X003072Y006033D01*
X003089Y006036D01*
X003106Y006035D01*
X003123Y006030D01*
X003138Y006022D01*
X003151Y006011D01*
X003162Y005997D01*
X003169Y005982D01*
X003173Y005965D01*
X003173Y005947D01*
X003169Y005930D01*
X003162Y005915D01*
X003151Y005901D01*
X003138Y005890D01*
X003123Y005882D01*
X003106Y005877D01*
X003089Y005876D01*
X003072Y005879D01*
X003056Y005885D01*
X003041Y005895D01*
X003029Y005908D01*
X003020Y005922D01*
X003015Y005939D01*
X003013Y005956D01*
X002980Y005956D02*
X002982Y005977D01*
X002988Y005997D01*
X002997Y006015D01*
X003009Y006032D01*
X003025Y006046D01*
X003043Y006057D01*
X003062Y006065D01*
X003083Y006069D01*
X003103Y006069D01*
X003124Y006065D01*
X003143Y006057D01*
X003161Y006046D01*
X003177Y006032D01*
X003189Y006015D01*
X003198Y005997D01*
X003204Y005977D01*
X003206Y005956D01*
X003204Y005935D01*
X003198Y005915D01*
X003189Y005897D01*
X003177Y005880D01*
X003161Y005866D01*
X003143Y005855D01*
X003124Y005847D01*
X003103Y005843D01*
X003083Y005843D01*
X003062Y005847D01*
X003043Y005855D01*
X003025Y005866D01*
X003009Y005880D01*
X002997Y005897D01*
X002988Y005915D01*
X002982Y005935D01*
X002980Y005956D01*
X002959Y005956D02*
X002961Y005979D01*
X002967Y006001D01*
X002976Y006021D01*
X002989Y006040D01*
X003004Y006057D01*
X003023Y006070D01*
X003043Y006080D01*
X003065Y006087D01*
X003087Y006090D01*
X003110Y006089D01*
X003132Y006084D01*
X003153Y006076D01*
X003173Y006064D01*
X003190Y006049D01*
X003204Y006031D01*
X003215Y006011D01*
X003223Y005990D01*
X003227Y005967D01*
X003227Y005945D01*
X003223Y005922D01*
X003215Y005901D01*
X003204Y005881D01*
X003190Y005863D01*
X003173Y005848D01*
X003153Y005836D01*
X003132Y005828D01*
X003110Y005823D01*
X003087Y005822D01*
X003065Y005825D01*
X003043Y005832D01*
X003023Y005842D01*
X003004Y005855D01*
X002989Y005872D01*
X002976Y005891D01*
X002967Y005911D01*
X002961Y005933D01*
X002959Y005956D01*
X002939Y005956D02*
X002941Y005980D01*
X002947Y006004D01*
X002956Y006026D01*
X002968Y006047D01*
X002984Y006065D01*
X003002Y006081D01*
X003023Y006093D01*
X003045Y006102D01*
X003069Y006108D01*
X003093Y006110D01*
X003117Y006108D01*
X003141Y006102D01*
X003163Y006093D01*
X003184Y006081D01*
X003202Y006065D01*
X003218Y006047D01*
X003230Y006026D01*
X003239Y006004D01*
X003245Y005980D01*
X003247Y005956D01*
X003245Y005932D01*
X003239Y005908D01*
X003230Y005886D01*
X003218Y005865D01*
X003202Y005847D01*
X003184Y005831D01*
X003163Y005819D01*
X003141Y005810D01*
X003117Y005804D01*
X003093Y005802D01*
X003069Y005804D01*
X003045Y005810D01*
X003023Y005819D01*
X003002Y005831D01*
X002984Y005847D01*
X002968Y005865D01*
X002956Y005886D01*
X002947Y005908D01*
X002941Y005932D01*
X002939Y005956D01*
X002864Y005949D02*
X002866Y005979D01*
X002872Y006009D01*
X002881Y006037D01*
X002894Y006064D01*
X002911Y006090D01*
X002930Y006112D01*
X002952Y006133D01*
X002977Y006150D01*
X003004Y006164D01*
X003032Y006174D01*
X003061Y006181D01*
X003091Y006184D01*
X003122Y006183D01*
X003151Y006178D01*
X003180Y006170D01*
X003208Y006157D01*
X003233Y006142D01*
X003257Y006123D01*
X003278Y006101D01*
X003296Y006077D01*
X003311Y006051D01*
X003322Y006023D01*
X003330Y005994D01*
X003334Y005964D01*
X003334Y005934D01*
X003330Y005904D01*
X003322Y005875D01*
X003311Y005847D01*
X003296Y005821D01*
X003278Y005797D01*
X003257Y005775D01*
X003233Y005756D01*
X003208Y005741D01*
X003180Y005728D01*
X003151Y005720D01*
X003122Y005715D01*
X003091Y005714D01*
X003061Y005717D01*
X003032Y005724D01*
X003004Y005734D01*
X002977Y005748D01*
X002952Y005765D01*
X002930Y005786D01*
X002911Y005808D01*
X002894Y005834D01*
X002881Y005861D01*
X002872Y005889D01*
X002866Y005919D01*
X002864Y005949D01*
X002839Y005976D02*
X002841Y006008D01*
X002847Y006039D01*
X002857Y006070D01*
X002870Y006099D01*
X002887Y006126D01*
X002907Y006151D01*
X002930Y006173D01*
X002955Y006193D01*
X002983Y006209D01*
X003013Y006221D01*
X003043Y006230D01*
X003075Y006235D01*
X003107Y006236D01*
X003139Y006233D01*
X003170Y006226D01*
X003200Y006215D01*
X003229Y006201D01*
X003256Y006183D01*
X003280Y006163D01*
X003302Y006139D01*
X003320Y006113D01*
X003335Y006085D01*
X003347Y006055D01*
X003355Y006024D01*
X003359Y005992D01*
X003359Y005960D01*
X003355Y005928D01*
X003347Y005897D01*
X003335Y005867D01*
X003320Y005839D01*
X003302Y005813D01*
X003280Y005789D01*
X003256Y005769D01*
X003229Y005751D01*
X003200Y005737D01*
X003170Y005726D01*
X003139Y005719D01*
X003107Y005716D01*
X003075Y005717D01*
X003043Y005722D01*
X003013Y005731D01*
X002983Y005743D01*
X002955Y005759D01*
X002930Y005779D01*
X002907Y005801D01*
X002887Y005826D01*
X002870Y005853D01*
X002857Y005882D01*
X002847Y005913D01*
X002841Y005944D01*
X002839Y005976D01*
X002796Y005982D02*
X002798Y006017D01*
X002804Y006051D01*
X002814Y006084D01*
X002827Y006116D01*
X002844Y006146D01*
X002864Y006174D01*
X002888Y006199D01*
X002914Y006222D01*
X002943Y006241D01*
X002973Y006258D01*
X003005Y006270D01*
X003039Y006279D01*
X003073Y006284D01*
X003108Y006285D01*
X003142Y006282D01*
X003176Y006275D01*
X003209Y006264D01*
X003240Y006250D01*
X003270Y006232D01*
X003297Y006211D01*
X003322Y006187D01*
X003344Y006160D01*
X003363Y006131D01*
X003378Y006100D01*
X003390Y006067D01*
X003398Y006034D01*
X003402Y005999D01*
X003402Y005965D01*
X003398Y005930D01*
X003390Y005897D01*
X003378Y005864D01*
X003363Y005833D01*
X003344Y005804D01*
X003322Y005777D01*
X003297Y005753D01*
X003270Y005732D01*
X003240Y005714D01*
X003209Y005700D01*
X003176Y005689D01*
X003142Y005682D01*
X003108Y005679D01*
X003073Y005680D01*
X003039Y005685D01*
X003005Y005694D01*
X002973Y005706D01*
X002943Y005723D01*
X002914Y005742D01*
X002888Y005765D01*
X002864Y005790D01*
X002844Y005818D01*
X002827Y005848D01*
X002814Y005880D01*
X002804Y005913D01*
X002798Y005947D01*
X002796Y005982D01*
X002863Y005989D02*
X002865Y006019D01*
X002871Y006049D01*
X002880Y006078D01*
X002893Y006105D01*
X002910Y006130D01*
X002929Y006153D01*
X002952Y006174D01*
X002977Y006191D01*
X003003Y006205D01*
X003032Y006215D01*
X003061Y006222D01*
X003091Y006225D01*
X003122Y006224D01*
X003152Y006219D01*
X003181Y006210D01*
X003208Y006198D01*
X003234Y006183D01*
X003258Y006164D01*
X003279Y006142D01*
X003297Y006118D01*
X003312Y006091D01*
X003323Y006063D01*
X003331Y006034D01*
X003335Y006004D01*
X003335Y005974D01*
X003331Y005944D01*
X003323Y005915D01*
X003312Y005887D01*
X003297Y005860D01*
X003279Y005836D01*
X003258Y005814D01*
X003234Y005795D01*
X003208Y005780D01*
X003181Y005768D01*
X003152Y005759D01*
X003122Y005754D01*
X003091Y005753D01*
X003061Y005756D01*
X003032Y005763D01*
X003003Y005773D01*
X002977Y005787D01*
X002952Y005804D01*
X002929Y005825D01*
X002910Y005848D01*
X002893Y005873D01*
X002880Y005900D01*
X002871Y005929D01*
X002865Y005959D01*
X002863Y005989D01*
X002751Y005969D02*
X002753Y006006D01*
X002759Y006043D01*
X002768Y006079D01*
X002782Y006113D01*
X002799Y006146D01*
X002819Y006178D01*
X002842Y006207D01*
X002868Y006233D01*
X002897Y006256D01*
X002928Y006276D01*
X002962Y006293D01*
X002996Y006307D01*
X003032Y006316D01*
X003069Y006322D01*
X003106Y006324D01*
X003143Y006322D01*
X003180Y006316D01*
X003216Y006307D01*
X003250Y006293D01*
X003283Y006276D01*
X003315Y006256D01*
X003344Y006233D01*
X003370Y006207D01*
X003393Y006178D01*
X003413Y006147D01*
X003430Y006113D01*
X003444Y006079D01*
X003453Y006043D01*
X003459Y006006D01*
X003461Y005969D01*
X003459Y005932D01*
X003453Y005895D01*
X003444Y005859D01*
X003430Y005825D01*
X003413Y005792D01*
X003393Y005760D01*
X003370Y005731D01*
X003344Y005705D01*
X003315Y005682D01*
X003284Y005662D01*
X003250Y005645D01*
X003216Y005631D01*
X003180Y005622D01*
X003143Y005616D01*
X003106Y005614D01*
X003069Y005616D01*
X003032Y005622D01*
X002996Y005631D01*
X002962Y005645D01*
X002929Y005662D01*
X002897Y005682D01*
X002868Y005705D01*
X002842Y005731D01*
X002819Y005760D01*
X002799Y005791D01*
X002782Y005825D01*
X002768Y005859D01*
X002759Y005895D01*
X002753Y005932D01*
X002751Y005969D01*
X002932Y005969D02*
X002934Y005995D01*
X002940Y006021D01*
X002949Y006046D01*
X002962Y006069D01*
X002978Y006090D01*
X002997Y006108D01*
X003019Y006124D01*
X003042Y006136D01*
X003067Y006144D01*
X003093Y006149D01*
X003120Y006150D01*
X003146Y006147D01*
X003171Y006140D01*
X003196Y006130D01*
X003218Y006116D01*
X003239Y006099D01*
X003256Y006080D01*
X003271Y006058D01*
X003282Y006034D01*
X003290Y006008D01*
X003294Y005982D01*
X003294Y005956D01*
X003290Y005930D01*
X003282Y005904D01*
X003271Y005880D01*
X003256Y005858D01*
X003239Y005839D01*
X003218Y005822D01*
X003196Y005808D01*
X003171Y005798D01*
X003146Y005791D01*
X003120Y005788D01*
X003093Y005789D01*
X003067Y005794D01*
X003042Y005802D01*
X003019Y005814D01*
X002997Y005830D01*
X002978Y005848D01*
X002962Y005869D01*
X002949Y005892D01*
X002940Y005917D01*
X002934Y005943D01*
X002932Y005969D01*
X002819Y005969D02*
X002821Y006003D01*
X002827Y006037D01*
X002837Y006070D01*
X002850Y006101D01*
X002867Y006131D01*
X002888Y006158D01*
X002911Y006183D01*
X002937Y006205D01*
X002966Y006224D01*
X002997Y006239D01*
X003029Y006251D01*
X003062Y006259D01*
X003096Y006263D01*
X003130Y006263D01*
X003164Y006259D01*
X003197Y006251D01*
X003229Y006239D01*
X003260Y006224D01*
X003289Y006205D01*
X003315Y006183D01*
X003338Y006158D01*
X003359Y006131D01*
X003376Y006101D01*
X003389Y006070D01*
X003399Y006037D01*
X003405Y006003D01*
X003407Y005969D01*
X003405Y005935D01*
X003399Y005901D01*
X003389Y005868D01*
X003376Y005837D01*
X003359Y005807D01*
X003338Y005780D01*
X003315Y005755D01*
X003289Y005733D01*
X003260Y005714D01*
X003229Y005699D01*
X003197Y005687D01*
X003164Y005679D01*
X003130Y005675D01*
X003096Y005675D01*
X003062Y005679D01*
X003029Y005687D01*
X002997Y005699D01*
X002966Y005714D01*
X002937Y005733D01*
X002911Y005755D01*
X002888Y005780D01*
X002867Y005807D01*
X002850Y005837D01*
X002837Y005868D01*
X002827Y005901D01*
X002821Y005935D01*
X002819Y005969D01*
X002789Y005969D02*
X002791Y006005D01*
X002797Y006040D01*
X002807Y006074D01*
X002820Y006107D01*
X002837Y006139D01*
X002857Y006168D01*
X002881Y006195D01*
X002907Y006219D01*
X002936Y006240D01*
X002967Y006258D01*
X002999Y006272D01*
X003033Y006283D01*
X003068Y006290D01*
X003104Y006293D01*
X003140Y006292D01*
X003175Y006287D01*
X003210Y006278D01*
X003243Y006266D01*
X003275Y006250D01*
X003305Y006230D01*
X003332Y006207D01*
X003357Y006182D01*
X003379Y006154D01*
X003398Y006123D01*
X003413Y006091D01*
X003425Y006057D01*
X003433Y006022D01*
X003437Y005987D01*
X003437Y005951D01*
X003433Y005916D01*
X003425Y005881D01*
X003413Y005847D01*
X003398Y005815D01*
X003379Y005784D01*
X003357Y005756D01*
X003332Y005731D01*
X003305Y005708D01*
X003275Y005688D01*
X003243Y005672D01*
X003210Y005660D01*
X003175Y005651D01*
X003140Y005646D01*
X003104Y005645D01*
X003068Y005648D01*
X003033Y005655D01*
X002999Y005666D01*
X002967Y005680D01*
X002936Y005698D01*
X002907Y005719D01*
X002881Y005743D01*
X002857Y005770D01*
X002837Y005799D01*
X002820Y005831D01*
X002807Y005864D01*
X002797Y005898D01*
X002791Y005933D01*
X002789Y005969D01*
X003226Y006443D02*
X003184Y006450D01*
X003142Y006454D01*
X003099Y006453D01*
X003057Y006449D01*
X003015Y006441D01*
X002974Y006430D01*
X002935Y006414D01*
X002897Y006396D01*
X002860Y006373D01*
X002826Y006348D01*
X002794Y006320D01*
X002765Y006289D01*
X002739Y006255D01*
X002716Y006220D01*
X002696Y006182D01*
X002680Y006143D01*
X002668Y006102D01*
X002659Y006061D01*
X002653Y006018D01*
X002652Y005976D01*
X002655Y005933D01*
X002661Y005891D01*
X002671Y005850D01*
X002685Y005810D01*
X002702Y005771D01*
X002722Y005734D01*
X002746Y005699D01*
X002773Y005666D01*
X002803Y005636D01*
X002836Y005608D01*
X002871Y005584D01*
X002907Y005563D01*
X002946Y005545D01*
X002986Y005531D01*
X003027Y005520D01*
X003069Y005513D01*
X003112Y005510D01*
X003154Y005511D01*
X003196Y005516D01*
X003238Y005524D01*
X003279Y005536D01*
X003318Y005552D01*
X003356Y005571D01*
X003392Y005594D01*
X003426Y005619D01*
X003457Y005648D01*
X003486Y005679D01*
X003512Y005713D01*
X003535Y005749D01*
X003554Y005787D01*
X003570Y005826D01*
X003582Y005867D01*
X003590Y005909D01*
X003595Y005951D01*
X003596Y005994D01*
X003593Y006036D01*
X003373Y006142D02*
X004487Y007176D01*
X004467Y007203D01*
X003333Y006169D01*
X003373Y006142D01*
X003379Y006163D02*
X003786Y006563D01*
X003653Y006683D02*
X003593Y006756D01*
X003466Y006629D02*
X003533Y006563D01*
X003399Y006449D02*
X003319Y006523D01*
X003226Y006436D02*
X004267Y007363D01*
X004407Y007276D02*
X003293Y006256D01*
X003326Y006236D02*
X004413Y007250D01*
X004480Y007183D01*
X004607Y006983D02*
X004629Y007004D01*
X004648Y007028D01*
X004665Y007053D01*
X004678Y007081D01*
X004688Y007110D01*
X004694Y007140D01*
X004697Y007170D01*
X004696Y007200D01*
X004691Y007231D01*
X004683Y007260D01*
X004671Y007288D01*
X004656Y007315D01*
X004638Y007339D01*
X004618Y007362D01*
X004594Y007381D01*
X004569Y007398D01*
X004541Y007411D01*
X004512Y007421D01*
X004483Y007428D01*
X004452Y007431D01*
X004422Y007430D01*
X004392Y007426D01*
X004362Y007418D01*
X004334Y007406D01*
X004307Y007392D01*
X004282Y007374D01*
X004260Y007353D01*
X004240Y007330D01*
X004093Y007203D02*
X004153Y007150D01*
X004033Y007030D02*
X003960Y007096D01*
X003860Y007003D02*
X003920Y006930D01*
X003793Y006809D02*
X003726Y006876D01*
X004427Y007216D02*
X003306Y006176D01*
X003966Y006303D02*
X004247Y006303D01*
X004353Y006176D01*
X004347Y006176D02*
X004240Y006049D01*
X003966Y006049D01*
X004380Y006183D02*
X004382Y006189D01*
X004386Y006194D01*
X004393Y006196D01*
X004399Y006194D01*
X004404Y006190D01*
X004406Y006183D01*
X004404Y006177D01*
X004400Y006172D01*
X004393Y006170D01*
X004387Y006172D01*
X004382Y006176D01*
X004380Y006183D01*
X004363Y006189D02*
X004365Y006199D01*
X004370Y006208D01*
X004378Y006215D01*
X004388Y006219D01*
X004398Y006219D01*
X004408Y006215D01*
X004416Y006208D01*
X004421Y006199D01*
X004423Y006189D01*
X004421Y006179D01*
X004416Y006170D01*
X004408Y006163D01*
X004398Y006159D01*
X004388Y006159D01*
X004378Y006163D01*
X004370Y006170D01*
X004365Y006179D01*
X004363Y006189D01*
X004340Y006189D02*
X004342Y006204D01*
X004347Y006218D01*
X004356Y006230D01*
X004368Y006240D01*
X004381Y006246D01*
X004396Y006249D01*
X004411Y006248D01*
X004426Y006243D01*
X004438Y006235D01*
X004449Y006224D01*
X004456Y006211D01*
X004460Y006197D01*
X004460Y006181D01*
X004456Y006167D01*
X004449Y006154D01*
X004438Y006143D01*
X004426Y006135D01*
X004411Y006130D01*
X004396Y006129D01*
X004381Y006132D01*
X004368Y006138D01*
X004356Y006148D01*
X004347Y006160D01*
X004342Y006174D01*
X004340Y006189D01*
D14*
X003996Y010405D02*
X003866Y010405D01*
X003823Y010448D01*
X003823Y010622D01*
X003866Y010665D01*
X003996Y010665D01*
X003996Y010405D01*
X003702Y010448D02*
X003658Y010405D01*
X003572Y010405D01*
X003528Y010448D01*
X003528Y010492D01*
X003572Y010535D01*
X003702Y010535D01*
X003702Y010448D01*
X003702Y010535D02*
X003615Y010622D01*
X003528Y010665D01*
X003615Y011405D02*
X003528Y011492D01*
X003528Y011665D01*
X003702Y011665D02*
X003702Y011492D01*
X003615Y011405D01*
X003823Y011448D02*
X003866Y011405D01*
X003953Y011405D01*
X003996Y011448D01*
X003996Y011535D02*
X003910Y011578D01*
X003866Y011578D01*
X003823Y011535D01*
X003823Y011448D01*
X003996Y011535D02*
X003996Y011665D01*
X003823Y011665D01*
X003801Y012405D02*
X003801Y012665D01*
X003679Y012665D02*
X003549Y012665D01*
X003506Y012622D01*
X003506Y012448D01*
X003549Y012405D01*
X003679Y012405D01*
X003679Y012665D01*
X003801Y012405D02*
X003974Y012665D01*
X003974Y012405D01*
X004095Y012448D02*
X004139Y012405D01*
X004225Y012405D01*
X004269Y012448D01*
X004269Y012622D01*
X004225Y012665D01*
X004139Y012665D01*
X004095Y012622D01*
X004095Y012535D02*
X004182Y012535D01*
X004095Y012535D02*
X004095Y012448D01*
X012256Y012280D02*
X012429Y012280D01*
X012343Y012280D02*
X012343Y012540D01*
X012429Y012453D01*
X012551Y012280D02*
X012724Y012280D01*
X012637Y012280D02*
X012637Y012540D01*
X012724Y012453D01*
X012845Y012497D02*
X012889Y012540D01*
X013019Y012540D01*
X013019Y012280D01*
X012889Y012280D01*
X012845Y012323D01*
X012845Y012497D01*
X012889Y013280D02*
X012845Y013323D01*
X012845Y013497D01*
X012889Y013540D01*
X013019Y013540D01*
X013019Y013280D01*
X012889Y013280D01*
X012724Y013280D02*
X012551Y013280D01*
X012637Y013280D02*
X012637Y013540D01*
X012724Y013453D01*
X012429Y013497D02*
X012386Y013540D01*
X012299Y013540D01*
X012256Y013497D01*
X012256Y013453D01*
X012429Y013280D01*
X012256Y013280D01*
X012299Y014280D02*
X012386Y014280D01*
X012429Y014323D01*
X012343Y014410D02*
X012299Y014410D01*
X012256Y014367D01*
X012256Y014323D01*
X012299Y014280D01*
X012299Y014410D02*
X012256Y014453D01*
X012256Y014497D01*
X012299Y014540D01*
X012386Y014540D01*
X012429Y014497D01*
X012637Y014540D02*
X012637Y014280D01*
X012551Y014280D02*
X012724Y014280D01*
X012845Y014323D02*
X012889Y014280D01*
X013019Y014280D01*
X013019Y014540D01*
X012889Y014540D01*
X012845Y014497D01*
X012845Y014323D01*
X012724Y014453D02*
X012637Y014540D01*
X012637Y011540D02*
X012637Y011280D01*
X012551Y011280D02*
X012724Y011280D01*
X012845Y011323D02*
X012845Y011497D01*
X012889Y011540D01*
X013019Y011540D01*
X013019Y011280D01*
X012889Y011280D01*
X012845Y011323D01*
X012724Y011453D02*
X012637Y011540D01*
X012429Y011497D02*
X012386Y011540D01*
X012299Y011540D01*
X012256Y011497D01*
X012429Y011323D01*
X012386Y011280D01*
X012299Y011280D01*
X012256Y011323D01*
X012256Y011497D01*
X012429Y011497D02*
X012429Y011323D01*
X012572Y010540D02*
X012658Y010540D01*
X012702Y010497D01*
X012702Y010453D01*
X012658Y010410D01*
X012528Y010410D01*
X012528Y010323D02*
X012528Y010497D01*
X012572Y010540D01*
X012528Y010323D02*
X012572Y010280D01*
X012658Y010280D01*
X012702Y010323D01*
X012823Y010323D02*
X012823Y010497D01*
X012866Y010540D01*
X012996Y010540D01*
X012996Y010280D01*
X012866Y010280D01*
X012823Y010323D01*
X012866Y009540D02*
X012996Y009540D01*
X012996Y009280D01*
X012866Y009280D01*
X012823Y009323D01*
X012823Y009497D01*
X012866Y009540D01*
X012702Y009497D02*
X012702Y009453D01*
X012658Y009410D01*
X012572Y009410D01*
X012528Y009367D01*
X012528Y009323D01*
X012572Y009280D01*
X012658Y009280D01*
X012702Y009323D01*
X012702Y009367D01*
X012658Y009410D01*
X012572Y009410D02*
X012528Y009453D01*
X012528Y009497D01*
X012572Y009540D01*
X012658Y009540D01*
X012702Y009497D01*
X016977Y013578D02*
X017237Y013578D01*
X017237Y013665D01*
X017237Y013775D02*
X016977Y013775D01*
X016977Y013948D01*
X016977Y014069D02*
X017237Y014243D01*
X017237Y014364D02*
X017237Y014451D01*
X017237Y014407D02*
X016977Y014407D01*
X016977Y014364D02*
X016977Y014451D01*
X016977Y014647D02*
X017237Y014647D01*
X017237Y014561D02*
X017237Y014734D01*
X017237Y014855D02*
X017237Y014942D01*
X016977Y014942D01*
X016977Y014855D01*
X016977Y014243D02*
X017237Y014069D01*
X017237Y013948D02*
X017237Y013775D01*
X017107Y013775D02*
X017107Y013862D01*
X016977Y013665D02*
X016977Y013578D01*
X021977Y013366D02*
X021977Y013279D01*
X021977Y013366D02*
X022237Y013366D01*
X022237Y013279D01*
X022237Y013158D02*
X021977Y013158D01*
X022237Y012985D01*
X021977Y012985D01*
X021977Y012863D02*
X022237Y012863D01*
X022237Y012690D02*
X021977Y012690D01*
X022063Y012777D01*
X021977Y012863D01*
X022020Y012569D02*
X022194Y012569D01*
X022237Y012525D01*
X022237Y012439D01*
X022194Y012395D01*
X022020Y012395D01*
X021977Y012439D01*
X021977Y012525D01*
X022020Y012569D01*
X022020Y012274D02*
X022194Y012274D01*
X022237Y012231D01*
X022237Y012101D01*
X021977Y012101D01*
X021977Y012231D01*
X022020Y012274D01*
X021977Y011991D02*
X021977Y011904D01*
X022237Y011904D01*
X022237Y011991D01*
X025620Y010049D02*
X025750Y010049D01*
X025793Y010006D01*
X025750Y009963D01*
X025663Y009963D01*
X025620Y009919D01*
X025663Y009876D01*
X025793Y009876D01*
X025914Y009876D02*
X025914Y010006D01*
X025958Y010049D01*
X026088Y010049D01*
X026088Y009876D01*
X026209Y009919D02*
X026209Y010006D01*
X026252Y010049D01*
X026339Y010049D01*
X026383Y010006D01*
X026383Y009919D01*
X026339Y009876D01*
X026252Y009876D01*
X026209Y009919D01*
X026131Y009704D02*
X026131Y009444D01*
X026261Y009444D01*
X026304Y009487D01*
X026304Y009574D01*
X026261Y009617D01*
X026131Y009617D01*
X026010Y009574D02*
X025966Y009617D01*
X025879Y009617D01*
X025836Y009574D01*
X025836Y009531D01*
X026010Y009531D01*
X026010Y009574D02*
X026010Y009487D01*
X025966Y009444D01*
X025879Y009444D01*
X025715Y009444D02*
X025715Y009617D01*
X025715Y009531D02*
X025628Y009617D01*
X025585Y009617D01*
X026425Y009574D02*
X026469Y009617D01*
X026556Y009617D01*
X026599Y009574D01*
X026599Y009487D01*
X026556Y009444D01*
X026469Y009444D01*
X026425Y009487D01*
X026425Y009574D01*
X026720Y009617D02*
X026850Y009617D01*
X026894Y009574D01*
X026894Y009487D01*
X026850Y009444D01*
X026720Y009444D01*
X026771Y009251D02*
X026771Y008991D01*
X026901Y008991D01*
X026945Y009034D01*
X026945Y009121D01*
X026901Y009164D01*
X026771Y009164D01*
X027066Y009121D02*
X027066Y008991D01*
X027196Y008991D01*
X027239Y009034D01*
X027196Y009077D01*
X027066Y009077D01*
X027066Y009121D02*
X027109Y009164D01*
X027196Y009164D01*
X027360Y009121D02*
X027360Y009077D01*
X027534Y009077D01*
X027534Y009034D02*
X027534Y009121D01*
X027490Y009164D01*
X027404Y009164D01*
X027360Y009121D01*
X027404Y008991D02*
X027490Y008991D01*
X027534Y009034D01*
X027644Y008991D02*
X027687Y009034D01*
X027687Y009208D01*
X027730Y009164D02*
X027644Y009164D01*
X027851Y009164D02*
X027982Y009164D01*
X028025Y009121D01*
X027982Y009077D01*
X027895Y009077D01*
X027851Y009034D01*
X027895Y008991D01*
X028025Y008991D01*
X028146Y008991D02*
X028146Y009121D01*
X028189Y009164D01*
X028320Y009164D01*
X028320Y008991D01*
X028429Y008991D02*
X028516Y008991D01*
X028473Y008991D02*
X028473Y009164D01*
X028516Y009164D01*
X028473Y009251D02*
X028473Y009294D01*
X028439Y009444D02*
X028569Y009444D01*
X028612Y009487D01*
X028612Y009574D01*
X028569Y009617D01*
X028439Y009617D01*
X028439Y009704D02*
X028439Y009444D01*
X028318Y009487D02*
X028318Y009574D01*
X028274Y009617D01*
X028188Y009617D01*
X028144Y009574D01*
X028144Y009531D01*
X028318Y009531D01*
X028318Y009487D02*
X028274Y009444D01*
X028188Y009444D01*
X028023Y009444D02*
X028023Y009617D01*
X028023Y009531D02*
X027936Y009617D01*
X027893Y009617D01*
X027911Y009876D02*
X027954Y009919D01*
X027954Y010006D01*
X027911Y010049D01*
X027824Y010049D01*
X027781Y010006D01*
X027781Y009963D01*
X027954Y009963D01*
X027911Y009876D02*
X027824Y009876D01*
X028069Y009876D02*
X028200Y009963D01*
X028069Y010049D01*
X028200Y010136D02*
X028200Y009876D01*
X028309Y009876D02*
X028396Y009876D01*
X028353Y009876D02*
X028353Y010049D01*
X028396Y010049D01*
X028353Y010136D02*
X028353Y010179D01*
X028377Y010356D02*
X028421Y010399D01*
X028421Y010486D01*
X028377Y010529D01*
X028290Y010529D01*
X028247Y010486D01*
X028247Y010399D01*
X028290Y010356D01*
X028377Y010356D01*
X028542Y010356D02*
X028542Y010486D01*
X028585Y010529D01*
X028672Y010529D01*
X028715Y010486D01*
X028825Y010529D02*
X028912Y010529D01*
X028868Y010573D02*
X028868Y010399D01*
X028825Y010356D01*
X028715Y010356D02*
X028715Y010616D01*
X028813Y010749D02*
X028813Y011009D01*
X028683Y011009D01*
X028640Y010966D01*
X028640Y010879D01*
X028683Y010836D01*
X028813Y010836D01*
X028935Y010879D02*
X028935Y011053D01*
X028978Y011096D01*
X029065Y011096D01*
X029108Y011053D01*
X029108Y010879D01*
X029065Y010836D01*
X028978Y010836D01*
X028935Y010879D01*
X028519Y011009D02*
X028432Y011009D01*
X028475Y011053D02*
X028475Y010879D01*
X028432Y010836D01*
X028322Y010836D02*
X028236Y010836D01*
X028279Y010836D02*
X028279Y011009D01*
X028322Y011009D01*
X028279Y011096D02*
X028279Y011139D01*
X028126Y010966D02*
X028126Y010879D01*
X028083Y010836D01*
X027996Y010836D01*
X027952Y010879D01*
X027952Y010966D01*
X027996Y011009D01*
X028083Y011009D01*
X028126Y010966D01*
X027831Y011009D02*
X027701Y011009D01*
X027658Y010966D01*
X027658Y010836D01*
X027537Y010879D02*
X027493Y010923D01*
X027363Y010923D01*
X027363Y010966D02*
X027363Y010836D01*
X027493Y010836D01*
X027537Y010879D01*
X027493Y011009D02*
X027407Y011009D01*
X027363Y010966D01*
X027242Y011096D02*
X027199Y011096D01*
X027199Y010836D01*
X027242Y010836D02*
X027155Y010836D01*
X027046Y010836D02*
X027046Y010879D01*
X027002Y010879D01*
X027002Y010836D01*
X027046Y010836D01*
X027046Y010966D02*
X027046Y011009D01*
X027002Y011009D01*
X027002Y010966D01*
X027046Y010966D01*
X027046Y010616D02*
X027046Y010356D01*
X027155Y010356D02*
X027199Y010399D01*
X027199Y010573D01*
X027242Y010529D02*
X027155Y010529D01*
X027046Y010486D02*
X027002Y010529D01*
X026915Y010529D01*
X026872Y010486D01*
X026872Y010356D01*
X026751Y010399D02*
X026708Y010443D01*
X026577Y010443D01*
X026577Y010486D02*
X026577Y010356D01*
X026708Y010356D01*
X026751Y010399D01*
X026708Y010529D02*
X026621Y010529D01*
X026577Y010486D01*
X026456Y010529D02*
X026369Y010529D01*
X026413Y010573D02*
X026413Y010399D01*
X026369Y010356D01*
X026536Y010093D02*
X026536Y009919D01*
X026492Y009876D01*
X026492Y010049D02*
X026579Y010049D01*
X026689Y010049D02*
X026775Y010049D01*
X026732Y010093D02*
X026732Y009919D01*
X026689Y009876D01*
X026897Y009876D02*
X026897Y010049D01*
X027070Y010049D02*
X027070Y009919D01*
X027027Y009876D01*
X026897Y009876D01*
X027191Y009919D02*
X027191Y010006D01*
X027235Y010049D01*
X027365Y010049D01*
X027365Y010136D02*
X027365Y009876D01*
X027235Y009876D01*
X027191Y009919D01*
X027188Y009617D02*
X027058Y009617D01*
X027015Y009574D01*
X027015Y009444D01*
X027188Y009444D02*
X027188Y009617D01*
X027309Y009574D02*
X027309Y009531D01*
X027483Y009531D01*
X027483Y009574D02*
X027439Y009617D01*
X027353Y009617D01*
X027309Y009574D01*
X027353Y009444D02*
X027439Y009444D01*
X027483Y009487D01*
X027483Y009574D01*
X028506Y009876D02*
X028592Y009876D01*
X028549Y009876D02*
X028549Y010136D01*
X028592Y010136D01*
X028714Y010049D02*
X028844Y010049D01*
X028887Y010006D01*
X028844Y009963D01*
X028757Y009963D01*
X028714Y009919D01*
X028757Y009876D01*
X028887Y009876D01*
X028997Y009876D02*
X029084Y009876D01*
X029040Y009876D02*
X029040Y010049D01*
X029084Y010049D01*
X029040Y010136D02*
X029040Y010179D01*
X029205Y010136D02*
X029205Y009876D01*
X029335Y009876D01*
X029378Y009919D01*
X029378Y010006D01*
X029335Y010049D01*
X029205Y010049D01*
X029268Y009704D02*
X029225Y009661D01*
X029268Y009704D02*
X029355Y009704D01*
X029398Y009661D01*
X029398Y009617D01*
X029355Y009574D01*
X029268Y009574D01*
X029225Y009531D01*
X029225Y009487D01*
X029268Y009444D01*
X029355Y009444D01*
X029398Y009487D01*
X029103Y009487D02*
X029060Y009444D01*
X028973Y009444D01*
X028930Y009487D01*
X028930Y009574D01*
X028973Y009617D01*
X029060Y009617D01*
X029103Y009574D01*
X029103Y009487D01*
X028809Y009444D02*
X028722Y009444D01*
X028765Y009444D02*
X028765Y009704D01*
X028809Y009704D01*
X028126Y010356D02*
X027996Y010356D01*
X027952Y010399D01*
X027996Y010443D01*
X028083Y010443D01*
X028126Y010486D01*
X028083Y010529D01*
X027952Y010529D01*
X027831Y010486D02*
X027788Y010529D01*
X027701Y010529D01*
X027658Y010486D01*
X027658Y010443D01*
X027831Y010443D01*
X027831Y010486D02*
X027831Y010399D01*
X027788Y010356D01*
X027701Y010356D01*
X027831Y010836D02*
X027831Y011009D01*
X026604Y010966D02*
X026517Y010966D01*
X026604Y010836D02*
X026604Y011096D01*
X026430Y011096D01*
X026309Y010966D02*
X026309Y010879D01*
X026266Y010836D01*
X026179Y010836D01*
X026135Y010879D01*
X026135Y010966D01*
X026179Y011009D01*
X026266Y011009D01*
X026309Y010966D01*
X026014Y011009D02*
X026014Y010836D01*
X026014Y010923D02*
X025928Y011009D01*
X025884Y011009D01*
X022237Y015007D02*
X021977Y015007D01*
X021977Y015094D01*
X021977Y015203D02*
X021977Y015377D01*
X021977Y015498D02*
X022237Y015498D01*
X021977Y015672D01*
X022237Y015672D01*
X022237Y015793D02*
X022237Y015966D01*
X022237Y015879D02*
X021977Y015879D01*
X021977Y016087D02*
X021977Y016261D01*
X021977Y016382D02*
X022237Y016382D01*
X022237Y016512D01*
X022194Y016555D01*
X022107Y016555D01*
X022063Y016512D01*
X022063Y016382D01*
X022063Y016469D02*
X021977Y016555D01*
X021977Y016677D02*
X021977Y016763D01*
X022237Y016763D01*
X022237Y016677D01*
X022237Y016261D02*
X022237Y016087D01*
X021977Y016087D01*
X022107Y016087D02*
X022107Y016174D01*
X022237Y015377D02*
X022237Y015203D01*
X021977Y015203D01*
X022107Y015203D02*
X022107Y015290D01*
X022237Y015094D02*
X022237Y015007D01*
X022237Y018699D02*
X021977Y018699D01*
X021977Y018786D01*
X022020Y018895D02*
X021977Y018939D01*
X021977Y019025D01*
X022020Y019069D01*
X022237Y019069D01*
X022237Y019190D02*
X022237Y019320D01*
X022194Y019363D01*
X022107Y019363D01*
X022063Y019320D01*
X022063Y019190D01*
X021977Y019190D02*
X022237Y019190D01*
X022237Y018895D02*
X022020Y018895D01*
X022237Y018786D02*
X022237Y018699D01*
X022237Y019485D02*
X022237Y019571D01*
X021977Y019571D01*
X021977Y019485D01*
X012561Y020905D02*
X012431Y020905D01*
X012388Y020948D01*
X012388Y021122D01*
X012431Y021165D01*
X012561Y021165D01*
X012561Y020905D01*
X012267Y020948D02*
X012223Y020905D01*
X012136Y020905D01*
X012093Y020948D01*
X012093Y021035D01*
X012136Y021078D01*
X012223Y021078D01*
X012267Y021035D01*
X012267Y020948D01*
X012257Y021405D02*
X012300Y021448D01*
X012300Y021535D01*
X012257Y021578D01*
X012170Y021578D01*
X012127Y021535D01*
X012127Y021448D01*
X012170Y021405D01*
X012257Y021405D01*
X012421Y021448D02*
X012421Y021622D01*
X012465Y021665D01*
X012595Y021665D01*
X012595Y021405D01*
X012465Y021405D01*
X012421Y021448D01*
X012438Y021905D02*
X012394Y021948D01*
X012394Y022122D01*
X012438Y022165D01*
X012568Y022165D01*
X012568Y021905D01*
X012438Y021905D01*
X012273Y021948D02*
X012230Y021992D01*
X012100Y021992D01*
X012100Y022035D02*
X012100Y021905D01*
X012230Y021905D01*
X012273Y021948D01*
X012230Y022078D02*
X012143Y022078D01*
X012100Y022035D01*
X011979Y022078D02*
X011849Y022078D01*
X011805Y022035D01*
X011805Y021905D01*
X011684Y021948D02*
X011641Y021905D01*
X011510Y021905D01*
X011510Y021862D02*
X011510Y022078D01*
X011641Y022078D01*
X011684Y022035D01*
X011684Y021948D01*
X011597Y021818D02*
X011554Y021818D01*
X011510Y021862D01*
X011389Y021948D02*
X011389Y022035D01*
X011346Y022078D01*
X011259Y022078D01*
X011216Y022035D01*
X011216Y021992D01*
X011389Y021992D01*
X011389Y021948D02*
X011346Y021905D01*
X011259Y021905D01*
X011095Y021905D02*
X011095Y022078D01*
X011095Y021992D02*
X011008Y022078D01*
X010965Y022078D01*
X010849Y022078D02*
X010849Y022035D01*
X010806Y022035D01*
X010806Y022078D01*
X010849Y022078D01*
X010849Y021948D02*
X010849Y021905D01*
X010806Y021905D01*
X010806Y021948D01*
X010849Y021948D01*
X010630Y021665D02*
X010587Y021665D01*
X010587Y021405D01*
X010630Y021405D02*
X010544Y021405D01*
X010434Y021448D02*
X010434Y021535D01*
X010391Y021578D01*
X010304Y021578D01*
X010260Y021535D01*
X010260Y021492D01*
X010434Y021492D01*
X010434Y021448D02*
X010391Y021405D01*
X010304Y021405D01*
X010139Y021448D02*
X010096Y021492D01*
X009966Y021492D01*
X009966Y021535D02*
X009966Y021405D01*
X010096Y021405D01*
X010139Y021448D01*
X010096Y021578D02*
X010009Y021578D01*
X009966Y021535D01*
X009845Y021578D02*
X009758Y021405D01*
X009671Y021578D01*
X009550Y021535D02*
X009507Y021578D01*
X009420Y021578D01*
X009376Y021535D01*
X009376Y021492D01*
X009550Y021492D01*
X009550Y021535D02*
X009550Y021448D01*
X009507Y021405D01*
X009420Y021405D01*
X008961Y021448D02*
X008961Y021578D01*
X008961Y021448D02*
X008917Y021405D01*
X008787Y021405D01*
X008787Y021578D01*
X008666Y021578D02*
X008666Y021405D01*
X008666Y021578D02*
X008536Y021578D01*
X008492Y021535D01*
X008492Y021405D01*
X008371Y021448D02*
X008328Y021492D01*
X008198Y021492D01*
X008198Y021535D02*
X008198Y021405D01*
X008328Y021405D01*
X008371Y021448D01*
X008328Y021578D02*
X008241Y021578D01*
X008198Y021535D01*
X008077Y021578D02*
X007990Y021578D01*
X008033Y021622D02*
X008033Y021448D01*
X007990Y021405D01*
X007837Y021448D02*
X007793Y021405D01*
X007837Y021448D02*
X007837Y021622D01*
X007880Y021578D02*
X007793Y021578D01*
X007684Y021535D02*
X007640Y021578D01*
X007554Y021578D01*
X007510Y021535D01*
X007510Y021492D01*
X007684Y021492D01*
X007684Y021535D02*
X007684Y021448D01*
X007640Y021405D01*
X007554Y021405D01*
X007389Y021405D02*
X007389Y021578D01*
X007259Y021578D01*
X007216Y021535D01*
X007216Y021405D01*
X007051Y021448D02*
X007051Y021622D01*
X007094Y021578D02*
X007008Y021578D01*
X006898Y021535D02*
X006855Y021578D01*
X006768Y021578D01*
X006725Y021535D01*
X006725Y021492D01*
X006898Y021492D01*
X006898Y021535D02*
X006898Y021448D01*
X006855Y021405D01*
X006768Y021405D01*
X006603Y021448D02*
X006603Y021535D01*
X006560Y021578D01*
X006430Y021578D01*
X006430Y021665D02*
X006430Y021405D01*
X006560Y021405D01*
X006603Y021448D01*
X006827Y021165D02*
X006870Y021122D01*
X006870Y020905D01*
X006827Y021035D02*
X006914Y021035D01*
X006717Y021035D02*
X006717Y020948D01*
X006674Y020905D01*
X006587Y020905D01*
X006544Y020948D01*
X006544Y021035D01*
X006587Y021078D01*
X006674Y021078D01*
X006717Y021035D01*
X006423Y021035D02*
X006423Y020948D01*
X006379Y020905D01*
X006293Y020905D01*
X006249Y020948D01*
X006249Y021035D01*
X006293Y021078D01*
X006379Y021078D01*
X006423Y021035D01*
X006128Y021035D02*
X006085Y021078D01*
X005955Y021078D01*
X005955Y021165D02*
X005955Y020905D01*
X006085Y020905D01*
X006128Y020948D01*
X006128Y021035D01*
X005539Y021078D02*
X005539Y020818D01*
X005539Y020905D02*
X005409Y020905D01*
X005365Y020948D01*
X005365Y021035D01*
X005409Y021078D01*
X005539Y021078D01*
X005244Y021078D02*
X005244Y020905D01*
X005244Y020992D02*
X005157Y021078D01*
X005114Y021078D01*
X004999Y021035D02*
X004955Y021078D01*
X004868Y021078D01*
X004825Y021035D01*
X004825Y020992D01*
X004999Y020992D01*
X004999Y021035D02*
X004999Y020948D01*
X004955Y020905D01*
X004868Y020905D01*
X004704Y020905D02*
X004574Y020905D01*
X004530Y020948D01*
X004530Y021035D01*
X004574Y021078D01*
X004704Y021078D01*
X004704Y020818D01*
X004409Y020948D02*
X004366Y020992D01*
X004236Y020992D01*
X004236Y021035D02*
X004236Y020905D01*
X004366Y020905D01*
X004409Y020948D01*
X004366Y021078D02*
X004279Y021078D01*
X004236Y021035D01*
X004115Y020992D02*
X004028Y021078D01*
X003984Y021078D01*
X004115Y021078D02*
X004115Y020905D01*
X003869Y020948D02*
X003826Y020992D01*
X003696Y020992D01*
X003696Y021035D02*
X003696Y020905D01*
X003826Y020905D01*
X003869Y020948D01*
X003826Y021078D02*
X003739Y021078D01*
X003696Y021035D01*
X003574Y021078D02*
X003488Y021078D01*
X003531Y021122D02*
X003531Y020948D01*
X003488Y020905D01*
X003378Y020905D02*
X003291Y020905D01*
X003335Y020905D02*
X003335Y021078D01*
X003378Y021078D01*
X003335Y021165D02*
X003335Y021209D01*
X003181Y021035D02*
X003181Y020948D01*
X003138Y020905D01*
X003051Y020905D01*
X003008Y020948D01*
X003008Y021035D01*
X003051Y021078D01*
X003138Y021078D01*
X003181Y021035D01*
X002887Y021078D02*
X002757Y021078D01*
X002713Y021035D01*
X002713Y020905D01*
X002887Y020905D02*
X002887Y021078D01*
X003451Y021905D02*
X003581Y021992D01*
X003451Y022078D01*
X003581Y022165D02*
X003581Y021905D01*
X003702Y021948D02*
X003746Y021992D01*
X003832Y021992D01*
X003876Y022035D01*
X003832Y022078D01*
X003702Y022078D01*
X003702Y021948D02*
X003746Y021905D01*
X003876Y021905D01*
X003985Y021905D02*
X004072Y021905D01*
X004029Y021905D02*
X004029Y022078D01*
X004072Y022078D01*
X004029Y022165D02*
X004029Y022209D01*
X004193Y022122D02*
X004193Y022035D01*
X004237Y021992D01*
X004367Y021992D01*
X004280Y021992D02*
X004193Y021905D01*
X004367Y021905D02*
X004367Y022165D01*
X004237Y022165D01*
X004193Y022122D01*
X004783Y022035D02*
X004783Y021992D01*
X004956Y021992D01*
X004956Y022035D02*
X004913Y022078D01*
X004826Y022078D01*
X004783Y022035D01*
X004826Y021905D02*
X004913Y021905D01*
X004956Y021948D01*
X004956Y022035D01*
X005072Y022078D02*
X005115Y022078D01*
X005202Y021992D01*
X005202Y022078D02*
X005202Y021905D01*
X005311Y021905D02*
X005398Y021905D01*
X005355Y021905D02*
X005355Y022078D01*
X005398Y022078D01*
X005355Y022165D02*
X005355Y022209D01*
X005519Y022165D02*
X005693Y022165D01*
X005693Y021905D01*
X005693Y022035D02*
X005606Y022035D01*
X006109Y022078D02*
X006239Y022078D01*
X006282Y022035D01*
X006282Y021948D01*
X006239Y021905D01*
X006109Y021905D01*
X006109Y022165D01*
X006403Y022035D02*
X006403Y021905D01*
X006403Y022035D02*
X006447Y022078D01*
X006577Y022078D01*
X006577Y021905D01*
X006698Y021905D02*
X006828Y021905D01*
X006871Y021948D01*
X006828Y021992D01*
X006698Y021992D01*
X006698Y022035D02*
X006698Y021905D01*
X006698Y022035D02*
X006741Y022078D01*
X006828Y022078D01*
X007287Y022035D02*
X007287Y021992D01*
X007461Y021992D01*
X007461Y022035D02*
X007417Y022078D01*
X007331Y022078D01*
X007287Y022035D01*
X007331Y021905D02*
X007417Y021905D01*
X007461Y021948D01*
X007461Y022035D01*
X007582Y022078D02*
X007712Y022078D01*
X007755Y022035D01*
X007755Y021948D01*
X007712Y021905D01*
X007582Y021905D01*
X007582Y021862D02*
X007582Y022078D01*
X007582Y021862D02*
X007625Y021818D01*
X007669Y021818D01*
X007876Y021905D02*
X008007Y021905D01*
X008050Y021948D01*
X008007Y021992D01*
X007876Y021992D01*
X007876Y022035D02*
X007876Y021905D01*
X007876Y022035D02*
X007920Y022078D01*
X008007Y022078D01*
X008160Y022078D02*
X008246Y022078D01*
X008203Y022122D02*
X008203Y021948D01*
X008160Y021905D01*
X008356Y021905D02*
X008443Y021905D01*
X008399Y021905D02*
X008399Y022165D01*
X008443Y022165D01*
X008564Y022035D02*
X008607Y022078D01*
X008694Y022078D01*
X008737Y022035D01*
X008737Y021948D01*
X008694Y021905D01*
X008607Y021905D01*
X008564Y021948D01*
X008564Y022035D01*
X008859Y021992D02*
X008859Y022165D01*
X009032Y022165D02*
X009032Y021992D01*
X008945Y021905D01*
X008859Y021992D01*
X009448Y022035D02*
X009621Y022035D01*
X009743Y022035D02*
X009829Y022035D01*
X009743Y022035D02*
X009743Y021948D01*
X009786Y021905D01*
X009873Y021905D01*
X009916Y021948D01*
X009916Y022122D01*
X009873Y022165D01*
X009786Y022165D01*
X009743Y022122D01*
X009621Y022165D02*
X009621Y021905D01*
X009448Y021905D02*
X009448Y022165D01*
X010026Y022165D02*
X010112Y022165D01*
X010069Y022165D02*
X010069Y021905D01*
X010112Y021905D02*
X010026Y021905D01*
X010234Y021905D02*
X010234Y022165D01*
X010234Y022035D02*
X010407Y022035D01*
X010407Y021905D02*
X010407Y022165D01*
X011035Y021578D02*
X011121Y021578D01*
X011078Y021622D02*
X011078Y021448D01*
X011035Y021405D01*
X011243Y021448D02*
X011243Y021535D01*
X011286Y021578D01*
X011373Y021578D01*
X011416Y021535D01*
X011416Y021448D01*
X011373Y021405D01*
X011286Y021405D01*
X011243Y021448D01*
X011537Y021405D02*
X011537Y021535D01*
X011581Y021578D01*
X011711Y021578D01*
X011711Y021405D01*
X011677Y021078D02*
X011547Y021078D01*
X011504Y021035D01*
X011504Y020905D01*
X011383Y020948D02*
X011339Y020905D01*
X011253Y020905D01*
X011209Y020948D01*
X011209Y021035D01*
X011253Y021078D01*
X011339Y021078D01*
X011383Y021035D01*
X011383Y020948D01*
X011677Y020905D02*
X011677Y021078D01*
X011088Y021078D02*
X011001Y021078D01*
X011045Y021122D02*
X011045Y020948D01*
X011001Y020905D01*
X010597Y020948D02*
X010554Y020905D01*
X010423Y020905D01*
X010423Y021078D01*
X010302Y021035D02*
X010259Y021078D01*
X010129Y021078D01*
X010172Y020992D02*
X010259Y020992D01*
X010302Y021035D01*
X010302Y020905D02*
X010172Y020905D01*
X010129Y020948D01*
X010172Y020992D01*
X010008Y020992D02*
X009834Y020992D01*
X009834Y021035D01*
X009877Y021078D01*
X009964Y021078D01*
X010008Y021035D01*
X010008Y020948D01*
X009964Y020905D01*
X009877Y020905D01*
X009418Y020948D02*
X009375Y020905D01*
X009288Y020905D01*
X009245Y020948D01*
X009245Y021035D01*
X009288Y021078D01*
X009375Y021078D01*
X009418Y021035D01*
X009418Y020948D01*
X009124Y021078D02*
X009037Y020905D01*
X008950Y021078D01*
X008829Y021035D02*
X008786Y021078D01*
X008699Y021078D01*
X008656Y021035D01*
X008656Y020992D01*
X008829Y020992D01*
X008829Y021035D02*
X008829Y020948D01*
X008786Y020905D01*
X008699Y020905D01*
X008534Y020905D02*
X008534Y021078D01*
X008404Y021078D01*
X008361Y021035D01*
X008361Y020905D01*
X007945Y021035D02*
X007858Y021035D01*
X007902Y021122D02*
X007902Y020905D01*
X007749Y020948D02*
X007705Y020905D01*
X007618Y020905D01*
X007575Y020948D01*
X007575Y021035D01*
X007618Y021078D01*
X007705Y021078D01*
X007749Y021035D01*
X007749Y020948D01*
X007902Y021122D02*
X007858Y021165D01*
X007454Y021078D02*
X007454Y020905D01*
X007454Y020992D02*
X007367Y021078D01*
X007324Y021078D01*
X007008Y021405D02*
X007051Y021448D01*
X010597Y021078D02*
X010597Y020948D01*
X011979Y021905D02*
X011979Y022078D01*
D15*
X019232Y014410D02*
X020107Y014410D01*
D16*
X021857Y014910D02*
X021857Y013785D01*
X017482Y013785D01*
X017482Y014910D01*
X021857Y014910D01*
X022482Y015410D02*
X025232Y015410D01*
X025232Y015035D01*
X025232Y015410D02*
X026857Y015410D01*
X026857Y016535D01*
X025232Y016535D01*
X025232Y016910D01*
X029982Y016910D01*
X029982Y015160D01*
X029982Y013785D02*
X029982Y011785D01*
X029107Y011785D01*
X028107Y011785D02*
X027107Y011785D01*
X026857Y012160D02*
X022482Y012160D01*
X022482Y013285D01*
X026857Y013285D01*
X026857Y012160D01*
X026107Y011785D02*
X025232Y011785D01*
X025232Y012035D01*
X025107Y012785D02*
X024232Y012785D01*
X025232Y013410D02*
X025232Y013785D01*
X022482Y015410D02*
X022482Y016535D01*
X025232Y016535D01*
X025107Y016035D02*
X024232Y016035D01*
X022482Y018660D02*
X022482Y019660D01*
X026857Y019660D01*
X026857Y018660D01*
X022482Y018660D01*
X024232Y019160D02*
X025107Y019160D01*
D17*
X021632Y011560D03*
X021512Y011600D03*
X021672Y011080D03*
X022112Y010360D03*
X022032Y010240D03*
X022232Y010240D03*
X023152Y010320D03*
X023312Y010600D03*
X023432Y010520D03*
X023472Y010480D03*
X023592Y010400D03*
X023392Y010040D03*
X023672Y009960D03*
X023872Y009880D03*
X023952Y009800D03*
X024352Y009840D03*
X024192Y010440D03*
X024672Y010960D03*
X022832Y011000D03*
X022712Y011040D03*
X020352Y010000D03*
X021752Y008880D03*
X019992Y007680D03*
X019632Y007560D03*
X019312Y007400D03*
X018952Y006840D03*
X018552Y006480D03*
X018112Y006320D03*
X017992Y006280D03*
X018192Y006040D03*
X016352Y005800D03*
X015592Y005280D03*
X015432Y005360D03*
X015312Y005400D03*
X014952Y005640D03*
X017672Y008600D03*
X017832Y008520D03*
X017952Y008480D03*
X018072Y008920D03*
X017992Y008960D03*
X017872Y009000D03*
X017432Y008720D03*
X017352Y008760D03*
X017232Y008800D03*
X017112Y008840D03*
X016632Y009560D03*
X015432Y008960D03*
X015272Y009040D03*
X014672Y009040D03*
X017472Y010800D03*
X017792Y010760D03*
X017992Y010800D03*
X019072Y008440D03*
X019032Y008320D03*
X019072Y008240D03*
X018872Y008320D03*
X019272Y008120D03*
X019312Y008080D03*
X020712Y007280D03*
X020992Y007160D03*
X021072Y007120D03*
X021192Y006800D03*
X021152Y006400D03*
X021432Y006040D03*
X022072Y006400D03*
X022112Y006680D03*
X022032Y006840D03*
X021952Y006760D03*
X021792Y006840D03*
X022272Y006880D03*
X022312Y006840D03*
X022392Y006720D03*
X022432Y006680D03*
X022592Y006480D03*
X022712Y006320D03*
X022432Y006320D03*
X023192Y005720D03*
X023032Y005440D03*
X022952Y005360D03*
X023192Y004880D03*
X023272Y004680D03*
X023432Y004720D03*
X023112Y004640D03*
X022992Y004600D03*
X022832Y004560D03*
X022872Y004240D03*
X023552Y004440D03*
X023712Y004480D03*
X023792Y004200D03*
X023672Y004160D03*
X022912Y003360D03*
X022312Y005040D03*
X022192Y005000D03*
X024232Y008360D03*
X024072Y008720D03*
X023952Y008760D03*
X023912Y009000D03*
D18*
X023092Y009040D03*
X022852Y009040D03*
X023092Y010040D03*
X023852Y010200D03*
X024252Y009800D03*
X023372Y010560D03*
X023252Y010640D03*
X022892Y010840D03*
X023372Y011440D03*
X024732Y010920D03*
X021332Y011160D03*
X019852Y010960D03*
X019452Y011040D03*
X018172Y010840D03*
X017572Y010720D03*
X017572Y009800D03*
X017132Y008760D03*
X017012Y008800D03*
X016892Y008880D03*
X016772Y008840D03*
X017332Y008640D03*
X017732Y008560D03*
X018412Y008680D03*
X018492Y008640D03*
X018572Y008600D03*
X019212Y008520D03*
X019372Y007640D03*
X019372Y007600D03*
X019692Y007400D03*
X020252Y007720D03*
X020532Y007360D03*
X020612Y007320D03*
X020812Y007240D03*
X020892Y007200D03*
X021692Y006880D03*
X022052Y006720D03*
X021092Y006480D03*
X021972Y005440D03*
X022132Y005360D03*
X022892Y006040D03*
X023572Y004760D03*
X023732Y004800D03*
X023972Y004880D03*
X024292Y004640D03*
X022892Y003400D03*
X017892Y005360D03*
X017772Y006240D03*
X017532Y006280D03*
X016732Y006400D03*
X016572Y005800D03*
X014372Y006120D03*
X014252Y008960D03*
X014972Y009160D03*
X013252Y010000D03*
X013332Y010200D03*
X013772Y010840D03*
X018972Y007360D03*
D19*
X018992Y007560D03*
X018952Y007600D03*
X018952Y007680D03*
X018952Y007720D03*
X018752Y007400D03*
X018632Y007400D03*
X018472Y007640D03*
X018512Y007680D03*
X018512Y007720D03*
X018512Y007760D03*
X018552Y007800D03*
X018552Y007840D03*
X018552Y008320D03*
X018552Y008400D03*
X018472Y008440D03*
X018432Y008400D03*
X018672Y008400D03*
X018872Y008440D03*
X018992Y008360D03*
X019152Y008400D03*
X019312Y008560D03*
X019352Y008600D03*
X019392Y008680D03*
X019392Y008720D03*
X019352Y008920D03*
X019152Y008800D03*
X019072Y008760D03*
X019032Y009120D03*
X018912Y009200D03*
X018872Y009240D03*
X018832Y009280D03*
X018792Y009320D03*
X018632Y009480D03*
X018592Y009520D03*
X018552Y009560D03*
X018552Y009600D03*
X018512Y009640D03*
X018392Y009720D03*
X018352Y009760D03*
X018312Y009800D03*
X018272Y009640D03*
X018232Y009600D03*
X018432Y009440D03*
X018472Y009480D03*
X018312Y009320D03*
X018592Y009080D03*
X018592Y009040D03*
X018632Y009000D03*
X018672Y008960D03*
X018712Y008920D03*
X018632Y009120D03*
X018352Y008760D03*
X018272Y008800D03*
X018192Y008840D03*
X018152Y008880D03*
X018032Y009000D03*
X017592Y008640D03*
X017512Y008680D03*
X017392Y008680D03*
X017192Y008720D03*
X017072Y008880D03*
X016952Y008840D03*
X016832Y008800D03*
X016872Y008960D03*
X016792Y009000D03*
X016712Y009040D03*
X016512Y009120D03*
X016432Y009160D03*
X016352Y009200D03*
X016232Y009160D03*
X016152Y009280D03*
X016072Y009320D03*
X016472Y009680D03*
X016512Y009720D03*
X015592Y010040D03*
X015232Y010200D03*
X014872Y010360D03*
X014432Y010560D03*
X014352Y010600D03*
X013992Y010760D03*
X013912Y010800D03*
X013712Y010880D03*
X013592Y010880D03*
X013672Y010760D03*
X013672Y010720D03*
X013632Y010680D03*
X013592Y010640D03*
X013592Y010600D03*
X013552Y010560D03*
X013552Y010520D03*
X013512Y010480D03*
X013512Y010440D03*
X013472Y010400D03*
X013432Y010320D03*
X013432Y010280D03*
X013312Y010280D03*
X013232Y010160D03*
X013192Y010040D03*
X013352Y010040D03*
X013352Y010080D03*
X013312Y009920D03*
X013552Y009920D03*
X013632Y009880D03*
X013752Y009720D03*
X014112Y009560D03*
X014192Y009520D03*
X014472Y009400D03*
X014752Y009280D03*
X014832Y009240D03*
X015112Y009120D03*
X015192Y009080D03*
X014512Y008960D03*
X013992Y008760D03*
X013912Y008720D03*
X013872Y008680D03*
X013832Y008600D03*
X013792Y008560D03*
X014072Y008400D03*
X014112Y008480D03*
X014152Y008520D03*
X014192Y008640D03*
X015192Y008240D03*
X015392Y008400D03*
X015392Y007800D03*
X015152Y006840D03*
X015192Y006800D03*
X015232Y006760D03*
X015272Y006720D03*
X015352Y006680D03*
X015432Y006640D03*
X016152Y006520D03*
X015392Y005920D03*
X015312Y005960D03*
X015232Y006000D03*
X015192Y006040D03*
X014832Y005720D03*
X014712Y005800D03*
X014672Y005840D03*
X014632Y005880D03*
X014592Y005920D03*
X014552Y005960D03*
X014512Y006000D03*
X014112Y006200D03*
X015032Y005560D03*
X015072Y005520D03*
X015152Y005480D03*
X017752Y005720D03*
X017872Y005840D03*
X017992Y005880D03*
X018112Y005960D03*
X017952Y006040D03*
X017952Y006080D03*
X017952Y006120D03*
X017952Y006160D03*
X017952Y006200D03*
X017952Y006240D03*
X017952Y006320D03*
X017912Y006400D03*
X017912Y006440D03*
X017912Y006480D03*
X017912Y006520D03*
X017912Y006560D03*
X017912Y006600D03*
X017912Y006640D03*
X017912Y006680D03*
X017912Y006720D03*
X017912Y006760D03*
X017912Y006800D03*
X017912Y006840D03*
X017952Y006880D03*
X017952Y006920D03*
X018232Y006480D03*
X018192Y006440D03*
X018152Y006400D03*
X018432Y006440D03*
X018552Y006360D03*
X018552Y006320D03*
X018592Y006240D03*
X018592Y006200D03*
X018592Y006160D03*
X018592Y006120D03*
X018552Y006080D03*
X018552Y006040D03*
X018552Y006000D03*
X018512Y005920D03*
X018472Y005880D03*
X018472Y005840D03*
X018432Y005800D03*
X018392Y005760D03*
X018352Y005720D03*
X018312Y005680D03*
X018272Y005640D03*
X018232Y005600D03*
X018152Y005520D03*
X017992Y005480D03*
X017992Y005440D03*
X018312Y006080D03*
X018352Y006120D03*
X018392Y006160D03*
X018432Y006200D03*
X018472Y006240D03*
X018592Y006440D03*
X018752Y006600D03*
X018832Y006640D03*
X019032Y006920D03*
X019072Y007040D03*
X019352Y007720D03*
X019392Y007840D03*
X019392Y007880D03*
X019672Y007880D03*
X019672Y007800D03*
X019752Y007960D03*
X019872Y007920D03*
X019912Y007800D03*
X019832Y007600D03*
X019832Y007560D03*
X019992Y007560D03*
X020312Y007640D03*
X020152Y007160D03*
X020112Y007120D03*
X020072Y007080D03*
X019952Y007120D03*
X019872Y007160D03*
X019832Y007200D03*
X019832Y007240D03*
X019592Y007600D03*
X019672Y008200D03*
X019632Y008240D03*
X019552Y008280D03*
X019312Y008200D03*
X019312Y008160D03*
X019192Y008160D03*
X020592Y007080D03*
X020952Y006920D03*
X020952Y006720D03*
X021192Y006600D03*
X021232Y006520D03*
X021272Y006480D03*
X021312Y006440D03*
X021392Y006480D03*
X021472Y006400D03*
X021512Y006320D03*
X021592Y006240D03*
X021592Y006200D03*
X021632Y006160D03*
X021552Y006120D03*
X021552Y006080D03*
X021592Y006040D03*
X021592Y005920D03*
X021512Y005880D03*
X021712Y005960D03*
X021712Y006080D03*
X021832Y006120D03*
X021832Y006000D03*
X021952Y006160D03*
X022112Y006200D03*
X022232Y006240D03*
X022232Y006080D03*
X022352Y006120D03*
X022472Y005960D03*
X022592Y006000D03*
X022592Y006040D03*
X022712Y006040D03*
X022712Y006000D03*
X022872Y005960D03*
X022952Y005920D03*
X023072Y006000D03*
X023112Y006040D03*
X023152Y006080D03*
X023192Y006120D03*
X023232Y006160D03*
X023312Y006120D03*
X023352Y006160D03*
X023392Y006120D03*
X023472Y006160D03*
X023552Y006080D03*
X023632Y006000D03*
X023672Y006080D03*
X023752Y006120D03*
X023792Y005960D03*
X023872Y006000D03*
X023912Y005920D03*
X023872Y005840D03*
X024032Y005800D03*
X024112Y005720D03*
X024192Y005600D03*
X024152Y005520D03*
X024232Y005440D03*
X024272Y005480D03*
X024392Y005400D03*
X024312Y005320D03*
X024392Y005240D03*
X024472Y005280D03*
X024272Y005080D03*
X024232Y005120D03*
X024072Y005160D03*
X024112Y005240D03*
X024032Y005240D03*
X024072Y005320D03*
X024032Y005360D03*
X024072Y005440D03*
X024152Y005360D03*
X023952Y005440D03*
X023992Y005560D03*
X023912Y005640D03*
X023792Y005640D03*
X023672Y005600D03*
X023632Y005640D03*
X023592Y005680D03*
X023552Y005760D03*
X023512Y005800D03*
X023472Y005840D03*
X023432Y005880D03*
X023352Y005800D03*
X023392Y005760D03*
X023432Y005720D03*
X023512Y005600D03*
X023352Y005440D03*
X023272Y005560D03*
X023112Y005760D03*
X023112Y005920D03*
X023152Y005960D03*
X023192Y006000D03*
X023232Y006040D03*
X023272Y006080D03*
X023272Y006240D03*
X023312Y006280D03*
X023392Y006240D03*
X023352Y006360D03*
X023272Y006400D03*
X023232Y006480D03*
X023312Y006520D03*
X023392Y006560D03*
X023472Y006520D03*
X023472Y006440D03*
X023512Y006600D03*
X023552Y006640D03*
X023512Y006720D03*
X023472Y006680D03*
X023432Y006640D03*
X023552Y006800D03*
X023232Y006600D03*
X023152Y006560D03*
X023072Y006640D03*
X023032Y006560D03*
X023032Y006520D03*
X022992Y006600D03*
X022952Y006640D03*
X022872Y006760D03*
X022872Y006920D03*
X022752Y006920D03*
X023072Y006800D03*
X023152Y006720D03*
X022712Y006400D03*
X022712Y006360D03*
X022792Y006240D03*
X022672Y006200D03*
X022592Y006520D03*
X022512Y006520D03*
X022512Y006640D03*
X022432Y006640D03*
X022352Y006560D03*
X022392Y006520D03*
X022272Y006680D03*
X022232Y006720D03*
X022232Y006760D03*
X022192Y006800D03*
X022152Y006840D03*
X022112Y006800D03*
X022112Y006760D03*
X021992Y006800D03*
X021712Y006720D03*
X021592Y006760D03*
X021632Y006840D03*
X021552Y006640D03*
X021552Y006600D03*
X021632Y006560D03*
X021432Y006720D03*
X021352Y006360D03*
X021312Y006240D03*
X021272Y006200D03*
X021312Y006120D03*
X021352Y006080D03*
X021432Y006080D03*
X021392Y006160D03*
X021472Y006200D03*
X021192Y006280D03*
X021152Y006360D03*
X020832Y006120D03*
X020832Y006080D03*
X020872Y006040D03*
X020912Y006000D03*
X020952Y005960D03*
X020952Y005920D03*
X020992Y005880D03*
X021032Y005840D03*
X021072Y005760D03*
X021112Y005720D03*
X021152Y005680D03*
X021192Y005760D03*
X021192Y005600D03*
X021232Y005560D03*
X021272Y005520D03*
X021272Y005480D03*
X021312Y005440D03*
X021352Y005400D03*
X021392Y005360D03*
X021392Y005320D03*
X021432Y005280D03*
X021472Y005240D03*
X021512Y005160D03*
X021552Y005120D03*
X021592Y005080D03*
X021632Y005040D03*
X021632Y005000D03*
X021672Y004960D03*
X021712Y004920D03*
X021752Y004840D03*
X021792Y004800D03*
X021832Y004760D03*
X021872Y004680D03*
X021912Y004640D03*
X021952Y004600D03*
X021992Y004520D03*
X022032Y004480D03*
X022072Y004440D03*
X022112Y004360D03*
X022152Y004320D03*
X022192Y004280D03*
X022232Y004360D03*
X022232Y004200D03*
X022272Y004160D03*
X022312Y004120D03*
X022352Y004200D03*
X022432Y004080D03*
X022472Y004040D03*
X022432Y003960D03*
X022392Y004000D03*
X022352Y004040D03*
X022472Y003880D03*
X022512Y003840D03*
X022552Y003800D03*
X022632Y003840D03*
X022592Y003880D03*
X022552Y003920D03*
X022672Y003760D03*
X022712Y003720D03*
X022752Y003680D03*
X022792Y003600D03*
X022832Y003560D03*
X022792Y003480D03*
X022752Y003520D03*
X022712Y003560D03*
X022672Y003640D03*
X022632Y003680D03*
X022592Y003720D03*
X022952Y003920D03*
X022952Y003960D03*
X022952Y004000D03*
X022832Y004040D03*
X022672Y004200D03*
X022672Y004240D03*
X022592Y004440D03*
X022712Y004480D03*
X022872Y004520D03*
X023032Y004560D03*
X023152Y004600D03*
X023312Y004640D03*
X023472Y004680D03*
X023632Y004720D03*
X023512Y004960D03*
X023512Y005000D03*
X023392Y004960D03*
X023312Y005160D03*
X023432Y005200D03*
X023552Y005240D03*
X023672Y005280D03*
X023832Y005200D03*
X023952Y005040D03*
X023992Y005000D03*
X023952Y004560D03*
X023952Y004280D03*
X023952Y004240D03*
X024072Y004280D03*
X024112Y004080D03*
X024112Y004040D03*
X024232Y004080D03*
X024352Y004120D03*
X024352Y004160D03*
X024472Y004160D03*
X024472Y004200D03*
X024592Y004200D03*
X024712Y004240D03*
X024472Y004480D03*
X024392Y004560D03*
X023872Y004000D03*
X023712Y003960D03*
X023592Y003920D03*
X023472Y003880D03*
X023352Y003840D03*
X023232Y003800D03*
X023112Y003760D03*
X022992Y003840D03*
X023312Y004080D03*
X023592Y004120D03*
X023872Y003640D03*
X023992Y003680D03*
X024112Y003720D03*
X024392Y003800D03*
X025032Y004000D03*
X023592Y003560D03*
X023472Y003520D03*
X023192Y003440D03*
X023072Y003400D03*
X022472Y004560D03*
X022432Y004600D03*
X022352Y004880D03*
X022472Y004920D03*
X022472Y004960D03*
X022592Y004960D03*
X022552Y005120D03*
X022432Y005280D03*
X022512Y005480D03*
X022632Y005480D03*
X022712Y005480D03*
X022832Y005320D03*
X022712Y005280D03*
X022832Y005040D03*
X022912Y004840D03*
X022912Y004800D03*
X023032Y004840D03*
X023072Y005120D03*
X023192Y005120D03*
X022832Y005840D03*
X022712Y005800D03*
X022592Y005760D03*
X022472Y005720D03*
X022352Y005720D03*
X022352Y005680D03*
X022232Y005680D03*
X022112Y005640D03*
X021992Y005600D03*
X021872Y005560D03*
X021752Y005520D03*
X021832Y005800D03*
X021952Y005800D03*
X022032Y005840D03*
X022152Y005880D03*
X022232Y005880D03*
X022352Y005920D03*
X022112Y006040D03*
X022232Y005520D03*
X021872Y005200D03*
X022032Y004960D03*
X021072Y005920D03*
X020992Y006040D03*
X020952Y006080D03*
X020792Y006160D03*
X020752Y006200D03*
X020712Y006240D03*
X020712Y006280D03*
X020672Y006320D03*
X020632Y006360D03*
X020712Y006400D03*
X020752Y006360D03*
X020672Y006440D03*
X020592Y006440D03*
X020592Y006480D03*
X021112Y007080D03*
X021192Y007080D03*
X021192Y007040D03*
X022392Y006800D03*
X023592Y006320D03*
X023552Y005920D03*
X023632Y005840D03*
X023752Y007440D03*
X023792Y008320D03*
X023912Y008360D03*
X023632Y008360D03*
X023632Y008480D03*
X023632Y008520D03*
X023912Y008840D03*
X023952Y009040D03*
X023992Y009080D03*
X024032Y009160D03*
X024072Y009200D03*
X024072Y009240D03*
X024112Y009280D03*
X024112Y009320D03*
X024112Y009360D03*
X024112Y009520D03*
X024112Y009560D03*
X024072Y009680D03*
X024032Y009720D03*
X024192Y009720D03*
X024232Y009760D03*
X024152Y009880D03*
X024112Y010040D03*
X024112Y010080D03*
X024112Y010160D03*
X024112Y010200D03*
X024112Y010240D03*
X024152Y010320D03*
X024152Y010360D03*
X023872Y010240D03*
X023832Y010280D03*
X023832Y010320D03*
X023792Y010360D03*
X023752Y010400D03*
X023712Y010440D03*
X023672Y010480D03*
X023672Y010360D03*
X023712Y010320D03*
X023712Y010280D03*
X023672Y010160D03*
X023552Y010320D03*
X023552Y010360D03*
X023472Y010640D03*
X023432Y010680D03*
X023392Y010720D03*
X023272Y010800D03*
X023192Y010840D03*
X023112Y010880D03*
X023032Y010920D03*
X022832Y010360D03*
X022872Y010280D03*
X022912Y010240D03*
X022912Y010200D03*
X022952Y010160D03*
X022952Y010120D03*
X022792Y010120D03*
X022632Y010280D03*
X022872Y009880D03*
X022832Y009840D03*
X023032Y009760D03*
X023072Y009800D03*
X023112Y009840D03*
X022992Y009680D03*
X022952Y009600D03*
X023432Y009400D03*
X023472Y009480D03*
X023512Y009600D03*
X023552Y009680D03*
X023592Y009720D03*
X023912Y009560D03*
X023912Y009520D03*
X023912Y009480D03*
X023872Y009400D03*
X023472Y009320D03*
X023152Y009080D03*
X023272Y008920D03*
X023112Y008760D03*
X023072Y008720D03*
X023072Y008680D03*
X023032Y008640D03*
X023032Y008600D03*
X022952Y008560D03*
X022912Y008600D03*
X023072Y008360D03*
X023152Y008320D03*
X022512Y008600D03*
X022512Y008640D03*
X022512Y008680D03*
X022512Y008720D03*
X022552Y008760D03*
X022552Y008800D03*
X022592Y008840D03*
X022632Y008880D03*
X022672Y008920D03*
X022712Y008960D03*
X022752Y009000D03*
X022472Y009000D03*
X021952Y008840D03*
X021832Y009040D03*
X021312Y009080D03*
X020832Y009280D03*
X020792Y009320D03*
X020752Y009360D03*
X020712Y009400D03*
X020712Y009440D03*
X020672Y009480D03*
X020632Y009520D03*
X020592Y009600D03*
X020552Y009640D03*
X020512Y009720D03*
X020432Y009840D03*
X020392Y009880D03*
X020392Y010040D03*
X020392Y010080D03*
X020272Y010080D03*
X020152Y010240D03*
X020112Y010280D03*
X020072Y010320D03*
X020032Y010360D03*
X019992Y010400D03*
X019952Y010440D03*
X019872Y010560D03*
X019792Y010560D03*
X019752Y010600D03*
X019672Y010640D03*
X019632Y010680D03*
X019592Y010720D03*
X019472Y010800D03*
X019392Y010840D03*
X019352Y010880D03*
X019272Y011040D03*
X019072Y011080D03*
X019032Y011120D03*
X019632Y010960D03*
X018072Y010920D03*
X017872Y009800D03*
X017592Y007600D03*
X013352Y010440D03*
X013512Y010760D03*
X020992Y012200D03*
X021032Y012160D03*
X021072Y012080D03*
X021112Y012040D03*
X021152Y012000D03*
X021192Y011960D03*
X021232Y011880D03*
X021272Y011840D03*
X021312Y011800D03*
X022032Y010400D03*
X021952Y010280D03*
X023432Y010080D03*
X023872Y010080D03*
X023872Y010040D03*
X023992Y009960D03*
X023992Y009920D03*
X024712Y009240D03*
X024752Y009280D03*
X024672Y009200D03*
X024632Y009160D03*
X024512Y009120D03*
X024512Y009040D03*
X024472Y009000D03*
X024272Y009080D03*
X024232Y009040D03*
X024192Y009000D03*
X024152Y008960D03*
X024632Y008720D03*
X024672Y008760D03*
X024712Y008840D03*
X024752Y008880D03*
X024792Y008960D03*
X024832Y009040D03*
X024872Y009120D03*
X024912Y009200D03*
X024912Y009240D03*
X024952Y009320D03*
X024872Y009400D03*
X024952Y009520D03*
X025032Y009480D03*
X025032Y009440D03*
X025072Y009560D03*
X025072Y009600D03*
X025112Y009640D03*
X024992Y009600D03*
X025032Y009840D03*
X024992Y009880D03*
X024992Y009920D03*
X024992Y009960D03*
X024992Y010000D03*
X024952Y010680D03*
X024952Y010720D03*
X024952Y010760D03*
X024912Y010800D03*
X024832Y010880D03*
X024272Y011160D03*
X023632Y011360D03*
X023312Y011480D03*
X024592Y008640D03*
X024552Y008600D03*
X024432Y008440D03*
X024312Y008400D03*
D20*
X023932Y008800D03*
X023892Y008880D03*
X023852Y008920D03*
X024332Y009120D03*
X024132Y009400D03*
X024132Y009440D03*
X024132Y009480D03*
X024132Y009600D03*
X024132Y009640D03*
X024012Y009760D03*
X023892Y009840D03*
X023772Y009920D03*
X023652Y009760D03*
X023892Y010120D03*
X024092Y010120D03*
X024172Y010400D03*
X023732Y010240D03*
X023532Y010280D03*
X023532Y010440D03*
X022932Y010960D03*
X022732Y010920D03*
X022612Y010960D03*
X022612Y011080D03*
X022532Y011120D03*
X022492Y011000D03*
X022052Y011080D03*
X021452Y011080D03*
X021012Y011040D03*
X020692Y011000D03*
X019892Y010480D03*
X019852Y010520D03*
X019532Y010760D03*
X019132Y011040D03*
X018972Y011000D03*
X018212Y010960D03*
X017892Y010880D03*
X017732Y010840D03*
X018172Y009800D03*
X017532Y009160D03*
X017612Y009120D03*
X017692Y009080D03*
X017772Y009040D03*
X017412Y009200D03*
X017332Y009240D03*
X017252Y009280D03*
X017172Y009320D03*
X017052Y009360D03*
X016972Y009400D03*
X016892Y009440D03*
X016812Y009480D03*
X016732Y009520D03*
X016532Y009600D03*
X016452Y009640D03*
X016372Y009680D03*
X016292Y009720D03*
X016212Y009760D03*
X016092Y009800D03*
X016012Y009840D03*
X015932Y009880D03*
X015852Y009920D03*
X015772Y009960D03*
X015692Y010000D03*
X015492Y010080D03*
X015412Y010120D03*
X015332Y010160D03*
X015132Y010240D03*
X015052Y010280D03*
X014972Y010320D03*
X014772Y010400D03*
X014692Y010440D03*
X014612Y010480D03*
X014532Y010520D03*
X014252Y010640D03*
X014172Y010680D03*
X014092Y010720D03*
X013692Y010800D03*
X013572Y010840D03*
X013372Y010400D03*
X013372Y010160D03*
X013452Y009960D03*
X013372Y009880D03*
X013292Y009960D03*
X013492Y009840D03*
X013572Y009800D03*
X013652Y009760D03*
X013852Y009680D03*
X013932Y009640D03*
X014012Y009600D03*
X014292Y009480D03*
X014372Y009440D03*
X014572Y009360D03*
X014652Y009320D03*
X014772Y009080D03*
X014852Y009120D03*
X014932Y009200D03*
X015372Y009000D03*
X015772Y008920D03*
X016252Y009240D03*
X016612Y009080D03*
X016692Y008800D03*
X016732Y008760D03*
X016972Y008920D03*
X017492Y008600D03*
X018292Y008400D03*
X018372Y008720D03*
X019212Y008360D03*
X019292Y008320D03*
X019372Y008280D03*
X019132Y008200D03*
X019532Y007880D03*
X019692Y008000D03*
X019692Y008040D03*
X019932Y007760D03*
X020012Y007640D03*
X020012Y007600D03*
X019972Y007520D03*
X019852Y007280D03*
X019692Y007360D03*
X019612Y007280D03*
X019332Y007440D03*
X019372Y007680D03*
X018972Y007320D03*
X019012Y006880D03*
X018932Y006800D03*
X018932Y006760D03*
X018892Y006720D03*
X018852Y006680D03*
X018692Y006560D03*
X018612Y006520D03*
X018532Y006280D03*
X018332Y006400D03*
X018252Y006360D03*
X018132Y006360D03*
X018212Y006080D03*
X018172Y006000D03*
X018172Y005560D03*
X018092Y005480D03*
X017972Y005400D03*
X016492Y005160D03*
X015452Y005880D03*
X015212Y005440D03*
X014972Y005600D03*
X014892Y005680D03*
X014772Y005760D03*
X014452Y006040D03*
X014412Y006080D03*
X014012Y006240D03*
X013812Y006320D03*
X016212Y006480D03*
X016292Y007560D03*
X017812Y007320D03*
X018012Y007480D03*
X020092Y007800D03*
X020292Y007680D03*
X020332Y007600D03*
X020332Y007560D03*
X020332Y007520D03*
X020332Y007480D03*
X020412Y007160D03*
X020492Y007120D03*
X020692Y007040D03*
X020772Y007000D03*
X020852Y006960D03*
X021052Y006880D03*
X021132Y006840D03*
X021332Y006760D03*
X021532Y006680D03*
X021572Y006720D03*
X021612Y006800D03*
X021732Y006520D03*
X021852Y006480D03*
X021972Y006440D03*
X022252Y006320D03*
X022372Y006400D03*
X022412Y006480D03*
X022492Y006560D03*
X022532Y006600D03*
X022412Y006760D03*
X022292Y006800D03*
X022292Y006600D03*
X022572Y006400D03*
X022612Y006360D03*
X022532Y006280D03*
X022612Y006240D03*
X022772Y006280D03*
X022852Y006200D03*
X022852Y006000D03*
X023212Y005680D03*
X023252Y005640D03*
X023292Y005600D03*
X023372Y005520D03*
X023332Y005480D03*
X022932Y005600D03*
X022732Y005360D03*
X022332Y005240D03*
X022412Y005080D03*
X022132Y005120D03*
X022012Y005280D03*
X021852Y005400D03*
X022092Y005480D03*
X021252Y006320D03*
X021092Y006440D03*
X021052Y006520D03*
X021052Y006560D03*
X020652Y006640D03*
X020572Y006600D03*
X020572Y006560D03*
X020612Y006520D03*
X020612Y006400D03*
X022572Y004480D03*
X022692Y004520D03*
X023012Y004280D03*
X023452Y004120D03*
X023812Y004520D03*
X023772Y004760D03*
X023932Y004800D03*
X024052Y004840D03*
X023972Y005280D03*
X023412Y005920D03*
X023492Y006400D03*
X023372Y006600D03*
X022732Y008400D03*
X022652Y008440D03*
X022612Y008480D03*
X022572Y008520D03*
X022572Y008560D03*
X022852Y008640D03*
X023132Y008800D03*
X023172Y008840D03*
X023212Y008880D03*
X023332Y008960D03*
X023492Y008600D03*
X022132Y009000D03*
X021892Y008960D03*
X021572Y008920D03*
X021172Y009080D03*
X021092Y009120D03*
X021012Y009160D03*
X020932Y009200D03*
X020892Y009240D03*
X020532Y009680D03*
X020492Y009760D03*
X020452Y009800D03*
X020372Y009920D03*
X020372Y009960D03*
X020252Y010120D03*
X020212Y010160D03*
X021492Y011640D03*
X021452Y011680D03*
X021412Y011720D03*
X021372Y011760D03*
X022172Y010320D03*
X022212Y010280D03*
X022652Y010240D03*
X023012Y009720D03*
X022972Y009640D03*
X024612Y011000D03*
X024532Y011040D03*
X024452Y011080D03*
X024372Y011120D03*
X024172Y011200D03*
X024052Y011240D03*
X023932Y011280D03*
X023812Y011280D03*
X023732Y011320D03*
X023532Y011400D03*
X023212Y011520D03*
X023092Y011560D03*
X025012Y009800D03*
X025012Y009760D03*
X025052Y009720D03*
X025052Y009680D03*
X024892Y009440D03*
X024972Y009360D03*
X023732Y003600D03*
X023332Y003480D03*
X022932Y003440D03*
X016612Y009760D03*
D21*
X016912Y008760D03*
X018072Y008440D03*
X018672Y008560D03*
X019392Y008000D03*
X019472Y007520D03*
X019472Y007480D03*
X019112Y007480D03*
X018432Y007480D03*
X018072Y007360D03*
X017192Y006320D03*
X016792Y005240D03*
X013552Y006320D03*
X015512Y008920D03*
X013352Y010240D03*
X013392Y010360D03*
X019272Y010920D03*
X021312Y009040D03*
X021432Y009000D03*
X021512Y008960D03*
X022232Y010200D03*
X022352Y010160D03*
X022552Y010120D03*
X023232Y010000D03*
X023472Y010000D03*
X023912Y010160D03*
X023192Y010680D03*
X023112Y010720D03*
X022792Y010880D03*
X022152Y011560D03*
X020152Y007760D03*
X020352Y007440D03*
X021832Y006800D03*
X022232Y006640D03*
X022872Y005560D03*
X023872Y004840D03*
D22*
X022992Y005400D03*
X022792Y005520D03*
X022832Y006080D03*
X022832Y006120D03*
X022272Y005200D03*
X020192Y007240D03*
X020192Y007280D03*
X020392Y007400D03*
X019992Y007400D03*
X019152Y007520D03*
X019072Y008280D03*
X018792Y008520D03*
X020672Y011080D03*
X020952Y011120D03*
X022312Y011040D03*
X023032Y010760D03*
X023832Y008960D03*
X017592Y005280D03*
X016712Y005160D03*
X016272Y005160D03*
X015512Y005320D03*
X013872Y006280D03*
D23*
X014292Y006160D03*
X015692Y005240D03*
X017652Y007360D03*
X018012Y007320D03*
X018972Y007400D03*
X019372Y007560D03*
X019772Y007520D03*
X019972Y007720D03*
X020252Y007200D03*
X019292Y008040D03*
X021852Y009200D03*
X022972Y010800D03*
X021932Y011200D03*
X021852Y011520D03*
X020132Y010960D03*
X017332Y010680D03*
X022852Y006160D03*
X022052Y005320D03*
X022172Y005160D03*
D24*
X016532Y005200D03*
D25*
X017412Y005240D03*
X022252Y009040D03*
X018612Y011000D03*
D26*
X018492Y010880D03*
X016252Y008760D03*
X016372Y006440D03*
X017812Y005320D03*
X019532Y007920D03*
X021852Y009000D03*
X022412Y009080D03*
X022292Y011160D03*
X022292Y006360D03*
D27*
X017072Y005840D03*
D28*
X016872Y006360D03*
X017472Y007400D03*
X018152Y007400D03*
X018592Y008360D03*
X019512Y007960D03*
X019832Y007480D03*
X022512Y006440D03*
X022832Y009080D03*
X023352Y009000D03*
X022832Y010080D03*
D29*
X019992Y007320D03*
D30*
X020112Y007360D03*
X019792Y007440D03*
X022712Y011600D03*
D31*
X017152Y007440D03*
D32*
X018412Y007440D03*
D33*
X016652Y007480D03*
X016012Y008800D03*
X015812Y008840D03*
D34*
X015672Y008880D03*
X017912Y009840D03*
X018952Y008480D03*
X022232Y009160D03*
D35*
X016812Y008680D03*
D36*
X016692Y008720D03*
D37*
X014292Y009000D03*
D38*
X022532Y009120D03*
D39*
X017072Y009800D03*
D40*
X011131Y016510D03*
X011106Y016535D03*
X011081Y016560D03*
X011081Y016585D03*
X011056Y016610D03*
X011031Y016660D03*
X011031Y016685D03*
X011006Y016735D03*
X010531Y016760D03*
X010506Y016735D03*
X010481Y016710D03*
X010431Y016660D03*
X010406Y016635D03*
X010356Y016635D03*
X010331Y016810D03*
X010331Y016835D03*
X010356Y016885D03*
X010306Y016935D03*
X010156Y016885D03*
X010107Y016860D03*
X010007Y016860D03*
X010007Y016960D03*
X010007Y016985D03*
X010056Y017060D03*
X010056Y017160D03*
X010007Y017210D03*
X010156Y017310D03*
X010156Y017335D03*
X010107Y017385D03*
X010107Y017410D03*
X010056Y017485D03*
X010056Y017510D03*
X009856Y017485D03*
X009856Y017460D03*
X009856Y017360D03*
X009831Y017335D03*
X009756Y017260D03*
X009756Y017235D03*
X009731Y017210D03*
X009731Y017185D03*
X009756Y017160D03*
X010207Y017260D03*
X010306Y017160D03*
X010331Y017135D03*
X010381Y017110D03*
X010406Y017085D03*
X010456Y017060D03*
X010506Y017560D03*
X010356Y017635D03*
X010331Y017985D03*
X010406Y018235D03*
X010107Y018460D03*
X010107Y018485D03*
X010156Y018535D03*
X010207Y018610D03*
X010306Y018710D03*
X010381Y018760D03*
X010456Y018810D03*
X010506Y018835D03*
X010556Y018860D03*
X010556Y019060D03*
X010531Y019110D03*
X010506Y019160D03*
X010481Y019185D03*
X010456Y019210D03*
X010431Y019235D03*
X010331Y019085D03*
X010331Y019060D03*
X010331Y019035D03*
X010356Y018985D03*
X010331Y018960D03*
X010207Y018960D03*
X010007Y018935D03*
X010007Y018910D03*
X010007Y018885D03*
X010056Y018810D03*
X010056Y018735D03*
X009756Y018735D03*
X009731Y018710D03*
X009731Y018685D03*
X009731Y018660D03*
X009756Y018635D03*
X009831Y018535D03*
X009856Y018435D03*
X009856Y018410D03*
X010007Y018285D03*
X010007Y018260D03*
X010007Y018235D03*
X010007Y018135D03*
X010007Y018110D03*
X010007Y018085D03*
X010007Y018060D03*
X010007Y018035D03*
X010007Y017985D03*
X010007Y017960D03*
X010007Y017910D03*
X009956Y017910D03*
X009956Y017935D03*
X009956Y017960D03*
X009956Y017985D03*
X009956Y018010D03*
X009956Y018035D03*
X009956Y018060D03*
X009956Y018085D03*
X009907Y017910D03*
X009956Y017885D03*
X009956Y017860D03*
X009956Y017835D03*
X009956Y017810D03*
X009956Y017785D03*
X010007Y017785D03*
X009756Y018035D03*
X009756Y018060D03*
X009582Y018285D03*
X009582Y018335D03*
X009582Y018360D03*
X009431Y018435D03*
X010056Y018385D03*
X009482Y017810D03*
X009206Y017810D03*
X008906Y017735D03*
X008857Y017735D03*
X008806Y017660D03*
X008806Y017635D03*
X008957Y017560D03*
X010981Y018285D03*
X011081Y018335D03*
X011606Y018235D03*
X011631Y018285D03*
X011706Y018335D03*
X011781Y018260D03*
X011806Y018410D03*
X011781Y018460D03*
X011756Y018485D03*
X011756Y018510D03*
X011731Y018535D03*
X011706Y018560D03*
X011681Y018585D03*
X011656Y018635D03*
X011631Y018660D03*
X011606Y018685D03*
X011656Y018910D03*
X011681Y018935D03*
X011706Y018960D03*
X011731Y018985D03*
X011606Y018935D03*
X011031Y019185D03*
X011031Y019210D03*
X011031Y019235D03*
X011056Y019260D03*
X011056Y019285D03*
X011081Y019310D03*
X012331Y018360D03*
X012331Y018310D03*
X012381Y018285D03*
X012256Y018235D03*
X012306Y018110D03*
X012281Y018085D03*
X012356Y017885D03*
X012306Y017610D03*
X012331Y017585D03*
X012331Y017560D03*
X012331Y017535D03*
X012331Y017510D03*
X012381Y017560D03*
X012906Y017635D03*
X012906Y017660D03*
X012956Y017635D03*
X012956Y017735D03*
X012956Y017760D03*
X013056Y017785D03*
X013031Y017835D03*
X013556Y017835D03*
X013556Y017785D03*
X013606Y017685D03*
X013606Y017660D03*
X013056Y017560D03*
X013631Y018210D03*
X013631Y018285D03*
X013581Y018285D03*
X013531Y018435D03*
X013606Y018910D03*
X013606Y018935D03*
X013606Y018960D03*
X013606Y018985D03*
X013606Y019010D03*
X013606Y019035D03*
X013056Y018860D03*
X012956Y018860D03*
X012956Y018885D03*
X012956Y018835D03*
X012956Y018810D03*
X012956Y018785D03*
X012981Y019085D03*
X012981Y019160D03*
X014206Y018285D03*
X014281Y018235D03*
X014306Y018285D03*
X014181Y017935D03*
X014781Y017910D03*
X014806Y018085D03*
X015256Y018760D03*
X015256Y018785D03*
X015256Y018810D03*
X015531Y018985D03*
X015531Y019010D03*
X015831Y018960D03*
X015831Y018935D03*
X015831Y018910D03*
X015831Y018885D03*
X015906Y018885D03*
X015906Y018860D03*
X015906Y018835D03*
X015906Y018810D03*
X015906Y018785D03*
X016006Y018810D03*
X016006Y018835D03*
X016006Y018860D03*
X016006Y018885D03*
X016006Y018910D03*
X016207Y018910D03*
X016207Y018935D03*
X016207Y018960D03*
X016207Y018985D03*
X016207Y018885D03*
X016207Y018860D03*
X016207Y018835D03*
X016207Y018810D03*
X016207Y018785D03*
X016307Y019010D03*
X016207Y019085D03*
X016207Y019110D03*
X015931Y019160D03*
X016681Y019085D03*
X016756Y018860D03*
X017007Y018860D03*
X017007Y018835D03*
X017231Y019010D03*
X017331Y019010D03*
X017331Y018985D03*
X017331Y018960D03*
X017331Y018835D03*
X017532Y019010D03*
X017632Y018960D03*
X017632Y018935D03*
X017632Y018910D03*
X017632Y018885D03*
X017632Y018860D03*
X017632Y018835D03*
X017706Y018860D03*
X017807Y018360D03*
X017856Y018285D03*
X017881Y018260D03*
X017931Y018235D03*
X018006Y018260D03*
X017931Y018335D03*
X017906Y018135D03*
X018331Y018385D03*
X018432Y018385D03*
X018531Y018385D03*
X018606Y018285D03*
X018531Y018110D03*
X018506Y018085D03*
X018506Y018060D03*
X018506Y018035D03*
X018506Y017960D03*
X018382Y018285D03*
X018281Y018735D03*
X018331Y018785D03*
X018331Y018810D03*
X018331Y018835D03*
X018331Y018860D03*
X018631Y018935D03*
X018631Y018960D03*
X018631Y018985D03*
X018531Y019110D03*
X018931Y019160D03*
X018906Y018960D03*
X018906Y018935D03*
X018906Y018910D03*
X018906Y018885D03*
X018906Y018860D03*
X019206Y018985D03*
X019206Y019010D03*
X019281Y019010D03*
X019281Y018985D03*
X019281Y018960D03*
X019281Y018835D03*
X019482Y019010D03*
X019581Y019010D03*
X019581Y019035D03*
X019581Y018985D03*
X019581Y018960D03*
X019581Y018935D03*
X019157Y018110D03*
X019157Y018060D03*
X019157Y018035D03*
X019106Y018060D03*
X019081Y018110D03*
X019656Y017910D03*
X019081Y017385D03*
X018631Y017610D03*
X018606Y017560D03*
X017931Y017685D03*
X017881Y017760D03*
X017582Y017460D03*
X017206Y017810D03*
X017206Y017935D03*
X016957Y017985D03*
X016957Y018010D03*
X016907Y018010D03*
X016907Y017960D03*
X016857Y017960D03*
X016781Y017985D03*
X016731Y018010D03*
X016656Y018035D03*
X016631Y017985D03*
X016581Y018035D03*
X016456Y018110D03*
X016456Y018260D03*
X016456Y018285D03*
X016257Y018310D03*
X016431Y017910D03*
X016182Y017810D03*
X015881Y017735D03*
X015831Y017735D03*
X015781Y017660D03*
X015781Y017635D03*
X015931Y017560D03*
X015956Y017010D03*
X016706Y017760D03*
X016907Y017710D03*
X016932Y017735D03*
X016957Y017710D03*
X017306Y018210D03*
X016882Y018485D03*
X011806Y017460D03*
X011806Y017435D03*
X011781Y017410D03*
X011756Y017385D03*
X011756Y017360D03*
X011731Y017335D03*
X011706Y017310D03*
X011706Y017285D03*
X011681Y017260D03*
X011656Y017235D03*
X011631Y017210D03*
X011606Y017185D03*
X011806Y017110D03*
X011681Y016935D03*
X011706Y016910D03*
X011631Y018135D03*
D41*
X011507Y018160D03*
X011457Y018310D03*
X011507Y018360D03*
X011557Y018385D03*
X011557Y018710D03*
X011507Y018760D03*
X011457Y018785D03*
X011557Y018985D03*
X011557Y019010D03*
X011357Y019060D03*
X011357Y019085D03*
X011407Y019160D03*
X011457Y019210D03*
X011207Y019310D03*
X011207Y019335D03*
X010882Y019185D03*
X010882Y019160D03*
X010832Y019285D03*
X010832Y019310D03*
X010682Y019285D03*
X010682Y019260D03*
X010682Y019235D03*
X010682Y019210D03*
X010682Y019185D03*
X010682Y019160D03*
X010682Y019135D03*
X010682Y019110D03*
X010257Y018910D03*
X010182Y018985D03*
X010082Y019035D03*
X009982Y018985D03*
X010082Y018785D03*
X010082Y018760D03*
X010257Y018660D03*
X010182Y018585D03*
X010082Y018435D03*
X009882Y018460D03*
X009882Y018485D03*
X009782Y018585D03*
X009657Y018235D03*
X009357Y018385D03*
X009457Y017835D03*
X009882Y017410D03*
X009882Y017385D03*
X009782Y017285D03*
X010082Y017435D03*
X010182Y017285D03*
X010257Y017210D03*
X010082Y017110D03*
X010082Y017085D03*
X010182Y016910D03*
X009982Y016910D03*
X009982Y016885D03*
X010682Y016760D03*
X010682Y016735D03*
X010682Y016710D03*
X010682Y016685D03*
X010682Y016660D03*
X010682Y016635D03*
X010682Y016610D03*
X010682Y016585D03*
X010782Y016510D03*
X010832Y016585D03*
X010882Y016685D03*
X010882Y016710D03*
X010882Y016735D03*
X011207Y016585D03*
X011207Y016560D03*
X011207Y016535D03*
X011407Y016710D03*
X011457Y016660D03*
X011357Y016785D03*
X011557Y016860D03*
X011557Y016885D03*
X011557Y016910D03*
X011507Y017110D03*
X011832Y017135D03*
X011832Y017085D03*
X011882Y017010D03*
X011882Y016985D03*
X011932Y016885D03*
X011932Y017185D03*
X011882Y017185D03*
X012082Y017335D03*
X012132Y017285D03*
X012132Y017260D03*
X012182Y017210D03*
X012182Y017185D03*
X012032Y017410D03*
X012032Y017435D03*
X011832Y017485D03*
X011832Y017510D03*
X011407Y017710D03*
X011257Y017585D03*
X010632Y017560D03*
X010257Y017660D03*
X010257Y018160D03*
X010782Y018210D03*
X010782Y018235D03*
X010832Y018235D03*
X010832Y018210D03*
X011882Y018260D03*
X012032Y018435D03*
X012032Y018460D03*
X012032Y018510D03*
X012132Y018610D03*
X012182Y018685D03*
X012407Y018735D03*
X012407Y018910D03*
X012407Y018935D03*
X012407Y018960D03*
X012407Y018985D03*
X012607Y018985D03*
X012607Y018960D03*
X012607Y018935D03*
X012607Y018910D03*
X012607Y018885D03*
X011882Y018885D03*
X011882Y018860D03*
X011832Y018785D03*
X011832Y018760D03*
X011882Y019035D03*
X013332Y019010D03*
X013807Y018985D03*
X013807Y018960D03*
X013807Y018935D03*
X013807Y018910D03*
X013807Y018885D03*
X013807Y018860D03*
X013807Y018835D03*
X013807Y018810D03*
X013807Y018785D03*
X013807Y019085D03*
X014432Y019110D03*
X014382Y018260D03*
X014382Y018210D03*
X014332Y018235D03*
X014332Y018260D03*
X014732Y017910D03*
X015007Y017760D03*
X013957Y018210D03*
X013432Y018235D03*
X013282Y017810D03*
X013232Y017635D03*
X012707Y017885D03*
X011932Y017860D03*
X011882Y017935D03*
X017407Y017460D03*
X017732Y017460D03*
X018057Y018285D03*
X018057Y018310D03*
X018357Y019010D03*
X019457Y018435D03*
D42*
X019707Y018610D03*
X019882Y018610D03*
X019632Y018135D03*
X019932Y017560D03*
X018482Y018210D03*
X017032Y017960D03*
X015757Y017710D03*
X015182Y017835D03*
X015182Y017860D03*
X015182Y017885D03*
X015082Y017810D03*
X015082Y017785D03*
X014982Y017785D03*
X014982Y017810D03*
X014982Y017735D03*
X014932Y018085D03*
X014607Y018035D03*
X014607Y017960D03*
X014607Y017935D03*
X014132Y018285D03*
X013832Y017960D03*
X013782Y018010D03*
X013457Y018385D03*
X013307Y018785D03*
X013307Y018810D03*
X013307Y018835D03*
X013307Y018860D03*
X013507Y019110D03*
X013882Y019060D03*
X013882Y019035D03*
X013882Y019010D03*
X013882Y018985D03*
X013882Y018960D03*
X014407Y018910D03*
X014407Y018885D03*
X014407Y018860D03*
X012882Y018860D03*
X012882Y018885D03*
X012882Y018910D03*
X012882Y018935D03*
X012882Y018960D03*
X012882Y018835D03*
X012882Y018810D03*
X012882Y018785D03*
X012682Y018885D03*
X012682Y018910D03*
X012682Y018935D03*
X012682Y018960D03*
X012882Y019085D03*
X012882Y019110D03*
X012157Y018735D03*
X012157Y018710D03*
X012157Y018635D03*
X012107Y018560D03*
X012057Y018535D03*
X012007Y018485D03*
X012057Y018410D03*
X012157Y018285D03*
X011857Y018710D03*
X011857Y018810D03*
X011857Y018835D03*
X011907Y018935D03*
X011907Y018960D03*
X011907Y019010D03*
X011857Y019060D03*
X011582Y019060D03*
X011582Y019085D03*
X011582Y019110D03*
X011582Y019135D03*
X011582Y019160D03*
X011582Y019185D03*
X011582Y019210D03*
X011482Y019235D03*
X011432Y019185D03*
X011382Y019135D03*
X011232Y019135D03*
X011232Y019160D03*
X011232Y019185D03*
X011232Y019210D03*
X011232Y019235D03*
X011232Y019110D03*
X011432Y018810D03*
X011532Y018735D03*
X011582Y018960D03*
X011532Y018410D03*
X011482Y018410D03*
X011382Y018410D03*
X011582Y018360D03*
X010857Y018310D03*
X010857Y018285D03*
X010807Y018285D03*
X010807Y018310D03*
X010757Y018285D03*
X010807Y018010D03*
X010607Y017935D03*
X010607Y017910D03*
X010282Y018185D03*
X010032Y018310D03*
X010032Y018335D03*
X010132Y018510D03*
X010232Y018635D03*
X010282Y018685D03*
X010032Y018710D03*
X010032Y018860D03*
X010032Y019035D03*
X010132Y019010D03*
X010232Y018935D03*
X009807Y018560D03*
X009507Y018435D03*
X009607Y018260D03*
X009282Y018310D03*
X009507Y017835D03*
X008782Y017710D03*
X009807Y017310D03*
X010032Y017185D03*
X010032Y017035D03*
X010032Y017010D03*
X010232Y016935D03*
X010282Y017185D03*
X010232Y017235D03*
X010132Y017360D03*
X010707Y017510D03*
X010707Y017535D03*
X011232Y017710D03*
X011332Y017735D03*
X011857Y017535D03*
X012057Y017485D03*
X012007Y017385D03*
X012057Y017360D03*
X012107Y017310D03*
X012157Y017235D03*
X012157Y017160D03*
X011907Y017210D03*
X011857Y017160D03*
X011857Y017060D03*
X011857Y017035D03*
X011907Y016960D03*
X011907Y016935D03*
X011907Y016910D03*
X011907Y016860D03*
X011582Y016810D03*
X011582Y016785D03*
X011582Y016760D03*
X011582Y016735D03*
X011582Y016710D03*
X011582Y016685D03*
X011582Y016660D03*
X011482Y016635D03*
X011432Y016685D03*
X011382Y016760D03*
X011232Y016760D03*
X011232Y016735D03*
X011232Y016710D03*
X011232Y016685D03*
X011232Y016660D03*
X011232Y016635D03*
X010857Y016635D03*
X010857Y016610D03*
X010807Y016560D03*
X010807Y016535D03*
X010707Y016535D03*
X010707Y016560D03*
X011382Y017035D03*
X011432Y017060D03*
X011532Y017135D03*
X011582Y017160D03*
X012882Y017710D03*
X013782Y017510D03*
X010857Y019235D03*
X010857Y019260D03*
X010807Y019335D03*
X010707Y019335D03*
D43*
X010394Y019260D03*
X010344Y019235D03*
X010620Y018885D03*
X010419Y018785D03*
X010344Y018735D03*
X010394Y018260D03*
X010469Y018135D03*
X010394Y018110D03*
X010394Y018085D03*
X010394Y018035D03*
X010394Y017985D03*
X010319Y018035D03*
X010245Y017710D03*
X010269Y017685D03*
X010344Y017685D03*
X010344Y017660D03*
X010419Y017635D03*
X010444Y017660D03*
X010469Y017685D03*
X010544Y017585D03*
X011319Y017585D03*
X011419Y017735D03*
X011495Y018135D03*
X011619Y018210D03*
X011644Y018185D03*
X011644Y018160D03*
X011719Y018185D03*
X011694Y018235D03*
X011669Y018260D03*
X011769Y018385D03*
X011844Y018285D03*
X012144Y018360D03*
X012294Y018260D03*
X012319Y018285D03*
X012645Y017885D03*
X012769Y017885D03*
X012994Y017785D03*
X012919Y017585D03*
X013170Y017635D03*
X013270Y017835D03*
X013544Y017760D03*
X013619Y017635D03*
X013819Y017985D03*
X013845Y018235D03*
X013470Y018435D03*
X013370Y018360D03*
X013370Y018335D03*
X013370Y018285D03*
X013594Y018785D03*
X013594Y018810D03*
X013594Y018835D03*
X013594Y018860D03*
X013594Y018885D03*
X013619Y019060D03*
X013619Y019085D03*
X013619Y019160D03*
X013420Y019085D03*
X013344Y019035D03*
X013320Y018985D03*
X013320Y018960D03*
X013320Y018935D03*
X013320Y018910D03*
X013320Y018885D03*
X013170Y018885D03*
X013170Y018910D03*
X013170Y018935D03*
X013170Y018960D03*
X013170Y018985D03*
X013170Y019010D03*
X013170Y019035D03*
X013170Y018860D03*
X013170Y018835D03*
X013170Y018810D03*
X013094Y018810D03*
X012969Y018910D03*
X012969Y018935D03*
X012969Y018960D03*
X012969Y018985D03*
X012969Y019010D03*
X012969Y019035D03*
X012969Y019060D03*
X012869Y019010D03*
X012869Y018985D03*
X012719Y019035D03*
X012695Y019010D03*
X012695Y018985D03*
X012595Y019010D03*
X012595Y019035D03*
X012595Y018860D03*
X012595Y018835D03*
X012669Y018835D03*
X012669Y018860D03*
X012669Y018810D03*
X012669Y018785D03*
X012419Y019010D03*
X012419Y019035D03*
X012419Y019085D03*
X012020Y019410D03*
X011769Y019010D03*
X011569Y019235D03*
X011519Y019260D03*
X011295Y019085D03*
X011269Y018885D03*
X011319Y018860D03*
X011369Y018835D03*
X011295Y018410D03*
X011495Y018385D03*
X011894Y018685D03*
X011970Y018710D03*
X012070Y017510D03*
X011994Y017160D03*
X011744Y016885D03*
X011794Y016860D03*
X011644Y016960D03*
X011469Y017085D03*
X011319Y017010D03*
X011269Y016985D03*
X011345Y016810D03*
X011545Y016635D03*
X010620Y016985D03*
X010544Y017010D03*
X010494Y017035D03*
X010344Y016910D03*
X010469Y016685D03*
X009269Y018285D03*
X009269Y018335D03*
X009269Y018360D03*
X013795Y019010D03*
X013795Y019035D03*
X013895Y019085D03*
X013895Y019110D03*
X013895Y019135D03*
X013919Y019160D03*
X014095Y019160D03*
X014095Y019135D03*
X014095Y019110D03*
X014095Y019085D03*
X014095Y019060D03*
X014095Y019035D03*
X014095Y019010D03*
X014095Y018985D03*
X014095Y018960D03*
X014095Y018935D03*
X014095Y018860D03*
X014095Y018835D03*
X014095Y018810D03*
X014095Y018785D03*
X013895Y018935D03*
X014420Y018935D03*
X014420Y018960D03*
X014420Y018985D03*
X014420Y019010D03*
X014420Y019035D03*
X014420Y019060D03*
X014420Y019085D03*
X014444Y019135D03*
X014644Y019135D03*
X014644Y019160D03*
X014644Y019110D03*
X014644Y019085D03*
X014644Y019060D03*
X014644Y019035D03*
X014644Y019010D03*
X014644Y018985D03*
X014644Y018960D03*
X014644Y018935D03*
X014644Y018910D03*
X014644Y018885D03*
X014644Y018860D03*
X014644Y018835D03*
X014644Y018810D03*
X014720Y018835D03*
X014720Y018860D03*
X014720Y018885D03*
X014744Y018910D03*
X014744Y018985D03*
X014720Y019010D03*
X014720Y019035D03*
X014720Y019060D03*
X014720Y019085D03*
X014720Y019110D03*
X014744Y019135D03*
X014919Y019135D03*
X014945Y019110D03*
X014744Y018810D03*
X014420Y018810D03*
X014420Y018835D03*
X015269Y018735D03*
X015319Y018835D03*
X015319Y018860D03*
X015344Y018885D03*
X015519Y018960D03*
X015519Y019035D03*
X015444Y019085D03*
X015620Y019010D03*
X015620Y018985D03*
X015645Y019035D03*
X015720Y019085D03*
X015794Y019035D03*
X015819Y019010D03*
X015819Y018985D03*
X015919Y018985D03*
X015919Y018960D03*
X015919Y018935D03*
X015919Y018910D03*
X015919Y019010D03*
X015919Y019035D03*
X015919Y019060D03*
X015919Y019085D03*
X016019Y019010D03*
X016019Y018985D03*
X016019Y018960D03*
X016019Y018935D03*
X016044Y019035D03*
X016195Y019035D03*
X016195Y019010D03*
X016295Y018985D03*
X016295Y018960D03*
X016295Y018935D03*
X016295Y018910D03*
X016295Y018885D03*
X016295Y018860D03*
X016295Y018835D03*
X016320Y018810D03*
X016469Y018810D03*
X016494Y018835D03*
X016494Y018860D03*
X016494Y018885D03*
X016494Y018910D03*
X016494Y018935D03*
X016494Y018960D03*
X016494Y018985D03*
X016494Y019010D03*
X016469Y019035D03*
X016320Y019035D03*
X016669Y019010D03*
X016669Y018985D03*
X016669Y018960D03*
X016669Y018935D03*
X016669Y018910D03*
X016669Y018885D03*
X016669Y018860D03*
X016669Y018835D03*
X016669Y018810D03*
X016669Y018785D03*
X016769Y018835D03*
X016870Y018835D03*
X016870Y018860D03*
X016870Y018885D03*
X016870Y018910D03*
X016870Y018935D03*
X016870Y018960D03*
X016870Y018985D03*
X016870Y019010D03*
X016870Y019035D03*
X016870Y018810D03*
X017219Y019035D03*
X017244Y018985D03*
X017244Y018960D03*
X017244Y018935D03*
X017244Y018910D03*
X017244Y018885D03*
X017244Y018860D03*
X017244Y018835D03*
X017244Y018810D03*
X017344Y018810D03*
X017344Y018935D03*
X017344Y019035D03*
X017520Y019035D03*
X017545Y018985D03*
X017545Y018960D03*
X017545Y018935D03*
X017545Y018885D03*
X017545Y018860D03*
X017545Y018835D03*
X017545Y018810D03*
X017620Y018810D03*
X017620Y018785D03*
X017645Y018985D03*
X017645Y019010D03*
X017645Y019035D03*
X017645Y019060D03*
X017645Y019085D03*
X017645Y019110D03*
X017645Y019135D03*
X017645Y019160D03*
X017919Y019135D03*
X017944Y019110D03*
X017944Y019085D03*
X017944Y019060D03*
X017944Y019035D03*
X017944Y019010D03*
X017944Y018960D03*
X017944Y018935D03*
X017944Y018910D03*
X017944Y018885D03*
X017944Y018860D03*
X017944Y018835D03*
X017944Y018810D03*
X018269Y018785D03*
X018269Y018760D03*
X018544Y018785D03*
X018544Y018810D03*
X018544Y018835D03*
X018544Y018860D03*
X018544Y018885D03*
X018544Y018910D03*
X018544Y018935D03*
X018544Y018960D03*
X018544Y018985D03*
X018544Y019010D03*
X018544Y019085D03*
X018445Y019085D03*
X018619Y018910D03*
X018619Y018885D03*
X018619Y018860D03*
X018619Y018835D03*
X018619Y018760D03*
X018619Y018735D03*
X018819Y018835D03*
X018819Y018860D03*
X018819Y018885D03*
X018819Y018910D03*
X018819Y018935D03*
X018819Y018960D03*
X018819Y018985D03*
X018819Y019010D03*
X018819Y019035D03*
X018919Y019035D03*
X018919Y019060D03*
X018919Y019085D03*
X018919Y019010D03*
X018919Y018985D03*
X018894Y018835D03*
X018894Y018810D03*
X018894Y018785D03*
X018445Y018360D03*
X017994Y018385D03*
X016995Y017735D03*
X016870Y017660D03*
X016694Y017735D03*
X016694Y017835D03*
X016544Y017985D03*
X016469Y018085D03*
X016245Y018285D03*
X016245Y018335D03*
X016245Y018360D03*
X015994Y018785D03*
X015819Y018810D03*
X015819Y018835D03*
X015819Y018860D03*
X015620Y018810D03*
X015595Y018835D03*
X015595Y018860D03*
X014844Y018110D03*
X015069Y017935D03*
X015145Y017785D03*
X015119Y017760D03*
X015319Y017910D03*
X015645Y017885D03*
X015919Y017835D03*
X015794Y017610D03*
X015794Y017585D03*
X016044Y017060D03*
X015994Y017035D03*
X015919Y016985D03*
X015869Y016960D03*
X015819Y016935D03*
X015720Y016885D03*
X015670Y016860D03*
X015620Y016835D03*
X015494Y016760D03*
X015394Y016760D03*
X014720Y017835D03*
X019569Y018835D03*
X019569Y018860D03*
X019569Y018885D03*
X019569Y018910D03*
X019945Y016660D03*
D44*
X018556Y018335D03*
X019156Y018935D03*
X018732Y019085D03*
X018531Y019035D03*
X017906Y019160D03*
X017782Y019160D03*
X017131Y019085D03*
X016756Y019035D03*
X016656Y019035D03*
X016581Y019085D03*
X016106Y019085D03*
X015481Y018935D03*
X015506Y018810D03*
X015331Y018810D03*
X014906Y018810D03*
X014756Y018960D03*
X014906Y019160D03*
X015331Y018235D03*
X014756Y017860D03*
X015956Y017735D03*
X016081Y017635D03*
X016556Y017760D03*
X016756Y017635D03*
X016982Y017685D03*
X017131Y017735D03*
X017131Y017910D03*
X017131Y017985D03*
X016882Y017985D03*
X017482Y017685D03*
X017482Y017460D03*
X016857Y016735D03*
X016857Y016660D03*
X016106Y017085D03*
X016106Y017160D03*
X016257Y018385D03*
X016257Y018410D03*
X016257Y018435D03*
X013506Y019035D03*
X012406Y018810D03*
X012331Y018335D03*
X011831Y018310D03*
X011681Y018385D03*
X011831Y018135D03*
X012281Y017860D03*
X013081Y017735D03*
X012256Y016760D03*
X010381Y017560D03*
X010232Y017935D03*
X010232Y017960D03*
X010232Y017985D03*
X010232Y018035D03*
X010406Y018060D03*
X011006Y018360D03*
X010006Y018210D03*
X010006Y018185D03*
X009806Y018385D03*
X009281Y018385D03*
X009281Y018410D03*
X009181Y017835D03*
X008707Y016785D03*
X009781Y016785D03*
X009781Y016710D03*
X019631Y019160D03*
D45*
X019144Y019060D03*
X019594Y018610D03*
X019594Y018585D03*
X018244Y018385D03*
X017944Y018360D03*
X017894Y018385D03*
X017720Y018210D03*
X017344Y018235D03*
X017119Y017960D03*
X017119Y017935D03*
X016970Y017860D03*
X016920Y018035D03*
X016970Y017660D03*
X015919Y017635D03*
X015844Y017560D03*
X015670Y017560D03*
X015670Y017535D03*
X015670Y017585D03*
X015894Y017785D03*
X015319Y017935D03*
X015094Y017885D03*
X015469Y019060D03*
X014769Y019160D03*
X013219Y019085D03*
X012045Y018735D03*
X011719Y018360D03*
X011819Y018110D03*
X011919Y018085D03*
X011594Y017760D03*
X011594Y017535D03*
X011370Y017660D03*
X010745Y017885D03*
X010669Y017585D03*
X010369Y017585D03*
X010344Y017710D03*
X010369Y017960D03*
X010369Y018160D03*
X010369Y018185D03*
X010369Y018210D03*
X010819Y018260D03*
X010045Y017760D03*
X009620Y018385D03*
X008920Y017785D03*
X008944Y017635D03*
X008869Y017560D03*
X008720Y016760D03*
X008720Y016735D03*
X008720Y016710D03*
X008695Y019285D03*
X008695Y019310D03*
X008695Y019335D03*
X009819Y019335D03*
X009819Y019285D03*
X010745Y019360D03*
X011144Y019360D03*
X012019Y019385D03*
X012644Y017985D03*
X012744Y017785D03*
X012820Y017135D03*
X012269Y016735D03*
X012269Y016710D03*
X012095Y017135D03*
X015394Y016685D03*
X019944Y016685D03*
X019944Y016735D03*
D46*
X018107Y016685D03*
D47*
X013056Y016685D03*
D48*
X018419Y016710D03*
D49*
X014044Y016710D03*
D50*
X014106Y017685D03*
X013681Y017885D03*
X014106Y018235D03*
X014731Y017960D03*
X015331Y018210D03*
X015657Y018135D03*
X015657Y017610D03*
X015881Y017535D03*
X016581Y017935D03*
X017106Y018010D03*
X017106Y017860D03*
X017106Y017710D03*
X017906Y018185D03*
X017906Y018985D03*
X016907Y019085D03*
X014831Y019185D03*
X013006Y017535D03*
X012956Y017560D03*
X012431Y017935D03*
X011131Y018360D03*
X010981Y017935D03*
X010356Y017935D03*
X010356Y017610D03*
X010057Y017535D03*
X009806Y017135D03*
X008907Y017535D03*
X009857Y018060D03*
X015406Y016735D03*
X018981Y017885D03*
X019606Y018560D03*
D51*
X014781Y016735D03*
D52*
X009357Y016735D03*
D53*
X009644Y016760D03*
X012019Y017610D03*
X012019Y018185D03*
X013994Y018260D03*
D54*
X013069Y018835D03*
X013069Y019035D03*
X012394Y018885D03*
X012394Y018860D03*
X012394Y018835D03*
X012394Y018760D03*
X011819Y019035D03*
X009994Y019010D03*
X009994Y018685D03*
X009869Y018510D03*
X009994Y018160D03*
X009869Y017960D03*
X009969Y017185D03*
X010569Y016810D03*
X008944Y017835D03*
X008819Y017610D03*
X015544Y016785D03*
X015569Y016810D03*
X016819Y018010D03*
X017719Y018835D03*
X017744Y019135D03*
X018344Y018985D03*
X018344Y018960D03*
X018344Y018935D03*
X018344Y018910D03*
X018344Y018885D03*
X018369Y019035D03*
X018644Y019035D03*
X018644Y019010D03*
X018644Y019085D03*
X018994Y018860D03*
X018994Y018835D03*
X019119Y019085D03*
X019294Y019035D03*
X019294Y018935D03*
X019294Y018810D03*
X019469Y019035D03*
X019594Y019060D03*
X019594Y019085D03*
X019594Y019110D03*
X019594Y019135D03*
X019594Y018810D03*
X018994Y018310D03*
X018994Y018260D03*
X018369Y018360D03*
D55*
X018182Y017935D03*
X019182Y018160D03*
X019182Y018810D03*
X019382Y019085D03*
X018807Y018810D03*
X017857Y018960D03*
X017032Y018810D03*
X016382Y018410D03*
X016382Y018335D03*
X016382Y018285D03*
X016382Y018260D03*
X016382Y018235D03*
X015157Y017935D03*
X015057Y017860D03*
X014732Y017935D03*
X014957Y018260D03*
X013707Y019085D03*
X013382Y018435D03*
X013382Y018410D03*
X013382Y018385D03*
X012757Y017985D03*
X012457Y018235D03*
X011457Y018260D03*
X010632Y017885D03*
X010257Y016960D03*
X011257Y016785D03*
X009107Y017635D03*
X008982Y017735D03*
X012507Y019085D03*
X012857Y019035D03*
X019957Y019410D03*
X019957Y017160D03*
D56*
X019582Y018510D03*
X019582Y018535D03*
X018632Y018810D03*
X018057Y018135D03*
X017732Y018810D03*
X017432Y019085D03*
X016782Y018810D03*
X016807Y018035D03*
X016157Y017835D03*
X015532Y017885D03*
X015132Y017735D03*
X013882Y018210D03*
X014457Y019160D03*
X012782Y019085D03*
X012582Y018810D03*
X011957Y017935D03*
X012632Y017785D03*
X012832Y017160D03*
X012832Y017085D03*
X011857Y016835D03*
X011182Y016960D03*
X010707Y016960D03*
X010657Y016785D03*
X011232Y017685D03*
X009857Y018735D03*
X010607Y019085D03*
X010707Y018910D03*
X011182Y018910D03*
D57*
X010294Y018935D03*
X009944Y018710D03*
X009819Y019260D03*
X008694Y019260D03*
X008694Y019360D03*
X008794Y017685D03*
X009594Y017510D03*
X009819Y017510D03*
X009919Y017160D03*
X010044Y016835D03*
X011594Y016935D03*
X012894Y017610D03*
X012894Y017685D03*
X012219Y018360D03*
X013519Y018785D03*
X013519Y018810D03*
X013519Y018835D03*
X013519Y018860D03*
X013519Y018885D03*
X013519Y018910D03*
X013519Y018935D03*
X013519Y018960D03*
X013519Y018985D03*
X013519Y019010D03*
X013519Y019085D03*
X015769Y017685D03*
X015769Y016910D03*
X016369Y018310D03*
X017019Y018985D03*
X017044Y019010D03*
X017044Y019035D03*
X017844Y018235D03*
X019019Y018810D03*
X019019Y018885D03*
X019194Y018960D03*
X019194Y019035D03*
X019494Y018985D03*
X019494Y018960D03*
X019494Y018935D03*
X019494Y018885D03*
X019494Y018860D03*
X019494Y018835D03*
X019494Y018810D03*
X019794Y018810D03*
X019794Y018835D03*
X019794Y018860D03*
X019794Y018885D03*
X019794Y018910D03*
X019794Y018935D03*
X019794Y018960D03*
X019794Y018985D03*
X019794Y019010D03*
X019794Y019035D03*
X019794Y019060D03*
X019794Y019085D03*
X019794Y019110D03*
X019794Y019135D03*
X019794Y019160D03*
X019719Y018560D03*
X019169Y018135D03*
D58*
X019419Y018135D03*
X019419Y018160D03*
X019670Y018435D03*
X019870Y018110D03*
X018295Y018110D03*
X018245Y018210D03*
X018245Y018335D03*
X015395Y018135D03*
X013819Y017760D03*
X013819Y017735D03*
X013819Y017710D03*
X012519Y018160D03*
X010944Y016935D03*
D59*
X010269Y018110D03*
X014744Y017885D03*
X014744Y017810D03*
X016369Y018385D03*
X016994Y017935D03*
X017869Y018210D03*
X018144Y018085D03*
X018119Y018385D03*
X018819Y018285D03*
X019969Y017135D03*
X019969Y017085D03*
X019969Y019385D03*
X016394Y019085D03*
D60*
X016394Y017110D03*
D61*
X015594Y017135D03*
D62*
X013970Y017835D03*
X013820Y017685D03*
X013820Y017660D03*
X013820Y017635D03*
X013820Y017610D03*
X013419Y017635D03*
X013419Y017685D03*
X013419Y017710D03*
X011995Y018235D03*
X010619Y018160D03*
X010569Y018285D03*
X009369Y017785D03*
X009369Y017760D03*
X018169Y018360D03*
X018220Y018235D03*
X018245Y017560D03*
X019069Y017510D03*
X019069Y017485D03*
X019069Y017460D03*
X019069Y017435D03*
X019069Y017410D03*
X019419Y017885D03*
X019419Y018185D03*
X019419Y018210D03*
X019444Y018260D03*
X019869Y018235D03*
X019869Y018210D03*
X019869Y017785D03*
D63*
X019882Y017810D03*
X019882Y017910D03*
X019707Y017485D03*
X019707Y017460D03*
X019707Y017435D03*
X019457Y018285D03*
X016107Y018235D03*
X013232Y018235D03*
X010632Y018185D03*
D64*
X010707Y018060D03*
X010707Y018035D03*
X010707Y017985D03*
X010707Y017960D03*
X010707Y017860D03*
X011007Y017685D03*
X011332Y017760D03*
X011332Y018010D03*
X011332Y018035D03*
X012207Y017835D03*
X012207Y017810D03*
X012207Y017785D03*
X012207Y017485D03*
X012682Y017685D03*
X012682Y018010D03*
X012682Y018035D03*
X012682Y018060D03*
X013357Y018135D03*
X013982Y018035D03*
X013982Y017985D03*
X013982Y017960D03*
X013982Y017935D03*
X013457Y017510D03*
X014707Y017735D03*
X015082Y017985D03*
X014707Y018060D03*
X014707Y018360D03*
X014707Y018460D03*
X014557Y019185D03*
X015732Y018785D03*
X016282Y018110D03*
X017057Y017835D03*
X017782Y017810D03*
X017782Y017685D03*
X017782Y018035D03*
X018807Y017610D03*
X010307Y017810D03*
X010307Y017835D03*
X010307Y017860D03*
X010307Y017885D03*
X010307Y017910D03*
X010307Y018010D03*
X009707Y017810D03*
D65*
X009719Y017485D03*
X010044Y017610D03*
X010044Y017685D03*
X010695Y017710D03*
X010695Y017760D03*
X010695Y017785D03*
X010695Y017810D03*
X010695Y017835D03*
X010969Y017835D03*
X010969Y017810D03*
X010969Y017785D03*
X010969Y017760D03*
X010969Y017735D03*
X011594Y017660D03*
X011594Y017635D03*
X011594Y017610D03*
X011594Y017585D03*
X011819Y017760D03*
X011819Y017785D03*
X011869Y017685D03*
X012019Y017535D03*
X012444Y018085D03*
X012444Y018110D03*
X012694Y017960D03*
X012694Y017860D03*
X012694Y017810D03*
X012694Y017760D03*
X012694Y017735D03*
X012694Y017710D03*
X013419Y017785D03*
X013395Y018010D03*
X013395Y018035D03*
X013369Y018110D03*
X013644Y018035D03*
X014319Y017960D03*
X014319Y017935D03*
X014319Y017910D03*
X014319Y017885D03*
X015070Y018035D03*
X015044Y018135D03*
X015344Y018185D03*
X015919Y018085D03*
X015919Y018060D03*
X015919Y018035D03*
X015919Y018010D03*
X015919Y017985D03*
X015944Y018110D03*
X016270Y018010D03*
X016619Y018110D03*
X016619Y018135D03*
X016619Y018160D03*
X016619Y018185D03*
X016619Y018210D03*
X016619Y018235D03*
X016619Y018260D03*
X015919Y017710D03*
X015419Y018785D03*
X014020Y019185D03*
X012794Y019060D03*
X012494Y019060D03*
X012494Y018710D03*
X012095Y018335D03*
X011294Y018335D03*
X008970Y018110D03*
X018069Y018060D03*
X018069Y018035D03*
X018069Y018010D03*
X018069Y017735D03*
X018069Y017710D03*
X018694Y017760D03*
X018994Y018035D03*
X018719Y018710D03*
X018719Y019060D03*
D66*
X018257Y017585D03*
X019507Y017710D03*
X019682Y017510D03*
X016581Y018485D03*
X011132Y018235D03*
D67*
X010969Y018085D03*
X010969Y018035D03*
X012169Y017710D03*
X013469Y017735D03*
X014194Y017585D03*
X014194Y017535D03*
X014144Y018210D03*
X014719Y018385D03*
X014719Y018410D03*
X014719Y018435D03*
X014719Y018485D03*
X014719Y018510D03*
X016294Y018085D03*
X016294Y018060D03*
X017044Y017885D03*
X017044Y017810D03*
X017044Y017785D03*
X017044Y017760D03*
X017744Y017910D03*
X017769Y018060D03*
X017769Y017660D03*
X016344Y017510D03*
X009719Y017785D03*
X009694Y017835D03*
X009619Y017960D03*
X009619Y017985D03*
X009594Y018010D03*
X009594Y018035D03*
X008994Y018135D03*
D68*
X009369Y017510D03*
X009769Y017685D03*
X011094Y017585D03*
X013644Y018060D03*
X013644Y018085D03*
X013644Y018110D03*
X013644Y018185D03*
X015569Y018085D03*
X015594Y018110D03*
X015594Y018185D03*
X015594Y018210D03*
X015569Y017660D03*
X016144Y018260D03*
X017394Y018010D03*
X017419Y017660D03*
X019019Y017785D03*
X019044Y017860D03*
X019044Y017910D03*
X019044Y017935D03*
X019044Y017960D03*
X019044Y017985D03*
X019044Y018010D03*
D69*
X019482Y017810D03*
X019657Y017535D03*
X018257Y017610D03*
X018232Y018160D03*
X016107Y018185D03*
X013232Y018210D03*
D70*
X013270Y018260D03*
X013094Y018135D03*
X012719Y018185D03*
X012719Y018210D03*
X012695Y018085D03*
X012695Y017660D03*
X012144Y017685D03*
X011345Y017785D03*
X011345Y017810D03*
X011345Y017835D03*
X011345Y017860D03*
X011345Y017885D03*
X011345Y017910D03*
X011345Y017935D03*
X011345Y017960D03*
X011345Y017985D03*
X011319Y018060D03*
X010594Y018235D03*
X010594Y018260D03*
X010594Y018310D03*
X009644Y017935D03*
X009644Y017910D03*
X009744Y017735D03*
X009169Y018260D03*
X013819Y017585D03*
X013819Y017560D03*
X013819Y017535D03*
X014344Y018035D03*
X014694Y017710D03*
X015069Y018010D03*
X015019Y018110D03*
X014544Y018785D03*
X015969Y018135D03*
X016594Y017910D03*
X016644Y017535D03*
X016644Y018310D03*
X017844Y018785D03*
X019094Y018285D03*
X018394Y017710D03*
X018369Y017685D03*
X019069Y017535D03*
D71*
X018244Y017535D03*
X017769Y017835D03*
X017769Y017860D03*
X017769Y017885D03*
X017769Y017935D03*
X017769Y017985D03*
X017769Y018010D03*
X018819Y018260D03*
X018469Y019060D03*
X019719Y019185D03*
X015319Y018110D03*
X015319Y018085D03*
X015319Y018060D03*
X014694Y017985D03*
X014694Y017785D03*
X014694Y017760D03*
X014694Y018260D03*
X014694Y018285D03*
X014694Y018310D03*
X014694Y018335D03*
X014844Y018785D03*
X013444Y019060D03*
X013444Y017810D03*
X010294Y017785D03*
X010294Y017760D03*
X008944Y017710D03*
X008944Y017985D03*
X008944Y018010D03*
X008944Y018035D03*
X008944Y018060D03*
X008944Y018085D03*
D72*
X014694Y017685D03*
X014744Y018185D03*
X014744Y018210D03*
X014744Y018235D03*
X016344Y017760D03*
X017044Y018285D03*
X017769Y017635D03*
X017769Y017585D03*
X017769Y017560D03*
X017769Y017535D03*
X019644Y018460D03*
X019844Y018285D03*
D73*
X019894Y018160D03*
X019019Y018085D03*
X019019Y017760D03*
X017419Y017635D03*
X017419Y017610D03*
X017419Y017585D03*
X017419Y017560D03*
X017419Y017535D03*
X014194Y017610D03*
X014194Y017635D03*
X014194Y017660D03*
X011944Y018360D03*
X010594Y018210D03*
X009769Y017660D03*
D74*
X017044Y017635D03*
X017044Y017610D03*
X017044Y017585D03*
X017044Y017560D03*
X017044Y017535D03*
D75*
X016306Y017535D03*
X015981Y017960D03*
X014757Y018135D03*
X014757Y018160D03*
X014356Y018160D03*
X014356Y018185D03*
X014356Y018135D03*
X014356Y018110D03*
X014356Y018085D03*
X014356Y018060D03*
X014182Y017710D03*
X013106Y017960D03*
X010931Y018935D03*
X009356Y017710D03*
X009007Y017960D03*
X018282Y018135D03*
X019431Y018235D03*
D76*
X019131Y018260D03*
X019131Y018310D03*
X018956Y018110D03*
X018981Y018060D03*
X017507Y018235D03*
X017156Y017660D03*
X016631Y017860D03*
X015956Y017685D03*
X014956Y017535D03*
X014706Y018010D03*
X013656Y018010D03*
X013656Y017985D03*
X013081Y017685D03*
X012456Y018185D03*
X012156Y018085D03*
X011831Y017810D03*
X010631Y018360D03*
X010331Y018135D03*
X010056Y017735D03*
X010056Y017710D03*
X010056Y017585D03*
X010056Y017560D03*
X009331Y017810D03*
X009331Y017985D03*
X013131Y019060D03*
X015406Y018910D03*
X017131Y019060D03*
D77*
X017782Y018085D03*
X017782Y017610D03*
X013982Y017785D03*
X013982Y017810D03*
X013407Y017535D03*
X013982Y018060D03*
X013982Y018085D03*
X013982Y018110D03*
X013982Y018185D03*
X012057Y018135D03*
X012007Y017560D03*
X009132Y018235D03*
D78*
X010282Y018085D03*
X010757Y017910D03*
X010657Y017610D03*
X011282Y018360D03*
X012257Y018385D03*
X012782Y018160D03*
X012782Y017610D03*
X012782Y017585D03*
X012782Y017560D03*
X012782Y017535D03*
X014982Y018235D03*
X016982Y017910D03*
X017832Y019185D03*
X018807Y017585D03*
D79*
X018357Y018310D03*
X016832Y018785D03*
X013957Y018235D03*
X013132Y018785D03*
X012457Y018210D03*
X012132Y018310D03*
X011882Y018385D03*
X011782Y017935D03*
X011357Y017685D03*
X011107Y017535D03*
D80*
X009545Y017535D03*
X009545Y017635D03*
X016419Y017585D03*
D81*
X018256Y017660D03*
X019656Y017560D03*
X019656Y018410D03*
X013231Y018160D03*
X013181Y017910D03*
X012031Y017660D03*
X011981Y017985D03*
X011132Y018185D03*
X011156Y017635D03*
D82*
X011119Y018285D03*
X010644Y018410D03*
X011844Y018060D03*
X011844Y018035D03*
X011844Y018010D03*
X011844Y017735D03*
X011844Y017710D03*
X013044Y017710D03*
X013044Y017985D03*
X013044Y018010D03*
X013044Y018035D03*
X013044Y018060D03*
X013044Y018085D03*
X014294Y017835D03*
X014294Y017810D03*
X015569Y017810D03*
X015569Y017785D03*
X015569Y017760D03*
X015569Y017735D03*
X015569Y017710D03*
X015569Y017685D03*
X015569Y017860D03*
X015569Y017910D03*
X015569Y017960D03*
X015569Y017985D03*
X015569Y018010D03*
X017419Y018035D03*
X017419Y017985D03*
X017419Y017935D03*
X017419Y017910D03*
X017419Y017885D03*
X017419Y017860D03*
X017419Y017810D03*
X017419Y017760D03*
X017419Y017735D03*
X017419Y017710D03*
X018044Y017760D03*
X018044Y017785D03*
X018044Y017960D03*
X019069Y017610D03*
X019069Y017585D03*
X019069Y017560D03*
X009294Y018035D03*
X009294Y018060D03*
D83*
X016169Y017860D03*
X016419Y017560D03*
D84*
X016581Y017885D03*
X016656Y018335D03*
X016656Y018360D03*
X016656Y018385D03*
X016656Y018410D03*
X014956Y017560D03*
X014656Y017560D03*
X019406Y017910D03*
X019406Y017935D03*
X019406Y017960D03*
X019406Y017985D03*
X019406Y018010D03*
X019431Y017785D03*
X019856Y017710D03*
X019907Y017935D03*
X019907Y017960D03*
X019907Y017985D03*
X019907Y018010D03*
X019881Y018185D03*
X019856Y018260D03*
X009581Y018060D03*
X009381Y017735D03*
D85*
X009682Y017860D03*
X009731Y017760D03*
X009756Y017710D03*
X010056Y017660D03*
X010056Y017635D03*
X010606Y018335D03*
X010981Y018010D03*
X010981Y017985D03*
X010981Y017710D03*
X011606Y017710D03*
X011606Y017685D03*
X012181Y017735D03*
X012181Y017760D03*
X012131Y017935D03*
X012181Y018035D03*
X013056Y018110D03*
X012481Y018785D03*
X011131Y018410D03*
X008906Y017585D03*
X014206Y017560D03*
X016631Y018285D03*
X018106Y017685D03*
X018406Y017735D03*
X018406Y017760D03*
X018431Y017785D03*
X018431Y017810D03*
X018431Y017835D03*
X018406Y017860D03*
X018681Y018110D03*
X018706Y018785D03*
X019406Y018785D03*
X019406Y018910D03*
X019706Y018785D03*
D86*
X017057Y018460D03*
X017057Y018435D03*
X017057Y018410D03*
X017057Y018385D03*
X017057Y018360D03*
X017057Y018335D03*
X017057Y018310D03*
X016357Y018035D03*
X013382Y017610D03*
X013382Y017560D03*
X012032Y017585D03*
X009357Y017685D03*
D87*
X010269Y018060D03*
X010919Y018410D03*
X011594Y017735D03*
X011594Y017560D03*
X014819Y018935D03*
X018194Y018310D03*
X018744Y018685D03*
D88*
X018682Y018085D03*
X018682Y018060D03*
X018657Y018010D03*
X018657Y017985D03*
X018657Y017960D03*
X018657Y017935D03*
X018657Y017910D03*
X018657Y017860D03*
X018682Y017810D03*
X018682Y017785D03*
X018382Y018085D03*
X018032Y017985D03*
X018032Y017935D03*
X018057Y017810D03*
X017432Y019060D03*
X016832Y019060D03*
X016132Y019060D03*
X015032Y018160D03*
X015082Y018085D03*
X015582Y017935D03*
X015582Y017835D03*
X014307Y017860D03*
X014307Y018010D03*
X013407Y017985D03*
X013407Y017760D03*
X012432Y017985D03*
X012432Y018035D03*
X012432Y018060D03*
X012057Y018385D03*
X011082Y017560D03*
X010707Y017735D03*
X009307Y018010D03*
X009282Y018085D03*
X009282Y018110D03*
X008982Y017685D03*
X014032Y018885D03*
X019382Y019060D03*
D89*
X009507Y017610D03*
X009507Y017560D03*
D90*
X009120Y017860D03*
X009120Y017885D03*
X011994Y017885D03*
X011994Y017910D03*
X016419Y017635D03*
X018219Y017885D03*
X018219Y017910D03*
X019669Y017585D03*
D91*
X018969Y017810D03*
X018244Y018260D03*
X017745Y018185D03*
X017119Y017685D03*
X015969Y017610D03*
X015919Y017585D03*
X015645Y017635D03*
X015319Y017960D03*
X015119Y017910D03*
X015019Y018185D03*
X015019Y018210D03*
X013745Y018285D03*
X013669Y017960D03*
X013669Y017935D03*
X013669Y017910D03*
X013719Y017785D03*
X013420Y017835D03*
X013094Y017610D03*
X013044Y017585D03*
X012769Y017635D03*
X012144Y017860D03*
X012144Y018010D03*
X012144Y018060D03*
X012020Y018260D03*
X011970Y018310D03*
X011894Y018335D03*
X012519Y018685D03*
X013745Y019060D03*
X010944Y019135D03*
X010644Y018385D03*
X010744Y017935D03*
X010694Y017685D03*
X010670Y017635D03*
X016619Y019060D03*
X019095Y018910D03*
D92*
X014819Y017610D03*
X014819Y017585D03*
X011119Y018135D03*
D93*
X012057Y018210D03*
X013357Y017585D03*
X016432Y017735D03*
X016432Y017835D03*
D94*
X009495Y017585D03*
D95*
X019656Y017610D03*
X019656Y018360D03*
D96*
X019656Y017760D03*
X019656Y017735D03*
X016806Y018060D03*
X016431Y017610D03*
D97*
X019431Y018085D03*
X019431Y018110D03*
X012006Y018160D03*
X011131Y018210D03*
X011157Y017610D03*
X009157Y018210D03*
X009131Y018185D03*
D98*
X009319Y018435D03*
X009319Y017835D03*
X008994Y017610D03*
X010619Y018435D03*
X011769Y018085D03*
X012444Y017960D03*
X013694Y017860D03*
X013694Y017835D03*
X013694Y017810D03*
X014269Y017685D03*
X018369Y018010D03*
X018369Y018035D03*
X018369Y018060D03*
X018669Y018035D03*
X018669Y017885D03*
X018669Y017835D03*
X019619Y018485D03*
D99*
X019657Y018335D03*
X019657Y018310D03*
X019657Y017660D03*
X019657Y017635D03*
X014831Y017635D03*
X014831Y017660D03*
X013831Y018135D03*
X013831Y018160D03*
D100*
X013319Y017660D03*
X012594Y018135D03*
X011969Y017960D03*
X012044Y017635D03*
X018869Y018135D03*
X018869Y018160D03*
X018920Y017635D03*
X019644Y018385D03*
D101*
X018244Y017635D03*
X016144Y018210D03*
X016044Y017935D03*
X013219Y018185D03*
X013169Y017935D03*
X009669Y018210D03*
D102*
X009869Y018035D03*
X009869Y018010D03*
X009869Y017985D03*
X012419Y017910D03*
X013044Y017635D03*
X017369Y017685D03*
X018019Y018085D03*
X018044Y018110D03*
X019119Y017885D03*
X019119Y017810D03*
X019644Y017785D03*
D103*
X018907Y017660D03*
D104*
X016356Y017660D03*
D105*
X019444Y017860D03*
X011094Y017660D03*
D106*
X010982Y017960D03*
X010682Y018010D03*
X010682Y017660D03*
X010307Y017735D03*
X012707Y017835D03*
X012707Y017910D03*
X012707Y017935D03*
X013382Y018060D03*
X013382Y018085D03*
X014682Y018085D03*
X014682Y018110D03*
X014732Y018035D03*
X015107Y017960D03*
X015307Y017985D03*
X015307Y018010D03*
X015307Y018035D03*
X016307Y017985D03*
X017082Y018035D03*
X017757Y017960D03*
X017757Y017785D03*
X017757Y017760D03*
X019107Y018785D03*
X016407Y019060D03*
X016382Y018785D03*
X015707Y019060D03*
D107*
X009270Y017660D03*
D108*
X019657Y017685D03*
D109*
X018894Y017685D03*
X018894Y017710D03*
X013219Y017860D03*
X013219Y017885D03*
D110*
X016119Y017885D03*
X016444Y017685D03*
X017569Y018135D03*
X017619Y018160D03*
X017619Y018110D03*
X018944Y018185D03*
D111*
X019032Y017835D03*
X018307Y017960D03*
X018307Y017985D03*
X017482Y018210D03*
X017432Y018085D03*
X015032Y017685D03*
X014307Y017985D03*
X013982Y018010D03*
X013982Y017910D03*
X013982Y017885D03*
X013982Y017860D03*
X011132Y018260D03*
X010657Y018135D03*
X009657Y017885D03*
D112*
X010982Y018060D03*
X012707Y018110D03*
X017057Y018110D03*
X017057Y018135D03*
X017057Y018160D03*
X017057Y018185D03*
X017057Y018210D03*
X017057Y018235D03*
X017057Y018260D03*
X017807Y017735D03*
X017807Y017710D03*
D113*
X018957Y018235D03*
X016457Y017710D03*
D114*
X016232Y018135D03*
X015557Y018060D03*
X015557Y018035D03*
X015057Y018060D03*
X015057Y017710D03*
X014282Y017785D03*
X013957Y018285D03*
X014007Y018910D03*
X012407Y018010D03*
X011307Y018085D03*
X010682Y018085D03*
X010682Y018110D03*
X009257Y018135D03*
X017407Y017960D03*
X017432Y018060D03*
X017407Y017835D03*
X017407Y017785D03*
X018357Y017935D03*
X017457Y018910D03*
D115*
X018882Y017735D03*
D116*
X014194Y017735D03*
X014194Y017760D03*
X012069Y018110D03*
D117*
X016457Y017785D03*
D118*
X016457Y017810D03*
X016557Y018435D03*
X009082Y017910D03*
D119*
X019657Y017835D03*
D120*
X019844Y017860D03*
X019844Y017885D03*
X018244Y018185D03*
X011169Y018385D03*
D121*
X009682Y018085D03*
X009132Y018160D03*
X015482Y018160D03*
X016107Y018160D03*
X016057Y017910D03*
D122*
X016569Y018460D03*
X009069Y017935D03*
D123*
X019644Y018035D03*
X019644Y018060D03*
D124*
X019857Y018085D03*
X019857Y018135D03*
X017457Y018185D03*
D125*
X016856Y018085D03*
D126*
X011144Y018110D03*
D127*
X009669Y018110D03*
X009669Y018135D03*
X009669Y018160D03*
X009669Y018185D03*
D128*
X011131Y018160D03*
D129*
X018944Y018210D03*
D130*
X009419Y019310D03*
D131*
X015994Y019335D03*
X015994Y019360D03*
D132*
X019885Y016360D02*
X019885Y016347D01*
X019892Y016340D01*
X019912Y016340D01*
X019912Y016327D02*
X019912Y016367D01*
X019892Y016367D01*
X019885Y016360D01*
X019931Y016360D02*
X019931Y016340D01*
X019945Y016340D02*
X019945Y016360D01*
X019938Y016367D01*
X019931Y016360D01*
X019945Y016360D02*
X019951Y016367D01*
X019958Y016367D01*
X019958Y016340D01*
X019978Y016347D02*
X019978Y016360D01*
X019984Y016367D01*
X020004Y016367D01*
X020004Y016380D02*
X020004Y016340D01*
X019984Y016340D01*
X019978Y016347D01*
X020021Y016347D02*
X020021Y016340D01*
X020027Y016340D01*
X020027Y016347D01*
X020021Y016347D01*
X020047Y016347D02*
X020047Y016360D01*
X020053Y016367D01*
X020067Y016367D01*
X020073Y016360D01*
X020073Y016347D01*
X020067Y016340D01*
X020053Y016340D01*
X020047Y016347D01*
X020093Y016340D02*
X020113Y016340D01*
X020119Y016347D01*
X020119Y016360D01*
X020113Y016367D01*
X020093Y016367D01*
X020093Y016333D01*
X020099Y016327D01*
X020106Y016327D01*
X020139Y016347D02*
X020139Y016360D01*
X020145Y016367D01*
X020159Y016367D01*
X020165Y016360D01*
X020165Y016347D01*
X020159Y016340D01*
X020145Y016340D01*
X020139Y016347D01*
X020183Y016340D02*
X020196Y016340D01*
X020189Y016340D02*
X020189Y016380D01*
X020196Y016380D01*
X020215Y016380D02*
X020242Y016340D01*
X020261Y016347D02*
X020268Y016353D01*
X020281Y016353D01*
X020288Y016360D01*
X020281Y016367D01*
X020261Y016367D01*
X020261Y016347D02*
X020268Y016340D01*
X020288Y016340D01*
X020307Y016347D02*
X020307Y016360D01*
X020314Y016367D01*
X020327Y016367D01*
X020334Y016360D01*
X020334Y016347D01*
X020327Y016340D01*
X020314Y016340D01*
X020307Y016347D01*
X020353Y016340D02*
X020374Y016340D01*
X020380Y016347D01*
X020380Y016360D01*
X020374Y016367D01*
X020353Y016367D01*
X020353Y016333D01*
X020360Y016327D01*
X020367Y016327D01*
X020400Y016347D02*
X020400Y016360D01*
X020406Y016367D01*
X020420Y016367D01*
X020426Y016360D01*
X020426Y016347D01*
X020420Y016340D01*
X020406Y016340D01*
X020400Y016347D01*
X020446Y016340D02*
X020472Y016340D01*
X020472Y016380D01*
X020492Y016380D02*
X020518Y016340D01*
X020535Y016340D02*
X020541Y016340D01*
X020541Y016347D01*
X020535Y016347D01*
X020535Y016340D01*
X020535Y016360D02*
X020541Y016360D01*
X020541Y016367D01*
X020535Y016367D01*
X020535Y016360D01*
X020561Y016373D02*
X020587Y016347D01*
X020587Y016340D01*
X020561Y016340D01*
X020561Y016373D02*
X020561Y016380D01*
X020587Y016380D01*
X023932Y008135D02*
X023107Y006085D01*
X023207Y006110D02*
X024057Y008085D01*
D133*
X025166Y011812D02*
X025166Y017008D01*
X030048Y017008D01*
X030048Y011812D01*
X025166Y011812D01*
X026583Y013819D02*
X028630Y013819D01*
X026426Y014410D02*
X026428Y014479D01*
X026434Y014547D01*
X026444Y014615D01*
X026458Y014682D01*
X026476Y014749D01*
X026497Y014814D01*
X026523Y014878D01*
X026552Y014940D01*
X026584Y015000D01*
X026620Y015059D01*
X026660Y015115D01*
X026702Y015169D01*
X026748Y015220D01*
X026797Y015269D01*
X026848Y015315D01*
X026902Y015357D01*
X026958Y015397D01*
X027016Y015433D01*
X027077Y015465D01*
X027139Y015494D01*
X027203Y015520D01*
X027268Y015541D01*
X027335Y015559D01*
X027402Y015573D01*
X027470Y015583D01*
X027538Y015589D01*
X027607Y015591D01*
X027676Y015589D01*
X027744Y015583D01*
X027812Y015573D01*
X027879Y015559D01*
X027946Y015541D01*
X028011Y015520D01*
X028075Y015494D01*
X028137Y015465D01*
X028197Y015433D01*
X028256Y015397D01*
X028312Y015357D01*
X028366Y015315D01*
X028417Y015269D01*
X028466Y015220D01*
X028512Y015169D01*
X028554Y015115D01*
X028594Y015059D01*
X028630Y015000D01*
X028662Y014940D01*
X028691Y014878D01*
X028717Y014814D01*
X028738Y014749D01*
X028756Y014682D01*
X028770Y014615D01*
X028780Y014547D01*
X028786Y014479D01*
X028788Y014410D01*
X028786Y014341D01*
X028780Y014273D01*
X028770Y014205D01*
X028756Y014138D01*
X028738Y014071D01*
X028717Y014006D01*
X028691Y013942D01*
X028662Y013880D01*
X028630Y013819D01*
X028594Y013761D01*
X028554Y013705D01*
X028512Y013651D01*
X028466Y013600D01*
X028417Y013551D01*
X028366Y013505D01*
X028312Y013463D01*
X028256Y013423D01*
X028198Y013387D01*
X028137Y013355D01*
X028075Y013326D01*
X028011Y013300D01*
X027946Y013279D01*
X027879Y013261D01*
X027812Y013247D01*
X027744Y013237D01*
X027676Y013231D01*
X027607Y013229D01*
X027538Y013231D01*
X027470Y013237D01*
X027402Y013247D01*
X027335Y013261D01*
X027268Y013279D01*
X027203Y013300D01*
X027139Y013326D01*
X027077Y013355D01*
X027016Y013387D01*
X026958Y013423D01*
X026902Y013463D01*
X026848Y013505D01*
X026797Y013551D01*
X026748Y013600D01*
X026702Y013651D01*
X026660Y013705D01*
X026620Y013761D01*
X026584Y013819D01*
X026552Y013880D01*
X026523Y013942D01*
X026497Y014006D01*
X026476Y014071D01*
X026458Y014138D01*
X026444Y014205D01*
X026434Y014273D01*
X026428Y014341D01*
X026426Y014410D01*
X008167Y006791D02*
X008167Y006758D01*
X008134Y006724D01*
X008067Y006724D01*
X008034Y006691D01*
X008034Y006658D01*
X008067Y006624D01*
X008134Y006624D01*
X008167Y006658D01*
X008167Y006791D02*
X008134Y006824D01*
X008067Y006824D01*
X008034Y006791D01*
X007937Y006791D02*
X007937Y006658D01*
X007903Y006624D01*
X007837Y006624D01*
X007803Y006658D01*
X007803Y006791D01*
X007837Y006824D01*
X007903Y006824D01*
X007937Y006791D01*
X007707Y006824D02*
X007707Y006624D01*
X007573Y006624D01*
X007476Y006624D02*
X007410Y006624D01*
X007443Y006624D02*
X007443Y006824D01*
X007476Y006824D02*
X007410Y006824D01*
X007323Y006824D02*
X007223Y006824D01*
X007190Y006791D01*
X007190Y006658D01*
X007223Y006624D01*
X007323Y006624D01*
X007323Y006824D01*
X007285Y006449D02*
X007151Y006449D01*
X007218Y006349D02*
X007285Y006349D01*
X007285Y006449D02*
X007285Y006249D01*
X007151Y006249D01*
X007151Y006074D02*
X007151Y006041D01*
X007218Y005974D01*
X007218Y005874D01*
X007218Y005974D02*
X007285Y006041D01*
X007285Y006074D01*
X007381Y006008D02*
X007381Y005874D01*
X007381Y005974D02*
X007515Y005974D01*
X007515Y006008D02*
X007448Y006074D01*
X007381Y006008D01*
X007515Y006008D02*
X007515Y005874D01*
X007612Y005874D02*
X007745Y005874D01*
X007745Y006074D01*
X007842Y006074D02*
X007975Y006074D01*
X007975Y005874D01*
X007842Y005874D01*
X007908Y005974D02*
X007975Y005974D01*
X008072Y005974D02*
X008105Y005941D01*
X008205Y005941D01*
X008139Y005941D02*
X008072Y005874D01*
X008072Y005974D02*
X008072Y006041D01*
X008105Y006074D01*
X008205Y006074D01*
X008205Y005874D01*
X008172Y006249D02*
X008105Y006249D01*
X008072Y006283D01*
X008072Y006316D01*
X008105Y006349D01*
X008172Y006349D01*
X008205Y006383D01*
X008205Y006416D01*
X008172Y006449D01*
X008105Y006449D01*
X008072Y006416D01*
X007975Y006449D02*
X007842Y006449D01*
X007908Y006449D02*
X007908Y006249D01*
X007745Y006249D02*
X007745Y006383D01*
X007678Y006449D01*
X007612Y006383D01*
X007612Y006249D01*
X007612Y006349D02*
X007745Y006349D01*
X007515Y006449D02*
X007381Y006449D01*
X007448Y006449D02*
X007448Y006249D01*
X008172Y006249D02*
X008205Y006283D01*
X004395Y004855D02*
X004268Y004855D01*
X004331Y004855D02*
X004331Y004665D01*
X004325Y004530D02*
X004388Y004530D01*
X004420Y004498D01*
X004420Y004372D01*
X004388Y004340D01*
X004325Y004340D01*
X004293Y004372D01*
X004199Y004372D02*
X004199Y004498D01*
X004167Y004530D01*
X004104Y004530D01*
X004072Y004498D01*
X004072Y004372D01*
X004104Y004340D01*
X004167Y004340D01*
X004199Y004372D01*
X004293Y004498D02*
X004325Y004530D01*
X004174Y004665D02*
X004174Y004855D01*
X004174Y004760D02*
X004047Y004760D01*
X003953Y004760D02*
X003889Y004760D01*
X003826Y004665D02*
X003953Y004665D01*
X003953Y004855D01*
X003826Y004855D01*
X003732Y004855D02*
X003637Y004855D01*
X003605Y004823D01*
X003605Y004760D01*
X003637Y004728D01*
X003732Y004728D01*
X003732Y004665D02*
X003732Y004855D01*
X003668Y004728D02*
X003605Y004665D01*
X003511Y004665D02*
X003511Y004855D01*
X003447Y004792D01*
X003384Y004855D01*
X003384Y004665D01*
X003290Y004697D02*
X003258Y004665D01*
X003195Y004665D01*
X003163Y004697D01*
X003163Y004823D01*
X003195Y004855D01*
X003258Y004855D01*
X003290Y004823D01*
X003290Y004697D01*
X003315Y004530D02*
X003188Y004530D01*
X003251Y004435D02*
X003315Y004435D01*
X003315Y004340D02*
X003188Y004340D01*
X003315Y004340D02*
X003315Y004530D01*
X003409Y004340D02*
X003536Y004340D01*
X003536Y004530D01*
X003630Y004498D02*
X003630Y004435D01*
X003662Y004403D01*
X003757Y004403D01*
X003757Y004340D02*
X003757Y004530D01*
X003662Y004530D01*
X003630Y004498D01*
X003851Y004530D02*
X003851Y004372D01*
X003883Y004340D01*
X003946Y004340D01*
X003978Y004372D01*
X003978Y004530D01*
X004047Y004665D02*
X004047Y004855D01*
D134*
X013184Y005906D03*
D135*
X013178Y005905D03*
D136*
X013171Y005906D03*
D137*
X013164Y005905D03*
D138*
X013158Y005905D03*
X010298Y005905D03*
D139*
X013151Y005909D03*
D140*
X013144Y005906D03*
D141*
X013138Y005909D03*
X010318Y005909D03*
D142*
X010331Y005905D03*
X010338Y005905D03*
X010351Y005905D03*
X010358Y005905D03*
X010371Y005905D03*
X010378Y005905D03*
X010391Y005905D03*
X010398Y005905D03*
X010411Y005905D03*
X010418Y005905D03*
X010431Y005905D03*
X010438Y005905D03*
X010451Y005905D03*
X010458Y005905D03*
X010471Y005905D03*
X010478Y005905D03*
X010491Y005905D03*
X010498Y005905D03*
X010511Y005905D03*
X010518Y005905D03*
X010531Y005905D03*
X010538Y005905D03*
X010551Y005905D03*
X010558Y005905D03*
X010571Y005905D03*
X010578Y005905D03*
X010591Y005905D03*
X010598Y005905D03*
X010611Y005905D03*
X010618Y005905D03*
X010631Y005905D03*
X010638Y005905D03*
X010651Y005905D03*
X010658Y005905D03*
X010671Y005905D03*
X011838Y005905D03*
X011851Y005905D03*
X011858Y005905D03*
X011871Y005905D03*
X011878Y005905D03*
X011891Y005905D03*
X011898Y005905D03*
X011911Y005905D03*
X011918Y005905D03*
X011931Y005905D03*
X011938Y005905D03*
X011951Y005905D03*
X011958Y005905D03*
X011971Y005905D03*
X011978Y005905D03*
X011991Y005905D03*
X011998Y005905D03*
X012011Y005905D03*
X012018Y005905D03*
X012031Y005905D03*
X012038Y005905D03*
X012051Y005905D03*
X012058Y005905D03*
X012071Y005905D03*
X012078Y005905D03*
X012091Y005905D03*
X012278Y005905D03*
X012291Y005905D03*
X012298Y005905D03*
X012311Y005905D03*
X012318Y005905D03*
X012331Y005905D03*
X012338Y005905D03*
X012351Y005905D03*
X012358Y005905D03*
X012371Y005905D03*
X012378Y005905D03*
X012391Y005905D03*
X012398Y005905D03*
X012411Y005905D03*
X012418Y005905D03*
X012431Y005905D03*
X012438Y005905D03*
X012451Y005905D03*
X012458Y005905D03*
X012471Y005905D03*
X012478Y005905D03*
X012491Y005905D03*
X012498Y005905D03*
X012511Y005905D03*
X012518Y005905D03*
X012791Y005905D03*
X012798Y005905D03*
X012811Y005905D03*
X012818Y005905D03*
X012831Y005905D03*
X012838Y005905D03*
X012851Y005905D03*
X012858Y005905D03*
X012871Y005905D03*
X012878Y005905D03*
X012891Y005905D03*
X012898Y005905D03*
X012911Y005905D03*
X012918Y005905D03*
X012931Y005905D03*
X012938Y005905D03*
X012951Y005905D03*
X012958Y005905D03*
X012971Y005905D03*
X012978Y005905D03*
X012991Y005905D03*
X012998Y005905D03*
X013011Y005905D03*
X013018Y005905D03*
X013031Y005905D03*
X013038Y005905D03*
X013051Y005905D03*
X013058Y005905D03*
X013071Y005905D03*
X013078Y005905D03*
X013091Y005905D03*
X013098Y005905D03*
X013111Y005905D03*
X013118Y005905D03*
X013131Y005905D03*
D143*
X013124Y005905D03*
X013104Y005905D03*
X013084Y005905D03*
X013064Y005905D03*
X013044Y005905D03*
X013024Y005905D03*
X013004Y005905D03*
X012984Y005905D03*
X012964Y005905D03*
X012944Y005905D03*
X012924Y005905D03*
X012904Y005905D03*
X012884Y005905D03*
X012864Y005905D03*
X012844Y005905D03*
X012824Y005905D03*
X012804Y005905D03*
X012784Y005905D03*
X012524Y005905D03*
X012504Y005905D03*
X012484Y005905D03*
X012464Y005905D03*
X012444Y005905D03*
X012424Y005905D03*
X012404Y005905D03*
X012384Y005905D03*
X012364Y005905D03*
X012344Y005905D03*
X012324Y005905D03*
X012304Y005905D03*
X012284Y005905D03*
X012084Y005905D03*
X012064Y005905D03*
X012044Y005905D03*
X012024Y005905D03*
X012004Y005905D03*
X011984Y005905D03*
X011964Y005905D03*
X011944Y005905D03*
X011924Y005905D03*
X011904Y005905D03*
X011884Y005905D03*
X011864Y005905D03*
X011844Y005905D03*
X010664Y005905D03*
X010644Y005905D03*
X010624Y005905D03*
X010604Y005905D03*
X010584Y005905D03*
X010564Y005905D03*
X010544Y005905D03*
X010524Y005905D03*
X010504Y005905D03*
X010484Y005905D03*
X010464Y005905D03*
X010444Y005905D03*
X010424Y005905D03*
X010404Y005905D03*
X010384Y005905D03*
X010364Y005905D03*
X010344Y005905D03*
X010324Y005905D03*
D144*
X012531Y005219D03*
X012538Y005219D03*
X012551Y005219D03*
X012558Y005219D03*
X012571Y005219D03*
X012578Y005219D03*
X012591Y005219D03*
X012598Y005219D03*
X012611Y005219D03*
X012618Y005219D03*
X012631Y005219D03*
X012638Y005219D03*
X012651Y005219D03*
X012658Y005219D03*
X012671Y005219D03*
X012678Y005219D03*
X012691Y005219D03*
X012698Y005219D03*
X012711Y005219D03*
X012718Y005219D03*
X012731Y005219D03*
X012738Y005219D03*
X012751Y005219D03*
X012758Y005219D03*
X012771Y005219D03*
X012778Y005219D03*
X012778Y006592D03*
X012771Y006592D03*
X012758Y006592D03*
X012751Y006592D03*
X012738Y006592D03*
X012731Y006592D03*
X012718Y006592D03*
X012711Y006592D03*
X012698Y006592D03*
X012691Y006592D03*
X012678Y006592D03*
X012671Y006592D03*
X012658Y006592D03*
X012651Y006592D03*
X012638Y006592D03*
X012631Y006592D03*
X012618Y006592D03*
X012611Y006592D03*
X012598Y006592D03*
X012591Y006592D03*
X012578Y006592D03*
X012571Y006592D03*
X012558Y006592D03*
X012551Y006592D03*
X012538Y006592D03*
X012531Y006592D03*
D145*
X012544Y006592D03*
X012564Y006592D03*
X012584Y006592D03*
X012604Y006592D03*
X012624Y006592D03*
X012644Y006592D03*
X012664Y006592D03*
X012684Y006592D03*
X012704Y006592D03*
X012724Y006592D03*
X012744Y006592D03*
X012764Y006592D03*
X012764Y005219D03*
X012744Y005219D03*
X012724Y005219D03*
X012704Y005219D03*
X012684Y005219D03*
X012664Y005219D03*
X012644Y005219D03*
X012624Y005219D03*
X012604Y005219D03*
X012584Y005219D03*
X012564Y005219D03*
X012544Y005219D03*
D146*
X012338Y007585D03*
D147*
X012331Y007585D03*
D148*
X012324Y007586D03*
D149*
X012318Y007589D03*
D150*
X012311Y007586D03*
D151*
X012304Y007585D03*
D152*
X012298Y007585D03*
D153*
X012291Y007589D03*
D154*
X012284Y007589D03*
D155*
X012278Y007585D03*
D156*
X012271Y006369D03*
X012258Y006369D03*
D157*
X012264Y006369D03*
D158*
X012251Y006372D03*
X012238Y006372D03*
X012231Y006372D03*
X012218Y006372D03*
X012211Y006372D03*
X012198Y006372D03*
X012191Y006372D03*
X012178Y006372D03*
X012171Y006372D03*
X012158Y006372D03*
X012151Y006372D03*
X012138Y006372D03*
X012131Y006372D03*
X012118Y006372D03*
X012111Y006372D03*
X012098Y006372D03*
D159*
X012104Y006372D03*
X012124Y006372D03*
X012144Y006372D03*
X012164Y006372D03*
X012184Y006372D03*
X012204Y006372D03*
X012224Y006372D03*
X012244Y006372D03*
D160*
X012091Y007589D03*
X012078Y007589D03*
X012071Y007589D03*
X012058Y007589D03*
X012051Y007589D03*
X012038Y007589D03*
X012031Y007589D03*
X012018Y007589D03*
X012011Y007589D03*
X011998Y007589D03*
X011991Y007589D03*
X011978Y007589D03*
X011971Y007589D03*
X011958Y007589D03*
X011951Y007589D03*
X011938Y007589D03*
X011931Y007589D03*
X011918Y007589D03*
X011911Y007589D03*
X011898Y007589D03*
D161*
X011904Y007589D03*
X011924Y007589D03*
X011944Y007589D03*
X011964Y007589D03*
X011984Y007589D03*
X012004Y007589D03*
X012024Y007589D03*
X012044Y007589D03*
X012064Y007589D03*
X012084Y007589D03*
D162*
X011891Y007586D03*
D163*
X011884Y007589D03*
D164*
X011878Y007589D03*
D165*
X011871Y007585D03*
D166*
X011864Y007585D03*
D167*
X011858Y007589D03*
D168*
X011851Y007585D03*
D169*
X011844Y007585D03*
D170*
X011838Y007589D03*
D171*
X011831Y005412D03*
X011818Y005412D03*
X011811Y005412D03*
X011798Y005412D03*
X011791Y005412D03*
X011778Y005412D03*
X011771Y005412D03*
X011758Y005412D03*
X011751Y005412D03*
X011738Y005412D03*
X011731Y005412D03*
X011718Y005412D03*
X011711Y005412D03*
X011698Y005412D03*
X011691Y005412D03*
X011678Y005412D03*
X011671Y005412D03*
X011658Y005412D03*
X011651Y005412D03*
X011638Y005412D03*
X011631Y005412D03*
X011618Y005412D03*
X011611Y005412D03*
X011598Y005412D03*
X011591Y005412D03*
X011578Y005412D03*
X011571Y005412D03*
X011558Y005412D03*
X011551Y005412D03*
X011538Y005412D03*
X011531Y005412D03*
X011518Y005412D03*
X011511Y005412D03*
X011498Y005412D03*
X011491Y005412D03*
X011478Y005412D03*
X011471Y005412D03*
X011458Y005412D03*
X011451Y005412D03*
X011438Y005412D03*
X011431Y005412D03*
X011418Y005412D03*
X011411Y005412D03*
X011398Y005412D03*
X011391Y005412D03*
X011378Y005412D03*
X011371Y005412D03*
X011131Y005412D03*
X011118Y005412D03*
X011111Y005412D03*
X011098Y005412D03*
X011091Y005412D03*
X011078Y005412D03*
X011071Y005412D03*
X011058Y005412D03*
X011051Y005412D03*
X011038Y005412D03*
X011031Y005412D03*
X011018Y005412D03*
X011011Y005412D03*
X010998Y005412D03*
X010991Y005412D03*
X010978Y005412D03*
X010971Y005412D03*
X010958Y005412D03*
X010951Y005412D03*
X010938Y005412D03*
X010931Y005412D03*
X010918Y005412D03*
X010911Y005412D03*
X010898Y005412D03*
X010891Y005412D03*
X010878Y005412D03*
X010871Y005412D03*
X010858Y005412D03*
X010851Y005412D03*
X010838Y005412D03*
X010831Y005412D03*
X010818Y005412D03*
X010811Y005412D03*
X010798Y005412D03*
X010791Y005412D03*
X010778Y005412D03*
X010771Y005412D03*
X010758Y005412D03*
X010751Y005412D03*
X010738Y005412D03*
X010731Y005412D03*
X010718Y005412D03*
X010711Y005412D03*
X010698Y005412D03*
X010691Y005412D03*
X010678Y005412D03*
D172*
X010678Y006402D03*
X010691Y006402D03*
X010698Y006402D03*
X010711Y006402D03*
X010718Y006402D03*
X010731Y006402D03*
X010738Y006402D03*
X010751Y006402D03*
X010758Y006402D03*
X010771Y006402D03*
X010778Y006402D03*
X010791Y006402D03*
X010798Y006402D03*
X010811Y006402D03*
X010818Y006402D03*
X010831Y006402D03*
X010838Y006402D03*
X010851Y006402D03*
X010858Y006402D03*
X010871Y006402D03*
X010878Y006402D03*
X010891Y006402D03*
X010898Y006402D03*
X010911Y006402D03*
X010918Y006402D03*
X010931Y006402D03*
X010938Y006402D03*
X010951Y006402D03*
X010958Y006402D03*
X010971Y006402D03*
X010978Y006402D03*
X010991Y006402D03*
X010998Y006402D03*
X011011Y006402D03*
X011018Y006402D03*
X011031Y006402D03*
X011038Y006402D03*
X011051Y006402D03*
X011058Y006402D03*
X011071Y006402D03*
X011078Y006402D03*
X011091Y006402D03*
X011098Y006402D03*
X011111Y006402D03*
X011118Y006402D03*
X011131Y006402D03*
X011371Y006402D03*
X011378Y006402D03*
X011391Y006402D03*
X011398Y006402D03*
X011411Y006402D03*
X011418Y006402D03*
X011431Y006402D03*
X011438Y006402D03*
X011451Y006402D03*
X011458Y006402D03*
X011471Y006402D03*
X011478Y006402D03*
X011491Y006402D03*
X011498Y006402D03*
X011511Y006402D03*
X011518Y006402D03*
X011531Y006402D03*
X011538Y006402D03*
X011551Y006402D03*
X011558Y006402D03*
X011571Y006402D03*
X011578Y006402D03*
X011591Y006402D03*
X011598Y006402D03*
X011611Y006402D03*
X011618Y006402D03*
X011631Y006402D03*
X011638Y006402D03*
X011651Y006402D03*
X011658Y006402D03*
X011671Y006402D03*
X011678Y006402D03*
X011691Y006402D03*
X011698Y006402D03*
X011711Y006402D03*
X011718Y006402D03*
X011731Y006402D03*
X011738Y006402D03*
X011751Y006402D03*
X011758Y006402D03*
X011771Y006402D03*
X011778Y006402D03*
X011791Y006402D03*
X011798Y006402D03*
X011811Y006402D03*
X011818Y006402D03*
X011831Y006402D03*
D173*
X011831Y007585D03*
D174*
X011824Y005412D03*
X011804Y005412D03*
X011784Y005412D03*
X011764Y005412D03*
X011744Y005412D03*
X011724Y005412D03*
X011704Y005412D03*
X011684Y005412D03*
X011664Y005412D03*
X011644Y005412D03*
X011624Y005412D03*
X011604Y005412D03*
X011584Y005412D03*
X011564Y005412D03*
X011544Y005412D03*
X011524Y005412D03*
X011504Y005412D03*
X011484Y005412D03*
X011464Y005412D03*
X011444Y005412D03*
X011424Y005412D03*
X011404Y005412D03*
X011384Y005412D03*
X011124Y005412D03*
X011104Y005412D03*
X011084Y005412D03*
X011064Y005412D03*
X011044Y005412D03*
X011024Y005412D03*
X011004Y005412D03*
X010984Y005412D03*
X010964Y005412D03*
X010944Y005412D03*
X010924Y005412D03*
X010904Y005412D03*
X010884Y005412D03*
X010864Y005412D03*
X010844Y005412D03*
X010824Y005412D03*
X010804Y005412D03*
X010784Y005412D03*
X010764Y005412D03*
X010744Y005412D03*
X010724Y005412D03*
X010704Y005412D03*
X010684Y005412D03*
D175*
X010684Y006402D03*
X010704Y006402D03*
X010724Y006402D03*
X010744Y006402D03*
X010764Y006402D03*
X010784Y006402D03*
X010804Y006402D03*
X010824Y006402D03*
X010844Y006402D03*
X010864Y006402D03*
X010884Y006402D03*
X010904Y006402D03*
X010924Y006402D03*
X010944Y006402D03*
X010964Y006402D03*
X010984Y006402D03*
X011004Y006402D03*
X011024Y006402D03*
X011044Y006402D03*
X011064Y006402D03*
X011084Y006402D03*
X011104Y006402D03*
X011124Y006402D03*
X011384Y006402D03*
X011404Y006402D03*
X011424Y006402D03*
X011444Y006402D03*
X011464Y006402D03*
X011484Y006402D03*
X011504Y006402D03*
X011524Y006402D03*
X011544Y006402D03*
X011564Y006402D03*
X011584Y006402D03*
X011604Y006402D03*
X011624Y006402D03*
X011644Y006402D03*
X011664Y006402D03*
X011684Y006402D03*
X011704Y006402D03*
X011724Y006402D03*
X011744Y006402D03*
X011764Y006402D03*
X011784Y006402D03*
X011804Y006402D03*
X011824Y006402D03*
X011724Y007589D03*
D176*
X011824Y007586D03*
D177*
X011818Y007585D03*
D178*
X011811Y007589D03*
D179*
X011804Y007585D03*
D180*
X011798Y007585D03*
D181*
X011791Y007589D03*
D182*
X011784Y007589D03*
D183*
X011778Y007589D03*
D184*
X011771Y007585D03*
D185*
X011764Y007585D03*
D186*
X011758Y007586D03*
D187*
X011751Y007585D03*
D188*
X011744Y007585D03*
D189*
X011738Y007589D03*
D190*
X011731Y007589D03*
D191*
X011718Y007589D03*
D192*
X011711Y007586D03*
D193*
X011704Y007585D03*
D194*
X011698Y007585D03*
D195*
X011691Y007589D03*
D196*
X011684Y007589D03*
D197*
X011678Y007585D03*
D198*
X011671Y007585D03*
D199*
X011664Y007589D03*
D200*
X011658Y007586D03*
D201*
X011651Y007585D03*
D202*
X011644Y007589D03*
D203*
X011638Y007585D03*
D204*
X011631Y007589D03*
D205*
X011624Y007586D03*
D206*
X011618Y007585D03*
D207*
X011611Y007589D03*
D208*
X011604Y007585D03*
D209*
X011598Y007589D03*
D210*
X011591Y007586D03*
D211*
X011584Y007589D03*
X009984Y005909D03*
D212*
X009991Y005905D03*
X011578Y007585D03*
D213*
X011571Y007589D03*
X009998Y005909D03*
D214*
X010004Y005905D03*
X010024Y005905D03*
X010044Y005905D03*
X010064Y005905D03*
X010084Y005905D03*
X010104Y005905D03*
X010124Y005905D03*
X010144Y005905D03*
X010164Y005905D03*
X010184Y005905D03*
X010204Y005905D03*
X010224Y005905D03*
X010244Y005905D03*
X010264Y005905D03*
X011564Y007585D03*
D215*
X011558Y007589D03*
D216*
X011551Y007586D03*
D217*
X011544Y007589D03*
D218*
X011538Y007585D03*
D219*
X011531Y007589D03*
D220*
X011524Y007589D03*
D221*
X011518Y007585D03*
D222*
X011511Y007589D03*
D223*
X011504Y007586D03*
D224*
X011498Y007586D03*
D225*
X011491Y007589D03*
D226*
X011484Y007585D03*
D227*
X011478Y007589D03*
X011471Y007589D03*
D228*
X011464Y007585D03*
D229*
X011458Y007589D03*
X011451Y007589D03*
D230*
X011444Y007586D03*
D231*
X011438Y007586D03*
D232*
X011431Y007589D03*
D233*
X011424Y007585D03*
D234*
X011418Y007585D03*
D235*
X011411Y007589D03*
D236*
X011404Y007589D03*
D237*
X011398Y007585D03*
X011391Y007585D03*
D238*
X011384Y007585D03*
D239*
X011378Y007589D03*
X011371Y007589D03*
D240*
X011364Y005192D03*
X011344Y005192D03*
X011324Y005192D03*
X011304Y005192D03*
X011284Y005192D03*
X011264Y005192D03*
X011244Y005192D03*
X011224Y005192D03*
X011204Y005192D03*
X011184Y005192D03*
X011164Y005192D03*
X011144Y005192D03*
D241*
X011144Y006622D03*
X011164Y006622D03*
X011184Y006622D03*
X011204Y006622D03*
X011224Y006622D03*
X011244Y006622D03*
X011264Y006622D03*
X011284Y006622D03*
X011304Y006622D03*
X011324Y006622D03*
X011344Y006622D03*
X011364Y006622D03*
D242*
X011364Y007586D03*
D243*
X011358Y005192D03*
X011351Y005192D03*
X011338Y005192D03*
X011331Y005192D03*
X011318Y005192D03*
X011311Y005192D03*
X011298Y005192D03*
X011291Y005192D03*
X011278Y005192D03*
X011271Y005192D03*
X011258Y005192D03*
X011251Y005192D03*
X011238Y005192D03*
X011231Y005192D03*
X011218Y005192D03*
X011211Y005192D03*
X011198Y005192D03*
X011191Y005192D03*
X011178Y005192D03*
X011171Y005192D03*
X011158Y005192D03*
X011151Y005192D03*
X011138Y005192D03*
D244*
X011138Y006622D03*
X011151Y006622D03*
X011158Y006622D03*
X011171Y006622D03*
X011178Y006622D03*
X011191Y006622D03*
X011198Y006622D03*
X011211Y006622D03*
X011218Y006622D03*
X011231Y006622D03*
X011238Y006622D03*
X011251Y006622D03*
X011258Y006622D03*
X011271Y006622D03*
X011278Y006622D03*
X011291Y006622D03*
X011298Y006622D03*
X011311Y006622D03*
X011318Y006622D03*
X011331Y006622D03*
X011338Y006622D03*
X011351Y006622D03*
X011358Y006622D03*
D245*
X011358Y007586D03*
X011351Y007586D03*
D246*
X011344Y007589D03*
D247*
X011338Y007589D03*
D248*
X011331Y007585D03*
X011318Y007585D03*
X011311Y007585D03*
D249*
X011324Y007585D03*
D250*
X011304Y007589D03*
X011284Y007589D03*
D251*
X011291Y007589D03*
X011298Y007589D03*
D252*
X011278Y007585D03*
X011271Y007585D03*
X011258Y007585D03*
X011251Y007585D03*
X011238Y007585D03*
D253*
X011244Y007585D03*
X011264Y007585D03*
D254*
X011231Y007589D03*
X011218Y007589D03*
X011211Y007589D03*
X011198Y007589D03*
X011191Y007589D03*
D255*
X011204Y007589D03*
X011224Y007589D03*
D256*
X011131Y007589D03*
D257*
X011124Y007589D03*
D258*
X011118Y007586D03*
X010978Y007586D03*
D259*
X011111Y007585D03*
D260*
X011104Y007585D03*
D261*
X011098Y007586D03*
X010998Y007586D03*
D262*
X011091Y007589D03*
D263*
X011084Y007585D03*
D264*
X011078Y007589D03*
X011071Y007589D03*
X011018Y007589D03*
D265*
X011044Y007585D03*
X011064Y007585D03*
D266*
X011058Y007585D03*
X011051Y007585D03*
X011038Y007585D03*
X011031Y007585D03*
D267*
X011024Y007589D03*
D268*
X011011Y007585D03*
D269*
X011004Y007589D03*
D270*
X010991Y007585D03*
D271*
X010984Y007585D03*
D272*
X010971Y007589D03*
D273*
X010964Y007589D03*
D274*
X010958Y007855D03*
X010951Y007855D03*
X010938Y007855D03*
X010931Y007855D03*
X010918Y007855D03*
X010911Y007855D03*
X010898Y007855D03*
X010891Y007855D03*
X010878Y007855D03*
X010871Y007855D03*
X010858Y007855D03*
X010851Y007855D03*
X010838Y007855D03*
X010831Y007855D03*
X010818Y007855D03*
X010811Y007855D03*
X010798Y007855D03*
X010791Y007855D03*
X010778Y007855D03*
X010771Y007855D03*
X010758Y007855D03*
X010751Y007855D03*
X010738Y007855D03*
X010731Y007855D03*
X010718Y007855D03*
X010711Y007855D03*
X010698Y007855D03*
X010691Y007855D03*
X010678Y007855D03*
X010671Y007855D03*
X010658Y007855D03*
X010651Y007855D03*
X010638Y007855D03*
X010631Y007855D03*
X010618Y007855D03*
X010611Y007855D03*
X010598Y007855D03*
X010591Y007855D03*
X010578Y007855D03*
X010571Y007855D03*
X010558Y007855D03*
X010551Y007855D03*
X010551Y007315D03*
X010558Y007315D03*
X010571Y007315D03*
X010578Y007315D03*
X010591Y007315D03*
X010598Y007315D03*
X010611Y007315D03*
X010618Y007315D03*
X010631Y007315D03*
X010638Y007315D03*
X010651Y007315D03*
X010658Y007315D03*
X010671Y007315D03*
X010678Y007315D03*
X010691Y007315D03*
X010698Y007315D03*
X010711Y007315D03*
X010718Y007315D03*
X010731Y007315D03*
X010738Y007315D03*
X010751Y007315D03*
X010758Y007315D03*
X010771Y007315D03*
X010778Y007315D03*
X010791Y007315D03*
X010798Y007315D03*
X010811Y007315D03*
X010818Y007315D03*
X010831Y007315D03*
X010838Y007315D03*
X010851Y007315D03*
X010858Y007315D03*
X010871Y007315D03*
X010878Y007315D03*
X010891Y007315D03*
X010898Y007315D03*
X010911Y007315D03*
X010918Y007315D03*
X010931Y007315D03*
X010938Y007315D03*
X010951Y007315D03*
X010958Y007315D03*
D275*
X010944Y007315D03*
X010924Y007315D03*
X010904Y007315D03*
X010884Y007315D03*
X010864Y007315D03*
X010844Y007315D03*
X010824Y007315D03*
X010804Y007315D03*
X010784Y007315D03*
X010764Y007315D03*
X010744Y007315D03*
X010724Y007315D03*
X010704Y007315D03*
X010684Y007315D03*
X010664Y007315D03*
X010644Y007315D03*
X010624Y007315D03*
X010604Y007315D03*
X010584Y007315D03*
X010564Y007315D03*
X010544Y007315D03*
X010544Y007855D03*
X010564Y007855D03*
X010584Y007855D03*
X010604Y007855D03*
X010624Y007855D03*
X010644Y007855D03*
X010664Y007855D03*
X010684Y007855D03*
X010704Y007855D03*
X010724Y007855D03*
X010744Y007855D03*
X010764Y007855D03*
X010784Y007855D03*
X010804Y007855D03*
X010824Y007855D03*
X010844Y007855D03*
X010864Y007855D03*
X010884Y007855D03*
X010904Y007855D03*
X010924Y007855D03*
X010944Y007855D03*
D276*
X010538Y007859D03*
X010538Y007319D03*
D277*
X010531Y007316D03*
X010531Y007856D03*
D278*
X010524Y007319D03*
D279*
X010524Y007856D03*
D280*
X010518Y007855D03*
X010518Y007315D03*
D281*
X010511Y007319D03*
X010511Y007859D03*
D282*
X010504Y007855D03*
X010504Y007315D03*
D283*
X010498Y007316D03*
X010498Y007856D03*
D284*
X010491Y007855D03*
X010491Y007315D03*
D285*
X010484Y007315D03*
X010484Y007855D03*
D286*
X010478Y007859D03*
X010478Y007319D03*
D287*
X010471Y007315D03*
X010471Y007855D03*
D288*
X010464Y007859D03*
X010464Y007319D03*
D289*
X010458Y007319D03*
D290*
X010458Y007856D03*
D291*
X010311Y005906D03*
D292*
X010304Y005909D03*
D293*
X010291Y005905D03*
D294*
X010284Y005906D03*
D295*
X010278Y005909D03*
D296*
X010271Y005905D03*
D297*
X010258Y005905D03*
X010251Y005905D03*
X010238Y005905D03*
X010231Y005905D03*
X010218Y005905D03*
X010211Y005905D03*
X010198Y005905D03*
X010191Y005905D03*
X010178Y005905D03*
X010171Y005905D03*
X010158Y005905D03*
X010151Y005905D03*
X010138Y005905D03*
X010131Y005905D03*
X010118Y005905D03*
X010111Y005905D03*
X010098Y005905D03*
X010091Y005905D03*
X010078Y005905D03*
X010071Y005905D03*
X010058Y005905D03*
X010051Y005905D03*
X010038Y005905D03*
X010031Y005905D03*
X010018Y005905D03*
X010011Y005905D03*
D298*
X009978Y005905D03*
D299*
X003982Y006256D02*
X003929Y006256D01*
X003922Y006029D02*
X003922Y005976D01*
X003896Y006002D02*
X003949Y006002D01*
D300*
X017286Y011803D03*
D301*
X017286Y011829D03*
X017286Y011855D03*
X017286Y013040D03*
X017286Y013066D03*
X017286Y013092D03*
D302*
X018023Y012618D03*
X017997Y012566D03*
X018076Y012671D03*
X017076Y012382D03*
X017076Y012355D03*
X015365Y012276D03*
X015076Y012434D03*
X013813Y012434D03*
X013813Y012408D03*
X013813Y012382D03*
X013813Y012355D03*
X013813Y012329D03*
X013813Y012276D03*
X013813Y012250D03*
X013813Y012224D03*
X013813Y012197D03*
X013813Y012171D03*
X013813Y012118D03*
X013813Y012092D03*
X013813Y012066D03*
X013813Y012040D03*
X013813Y012013D03*
X013813Y011987D03*
X013813Y011934D03*
X013813Y011908D03*
X013813Y011882D03*
X013813Y012487D03*
X013813Y012513D03*
X013813Y012540D03*
X013813Y012566D03*
X013813Y012592D03*
X013813Y012618D03*
X013813Y012671D03*
X013813Y012697D03*
X013813Y012724D03*
X013813Y012750D03*
X013813Y012776D03*
X013813Y012829D03*
X013813Y012855D03*
X013813Y012882D03*
X013813Y012908D03*
X013813Y012934D03*
X013813Y012987D03*
X013813Y013013D03*
X019392Y012540D03*
X019760Y012355D03*
X020760Y012355D03*
X020760Y012329D03*
X020760Y012276D03*
X020760Y012250D03*
X020760Y012224D03*
X020760Y012197D03*
X020760Y012171D03*
X020760Y012118D03*
X020760Y012092D03*
X020760Y012066D03*
X020760Y012040D03*
X020760Y012013D03*
X020760Y011987D03*
X020760Y011934D03*
X020760Y011908D03*
X020760Y011882D03*
X020760Y012382D03*
X020760Y012408D03*
X020760Y012434D03*
X020760Y012487D03*
X020760Y012513D03*
X020760Y012540D03*
X020760Y012566D03*
X020760Y012592D03*
X020760Y012618D03*
X020760Y012671D03*
X020760Y012697D03*
X020760Y012724D03*
X020760Y012750D03*
X020760Y012776D03*
X020760Y012829D03*
X020760Y012855D03*
X020760Y012882D03*
X020760Y012908D03*
X020760Y012934D03*
X020760Y012987D03*
X020760Y013013D03*
D303*
X020760Y012961D03*
X020760Y012803D03*
X020760Y012645D03*
X020760Y012461D03*
X020760Y012303D03*
X020760Y012145D03*
X020760Y011961D03*
X018050Y012645D03*
X015365Y012303D03*
X015076Y012461D03*
X013813Y012461D03*
X013813Y012303D03*
X013813Y012145D03*
X013813Y011961D03*
X013813Y012645D03*
X013813Y012803D03*
X013813Y012961D03*
D304*
X017984Y012461D03*
X018563Y012461D03*
X020010Y011961D03*
D305*
X019365Y011961D03*
X017944Y012303D03*
D306*
X016405Y011961D03*
D307*
X017023Y012197D03*
X017944Y012276D03*
X017944Y012382D03*
X017944Y012408D03*
X019260Y012040D03*
X020049Y011987D03*
X020049Y012908D03*
X019339Y012908D03*
D308*
X018563Y012540D03*
X018563Y012513D03*
X018563Y012487D03*
X018563Y012434D03*
X018563Y012408D03*
X018563Y012382D03*
X018563Y012355D03*
X018563Y012329D03*
X019326Y011987D03*
X019484Y012276D03*
X016668Y012224D03*
D309*
X016391Y012013D03*
X016391Y011987D03*
X016391Y012882D03*
X016391Y012908D03*
D310*
X016694Y012618D03*
X016983Y012618D03*
X017036Y012250D03*
X017036Y012224D03*
X016694Y012276D03*
X017931Y012329D03*
X017931Y012355D03*
X017983Y012487D03*
X019194Y012776D03*
X019273Y012855D03*
X019378Y012934D03*
X019483Y012618D03*
X019562Y012329D03*
X019957Y012329D03*
X019878Y012618D03*
X020115Y012855D03*
X020141Y012829D03*
X020089Y012882D03*
X020010Y012934D03*
X020194Y012776D03*
X020194Y012118D03*
X020168Y012092D03*
X020141Y012066D03*
X020115Y012040D03*
X020089Y012013D03*
X015431Y012197D03*
X015352Y012434D03*
D311*
X016681Y012250D03*
X019286Y012013D03*
X019286Y012882D03*
D312*
X016378Y012855D03*
X016378Y012040D03*
D313*
X015839Y012434D03*
X015339Y012408D03*
X015339Y012382D03*
X015076Y012408D03*
X017760Y012618D03*
X017997Y012513D03*
X018260Y012540D03*
X018260Y012566D03*
X018260Y012382D03*
X019155Y012171D03*
X019234Y012066D03*
X019997Y012355D03*
X020260Y012224D03*
X020234Y012171D03*
X020260Y012671D03*
X020234Y012697D03*
X020234Y012724D03*
X019234Y012829D03*
X019155Y012724D03*
D314*
X016365Y012829D03*
X016365Y012092D03*
X016365Y012066D03*
D315*
X016707Y012566D03*
X016707Y012592D03*
X016970Y012592D03*
X019102Y012592D03*
X019181Y012750D03*
X019391Y012329D03*
X019602Y012355D03*
X019602Y012540D03*
X019786Y012329D03*
X019207Y012092D03*
X019181Y012118D03*
X019102Y012276D03*
X020207Y012750D03*
X020286Y012592D03*
D316*
X016352Y012750D03*
X016352Y012776D03*
X016352Y012118D03*
D317*
X016707Y012303D03*
X019102Y012303D03*
X019207Y012803D03*
X020286Y012303D03*
X020207Y012145D03*
D318*
X019155Y012145D03*
X018260Y012303D03*
D319*
X016352Y012145D03*
D320*
X016339Y012171D03*
X016339Y012724D03*
D321*
X016721Y012540D03*
X016721Y012513D03*
X016721Y012487D03*
X016721Y012408D03*
X016721Y012382D03*
X016721Y012355D03*
X016721Y012329D03*
X017063Y012329D03*
X017300Y012355D03*
X017300Y012382D03*
X017300Y012408D03*
X017300Y012434D03*
X017642Y012408D03*
X017642Y012382D03*
X017642Y012355D03*
X017773Y012592D03*
X017984Y012540D03*
X018273Y012513D03*
X018273Y012592D03*
X019089Y012566D03*
X019089Y012540D03*
X019089Y012513D03*
X019089Y012487D03*
X019089Y012434D03*
X019089Y012408D03*
X019089Y012382D03*
X019089Y012355D03*
X019089Y012329D03*
X019142Y012697D03*
X019984Y012540D03*
X020010Y012513D03*
X020010Y012487D03*
X020010Y012434D03*
X020010Y012408D03*
X020010Y012382D03*
X020273Y012276D03*
X020273Y012250D03*
X020247Y012197D03*
X020300Y012329D03*
X020300Y012355D03*
X020300Y012382D03*
X020300Y012408D03*
X020300Y012434D03*
X020300Y012487D03*
X020300Y012513D03*
X020300Y012540D03*
X020300Y012566D03*
X020273Y012618D03*
X015589Y012592D03*
X015352Y012355D03*
X015352Y012329D03*
X015405Y012224D03*
D322*
X017049Y012276D03*
X019128Y012224D03*
X019128Y012197D03*
X019128Y012671D03*
D323*
X019484Y012592D03*
X019879Y012592D03*
X018589Y012671D03*
X018589Y012224D03*
X018589Y012197D03*
X017379Y012671D03*
X015668Y012329D03*
X015379Y012487D03*
X015300Y012671D03*
D324*
X017997Y012197D03*
D325*
X017471Y012197D03*
X017471Y012224D03*
X017471Y012250D03*
X017471Y012276D03*
X017471Y012329D03*
D326*
X016628Y012197D03*
D327*
X016023Y012197D03*
D328*
X015760Y012382D03*
X015076Y012197D03*
X017392Y012618D03*
D329*
X014378Y012224D03*
X014378Y012197D03*
D330*
X015076Y012224D03*
X015076Y012250D03*
X017971Y012224D03*
X018576Y012250D03*
X018576Y012276D03*
X018576Y012566D03*
X018576Y012592D03*
X018576Y012618D03*
D331*
X016339Y012434D03*
X016339Y012408D03*
X016023Y012276D03*
X016023Y012250D03*
X016023Y012224D03*
X016023Y012566D03*
X016023Y012592D03*
X015418Y012513D03*
D332*
X015378Y012250D03*
X016378Y012592D03*
X016957Y012566D03*
X016957Y012540D03*
X019115Y012618D03*
X019115Y012250D03*
X019615Y012382D03*
X019615Y012408D03*
X019615Y012434D03*
X019615Y012487D03*
X019615Y012513D03*
D333*
X019878Y012276D03*
X017957Y012250D03*
X017957Y012434D03*
X017773Y012671D03*
X015799Y012408D03*
D334*
X014391Y012276D03*
X014391Y012250D03*
D335*
X015076Y012276D03*
X016997Y012671D03*
D336*
X015300Y012645D03*
X019484Y012303D03*
X019879Y012303D03*
D337*
X018576Y012303D03*
X018576Y012645D03*
D338*
X017471Y012303D03*
D339*
X017063Y012303D03*
X019089Y012461D03*
X020010Y012461D03*
X020300Y012461D03*
X020273Y012645D03*
D340*
X020168Y012803D03*
X017773Y012645D03*
X016983Y012645D03*
X016378Y012303D03*
X015641Y012303D03*
D341*
X016023Y012303D03*
D342*
X014391Y012303D03*
D343*
X018247Y012329D03*
X018247Y012355D03*
D344*
X016154Y012329D03*
D345*
X014405Y012329D03*
X014405Y012355D03*
D346*
X017773Y012566D03*
X019378Y012355D03*
X019773Y012540D03*
D347*
X016326Y012382D03*
X016326Y012355D03*
D348*
X015733Y012355D03*
X017418Y012566D03*
D349*
X014418Y012434D03*
X014418Y012408D03*
X014418Y012382D03*
D350*
X015063Y012487D03*
X016931Y012434D03*
X017089Y012434D03*
X017089Y012408D03*
X018010Y012592D03*
D351*
X016918Y012408D03*
D352*
X016944Y012487D03*
X016944Y012513D03*
X016734Y012434D03*
X017629Y012434D03*
D353*
X019115Y012645D03*
X019615Y012461D03*
D354*
X017458Y012461D03*
X016010Y012645D03*
D355*
X017102Y012461D03*
D356*
X016931Y012461D03*
D357*
X016734Y012461D03*
D358*
X016168Y012461D03*
D359*
X015352Y012461D03*
D360*
X014431Y012461D03*
D361*
X017444Y012487D03*
D362*
X017102Y012487D03*
D363*
X016168Y012487D03*
D364*
X014431Y012487D03*
D365*
X017431Y012513D03*
X017431Y012540D03*
D366*
X016168Y012540D03*
X016168Y012513D03*
D367*
X015076Y012513D03*
X015076Y012540D03*
D368*
X014444Y012540D03*
X014444Y012566D03*
X014444Y012513D03*
D369*
X015457Y012540D03*
X015457Y012566D03*
D370*
X019483Y012566D03*
X019878Y012566D03*
D371*
X016365Y012566D03*
D372*
X017405Y012592D03*
D373*
X016655Y012671D03*
X015313Y012618D03*
X015313Y012592D03*
D374*
X014457Y012592D03*
X014457Y012618D03*
D375*
X016010Y012618D03*
D376*
X017392Y012645D03*
D377*
X016681Y012645D03*
D378*
X014457Y012645D03*
D379*
X015997Y012671D03*
D380*
X014470Y012671D03*
D381*
X017589Y012697D03*
D382*
X016010Y012697D03*
D383*
X014747Y012697D03*
D384*
X016365Y012803D03*
D385*
X012615Y004695D02*
X012615Y004375D01*
X012722Y004375D02*
X012508Y004375D01*
X012353Y004375D02*
X012140Y004589D01*
X012140Y004642D01*
X012193Y004695D01*
X012300Y004695D01*
X012353Y004642D01*
X012353Y004375D02*
X012140Y004375D01*
X011985Y004535D02*
X011772Y004535D01*
X011617Y004642D02*
X011563Y004695D01*
X011457Y004695D01*
X011403Y004642D01*
X011403Y004589D01*
X011617Y004375D01*
X011403Y004375D01*
X011248Y004428D02*
X011248Y004642D01*
X011195Y004695D01*
X011088Y004695D01*
X011035Y004642D01*
X011248Y004428D01*
X011195Y004375D01*
X011088Y004375D01*
X011035Y004428D01*
X011035Y004642D01*
X010880Y004695D02*
X010880Y004482D01*
X010773Y004375D01*
X010667Y004482D01*
X010667Y004695D01*
X012615Y004695D02*
X012722Y004589D01*
D386*
X006698Y016063D03*
D387*
X007034Y016882D02*
X006353Y016882D01*
X006353Y016883D02*
X007034Y016883D01*
X007034Y016884D02*
X006353Y016884D01*
X006353Y016885D02*
X007034Y016885D01*
X007034Y016886D02*
X006353Y016886D01*
X006353Y016887D02*
X007034Y016887D01*
X007034Y016888D02*
X006353Y016888D01*
X006353Y016889D02*
X007034Y016889D01*
X007034Y016890D02*
X006353Y016890D01*
X006353Y016891D02*
X007034Y016891D01*
X007034Y016892D02*
X006353Y016892D01*
X006353Y016893D02*
X007034Y016893D01*
X007034Y016894D02*
X006353Y016894D01*
X006353Y016895D02*
X007034Y016895D01*
X007034Y016896D02*
X006353Y016896D01*
X006353Y016897D02*
X007034Y016897D01*
X007034Y016898D02*
X006353Y016898D01*
X006353Y016899D02*
X007034Y016899D01*
X007034Y016900D02*
X006353Y016900D01*
X006353Y016901D02*
X007034Y016901D01*
X007034Y016902D02*
X006353Y016902D01*
X006353Y016903D02*
X007034Y016903D01*
X007034Y016904D02*
X006353Y016904D01*
X006353Y016905D02*
X007034Y016905D01*
X007034Y016906D02*
X006353Y016906D01*
X006353Y016907D02*
X007034Y016907D01*
X007034Y016908D02*
X006353Y016908D01*
X006353Y016909D02*
X007034Y016909D01*
X007034Y016910D02*
X006353Y016910D01*
X006353Y016911D02*
X007034Y016911D01*
X007034Y016912D02*
X006353Y016912D01*
X006353Y016913D02*
X007034Y016913D01*
X007034Y016914D02*
X006353Y016914D01*
X006353Y016915D02*
X007034Y016915D01*
X007034Y016916D02*
X006353Y016916D01*
X006353Y016917D02*
X007034Y016917D01*
X007034Y016918D02*
X006353Y016918D01*
X006353Y016919D02*
X007034Y016919D01*
X007034Y016920D02*
X006353Y016920D01*
X006353Y016921D02*
X007034Y016921D01*
X007034Y016922D02*
X006353Y016922D01*
X006353Y016923D02*
X007034Y016923D01*
X007034Y016924D02*
X006353Y016924D01*
X006353Y016925D02*
X007034Y016925D01*
X007034Y016926D02*
X006353Y016926D01*
X006353Y016927D02*
X007034Y016927D01*
X007034Y016928D02*
X006353Y016928D01*
X006353Y016929D02*
X007034Y016929D01*
X007034Y016930D02*
X006353Y016930D01*
X006353Y016931D02*
X007034Y016931D01*
X007034Y016932D02*
X006353Y016932D01*
X006353Y016933D02*
X007034Y016933D01*
X007034Y016934D02*
X006353Y016934D01*
X006353Y016935D02*
X007034Y016935D01*
X007034Y016936D02*
X006353Y016936D01*
X006353Y016937D02*
X007034Y016937D01*
X007034Y016938D02*
X006353Y016938D01*
X006353Y016939D02*
X007034Y016939D01*
X007034Y016940D02*
X006353Y016940D01*
X006353Y016941D02*
X007034Y016941D01*
X007034Y016942D02*
X006353Y016942D01*
X006353Y016943D02*
X007034Y016943D01*
X007034Y016944D02*
X006353Y016944D01*
X006353Y016945D02*
X007034Y016945D01*
X007034Y016946D02*
X006353Y016946D01*
X006353Y016947D02*
X007034Y016947D01*
X007034Y016948D02*
X006353Y016948D01*
X006353Y016949D02*
X007034Y016949D01*
X007034Y016950D02*
X006353Y016950D01*
X006353Y016951D02*
X007034Y016951D01*
X007034Y016952D02*
X006353Y016952D01*
X006353Y016953D02*
X007034Y016953D01*
X007034Y016954D02*
X006353Y016954D01*
X006353Y016955D02*
X007034Y016955D01*
X007034Y016956D02*
X006353Y016956D01*
X006353Y016957D02*
X007034Y016957D01*
X007034Y016958D02*
X006353Y016958D01*
X006353Y016959D02*
X007034Y016959D01*
X007034Y016960D02*
X006353Y016960D01*
X006353Y016961D02*
X007034Y016961D01*
X007034Y016962D02*
X006353Y016962D01*
X006353Y016963D02*
X007034Y016963D01*
X007034Y016964D02*
X006353Y016964D01*
X006353Y016965D02*
X007034Y016965D01*
X007034Y016966D02*
X006353Y016966D01*
X006353Y016967D02*
X007034Y016967D01*
X007034Y016968D02*
X006353Y016968D01*
X006353Y016969D02*
X007034Y016969D01*
X007034Y016970D02*
X006353Y016970D01*
X006353Y016971D02*
X007034Y016971D01*
X007034Y016972D02*
X006353Y016972D01*
X006353Y016973D02*
X007034Y016973D01*
X007034Y016974D02*
X006353Y016974D01*
X006353Y016975D02*
X007034Y016975D01*
X007034Y016976D02*
X006353Y016976D01*
X006353Y016977D02*
X007034Y016977D01*
X007034Y016978D02*
X006353Y016978D01*
X006353Y016979D02*
X007034Y016979D01*
X007034Y016980D02*
X006353Y016980D01*
X006353Y016981D02*
X007034Y016981D01*
X007034Y016982D02*
X006353Y016982D01*
X006353Y016983D02*
X007034Y016983D01*
X007034Y016984D02*
X006353Y016984D01*
X006353Y016985D02*
X007034Y016985D01*
X007034Y016986D02*
X006353Y016986D01*
X006353Y016987D02*
X007034Y016987D01*
X007034Y016988D02*
X006353Y016988D01*
X006353Y016989D02*
X007034Y016989D01*
X007034Y016990D02*
X006353Y016990D01*
X006353Y016991D02*
X007034Y016991D01*
X007034Y016992D02*
X006353Y016992D01*
X006353Y016993D02*
X007034Y016993D01*
X007034Y016994D02*
X006353Y016994D01*
X006353Y016995D02*
X007034Y016995D01*
X007034Y016996D02*
X006353Y016996D01*
X006353Y016997D02*
X007034Y016997D01*
X007034Y016998D02*
X006353Y016998D01*
X006353Y016999D02*
X007034Y016999D01*
X007034Y017000D02*
X006353Y017000D01*
X006353Y017001D02*
X007034Y017001D01*
X007034Y017002D02*
X006353Y017002D01*
X006353Y017003D02*
X007034Y017003D01*
X007034Y017004D02*
X006353Y017004D01*
X006353Y017005D02*
X007034Y017005D01*
X007034Y017006D02*
X006353Y017006D01*
X006353Y017007D02*
X007034Y017007D01*
X007034Y017008D02*
X006353Y017008D01*
X006353Y017009D02*
X007034Y017009D01*
X007034Y017010D02*
X006353Y017010D01*
X006353Y017011D02*
X007034Y017011D01*
X007034Y017012D02*
X006353Y017012D01*
X006353Y017013D02*
X007034Y017013D01*
X007034Y017014D02*
X006353Y017014D01*
X006353Y017015D02*
X007034Y017015D01*
X007034Y017016D02*
X006353Y017016D01*
X006353Y017017D02*
X007034Y017017D01*
X007034Y017018D02*
X006353Y017018D01*
X006353Y017019D02*
X007034Y017019D01*
X007034Y017020D02*
X006353Y017020D01*
X006353Y017021D02*
X007034Y017021D01*
X007034Y017022D02*
X006353Y017022D01*
X006353Y017023D02*
X007034Y017023D01*
X007034Y017024D02*
X006353Y017024D01*
X006353Y017025D02*
X007034Y017025D01*
X007034Y017026D02*
X006353Y017026D01*
X006353Y017027D02*
X007034Y017027D01*
X007034Y017028D02*
X006353Y017028D01*
X006353Y017029D02*
X007034Y017029D01*
X007034Y017030D02*
X006353Y017030D01*
X006353Y017031D02*
X007034Y017031D01*
X007034Y017032D02*
X006353Y017032D01*
X006353Y017033D02*
X007034Y017033D01*
X007034Y017034D02*
X006353Y017034D01*
X006353Y017035D02*
X007034Y017035D01*
X007034Y017036D02*
X006353Y017036D01*
X006353Y017037D02*
X007034Y017037D01*
X007034Y017038D02*
X006353Y017038D01*
X006353Y017039D02*
X007034Y017039D01*
X007034Y017040D02*
X006353Y017040D01*
X006353Y017041D02*
X007034Y017041D01*
X007034Y017042D02*
X006353Y017042D01*
X006353Y017043D02*
X007034Y017043D01*
X007034Y017044D02*
X006353Y017044D01*
X006353Y017045D02*
X007034Y017045D01*
X007034Y017046D02*
X006353Y017046D01*
X006353Y017047D02*
X007034Y017047D01*
X007034Y017048D02*
X006353Y017048D01*
X006353Y017049D02*
X007034Y017049D01*
X007034Y017050D02*
X006353Y017050D01*
X006353Y017051D02*
X007034Y017051D01*
X007034Y017052D02*
X006353Y017052D01*
X006353Y017053D02*
X007034Y017053D01*
X007034Y017054D02*
X006353Y017054D01*
X006353Y017055D02*
X007034Y017055D01*
X007034Y017056D02*
X006353Y017056D01*
X006353Y017057D02*
X007034Y017057D01*
X007034Y017058D02*
X006353Y017058D01*
X006353Y017059D02*
X007034Y017059D01*
X007034Y017060D02*
X006353Y017060D01*
X006353Y017061D02*
X007034Y017061D01*
X007034Y017062D02*
X006353Y017062D01*
X006353Y017063D02*
X007034Y017063D01*
X007034Y017064D02*
X006353Y017064D01*
X006353Y017065D02*
X007034Y017065D01*
X007034Y017066D02*
X006353Y017066D01*
X006353Y017067D02*
X007034Y017067D01*
X007034Y017068D02*
X006353Y017068D01*
X006353Y017069D02*
X007034Y017069D01*
X007034Y017070D02*
X006353Y017070D01*
X006353Y017071D02*
X007034Y017071D01*
X007034Y017072D02*
X006353Y017072D01*
X006353Y017073D02*
X007034Y017073D01*
X007034Y017074D02*
X006353Y017074D01*
X006353Y017075D02*
X007034Y017075D01*
X007034Y017076D02*
X006353Y017076D01*
X006353Y017077D02*
X007034Y017077D01*
X007034Y017078D02*
X006353Y017078D01*
X006353Y017079D02*
X007034Y017079D01*
X007034Y017080D02*
X006353Y017080D01*
X006353Y017081D02*
X007034Y017081D01*
X007034Y017082D02*
X006353Y017082D01*
X006353Y017083D02*
X007034Y017083D01*
X007034Y017084D02*
X006353Y017084D01*
X006353Y017085D02*
X007034Y017085D01*
X007034Y017086D02*
X006353Y017086D01*
X006353Y017087D02*
X007034Y017087D01*
X007034Y017088D02*
X006353Y017088D01*
X006353Y017089D02*
X007034Y017089D01*
X007034Y017090D02*
X006353Y017090D01*
X006353Y017091D02*
X007034Y017091D01*
X007034Y017092D02*
X006353Y017092D01*
X006353Y017093D02*
X007034Y017093D01*
X007034Y017094D02*
X006353Y017094D01*
X006353Y017095D02*
X007034Y017095D01*
X007034Y017096D02*
X006353Y017096D01*
X006353Y017097D02*
X007034Y017097D01*
X007034Y017098D02*
X006353Y017098D01*
X006353Y017099D02*
X007034Y017099D01*
X007034Y017100D02*
X006353Y017100D01*
X006353Y017101D02*
X007034Y017101D01*
X007034Y017102D02*
X006353Y017102D01*
X006353Y017103D02*
X007034Y017103D01*
X007034Y017104D02*
X006353Y017104D01*
X006353Y017105D02*
X007034Y017105D01*
X007034Y017106D02*
X006353Y017106D01*
X006353Y017107D02*
X007034Y017107D01*
X007034Y017108D02*
X006353Y017108D01*
X006353Y017109D02*
X007034Y017109D01*
X007034Y017110D02*
X006353Y017110D01*
X006353Y017111D02*
X007034Y017111D01*
X007034Y017112D02*
X006353Y017112D01*
X006353Y017113D02*
X007034Y017113D01*
X007034Y017114D02*
X006353Y017114D01*
X006353Y017115D02*
X007034Y017115D01*
X007034Y017116D02*
X006353Y017116D01*
X006353Y017117D02*
X007034Y017117D01*
X007034Y017118D02*
X006353Y017118D01*
X006353Y017119D02*
X007034Y017119D01*
X007034Y017120D02*
X006353Y017120D01*
X006353Y017121D02*
X007034Y017121D01*
X007034Y017122D02*
X006353Y017122D01*
X006353Y017123D02*
X007034Y017123D01*
X007034Y017124D02*
X006353Y017124D01*
X006353Y017125D02*
X007034Y017125D01*
X007034Y017126D02*
X006353Y017126D01*
X006353Y017127D02*
X007034Y017127D01*
X007034Y017128D02*
X006353Y017128D01*
X006353Y017129D02*
X007034Y017129D01*
X007034Y017130D02*
X006353Y017130D01*
X006353Y017131D02*
X007034Y017131D01*
X007034Y017132D02*
X006353Y017132D01*
X006353Y017133D02*
X007034Y017133D01*
X007034Y017134D02*
X006353Y017134D01*
X006353Y017135D02*
X007034Y017135D01*
X007034Y017136D02*
X006353Y017136D01*
X006353Y017137D02*
X007034Y017137D01*
X007034Y017138D02*
X006353Y017138D01*
X006353Y017139D02*
X007034Y017139D01*
X007034Y017140D02*
X006353Y017140D01*
X006353Y017141D02*
X007034Y017141D01*
X007034Y017142D02*
X006353Y017142D01*
X006353Y017143D02*
X007034Y017143D01*
X007034Y017144D02*
X006353Y017144D01*
X006353Y017145D02*
X007034Y017145D01*
X007034Y017146D02*
X006353Y017146D01*
X006353Y017147D02*
X007034Y017147D01*
X007034Y017148D02*
X006353Y017148D01*
X006353Y017149D02*
X007034Y017149D01*
X007034Y017150D02*
X006353Y017150D01*
X006353Y017151D02*
X007034Y017151D01*
X007034Y017152D02*
X006353Y017152D01*
X006353Y017153D02*
X007034Y017153D01*
X007034Y017154D02*
X006353Y017154D01*
X006353Y017155D02*
X007034Y017155D01*
X007034Y017156D02*
X006353Y017156D01*
X006353Y017157D02*
X007034Y017157D01*
X007034Y017158D02*
X006353Y017158D01*
X006353Y017159D02*
X007034Y017159D01*
X007034Y017160D02*
X006353Y017160D01*
X006353Y017161D02*
X007034Y017161D01*
X007034Y017162D02*
X006353Y017162D01*
X006353Y017163D02*
X007034Y017163D01*
X007034Y017164D02*
X006353Y017164D01*
X006353Y017165D02*
X007034Y017165D01*
X007034Y017166D02*
X006353Y017166D01*
X006353Y017167D02*
X007034Y017167D01*
X007034Y017168D02*
X006353Y017168D01*
X006353Y017169D02*
X007034Y017169D01*
X007034Y017170D02*
X006353Y017170D01*
X006353Y017171D02*
X007034Y017171D01*
X007034Y017172D02*
X006353Y017172D01*
X006353Y017173D02*
X007034Y017173D01*
X007034Y017174D02*
X006353Y017174D01*
X006353Y017175D02*
X007034Y017175D01*
X007034Y017176D02*
X006353Y017176D01*
X006353Y017177D02*
X007034Y017177D01*
X007034Y017178D02*
X006353Y017178D01*
X006353Y017179D02*
X007034Y017179D01*
X007034Y017180D02*
X006353Y017180D01*
X006353Y017181D02*
X007034Y017181D01*
X007034Y017182D02*
X006353Y017182D01*
X006353Y017183D02*
X007034Y017183D01*
X007034Y017184D02*
X006353Y017184D01*
X006353Y017185D02*
X007034Y017185D01*
X007034Y017186D02*
X006353Y017186D01*
X006353Y017187D02*
X007034Y017187D01*
X007034Y017188D02*
X006353Y017188D01*
X006353Y017189D02*
X007034Y017189D01*
X007034Y017190D02*
X006353Y017190D01*
X006353Y017191D02*
X007034Y017191D01*
X007034Y017192D02*
X006353Y017192D01*
X006353Y017193D02*
X007034Y017193D01*
X007034Y017194D02*
X006353Y017194D01*
X006353Y017195D02*
X007034Y017195D01*
X007034Y017196D02*
X006353Y017196D01*
X006353Y017197D02*
X007034Y017197D01*
X007034Y017198D02*
X006353Y017198D01*
X006353Y017199D02*
X007034Y017199D01*
X007034Y017200D02*
X006353Y017200D01*
X006353Y017201D02*
X007034Y017201D01*
X007034Y017202D02*
X006353Y017202D01*
X006353Y017203D02*
X007034Y017203D01*
X007034Y017204D02*
X006353Y017204D01*
X006353Y017205D02*
X007034Y017205D01*
X007034Y017206D02*
X006353Y017206D01*
X006353Y017207D02*
X007034Y017207D01*
X007034Y017208D02*
X006353Y017208D01*
X006353Y017209D02*
X007034Y017209D01*
X007034Y017210D02*
X006353Y017210D01*
X006353Y017211D02*
X007034Y017211D01*
X007034Y017212D02*
X006353Y017212D01*
X006353Y017213D02*
X007034Y017213D01*
X007034Y017214D02*
X006353Y017214D01*
X006353Y017215D02*
X007034Y017215D01*
X007034Y017216D02*
X006353Y017216D01*
X006353Y017217D02*
X007034Y017217D01*
X007034Y017218D02*
X006353Y017218D01*
X006353Y017219D02*
X007034Y017219D01*
X007034Y017220D02*
X006353Y017220D01*
X006353Y017221D02*
X007034Y017221D01*
X007034Y017222D02*
X006353Y017222D01*
X006353Y017223D02*
X007034Y017223D01*
X007034Y017224D02*
X006353Y017224D01*
X006353Y017225D02*
X007034Y017225D01*
X007034Y017226D02*
X006353Y017226D01*
X006353Y017227D02*
X007034Y017227D01*
X007034Y017228D02*
X006353Y017228D01*
X006353Y017229D02*
X007034Y017229D01*
X007034Y017230D02*
X006353Y017230D01*
X006353Y017231D02*
X007034Y017231D01*
X007034Y017232D02*
X006353Y017232D01*
X006353Y017233D02*
X007034Y017233D01*
X007034Y017234D02*
X006353Y017234D01*
X006353Y017235D02*
X007034Y017235D01*
X007034Y017236D02*
X006353Y017236D01*
X006353Y017237D02*
X007034Y017237D01*
X007034Y017238D02*
X006353Y017238D01*
X006353Y017239D02*
X007034Y017239D01*
X007034Y017240D02*
X006353Y017240D01*
X006353Y017241D02*
X007034Y017241D01*
X007034Y017242D02*
X006353Y017242D01*
X006353Y017243D02*
X007034Y017243D01*
X007034Y017244D02*
X006353Y017244D01*
X006353Y017245D02*
X007034Y017245D01*
X007034Y017246D02*
X006353Y017246D01*
X006353Y017247D02*
X007034Y017247D01*
X007034Y017248D02*
X006353Y017248D01*
X006353Y017249D02*
X007034Y017249D01*
X007034Y017250D02*
X006353Y017250D01*
X006353Y017251D02*
X007034Y017251D01*
X007034Y017252D02*
X006353Y017252D01*
X006353Y017253D02*
X007034Y017253D01*
X007034Y017254D02*
X006353Y017254D01*
X006353Y017255D02*
X007034Y017255D01*
X007034Y017256D02*
X006353Y017256D01*
X006353Y017257D02*
X007034Y017257D01*
X007034Y017258D02*
X006353Y017258D01*
X006353Y017259D02*
X007034Y017259D01*
X007034Y017260D02*
X006353Y017260D01*
X006353Y017261D02*
X007034Y017261D01*
X007034Y017262D02*
X006353Y017262D01*
X006353Y017263D02*
X007034Y017263D01*
X007034Y017264D02*
X006353Y017264D01*
X006353Y017265D02*
X007034Y017265D01*
X007034Y017266D02*
X006353Y017266D01*
X006353Y017267D02*
X007034Y017267D01*
X007034Y017268D02*
X006353Y017268D01*
X006353Y017269D02*
X007034Y017269D01*
X007034Y017270D02*
X006353Y017270D01*
X006353Y017271D02*
X007034Y017271D01*
X007034Y017272D02*
X006353Y017272D01*
X006353Y017273D02*
X007034Y017273D01*
X007034Y017274D02*
X006353Y017274D01*
X006353Y017275D02*
X007034Y017275D01*
X007034Y017276D02*
X006353Y017276D01*
X006353Y017277D02*
X007034Y017277D01*
X007034Y017278D02*
X006353Y017278D01*
X006353Y017279D02*
X007034Y017279D01*
X007034Y017280D02*
X006353Y017280D01*
X006353Y017281D02*
X007034Y017281D01*
X007034Y017282D02*
X006353Y017282D01*
X006353Y017283D02*
X007034Y017283D01*
X007034Y017284D02*
X006353Y017284D01*
X006353Y017285D02*
X007034Y017285D01*
X007034Y017286D02*
X006353Y017286D01*
X006353Y017287D02*
X007034Y017287D01*
X007034Y017288D02*
X006353Y017288D01*
X006353Y017289D02*
X007034Y017289D01*
X007034Y017290D02*
X006353Y017290D01*
X006353Y017291D02*
X007034Y017291D01*
X007034Y017292D02*
X006353Y017292D01*
X006353Y017293D02*
X007034Y017293D01*
X007034Y017294D02*
X006353Y017294D01*
X006353Y017295D02*
X007034Y017295D01*
X007034Y017296D02*
X006353Y017296D01*
X006353Y017297D02*
X007034Y017297D01*
X007034Y017298D02*
X006353Y017298D01*
X006353Y017299D02*
X007034Y017299D01*
X007034Y017300D02*
X006353Y017300D01*
X006353Y017301D02*
X007034Y017301D01*
X007034Y017302D02*
X006353Y017302D01*
X006353Y017303D02*
X007034Y017303D01*
X007034Y017304D02*
X006353Y017304D01*
X006353Y017305D02*
X007034Y017305D01*
X007034Y017306D02*
X006353Y017306D01*
X006353Y017307D02*
X007034Y017307D01*
X007034Y017308D02*
X006353Y017308D01*
X006353Y017309D02*
X007034Y017309D01*
X007034Y017310D02*
X006353Y017310D01*
X006353Y017311D02*
X007034Y017311D01*
X007034Y017312D02*
X006353Y017312D01*
X006353Y017313D02*
X007034Y017313D01*
X007034Y017314D02*
X006353Y017314D01*
X006353Y017315D02*
X007034Y017315D01*
X007034Y017316D02*
X006353Y017316D01*
X006353Y017317D02*
X007034Y017317D01*
X007034Y017318D02*
X006353Y017318D01*
X006353Y017319D02*
X007034Y017319D01*
X007034Y017320D02*
X006353Y017320D01*
X006353Y017321D02*
X007034Y017321D01*
X007034Y017322D02*
X006353Y017322D01*
X006353Y017323D02*
X007034Y017323D01*
X007034Y017324D02*
X006353Y017324D01*
X006353Y017325D02*
X007034Y017325D01*
X007034Y017326D02*
X006353Y017326D01*
X006353Y017327D02*
X007034Y017327D01*
X007034Y017328D02*
X006353Y017328D01*
X006353Y017329D02*
X007034Y017329D01*
X007034Y017330D02*
X006353Y017330D01*
X006353Y017331D02*
X007034Y017331D01*
X007034Y017332D02*
X006353Y017332D01*
X006353Y017333D02*
X007034Y017333D01*
X007034Y017334D02*
X006353Y017334D01*
X006353Y017335D02*
X007034Y017335D01*
X007034Y017336D02*
X006353Y017336D01*
X006353Y017337D02*
X007034Y017337D01*
X007034Y017338D02*
X006353Y017338D01*
X006353Y017339D02*
X007034Y017339D01*
X007034Y017340D02*
X006353Y017340D01*
X006353Y017341D02*
X007034Y017341D01*
X007034Y017342D02*
X006353Y017342D01*
X006353Y017343D02*
X007034Y017343D01*
X007034Y017344D02*
X006353Y017344D01*
X006353Y017345D02*
X007034Y017345D01*
X007034Y017346D02*
X006353Y017346D01*
X006353Y017347D02*
X007034Y017347D01*
X007034Y017348D02*
X006353Y017348D01*
X006353Y017349D02*
X007034Y017349D01*
X007034Y017350D02*
X006353Y017350D01*
X006353Y017351D02*
X007034Y017351D01*
X007034Y017352D02*
X006353Y017352D01*
X006353Y017353D02*
X007034Y017353D01*
X007034Y017354D02*
X006353Y017354D01*
X006353Y017355D02*
X007034Y017355D01*
X007034Y017356D02*
X006353Y017356D01*
X006353Y017357D02*
X007034Y017357D01*
X007034Y017358D02*
X006353Y017358D01*
X006353Y017359D02*
X007034Y017359D01*
X007034Y017360D02*
X006353Y017360D01*
X006353Y017361D02*
X007034Y017361D01*
X007034Y017362D02*
X006353Y017362D01*
X006353Y017363D02*
X007034Y017363D01*
X007034Y017364D02*
X006353Y017364D01*
X006353Y017365D02*
X007034Y017365D01*
X007034Y017366D02*
X006353Y017366D01*
X006353Y017367D02*
X007034Y017367D01*
X007034Y017368D02*
X006353Y017368D01*
X006353Y017369D02*
X007034Y017369D01*
X007034Y017370D02*
X006353Y017370D01*
X006353Y017371D02*
X007034Y017371D01*
X007034Y017372D02*
X006353Y017372D01*
X006353Y017373D02*
X007034Y017373D01*
X007034Y017374D02*
X006353Y017374D01*
X006353Y017375D02*
X007034Y017375D01*
X007034Y017376D02*
X006353Y017376D01*
X006353Y017377D02*
X007034Y017377D01*
X007034Y017378D02*
X006353Y017378D01*
X006353Y017379D02*
X007034Y017379D01*
X007034Y017380D02*
X006353Y017380D01*
X006353Y017381D02*
X007034Y017381D01*
X007034Y017382D02*
X006353Y017382D01*
X006353Y017383D02*
X007034Y017383D01*
X007034Y017384D02*
X006353Y017384D01*
X006353Y017385D02*
X007034Y017385D01*
X007034Y017386D02*
X006353Y017386D01*
X006353Y017387D02*
X007034Y017387D01*
X007034Y017388D02*
X006353Y017388D01*
X006353Y017389D02*
X007034Y017389D01*
X007034Y017390D02*
X006353Y017390D01*
X006353Y017391D02*
X007034Y017391D01*
X007034Y017392D02*
X006353Y017392D01*
X006353Y017393D02*
X007034Y017393D01*
X007034Y017394D02*
X006353Y017394D01*
X006353Y017395D02*
X007034Y017395D01*
X007034Y017396D02*
X006353Y017396D01*
X006353Y017397D02*
X007034Y017397D01*
X007034Y017398D02*
X006353Y017398D01*
X006353Y017399D02*
X007034Y017399D01*
X007034Y017400D02*
X006353Y017400D01*
X006353Y017401D02*
X007034Y017401D01*
X007034Y017402D02*
X006353Y017402D01*
X006353Y017403D02*
X007034Y017403D01*
X007034Y017404D02*
X006353Y017404D01*
X006353Y017405D02*
X007034Y017405D01*
X007034Y017406D02*
X006353Y017406D01*
X006353Y017407D02*
X007034Y017407D01*
X007034Y017408D02*
X006353Y017408D01*
X006353Y017409D02*
X007034Y017409D01*
X007034Y017410D02*
X006353Y017410D01*
X006353Y017411D02*
X007034Y017411D01*
X007034Y017412D02*
X006353Y017412D01*
X006353Y017413D02*
X007034Y017413D01*
X007034Y017414D02*
X006353Y017414D01*
X006353Y017415D02*
X007034Y017415D01*
X007034Y017416D02*
X006353Y017416D01*
X006353Y017417D02*
X007034Y017417D01*
X007034Y017418D02*
X006353Y017418D01*
X006353Y017419D02*
X007034Y017419D01*
X007034Y017420D02*
X006353Y017420D01*
X006353Y017421D02*
X007034Y017421D01*
X007034Y017422D02*
X006353Y017422D01*
X006353Y017423D02*
X007034Y017423D01*
X007034Y017424D02*
X006353Y017424D01*
X006353Y017425D02*
X007034Y017425D01*
X007034Y017426D02*
X006353Y017426D01*
X006353Y017427D02*
X007034Y017427D01*
X007034Y017428D02*
X006353Y017428D01*
X006353Y017429D02*
X007034Y017429D01*
X007034Y017430D02*
X006353Y017430D01*
X006353Y017431D02*
X007034Y017431D01*
X007034Y017432D02*
X006353Y017432D01*
X006353Y017433D02*
X007034Y017433D01*
X007034Y017434D02*
X006353Y017434D01*
X006353Y017435D02*
X007034Y017435D01*
X007034Y017436D02*
X006353Y017436D01*
X006353Y017437D02*
X007034Y017437D01*
X007034Y017438D02*
X006353Y017438D01*
X006353Y017439D02*
X007034Y017439D01*
X007034Y017440D02*
X006353Y017440D01*
X006353Y017441D02*
X007034Y017441D01*
X007034Y017442D02*
X006353Y017442D01*
X006353Y017443D02*
X007034Y017443D01*
X007034Y017444D02*
X006353Y017444D01*
X006353Y017445D02*
X007034Y017445D01*
X007034Y017446D02*
X006353Y017446D01*
X006353Y017447D02*
X007034Y017447D01*
X007034Y017448D02*
X006353Y017448D01*
X006353Y017449D02*
X007034Y017449D01*
X007034Y017450D02*
X006353Y017450D01*
X006353Y017451D02*
X007034Y017451D01*
X007034Y017452D02*
X006353Y017452D01*
X006353Y017453D02*
X007034Y017453D01*
X007034Y017454D02*
X006353Y017454D01*
X006353Y017455D02*
X007034Y017455D01*
X007034Y017456D02*
X006353Y017456D01*
X006353Y017457D02*
X007034Y017457D01*
X007034Y017458D02*
X006353Y017458D01*
X006353Y017459D02*
X007034Y017459D01*
X007034Y017460D02*
X006353Y017460D01*
X006353Y017461D02*
X007034Y017461D01*
X007034Y017462D02*
X006353Y017462D01*
X006353Y017463D02*
X007034Y017463D01*
X007034Y017464D02*
X006353Y017464D01*
X006353Y017465D02*
X007034Y017465D01*
X007034Y017466D02*
X006353Y017466D01*
X006353Y017467D02*
X007034Y017467D01*
X007034Y017468D02*
X006353Y017468D01*
X006353Y017469D02*
X007263Y017469D01*
X007263Y017470D02*
X006353Y017470D01*
X006353Y017471D02*
X007263Y017471D01*
X007263Y017472D02*
X006353Y017472D01*
X006353Y017473D02*
X007263Y017473D01*
X007263Y017474D02*
X006353Y017474D01*
X006353Y017475D02*
X007263Y017475D01*
X007263Y017476D02*
X006353Y017476D01*
X006353Y017477D02*
X007263Y017477D01*
X007263Y017478D02*
X006353Y017478D01*
X006353Y017479D02*
X007263Y017479D01*
X007263Y017480D02*
X006353Y017480D01*
X006353Y017481D02*
X007263Y017481D01*
X007263Y017482D02*
X006353Y017482D01*
X006353Y017483D02*
X007263Y017483D01*
X007263Y017484D02*
X006353Y017484D01*
X006353Y017485D02*
X007263Y017485D01*
X007263Y017486D02*
X006353Y017486D01*
X006353Y017487D02*
X007263Y017487D01*
X007263Y017488D02*
X006353Y017488D01*
X006353Y017489D02*
X007263Y017489D01*
X007263Y017490D02*
X006353Y017490D01*
X006353Y017491D02*
X007263Y017491D01*
X007263Y017492D02*
X006353Y017492D01*
X006353Y017493D02*
X007263Y017493D01*
X007263Y017494D02*
X006353Y017494D01*
X006353Y017495D02*
X007263Y017495D01*
X007263Y017496D02*
X006353Y017496D01*
X006353Y017497D02*
X007263Y017497D01*
X007263Y017498D02*
X006353Y017498D01*
X006353Y017499D02*
X007263Y017499D01*
X007263Y017500D02*
X006353Y017500D01*
X006353Y017501D02*
X007263Y017501D01*
X007263Y017502D02*
X006353Y017502D01*
X006353Y017503D02*
X007263Y017503D01*
X007263Y017504D02*
X006353Y017504D01*
X006353Y017505D02*
X007263Y017505D01*
X007263Y017506D02*
X006353Y017506D01*
X006353Y017507D02*
X007263Y017507D01*
X007263Y017508D02*
X006353Y017508D01*
X006353Y017509D02*
X007263Y017509D01*
X007263Y017510D02*
X006353Y017510D01*
X006353Y017511D02*
X007263Y017511D01*
X007263Y017512D02*
X006353Y017512D01*
X006353Y017513D02*
X007263Y017513D01*
X007263Y017514D02*
X006353Y017514D01*
X006353Y017515D02*
X007263Y017515D01*
X007263Y017516D02*
X006353Y017516D01*
X006353Y017517D02*
X007263Y017517D01*
X007263Y017518D02*
X006353Y017518D01*
X006353Y017519D02*
X007263Y017519D01*
X007263Y017520D02*
X006353Y017520D01*
X006353Y017521D02*
X007263Y017521D01*
X007263Y017522D02*
X006353Y017522D01*
X006353Y017523D02*
X007263Y017523D01*
X007263Y017524D02*
X006353Y017524D01*
X006353Y017525D02*
X007263Y017525D01*
X007263Y017526D02*
X006353Y017526D01*
X006353Y017527D02*
X007263Y017527D01*
X007263Y017528D02*
X006353Y017528D01*
X006353Y017529D02*
X007263Y017529D01*
X007263Y017530D02*
X006353Y017530D01*
X006353Y017531D02*
X007263Y017531D01*
X007263Y017532D02*
X006353Y017532D01*
X006353Y017533D02*
X007263Y017533D01*
X007263Y017534D02*
X006353Y017534D01*
X006353Y017535D02*
X007263Y017535D01*
X007263Y017536D02*
X006353Y017536D01*
X006353Y017537D02*
X007263Y017537D01*
X007263Y017538D02*
X006353Y017538D01*
X006353Y017539D02*
X007263Y017539D01*
X007263Y017540D02*
X006353Y017540D01*
X006353Y017541D02*
X007263Y017541D01*
X007263Y017542D02*
X006353Y017542D01*
X006353Y017543D02*
X007263Y017543D01*
X007263Y017544D02*
X006353Y017544D01*
X006353Y017545D02*
X007263Y017545D01*
X007263Y017546D02*
X006353Y017546D01*
X006353Y017547D02*
X007263Y017547D01*
X007263Y017548D02*
X006353Y017548D01*
X006353Y017549D02*
X007263Y017549D01*
X007263Y017550D02*
X006353Y017550D01*
X006353Y017551D02*
X007263Y017551D01*
M02*
