G75*
G70*
%OFA0B0*%
%FSLAX24Y24*%
%IPPOS*%
%LPD*%
%AMOC8*
5,1,8,0,0,1.08239X$1,22.5*
%
%ADD10C,0.0000*%
%ADD11C,0.1300*%
%ADD12C,0.0039*%
%ADD13R,0.6816X0.0026*%
%ADD14R,0.0053X0.0026*%
%ADD15R,0.0316X0.0026*%
%ADD16R,0.0053X0.0026*%
%ADD17R,0.0474X0.0026*%
%ADD18R,0.0579X0.0026*%
%ADD19R,0.0658X0.0026*%
%ADD20R,0.0737X0.0026*%
%ADD21R,0.0790X0.0026*%
%ADD22R,0.0842X0.0026*%
%ADD23R,0.0868X0.0026*%
%ADD24R,0.0921X0.0026*%
%ADD25R,0.0948X0.0026*%
%ADD26R,0.0974X0.0026*%
%ADD27R,0.0342X0.0026*%
%ADD28R,0.0105X0.0026*%
%ADD29R,0.0106X0.0026*%
%ADD30R,0.0132X0.0026*%
%ADD31R,0.0263X0.0026*%
%ADD32R,0.0290X0.0026*%
%ADD33R,0.0237X0.0026*%
%ADD34R,0.0210X0.0026*%
%ADD35R,0.0395X0.0026*%
%ADD36R,0.0158X0.0026*%
%ADD37R,0.0315X0.0026*%
%ADD38R,0.0342X0.0026*%
%ADD39R,0.0131X0.0026*%
%ADD40R,0.0184X0.0026*%
%ADD41R,0.0185X0.0026*%
%ADD42R,0.0211X0.0026*%
%ADD43R,0.0184X0.0026*%
%ADD44R,0.0079X0.0026*%
%ADD45R,0.0157X0.0026*%
%ADD46R,0.0132X0.0026*%
%ADD47R,0.0105X0.0026*%
%ADD48R,0.0106X0.0026*%
%ADD49R,0.0184X0.0026*%
%ADD50R,0.0132X0.0026*%
%ADD51R,0.0026X0.0026*%
%ADD52R,0.0447X0.0026*%
%ADD53R,0.0026X0.0026*%
%ADD54R,0.0184X0.0026*%
%ADD55R,0.0447X0.0026*%
%ADD56R,0.0079X0.0026*%
%ADD57R,0.0132X0.0026*%
%ADD58R,0.0237X0.0026*%
%ADD59R,0.0421X0.0026*%
%ADD60R,0.0368X0.0026*%
%ADD61R,0.0131X0.0026*%
%ADD62R,0.0237X0.0026*%
%ADD63R,0.0421X0.0026*%
%ADD64R,0.0342X0.0026*%
%ADD65R,0.0210X0.0026*%
%ADD66R,0.0290X0.0026*%
%ADD67R,0.0157X0.0026*%
%ADD68R,0.0263X0.0026*%
%ADD69R,0.0289X0.0026*%
%ADD70R,0.0368X0.0026*%
%ADD71R,0.0158X0.0026*%
%ADD72R,0.0315X0.0026*%
%ADD73R,0.0185X0.0026*%
%ADD74R,0.0289X0.0026*%
%ADD75R,0.0894X0.0026*%
%ADD76R,0.0868X0.0026*%
%ADD77R,0.0816X0.0026*%
%ADD78R,0.0790X0.0026*%
%ADD79R,0.0711X0.0026*%
%ADD80R,0.0632X0.0026*%
%ADD81R,0.6816X0.0026*%
%ADD82C,0.0745*%
%ADD83C,0.0780*%
%ADD84C,0.0640*%
%ADD85R,0.0780X0.0780*%
%ADD86C,0.0808*%
%ADD87R,0.0634X0.0634*%
%ADD88R,0.1306X0.1306*%
%ADD89C,0.1700*%
D10*
X029336Y004277D02*
X029338Y004327D01*
X029344Y004377D01*
X029354Y004426D01*
X029368Y004474D01*
X029385Y004521D01*
X029406Y004566D01*
X029431Y004610D01*
X029459Y004651D01*
X029491Y004690D01*
X029525Y004727D01*
X029562Y004761D01*
X029602Y004791D01*
X029644Y004818D01*
X029688Y004842D01*
X029734Y004863D01*
X029781Y004879D01*
X029829Y004892D01*
X029879Y004901D01*
X029928Y004906D01*
X029979Y004907D01*
X030029Y004904D01*
X030078Y004897D01*
X030127Y004886D01*
X030175Y004871D01*
X030221Y004853D01*
X030266Y004831D01*
X030309Y004805D01*
X030350Y004776D01*
X030389Y004744D01*
X030425Y004709D01*
X030457Y004671D01*
X030487Y004631D01*
X030514Y004588D01*
X030537Y004544D01*
X030556Y004498D01*
X030572Y004450D01*
X030584Y004401D01*
X030592Y004352D01*
X030596Y004302D01*
X030596Y004252D01*
X030592Y004202D01*
X030584Y004153D01*
X030572Y004104D01*
X030556Y004056D01*
X030537Y004010D01*
X030514Y003966D01*
X030487Y003923D01*
X030457Y003883D01*
X030425Y003845D01*
X030389Y003810D01*
X030350Y003778D01*
X030309Y003749D01*
X030266Y003723D01*
X030221Y003701D01*
X030175Y003683D01*
X030127Y003668D01*
X030078Y003657D01*
X030029Y003650D01*
X029979Y003647D01*
X029928Y003648D01*
X029879Y003653D01*
X029829Y003662D01*
X029781Y003675D01*
X029734Y003691D01*
X029688Y003712D01*
X029644Y003736D01*
X029602Y003763D01*
X029562Y003793D01*
X029525Y003827D01*
X029491Y003864D01*
X029459Y003903D01*
X029431Y003944D01*
X029406Y003988D01*
X029385Y004033D01*
X029368Y004080D01*
X029354Y004128D01*
X029344Y004177D01*
X029338Y004227D01*
X029336Y004277D01*
D11*
X029966Y004277D03*
D12*
X029607Y001160D02*
X001857Y001160D01*
X001808Y001162D01*
X001759Y001168D01*
X001711Y001177D01*
X001664Y001191D01*
X001618Y001208D01*
X001573Y001228D01*
X001530Y001252D01*
X001490Y001279D01*
X001451Y001310D01*
X001415Y001343D01*
X001382Y001379D01*
X001351Y001418D01*
X001324Y001458D01*
X001300Y001501D01*
X001280Y001546D01*
X001263Y001592D01*
X001249Y001639D01*
X001240Y001687D01*
X001234Y001736D01*
X001232Y001785D01*
X001232Y021535D01*
X001238Y021600D01*
X001247Y021663D01*
X001261Y021726D01*
X001278Y021788D01*
X001299Y021849D01*
X001323Y021909D01*
X001352Y021967D01*
X001383Y022023D01*
X001418Y022077D01*
X001456Y022129D01*
X001497Y022178D01*
X001542Y022225D01*
X001589Y022270D01*
X001638Y022311D01*
X001690Y022349D01*
X001744Y022384D01*
X001800Y022415D01*
X001858Y022444D01*
X001918Y022468D01*
X001979Y022489D01*
X002041Y022506D01*
X002104Y022520D01*
X002167Y022529D01*
X002232Y022535D01*
X029357Y022535D01*
X029982Y021910D01*
X029982Y018535D01*
X031107Y017410D01*
X031107Y003285D01*
X030232Y002410D01*
X030232Y001785D01*
X029607Y001160D01*
D13*
X017286Y011908D03*
X017286Y011934D03*
X017286Y012987D03*
D14*
X020668Y012803D03*
X020668Y012645D03*
X020668Y012461D03*
X020668Y012303D03*
X020668Y012145D03*
X020668Y011961D03*
X013905Y011961D03*
X013905Y012145D03*
X013905Y012303D03*
X013905Y012461D03*
X013905Y012645D03*
X013905Y012803D03*
D15*
X015615Y012645D03*
X019694Y011961D03*
D16*
X019721Y012382D03*
X019721Y012513D03*
X019484Y012540D03*
X020668Y012540D03*
X020668Y012566D03*
X020668Y012592D03*
X020668Y012618D03*
X020668Y012671D03*
X020668Y012697D03*
X020668Y012724D03*
X020668Y012750D03*
X020668Y012776D03*
X020668Y012829D03*
X020668Y012855D03*
X020668Y012882D03*
X020668Y012908D03*
X020668Y012934D03*
X020668Y012513D03*
X020668Y012487D03*
X020668Y012434D03*
X020668Y012408D03*
X020668Y012382D03*
X020668Y012355D03*
X020668Y012329D03*
X020668Y012276D03*
X020668Y012250D03*
X020668Y012224D03*
X020668Y012197D03*
X020668Y012171D03*
X020668Y012118D03*
X020668Y012092D03*
X020668Y012066D03*
X020668Y012040D03*
X020668Y012013D03*
X020668Y011987D03*
X013905Y011987D03*
X013905Y012013D03*
X013905Y012040D03*
X013905Y012066D03*
X013905Y012092D03*
X013905Y012118D03*
X013905Y012171D03*
X013905Y012197D03*
X013905Y012224D03*
X013905Y012250D03*
X013905Y012276D03*
X013905Y012329D03*
X013905Y012355D03*
X013905Y012382D03*
X013905Y012408D03*
X013905Y012434D03*
X013905Y012487D03*
X013905Y012513D03*
X013905Y012540D03*
X013905Y012566D03*
X013905Y012592D03*
X013905Y012618D03*
X013905Y012671D03*
X013905Y012697D03*
X013905Y012724D03*
X013905Y012750D03*
X013905Y012776D03*
X013905Y012829D03*
X013905Y012855D03*
X013905Y012882D03*
X013905Y012908D03*
X013905Y012934D03*
D17*
X019694Y012908D03*
X019694Y011987D03*
D18*
X019694Y012013D03*
X019694Y012882D03*
D19*
X019681Y012040D03*
D20*
X019694Y012066D03*
D21*
X019694Y012092D03*
D22*
X019694Y012118D03*
D23*
X019681Y012145D03*
D24*
X019681Y012171D03*
D25*
X019694Y012197D03*
X019694Y012697D03*
D26*
X019681Y012671D03*
X019681Y012224D03*
D27*
X018286Y012224D03*
D28*
X018089Y012355D03*
X017773Y012355D03*
X017773Y012329D03*
X017773Y012276D03*
X017773Y012250D03*
X017773Y012224D03*
X017773Y012382D03*
X017773Y012408D03*
X017642Y012592D03*
X017589Y012671D03*
X017010Y012434D03*
X016984Y012382D03*
X016852Y012382D03*
X016852Y012408D03*
X016852Y012434D03*
X016852Y012487D03*
X016852Y012513D03*
X016852Y012540D03*
X016852Y012566D03*
X016852Y012592D03*
X016852Y012618D03*
X016852Y012671D03*
X016589Y012540D03*
X016589Y012355D03*
X016300Y012276D03*
X015747Y012540D03*
X015747Y012566D03*
X015747Y012592D03*
X015484Y012329D03*
X015273Y012224D03*
X015247Y012276D03*
X015168Y012487D03*
X015168Y012513D03*
X015142Y012540D03*
X015142Y012566D03*
X015010Y012566D03*
X015010Y012540D03*
X014984Y012513D03*
X014984Y012487D03*
X014905Y012276D03*
X019484Y012513D03*
D29*
X018115Y012540D03*
X018115Y012566D03*
X017878Y012566D03*
X017194Y012513D03*
X017194Y012487D03*
X017194Y012434D03*
X017194Y012408D03*
X017194Y012382D03*
X017194Y012355D03*
X017194Y012329D03*
X017194Y012276D03*
X017194Y012250D03*
X017194Y012224D03*
X017036Y012487D03*
X015194Y012434D03*
X015194Y012408D03*
X014957Y012408D03*
X014957Y012434D03*
X014878Y012224D03*
D30*
X014891Y012250D03*
X015207Y012382D03*
X015470Y012355D03*
X016602Y012382D03*
X016602Y012408D03*
X016602Y012434D03*
X016602Y012487D03*
X016602Y012513D03*
X016865Y012224D03*
X017681Y012540D03*
X017865Y012540D03*
X017891Y012592D03*
X018102Y012382D03*
X018102Y012329D03*
X018391Y012329D03*
X018391Y012355D03*
X018391Y012382D03*
X018391Y012408D03*
X018391Y012513D03*
X018391Y012540D03*
X018391Y012566D03*
X018391Y012592D03*
X018391Y012276D03*
X019470Y012382D03*
X019681Y012276D03*
X019865Y012382D03*
X019865Y012513D03*
D31*
X017773Y012513D03*
X016405Y012224D03*
D32*
X015628Y012224D03*
X015602Y012434D03*
D33*
X015681Y012487D03*
X015602Y012671D03*
X015076Y012592D03*
X016392Y012671D03*
X019681Y012250D03*
X020076Y012250D03*
D34*
X019299Y012250D03*
X019273Y012513D03*
X017773Y012487D03*
X015536Y012408D03*
D35*
X015076Y012355D03*
X018260Y012250D03*
X018260Y012618D03*
D36*
X017773Y012434D03*
X017168Y012671D03*
X016878Y012276D03*
X016878Y012250D03*
X019668Y012618D03*
X020141Y012540D03*
X020141Y012513D03*
X020141Y012382D03*
X020141Y012355D03*
X020141Y012329D03*
D37*
X016405Y012250D03*
D38*
X016418Y012618D03*
X015628Y012618D03*
X015628Y012250D03*
D39*
X015734Y012276D03*
X015734Y012513D03*
X015497Y012382D03*
X015260Y012250D03*
X015076Y012671D03*
X016576Y012566D03*
X016576Y012329D03*
X017655Y012566D03*
X017918Y012618D03*
X019234Y012566D03*
X019234Y012540D03*
X019234Y012355D03*
X019234Y012329D03*
X020155Y012408D03*
X020155Y012434D03*
X020155Y012487D03*
D40*
X020128Y012566D03*
X020128Y012592D03*
X020102Y012276D03*
X019260Y012276D03*
X019260Y012382D03*
X017470Y012382D03*
X017470Y012408D03*
X017470Y012355D03*
X016023Y012355D03*
X016023Y012382D03*
X016023Y012408D03*
X015523Y012276D03*
D41*
X015076Y012618D03*
X017155Y012618D03*
X017155Y012592D03*
X018155Y012276D03*
D42*
X017142Y012540D03*
X017142Y012566D03*
X016905Y012355D03*
X016510Y012276D03*
X020089Y012618D03*
D43*
X020128Y012303D03*
D44*
X019681Y012303D03*
X017023Y012461D03*
D45*
X019247Y012303D03*
D46*
X018391Y012303D03*
X018102Y012303D03*
X017602Y012645D03*
X016602Y012461D03*
X015181Y012461D03*
D47*
X015484Y012303D03*
X016852Y012461D03*
X016852Y012645D03*
X017773Y012303D03*
X017931Y012645D03*
D48*
X017194Y012461D03*
X017194Y012303D03*
X014957Y012461D03*
D49*
X016891Y012303D03*
D50*
X016549Y012303D03*
D51*
X016260Y012303D03*
X015786Y012303D03*
D52*
X015076Y012303D03*
D53*
X015470Y012592D03*
X016260Y012592D03*
X019681Y012566D03*
X019681Y012540D03*
X019681Y012355D03*
X019681Y012329D03*
D54*
X019286Y012618D03*
X016891Y012329D03*
D55*
X015076Y012329D03*
D56*
X016997Y012408D03*
X017050Y012513D03*
X019471Y012355D03*
X019681Y012592D03*
X019865Y012540D03*
X019865Y012355D03*
D57*
X018128Y012408D03*
X018128Y012513D03*
X018128Y012592D03*
X017944Y012671D03*
X017628Y012618D03*
X016549Y012592D03*
X014944Y012382D03*
D58*
X019813Y012408D03*
X019813Y012434D03*
X019813Y012487D03*
D59*
X019352Y012487D03*
X019352Y012434D03*
X019352Y012408D03*
D60*
X018273Y012434D03*
X018273Y012487D03*
D61*
X020155Y012461D03*
D62*
X019813Y012461D03*
X019313Y012645D03*
D63*
X019352Y012461D03*
D64*
X018286Y012461D03*
D65*
X017773Y012461D03*
D66*
X015628Y012461D03*
D67*
X019247Y012592D03*
D68*
X020063Y012645D03*
D69*
X019681Y012645D03*
D70*
X018273Y012645D03*
D71*
X017168Y012645D03*
D72*
X016405Y012645D03*
D73*
X015076Y012645D03*
D74*
X018313Y012671D03*
D75*
X019694Y012724D03*
D76*
X019681Y012750D03*
D77*
X019681Y012776D03*
D78*
X019694Y012803D03*
D79*
X019681Y012829D03*
D80*
X019694Y012855D03*
D81*
X017286Y012961D03*
D82*
X012621Y003717D02*
X012621Y003012D01*
X010653Y003012D02*
X010653Y003717D01*
X008724Y003717D02*
X008724Y003012D01*
X006755Y003012D02*
X006755Y003717D01*
X004779Y003717D02*
X004779Y003012D01*
X002810Y003012D02*
X002810Y003717D01*
D83*
X002987Y010501D03*
X002987Y011501D03*
X002987Y012501D03*
X006163Y019857D03*
X007163Y019957D03*
X008163Y019857D03*
X009163Y019957D03*
X010163Y019857D03*
X011163Y019957D03*
X012163Y019857D03*
D84*
X013385Y021031D02*
X013385Y021631D01*
X014385Y021531D02*
X014385Y020931D01*
X015385Y021031D02*
X015385Y021631D01*
X016385Y021531D02*
X016385Y020931D01*
X017385Y021031D02*
X017385Y021631D01*
X018385Y021531D02*
X018385Y020931D01*
X019385Y021031D02*
X019385Y021631D01*
X020385Y021531D02*
X020385Y020931D01*
X022039Y021051D02*
X022039Y021651D01*
X023039Y021551D02*
X023039Y020951D01*
X024039Y021051D02*
X024039Y021651D01*
X025039Y021551D02*
X025039Y020951D01*
X026039Y021051D02*
X026039Y021651D01*
X027039Y021551D02*
X027039Y020951D01*
X028039Y021051D02*
X028039Y021651D01*
X029039Y021551D02*
X029039Y020951D01*
X011742Y014405D02*
X011142Y014405D01*
X011042Y013405D02*
X011642Y013405D01*
X011742Y012405D02*
X011142Y012405D01*
X011042Y011405D02*
X011642Y011405D01*
X011742Y010405D02*
X011142Y010405D01*
X011042Y009405D02*
X011642Y009405D01*
X017026Y002653D02*
X017026Y002053D01*
X018026Y001953D02*
X018026Y002553D01*
X019026Y002653D02*
X019026Y002053D01*
X020026Y001953D02*
X020026Y002553D01*
X021026Y002653D02*
X021026Y002053D01*
X022026Y001953D02*
X022026Y002553D01*
X024012Y002670D02*
X024012Y002070D01*
X025012Y001970D02*
X025012Y002570D01*
X026012Y002670D02*
X026012Y002070D01*
X027012Y001970D02*
X027012Y002570D01*
X028012Y002670D02*
X028012Y002070D01*
X029012Y001970D02*
X029012Y002570D01*
D85*
X005163Y019957D03*
D86*
X017981Y014379D02*
X018748Y014379D01*
X020540Y014379D02*
X021308Y014379D01*
X023006Y016004D02*
X023774Y016004D01*
X025565Y016004D02*
X026333Y016004D01*
X026333Y019161D02*
X025565Y019161D01*
X023774Y019161D02*
X023006Y019161D01*
X023005Y012729D02*
X023773Y012729D01*
X025564Y012729D02*
X026332Y012729D01*
D87*
X026622Y011654D03*
X028591Y011654D03*
X028591Y017363D03*
X027607Y017363D03*
X026622Y017363D03*
D88*
X025205Y014410D03*
X030008Y014410D03*
D89*
X014389Y019678D03*
X003051Y019678D03*
X003051Y008340D03*
X014389Y008340D03*
M02*
