G75*
G70*
%OFA0B0*%
%FSLAX24Y24*%
%IPPOS*%
%LPD*%
%AMOC8*
5,1,8,0,0,1.08239X$1,22.5*
%
%ADD10C,0.0000*%
%ADD11C,0.1300*%
%ADD12R,0.0014X0.0014*%
%ADD13R,0.0014X0.0014*%
%ADD14R,0.0015X0.0014*%
%ADD15R,0.0029X0.0014*%
%ADD16R,0.0014X0.0014*%
%ADD17R,0.0014X0.0014*%
%ADD18R,0.0043X0.0014*%
%ADD19R,0.0043X0.0014*%
%ADD20R,0.0029X0.0014*%
%ADD21R,0.0028X0.0014*%
%ADD22R,0.0200X0.0014*%
%ADD23R,0.0042X0.0014*%
%ADD24R,0.0015X0.0014*%
%ADD25R,0.0028X0.0014*%
%ADD26R,0.0058X0.0014*%
%ADD27R,0.0072X0.0014*%
%ADD28R,0.0171X0.0014*%
%ADD29R,0.0186X0.0014*%
%ADD30R,0.0129X0.0014*%
%ADD31R,0.0114X0.0014*%
%ADD32R,0.0214X0.0014*%
%ADD33R,0.0143X0.0014*%
%ADD34R,0.0243X0.0014*%
%ADD35R,0.0143X0.0014*%
%ADD36R,0.0114X0.0014*%
%ADD37R,0.0172X0.0014*%
%ADD38R,0.0229X0.0014*%
%ADD39R,0.0142X0.0014*%
%ADD40R,0.0186X0.0014*%
%ADD41R,0.0071X0.0014*%
%ADD42R,0.0057X0.0014*%
%ADD43R,0.0100X0.0014*%
%ADD44R,0.0072X0.0014*%
%ADD45R,0.0057X0.0014*%
%ADD46R,0.0428X0.0014*%
%ADD47R,0.0271X0.0014*%
%ADD48R,0.0172X0.0014*%
%ADD49R,0.0229X0.0014*%
%ADD50R,0.0400X0.0014*%
%ADD51R,0.0057X0.0014*%
%ADD52R,0.0157X0.0014*%
%ADD53R,0.0128X0.0014*%
%ADD54R,0.0086X0.0014*%
%ADD55R,0.0100X0.0014*%
%ADD56R,0.0471X0.0014*%
%ADD57R,0.0315X0.0014*%
%ADD58R,0.0071X0.0014*%
%ADD59R,0.0215X0.0014*%
%ADD60R,0.0429X0.0014*%
%ADD61R,0.0343X0.0014*%
%ADD62R,0.0142X0.0014*%
%ADD63R,0.0243X0.0014*%
%ADD64R,0.0057X0.0014*%
%ADD65R,0.0486X0.0014*%
%ADD66R,0.0329X0.0014*%
%ADD67R,0.0415X0.0014*%
%ADD68R,0.0172X0.0014*%
%ADD69R,0.0085X0.0014*%
%ADD70R,0.0228X0.0014*%
%ADD71R,0.0115X0.0014*%
%ADD72R,0.0357X0.0014*%
%ADD73R,0.0286X0.0014*%
%ADD74R,0.0257X0.0014*%
%ADD75R,0.0357X0.0014*%
%ADD76R,0.0285X0.0014*%
%ADD77R,0.0428X0.0014*%
%ADD78R,0.0300X0.0014*%
%ADD79R,0.0500X0.0014*%
%ADD80R,0.0371X0.0014*%
%ADD81R,0.0385X0.0014*%
%ADD82R,0.0314X0.0014*%
%ADD83R,0.0157X0.0014*%
%ADD84R,0.0072X0.0014*%
%ADD85R,0.0157X0.0014*%
%ADD86R,0.0214X0.0014*%
%ADD87R,0.0314X0.0014*%
%ADD88R,0.0328X0.0014*%
%ADD89R,0.0128X0.0014*%
%ADD90R,0.0200X0.0014*%
%ADD91R,0.0129X0.0014*%
%ADD92R,0.0114X0.0014*%
%ADD93R,0.0058X0.0014*%
%ADD94R,0.0158X0.0014*%
%ADD95R,0.0114X0.0014*%
%ADD96R,0.0185X0.0014*%
%ADD97R,0.0272X0.0014*%
%ADD98R,0.0443X0.0014*%
%ADD99R,0.0314X0.0014*%
%ADD100R,0.0171X0.0014*%
%ADD101R,0.0086X0.0014*%
%ADD102R,0.0314X0.0014*%
%ADD103R,0.0342X0.0014*%
%ADD104R,0.0115X0.0014*%
%ADD105R,0.0157X0.0014*%
%ADD106R,0.0257X0.0014*%
%ADD107R,0.0457X0.0014*%
%ADD108R,0.0457X0.0014*%
%ADD109R,0.0414X0.0014*%
%ADD110R,0.0185X0.0014*%
%ADD111R,0.0085X0.0014*%
%ADD112R,0.0272X0.0014*%
%ADD113R,0.0242X0.0014*%
%ADD114R,0.0329X0.0014*%
%ADD115R,0.0172X0.0014*%
%ADD116R,0.0042X0.0014*%
%ADD117R,0.0072X0.0014*%
%ADD118R,0.0214X0.0014*%
%ADD119R,0.0271X0.0014*%
%ADD120C,0.0100*%
%ADD121C,0.0030*%
%ADD122C,0.0160*%
%ADD123C,0.0050*%
%ADD124C,0.0039*%
%ADD125R,0.0276X0.0650*%
%ADD126R,0.0827X0.0670*%
%ADD127C,0.0745*%
%ADD128R,0.0670X0.0827*%
%ADD129R,0.0827X0.0827*%
%ADD130C,0.0780*%
%ADD131R,0.0670X0.1221*%
%ADD132R,0.0631X0.0631*%
%ADD133R,0.0670X0.0750*%
%ADD134R,0.0355X0.0591*%
%ADD135R,0.0355X0.0788*%
%ADD136C,0.0630*%
%ADD137R,0.3879X0.4843*%
%ADD138R,0.1418X0.0670*%
%ADD139C,0.0640*%
%ADD140R,0.0780X0.0780*%
%ADD141R,0.0434X0.0709*%
%ADD142R,0.0750X0.0670*%
%ADD143C,0.0808*%
%ADD144R,0.0634X0.0634*%
%ADD145R,0.1306X0.1306*%
%ADD146C,0.1700*%
D10*
X029336Y004277D02*
X029338Y004327D01*
X029344Y004377D01*
X029354Y004426D01*
X029368Y004474D01*
X029385Y004521D01*
X029406Y004566D01*
X029431Y004610D01*
X029459Y004651D01*
X029491Y004690D01*
X029525Y004727D01*
X029562Y004761D01*
X029602Y004791D01*
X029644Y004818D01*
X029688Y004842D01*
X029734Y004863D01*
X029781Y004879D01*
X029829Y004892D01*
X029879Y004901D01*
X029928Y004906D01*
X029979Y004907D01*
X030029Y004904D01*
X030078Y004897D01*
X030127Y004886D01*
X030175Y004871D01*
X030221Y004853D01*
X030266Y004831D01*
X030309Y004805D01*
X030350Y004776D01*
X030389Y004744D01*
X030425Y004709D01*
X030457Y004671D01*
X030487Y004631D01*
X030514Y004588D01*
X030537Y004544D01*
X030556Y004498D01*
X030572Y004450D01*
X030584Y004401D01*
X030592Y004352D01*
X030596Y004302D01*
X030596Y004252D01*
X030592Y004202D01*
X030584Y004153D01*
X030572Y004104D01*
X030556Y004056D01*
X030537Y004010D01*
X030514Y003966D01*
X030487Y003923D01*
X030457Y003883D01*
X030425Y003845D01*
X030389Y003810D01*
X030350Y003778D01*
X030309Y003749D01*
X030266Y003723D01*
X030221Y003701D01*
X030175Y003683D01*
X030127Y003668D01*
X030078Y003657D01*
X030029Y003650D01*
X029979Y003647D01*
X029928Y003648D01*
X029879Y003653D01*
X029829Y003662D01*
X029781Y003675D01*
X029734Y003691D01*
X029688Y003712D01*
X029644Y003736D01*
X029602Y003763D01*
X029562Y003793D01*
X029525Y003827D01*
X029491Y003864D01*
X029459Y003903D01*
X029431Y003944D01*
X029406Y003988D01*
X029385Y004033D01*
X029368Y004080D01*
X029354Y004128D01*
X029344Y004177D01*
X029338Y004227D01*
X029336Y004277D01*
D11*
X029966Y004277D03*
D12*
X022031Y010034D03*
X021831Y009976D03*
X021831Y009962D03*
X021731Y010034D03*
X021831Y010162D03*
X021731Y010291D03*
X021531Y010434D03*
X021531Y010448D03*
X021431Y010605D03*
X021731Y010576D03*
X021831Y010734D03*
X021731Y010862D03*
X021831Y010934D03*
X021731Y011005D03*
X021831Y011076D03*
X021630Y011195D03*
X022031Y010891D03*
X022031Y010876D03*
X022031Y010862D03*
X021931Y010434D03*
X022331Y010376D03*
X022531Y010334D03*
X021431Y009634D03*
X021231Y009634D03*
X021031Y009705D03*
X020831Y009962D03*
X020831Y009991D03*
X020931Y010048D03*
X020831Y010191D03*
X020831Y010205D03*
X020731Y010134D03*
X020631Y010034D03*
X020131Y010234D03*
X020031Y010276D03*
X020131Y010362D03*
X019831Y010648D03*
X019131Y010534D03*
X019031Y010376D03*
X019031Y010362D03*
X019031Y010334D03*
X018031Y010491D03*
X017931Y010491D03*
X017931Y010462D03*
X017031Y010605D03*
X016331Y010834D03*
X016231Y010834D03*
X020631Y010876D03*
X020731Y010762D03*
X020831Y010934D03*
X020931Y010848D03*
X020941Y011016D03*
X021039Y011206D03*
D13*
X021053Y011192D03*
X021082Y011163D03*
X021098Y011145D03*
X021184Y011145D03*
X021182Y011163D03*
X021182Y011177D03*
X021182Y011192D03*
X021182Y011206D03*
X021193Y011235D03*
X021193Y011249D03*
X021273Y011209D03*
X021287Y011195D03*
X021287Y011180D03*
X021287Y011166D03*
X021373Y011166D03*
X021374Y011148D03*
X021387Y011195D03*
X021387Y011209D03*
X021422Y011249D03*
X021479Y011249D03*
X021487Y011209D03*
X021487Y011195D03*
X021487Y011180D03*
X021487Y011166D03*
X021488Y011148D03*
X021488Y011134D03*
X021588Y011148D03*
X021616Y011180D03*
X021688Y011154D03*
X021688Y011140D03*
X021688Y011125D03*
X021688Y011105D03*
X021688Y011091D03*
X021688Y011076D03*
X021674Y011048D03*
X021688Y011034D03*
X021774Y011048D03*
X021874Y011005D03*
X021874Y010991D03*
X021845Y010948D03*
X021845Y010905D03*
X021745Y010848D03*
X021717Y010876D03*
X021788Y010791D03*
X021817Y010762D03*
X021817Y010748D03*
X021845Y010705D03*
X021874Y010648D03*
X021874Y010634D03*
X021874Y010562D03*
X021874Y010548D03*
X021874Y010534D03*
X021874Y010505D03*
X021874Y010476D03*
X021874Y010462D03*
X021874Y010434D03*
X021874Y010362D03*
X021845Y010205D03*
X021845Y010191D03*
X021817Y010148D03*
X021817Y010134D03*
X021788Y010105D03*
X021788Y010091D03*
X021774Y010076D03*
X021745Y010048D03*
X021688Y009991D03*
X021645Y009962D03*
X021617Y009948D03*
X021674Y009848D03*
X021688Y009805D03*
X021745Y009876D03*
X021774Y009862D03*
X021788Y009848D03*
X021817Y009834D03*
X021874Y009834D03*
X021888Y009848D03*
X021888Y009862D03*
X021874Y009891D03*
X021874Y009905D03*
X021845Y009948D03*
X021845Y010005D03*
X021874Y010034D03*
X021945Y010134D03*
X021945Y010148D03*
X021974Y010105D03*
X021988Y010091D03*
X022017Y010062D03*
X022017Y010048D03*
X022017Y010005D03*
X021674Y010276D03*
X021588Y010234D03*
X021517Y010234D03*
X021474Y010205D03*
X021417Y010491D03*
X021417Y010648D03*
X021417Y010662D03*
X021388Y010662D03*
X021388Y010648D03*
X021445Y010648D03*
X021317Y010648D03*
X021045Y010662D03*
X021017Y010691D03*
X020988Y010705D03*
X020974Y010691D03*
X020945Y010648D03*
X020945Y010562D03*
X021017Y010576D03*
X020874Y010762D03*
X020874Y010776D03*
X020888Y010791D03*
X020945Y010862D03*
X020988Y010891D03*
X021045Y010934D03*
X020984Y011045D03*
X020998Y011059D03*
X020998Y011074D03*
X020984Y011102D03*
X020984Y011116D03*
X020984Y011145D03*
X020982Y011163D03*
X020982Y011177D03*
X020982Y011192D03*
X020898Y011059D03*
X020827Y011102D03*
X020798Y011074D03*
X020798Y011045D03*
X020827Y010974D03*
X020827Y010959D03*
X020817Y010891D03*
X020717Y010776D03*
X020717Y010748D03*
X020717Y010734D03*
X020674Y010805D03*
X020645Y010848D03*
X020645Y010891D03*
X020645Y010905D03*
X020545Y010691D03*
X020545Y010662D03*
X020517Y010648D03*
X020574Y010534D03*
X020645Y010648D03*
X020774Y010405D03*
X020845Y010176D03*
X020845Y010162D03*
X020874Y010134D03*
X020888Y010105D03*
X020917Y010062D03*
X020945Y010034D03*
X020974Y010005D03*
X021017Y009976D03*
X021088Y009934D03*
X020988Y009862D03*
X020988Y009848D03*
X020988Y009834D03*
X020974Y009805D03*
X020974Y009791D03*
X020974Y009776D03*
X020974Y009762D03*
X020974Y009748D03*
X020974Y009734D03*
X021074Y009748D03*
X021088Y009776D03*
X021174Y009776D03*
X021174Y009762D03*
X021174Y009748D03*
X021174Y009734D03*
X021174Y009705D03*
X021188Y009676D03*
X021188Y009662D03*
X021188Y009648D03*
X021245Y009648D03*
X021274Y009691D03*
X021288Y009734D03*
X021374Y009734D03*
X021374Y009748D03*
X021374Y009762D03*
X021388Y009705D03*
X021388Y009691D03*
X021417Y009662D03*
X021417Y009648D03*
X021474Y009648D03*
X021474Y009662D03*
X021488Y009676D03*
X021488Y009691D03*
X021488Y009705D03*
X021488Y009734D03*
X021488Y009748D03*
X021488Y009762D03*
X021488Y009776D03*
X021574Y009776D03*
X021588Y009762D03*
X021645Y009705D03*
X021674Y009705D03*
X020917Y009876D03*
X020817Y009934D03*
X020817Y009948D03*
X020845Y009976D03*
X020817Y010005D03*
X020788Y010034D03*
X020688Y010105D03*
X020674Y010091D03*
X020645Y010048D03*
X020645Y010005D03*
X020717Y010148D03*
X020717Y010162D03*
X020545Y010205D03*
X020545Y010234D03*
X020545Y010248D03*
X020517Y010234D03*
X020217Y010276D03*
X020217Y010291D03*
X020188Y010276D03*
X020188Y010334D03*
X020188Y010348D03*
X020145Y010391D03*
X019845Y010391D03*
X019845Y010362D03*
X019817Y010305D03*
X019817Y010291D03*
X019717Y010205D03*
X019688Y010462D03*
X019717Y010491D03*
X019617Y010605D03*
X019517Y010648D03*
X019474Y010648D03*
X019417Y010648D03*
X019374Y010634D03*
X019374Y010605D03*
X019245Y010505D03*
X019245Y010462D03*
X019245Y010448D03*
X019174Y010434D03*
X019145Y010434D03*
X019017Y010348D03*
X018974Y010362D03*
X018974Y010376D03*
X018917Y010391D03*
X018917Y010405D03*
X018574Y010291D03*
X018574Y010276D03*
X018545Y010334D03*
X018517Y010334D03*
X018488Y010234D03*
X018345Y010376D03*
X018188Y010548D03*
X018117Y010505D03*
X018088Y010476D03*
X018074Y010505D03*
X018045Y010348D03*
X017917Y010334D03*
X017645Y010176D03*
X017545Y010176D03*
X017345Y010305D03*
X017374Y010348D03*
X017374Y010634D03*
X017388Y010648D03*
X017345Y010676D03*
X017274Y010662D03*
X017274Y010648D03*
X017417Y010691D03*
X017117Y010705D03*
X017088Y010648D03*
X017017Y010534D03*
X017017Y010505D03*
X017017Y010462D03*
X016945Y010262D03*
X016688Y010134D03*
X016645Y010505D03*
X016645Y010548D03*
X016688Y010548D03*
X016474Y010734D03*
X016374Y010562D03*
X017945Y010762D03*
X018188Y010648D03*
X018188Y010634D03*
X019488Y010448D03*
X020788Y009891D03*
X020788Y009876D03*
X020788Y009862D03*
X020774Y009848D03*
X020788Y009834D03*
X021117Y010334D03*
X021688Y010476D03*
X021717Y010591D03*
X021945Y010748D03*
X021945Y010762D03*
X021974Y010791D03*
X021988Y010805D03*
X022017Y010848D03*
X022017Y010905D03*
X021888Y011048D03*
X021617Y010948D03*
X021588Y010962D03*
X022117Y010691D03*
X022117Y010676D03*
X022117Y010648D03*
X022245Y010705D03*
X022288Y010662D03*
X022188Y010391D03*
X022174Y010376D03*
X022017Y010505D03*
X022474Y010234D03*
D14*
X022560Y010276D03*
X022560Y010291D03*
X022503Y010334D03*
X022160Y010391D03*
X022103Y010634D03*
X022160Y010734D03*
X022203Y010734D03*
X021960Y010734D03*
X021860Y010676D03*
X021860Y010662D03*
X021803Y010776D03*
X021760Y010834D03*
X021703Y010891D03*
X021760Y011034D03*
X021803Y011062D03*
X021860Y011076D03*
X021860Y010976D03*
X021860Y010891D03*
X021560Y010976D03*
X021560Y011091D03*
X021601Y011166D03*
X021408Y011235D03*
X021265Y011235D03*
X021112Y011116D03*
X021112Y011102D03*
X021068Y011177D03*
X020912Y011045D03*
X020812Y011002D03*
X020812Y010988D03*
X020812Y011088D03*
X020960Y010876D03*
X021003Y010905D03*
X021069Y010959D03*
X020903Y010805D03*
X020860Y010748D03*
X020903Y010676D03*
X020860Y010634D03*
X020803Y010634D03*
X020703Y010791D03*
X020660Y010834D03*
X020560Y010548D03*
X020803Y010448D03*
X020703Y010191D03*
X020660Y010076D03*
X020660Y010062D03*
X020803Y009905D03*
X020903Y009862D03*
X021003Y009991D03*
X021060Y009948D03*
X021103Y009791D03*
X021060Y009734D03*
X021260Y009676D03*
X021260Y009662D03*
X021303Y009762D03*
X021403Y009676D03*
X021603Y009748D03*
X021703Y009876D03*
X021660Y009976D03*
X021703Y010005D03*
X021760Y010062D03*
X021860Y009934D03*
X022003Y010076D03*
X021960Y010176D03*
X021960Y010191D03*
X021903Y010362D03*
X021903Y010376D03*
X021903Y010391D03*
X021903Y010405D03*
X021903Y010434D03*
X021903Y010448D03*
X021903Y010462D03*
X021903Y010476D03*
X021903Y010491D03*
X021903Y010505D03*
X021903Y010534D03*
X021403Y010605D03*
X021260Y010676D03*
X021160Y010248D03*
X020903Y010091D03*
X020903Y010076D03*
X020860Y010148D03*
X020560Y010262D03*
X020003Y010376D03*
X019803Y010605D03*
X019803Y010648D03*
X019860Y010734D03*
X019903Y010705D03*
X019403Y010634D03*
X019060Y010534D03*
X018303Y010662D03*
X018203Y010434D03*
X018003Y010476D03*
X017960Y010462D03*
X017903Y010476D03*
X017903Y010491D03*
X017860Y010462D03*
X017760Y010448D03*
X017760Y010376D03*
X017703Y010605D03*
X017360Y010562D03*
X017303Y010634D03*
X017060Y010705D03*
X017003Y010705D03*
X016960Y010648D03*
X017003Y010548D03*
X016960Y010234D03*
X017460Y010176D03*
X016360Y010434D03*
X016203Y010234D03*
D15*
X017053Y010691D03*
X017096Y010691D03*
X017310Y010705D03*
X017953Y010291D03*
X018053Y010334D03*
X018053Y010391D03*
X018310Y010648D03*
X018310Y010676D03*
X018310Y010691D03*
X018496Y010391D03*
X018567Y010262D03*
X018567Y010248D03*
X018953Y010348D03*
X019110Y010548D03*
X019696Y010476D03*
X019853Y010348D03*
X019810Y010276D03*
X020010Y010391D03*
X020067Y010276D03*
X020167Y010362D03*
X020210Y010248D03*
X020696Y010205D03*
X021067Y010334D03*
X020953Y010605D03*
X020896Y010591D03*
X020867Y010705D03*
X020796Y010876D03*
X020753Y010891D03*
X020876Y011074D03*
X021018Y011220D03*
X021162Y011002D03*
X021105Y010974D03*
X020653Y010691D03*
X020610Y010691D03*
X020553Y010648D03*
X020567Y010634D03*
X019953Y010648D03*
X019953Y010676D03*
X019953Y010691D03*
X019896Y010734D03*
X020967Y009876D03*
X020853Y009834D03*
X020996Y009705D03*
X021110Y009805D03*
X021153Y009905D03*
X021553Y009805D03*
X021610Y009734D03*
X021596Y009934D03*
X021567Y010248D03*
X021610Y010305D03*
X021653Y010476D03*
X021653Y010505D03*
X021653Y010534D03*
X021653Y010548D03*
X021610Y010562D03*
X021653Y010634D03*
X021696Y010505D03*
X021953Y010462D03*
X022110Y010205D03*
X022553Y010262D03*
X022567Y010305D03*
X022296Y010648D03*
X022296Y010676D03*
X022296Y010691D03*
X021953Y010776D03*
X021910Y010891D03*
X021651Y011209D03*
D16*
X021574Y011119D03*
X021488Y011119D03*
X021487Y011223D03*
X021273Y011223D03*
X021184Y011131D03*
X020984Y011131D03*
X020927Y011031D03*
X020798Y011031D03*
X020917Y010819D03*
X020845Y010719D03*
X021088Y010719D03*
X021017Y010919D03*
X020588Y010619D03*
X021074Y010319D03*
X021174Y010319D03*
X021474Y010219D03*
X021717Y010019D03*
X021688Y009819D03*
X021488Y009719D03*
X021288Y009719D03*
X021174Y009719D03*
X021045Y009719D03*
X020974Y009719D03*
X020774Y010019D03*
X020874Y010119D03*
X020817Y010219D03*
X020545Y010219D03*
X019917Y010619D03*
X018917Y010419D03*
X018588Y010319D03*
X017345Y010619D03*
X017017Y010519D03*
X016674Y010519D03*
X016645Y010519D03*
X021645Y010619D03*
X021874Y010619D03*
X021874Y010519D03*
X022017Y010519D03*
X022074Y010619D03*
X021774Y010819D03*
X021745Y011019D03*
X021874Y011019D03*
X022574Y010319D03*
D17*
X022031Y010019D03*
X021631Y009719D03*
X020631Y010019D03*
X020531Y010419D03*
X020331Y010419D03*
X020231Y010319D03*
X020831Y010919D03*
X021031Y010719D03*
X021431Y010619D03*
X021831Y010919D03*
X019431Y010619D03*
X017931Y010319D03*
D18*
X017889Y010305D03*
X017803Y010334D03*
X017803Y010434D03*
X017803Y010476D03*
X017946Y010476D03*
X017989Y010505D03*
X018017Y010276D03*
X018360Y010391D03*
X018403Y010276D03*
X018474Y010334D03*
X018303Y010705D03*
X018303Y010734D03*
X019046Y010634D03*
X019174Y010448D03*
X019160Y010405D03*
X018989Y010405D03*
X018946Y010334D03*
X019660Y010605D03*
X019946Y010705D03*
X019946Y010734D03*
X020117Y010334D03*
X020303Y010476D03*
X020374Y010362D03*
X020574Y010405D03*
X020760Y010448D03*
X020917Y010705D03*
X021046Y010634D03*
X021303Y010691D03*
X021203Y011005D03*
X021474Y011005D03*
X021947Y010900D03*
X021984Y010905D03*
X021989Y010705D03*
X021874Y010605D03*
X021874Y010591D03*
X021746Y010505D03*
X021746Y010476D03*
X021746Y010462D03*
X021746Y010448D03*
X021660Y010234D03*
X021474Y009891D03*
X021503Y009791D03*
X021203Y009891D03*
X021160Y009791D03*
X021174Y010305D03*
X020546Y010676D03*
X022289Y010705D03*
X022346Y010391D03*
X022389Y010276D03*
X022460Y010334D03*
X017603Y010305D03*
X017603Y010176D03*
X017203Y010448D03*
X017274Y010562D03*
X016989Y010676D03*
X016403Y010776D03*
X016403Y010791D03*
D19*
X018303Y010719D03*
X018717Y010419D03*
X019946Y010719D03*
X020474Y010619D03*
X020817Y009819D03*
X021517Y010419D03*
X021646Y010519D03*
X022289Y010719D03*
D20*
X021710Y011019D03*
X020910Y010619D03*
X020367Y010419D03*
X020296Y010419D03*
X021567Y009919D03*
X021853Y009819D03*
X021896Y010019D03*
X018653Y010419D03*
X017396Y010619D03*
D21*
X017881Y010334D03*
X017981Y010491D03*
X018138Y010476D03*
X018181Y010534D03*
X018238Y010662D03*
X018838Y010434D03*
X018938Y010362D03*
X018981Y010448D03*
X019181Y010391D03*
X018581Y010305D03*
X020224Y010305D03*
X020224Y010262D03*
X020738Y010005D03*
X020881Y009848D03*
X020938Y009891D03*
X021038Y009962D03*
X021124Y010248D03*
X021024Y010562D03*
X020938Y010576D03*
X020938Y010591D03*
X020924Y010634D03*
X020824Y010648D03*
X021024Y010705D03*
X021134Y010988D03*
X021148Y011116D03*
X020989Y011206D03*
X020848Y011088D03*
X021524Y010991D03*
X021638Y010934D03*
X021681Y010905D03*
X021881Y010876D03*
X021881Y011062D03*
X021680Y011195D03*
X021881Y010576D03*
X021724Y010305D03*
X021681Y010305D03*
X021681Y010291D03*
X021638Y010276D03*
X021624Y010291D03*
X021981Y010205D03*
X021924Y010005D03*
X021681Y009862D03*
X021524Y009905D03*
X022481Y010391D03*
X016738Y010634D03*
X016738Y010662D03*
X016638Y010562D03*
X016324Y010805D03*
D22*
X016352Y010734D03*
X016495Y010576D03*
X016495Y010562D03*
X016481Y010405D03*
X016238Y010548D03*
X017138Y010548D03*
X017167Y010605D03*
X017167Y010676D03*
X018795Y010562D03*
X019481Y010348D03*
X019481Y010334D03*
X019695Y010334D03*
X019695Y010348D03*
X020438Y010576D03*
X020695Y010548D03*
X021252Y010291D03*
X021338Y009876D03*
D23*
X021731Y009891D03*
X020831Y010562D03*
X020831Y010662D03*
X021531Y011105D03*
X018931Y010448D03*
X018231Y010634D03*
X018231Y010648D03*
X018231Y010676D03*
X018131Y010348D03*
X016631Y010576D03*
D24*
X017903Y010319D03*
X019403Y010619D03*
X020703Y010719D03*
X020960Y010619D03*
X021003Y010719D03*
X021403Y010619D03*
X021660Y010919D03*
X022003Y010819D03*
X021960Y010719D03*
X021903Y010519D03*
X021903Y010419D03*
X021960Y010119D03*
X021860Y010019D03*
X021860Y009919D03*
X021803Y010119D03*
X020960Y010019D03*
X020803Y010019D03*
X020803Y009919D03*
X020703Y010119D03*
X020969Y011031D03*
X021401Y011223D03*
D25*
X021138Y010719D03*
X021738Y010319D03*
X021124Y009919D03*
X019681Y010619D03*
D26*
X020781Y010534D03*
X020681Y009991D03*
X022481Y010276D03*
X017881Y010448D03*
X017381Y010605D03*
X017281Y010548D03*
D27*
X017888Y010434D03*
X019174Y010462D03*
X020188Y010234D03*
X020288Y010234D03*
X020288Y010248D03*
X020288Y010262D03*
X020488Y010448D03*
X020474Y010605D03*
X020588Y010705D03*
X020288Y010576D03*
X021674Y010448D03*
X021674Y010262D03*
X021988Y009991D03*
X016388Y010805D03*
D28*
X016367Y010748D03*
X016253Y010648D03*
X016496Y010605D03*
X016496Y010591D03*
X016696Y010205D03*
X016696Y010191D03*
X016696Y010176D03*
X016696Y010162D03*
X016696Y010148D03*
X017167Y010234D03*
X017210Y010691D03*
X017853Y010648D03*
X018253Y010348D03*
X019167Y010591D03*
X019167Y010605D03*
X019196Y010305D03*
X019610Y010391D03*
X019696Y010305D03*
X019696Y010291D03*
X019696Y010276D03*
X019696Y010262D03*
X020767Y010691D03*
X021553Y010648D03*
X022010Y010291D03*
D29*
X022445Y010462D03*
X021517Y010591D03*
X020731Y010234D03*
X019388Y010534D03*
X019388Y010548D03*
X019388Y010562D03*
X019388Y010576D03*
X019388Y010591D03*
X017431Y010534D03*
X017431Y010262D03*
X017145Y010562D03*
X016474Y010648D03*
X016231Y010434D03*
X016231Y010376D03*
X016331Y010191D03*
X016331Y010176D03*
X016331Y010162D03*
D30*
X016846Y010262D03*
X017060Y010362D03*
X017060Y010376D03*
X017060Y010391D03*
X017103Y010448D03*
X017246Y010305D03*
X017646Y010362D03*
X017646Y010391D03*
X017646Y010462D03*
X017846Y010391D03*
X018317Y010562D03*
X018703Y010505D03*
X019603Y010505D03*
X019603Y010476D03*
X019603Y010462D03*
X019603Y010448D03*
X019617Y010648D03*
X019960Y010562D03*
X020346Y010505D03*
X020346Y010491D03*
X020503Y010491D03*
X020617Y010391D03*
X020617Y010376D03*
X020617Y010362D03*
X020660Y010448D03*
X020617Y010191D03*
X020346Y010305D03*
X019903Y010205D03*
X020960Y010305D03*
X021117Y010348D03*
X021117Y010491D03*
X021117Y010505D03*
X021317Y010491D03*
X021317Y010476D03*
X021303Y010305D03*
X021703Y010376D03*
X021703Y010391D03*
X021703Y010405D03*
X021703Y010434D03*
X021703Y010491D03*
X021846Y010291D03*
X021846Y010276D03*
X022046Y010376D03*
X022060Y010405D03*
X022303Y010562D03*
X022503Y010248D03*
X016917Y010548D03*
D31*
X016838Y010634D03*
X016738Y010505D03*
X016695Y010262D03*
X016695Y010248D03*
X016695Y010234D03*
X017267Y010334D03*
X017267Y010491D03*
X017267Y010505D03*
X017438Y010491D03*
X017438Y010476D03*
X017438Y010448D03*
X017438Y010405D03*
X017438Y010391D03*
X017638Y010405D03*
X017638Y010434D03*
X017638Y010448D03*
X017638Y010476D03*
X017638Y010505D03*
X017638Y010376D03*
X017638Y010348D03*
X017638Y010334D03*
X018095Y010548D03*
X018095Y010562D03*
X018095Y010576D03*
X018095Y010591D03*
X018095Y010605D03*
X018095Y010634D03*
X018295Y010491D03*
X018495Y010491D03*
X018495Y010505D03*
X018495Y010534D03*
X018495Y010476D03*
X018695Y010476D03*
X018695Y010462D03*
X018695Y010434D03*
X018695Y010405D03*
X018695Y010376D03*
X018695Y010362D03*
X018695Y010348D03*
X018695Y010334D03*
X018695Y010305D03*
X018695Y010491D03*
X018838Y010534D03*
X018838Y010548D03*
X018824Y010591D03*
X018995Y010562D03*
X019195Y010634D03*
X019195Y010648D03*
X019195Y010662D03*
X019195Y010676D03*
X019195Y010476D03*
X019195Y010362D03*
X019195Y010348D03*
X019424Y010376D03*
X019424Y010391D03*
X019795Y010505D03*
X019938Y010505D03*
X019938Y010491D03*
X019924Y010362D03*
X020138Y010476D03*
X020138Y010491D03*
X020138Y010505D03*
X020138Y010534D03*
X020338Y010462D03*
X020338Y010405D03*
X020338Y010376D03*
X020338Y010348D03*
X020338Y010334D03*
X020824Y010334D03*
X020838Y010348D03*
X020838Y010362D03*
X020824Y010491D03*
X020824Y010505D03*
X020967Y010291D03*
X020967Y010276D03*
X020967Y010262D03*
X020967Y010248D03*
X021324Y010334D03*
X021324Y010348D03*
X021324Y010362D03*
X021324Y010376D03*
X021324Y010391D03*
X021238Y010648D03*
X021138Y010676D03*
X022038Y010191D03*
X022467Y010548D03*
D32*
X022245Y010305D03*
X020717Y010248D03*
X019945Y010262D03*
X019945Y010234D03*
X018245Y010505D03*
X018117Y010762D03*
X017845Y010748D03*
X017845Y010734D03*
X017845Y010705D03*
X017845Y010691D03*
X017845Y010676D03*
X017845Y010662D03*
X017617Y010591D03*
X016345Y010205D03*
X016245Y010534D03*
X016245Y010562D03*
D33*
X016710Y010491D03*
X016710Y010476D03*
X016710Y010462D03*
X016710Y010448D03*
X016710Y010434D03*
X016710Y010405D03*
X016724Y010362D03*
X017096Y010305D03*
X017439Y010291D03*
X017453Y010434D03*
X017653Y010491D03*
X017639Y010291D03*
X017853Y010348D03*
X017853Y010362D03*
X017853Y010376D03*
X018110Y010434D03*
X018253Y010205D03*
X018696Y010291D03*
X018696Y010534D03*
X018467Y010562D03*
X018367Y010634D03*
X019010Y010548D03*
X019396Y010505D03*
X019510Y010605D03*
X019796Y010591D03*
X019796Y010548D03*
X019796Y010534D03*
X019896Y010334D03*
X019696Y010248D03*
X019696Y010234D03*
X020010Y010634D03*
X020110Y010562D03*
X020324Y010591D03*
X020324Y010605D03*
X020339Y010534D03*
X020339Y010291D03*
X020653Y010305D03*
X021110Y010362D03*
X021110Y010376D03*
X021110Y010391D03*
X021110Y010405D03*
X021110Y010434D03*
X021110Y010448D03*
X021110Y010462D03*
X021110Y010476D03*
X021324Y010505D03*
X021324Y010534D03*
X021539Y010634D03*
X021539Y010662D03*
X022053Y010391D03*
X022039Y010362D03*
X022024Y010334D03*
X022010Y010305D03*
X022096Y010462D03*
X022096Y010476D03*
X022110Y010491D03*
X022110Y010505D03*
X022353Y010634D03*
X022453Y010562D03*
X022239Y010205D03*
X021253Y010248D03*
D34*
X016360Y010219D03*
D35*
X016696Y010219D03*
X017439Y010519D03*
X017853Y010419D03*
X019196Y010319D03*
X019696Y010219D03*
X019796Y010519D03*
X020639Y010319D03*
X021110Y010419D03*
X021124Y010519D03*
X021539Y010619D03*
D36*
X020824Y010519D03*
X020824Y010319D03*
X020724Y010219D03*
X020338Y010319D03*
X020138Y010319D03*
X020138Y010519D03*
X018838Y010519D03*
X018695Y010319D03*
X018495Y010319D03*
X018495Y010519D03*
X018095Y010619D03*
X017638Y010419D03*
X017638Y010319D03*
X017438Y010419D03*
X017267Y010319D03*
X017167Y010219D03*
X017267Y010519D03*
D37*
X017438Y010219D03*
X017638Y010219D03*
X016238Y010619D03*
X019924Y010319D03*
X020738Y010619D03*
D38*
X017853Y010219D03*
X016253Y010419D03*
D39*
X017081Y010319D03*
X018081Y010219D03*
X018281Y010519D03*
X019181Y010719D03*
X019481Y010219D03*
D40*
X019488Y010319D03*
X019388Y010519D03*
X019931Y010219D03*
X020031Y010619D03*
X021345Y011019D03*
X022374Y010619D03*
X022245Y010319D03*
X018388Y010619D03*
X018274Y010219D03*
X016488Y010619D03*
D41*
X016746Y010419D03*
X017817Y010319D03*
X018517Y010219D03*
X019617Y010619D03*
X020160Y010219D03*
X021246Y010219D03*
X021846Y010219D03*
X021960Y010519D03*
X022503Y010219D03*
D42*
X021453Y010419D03*
X018639Y010219D03*
D43*
X019045Y010219D03*
X019945Y010519D03*
X020488Y010519D03*
X021845Y010319D03*
X017588Y010619D03*
X016917Y010519D03*
X016745Y010519D03*
D44*
X019774Y010419D03*
X020288Y010219D03*
D45*
X020967Y010219D03*
X019167Y010419D03*
X018967Y010419D03*
X016667Y010419D03*
X016396Y010819D03*
D46*
X022138Y010219D03*
D47*
X022060Y010534D03*
X022403Y010434D03*
X021217Y010276D03*
X020717Y010291D03*
X020746Y010476D03*
X020060Y010434D03*
X018746Y010576D03*
X018417Y010434D03*
X017160Y010291D03*
X016360Y010234D03*
D48*
X016238Y010362D03*
X016224Y010576D03*
X016238Y010605D03*
X016724Y010534D03*
X016724Y010348D03*
X017438Y010276D03*
X017438Y010248D03*
X017438Y010234D03*
X017638Y010234D03*
X017638Y010248D03*
X017638Y010262D03*
X017638Y010276D03*
X019924Y010276D03*
X019924Y010305D03*
X021524Y010576D03*
X021538Y010605D03*
X022238Y010362D03*
X022238Y010348D03*
D49*
X021210Y010705D03*
X019596Y010634D03*
X017853Y010276D03*
X017853Y010262D03*
X017853Y010248D03*
X017853Y010234D03*
X017167Y010591D03*
X016253Y010405D03*
D50*
X018210Y010234D03*
X018352Y010405D03*
D51*
X018510Y010362D03*
X018539Y010234D03*
X018639Y010234D03*
X018639Y010248D03*
X018839Y010448D03*
X018239Y010705D03*
X017924Y010505D03*
X017810Y010462D03*
X017810Y010448D03*
X017339Y010691D03*
X017239Y010705D03*
X017224Y010534D03*
X016839Y010648D03*
X020139Y010276D03*
X020310Y010362D03*
X020839Y010548D03*
X021410Y010634D03*
X021724Y010548D03*
X021953Y010505D03*
X021953Y010491D03*
X021953Y010476D03*
X021853Y010348D03*
X022524Y010234D03*
X021458Y011264D03*
X021229Y011264D03*
X020710Y010905D03*
D52*
X019417Y010476D03*
X019217Y010234D03*
X019046Y010234D03*
X017846Y010548D03*
X017846Y010562D03*
X017846Y010576D03*
X017846Y010591D03*
X017846Y010605D03*
X017846Y010634D03*
X017417Y010334D03*
X016717Y010391D03*
X016217Y010448D03*
X016217Y010462D03*
X016217Y010476D03*
X016217Y010491D03*
X016246Y010634D03*
D53*
X017074Y010405D03*
X017074Y010348D03*
X017074Y010334D03*
X017431Y010305D03*
X017431Y010376D03*
X017431Y010505D03*
X018088Y010648D03*
X018288Y010548D03*
X018974Y010476D03*
X019188Y010334D03*
X019431Y010362D03*
X019474Y010234D03*
X019188Y010691D03*
X019188Y010748D03*
X020131Y010548D03*
X020631Y010505D03*
X020631Y010348D03*
X020631Y010334D03*
X021131Y010534D03*
X021474Y010505D03*
X021474Y010476D03*
X021474Y010462D03*
X021474Y010405D03*
X021488Y010534D03*
X021488Y010548D03*
X021531Y010676D03*
X022031Y010348D03*
D54*
X022267Y010391D03*
X022267Y010734D03*
X021524Y010734D03*
X021481Y010305D03*
X021495Y010276D03*
X020967Y010234D03*
X020967Y010334D03*
X020867Y010534D03*
X020795Y010676D03*
X020724Y010634D03*
X020481Y010462D03*
X020295Y010276D03*
X020138Y010248D03*
X019924Y010391D03*
X019781Y010434D03*
X019781Y010448D03*
X019781Y010462D03*
X019767Y010405D03*
X019767Y010391D03*
X019767Y010376D03*
X019738Y010648D03*
X019438Y010305D03*
X018838Y010462D03*
X018495Y010248D03*
X018467Y010262D03*
X017195Y010662D03*
X017167Y010634D03*
X017095Y010505D03*
X017095Y010491D03*
X016924Y010505D03*
X016924Y010391D03*
X016381Y010762D03*
X021338Y011134D03*
D55*
X021517Y010691D03*
X021488Y010491D03*
X021474Y010334D03*
X021488Y010291D03*
X021702Y010334D03*
X021845Y010334D03*
X021845Y010248D03*
X021845Y010234D03*
X022260Y010376D03*
X022260Y010476D03*
X022274Y010491D03*
X022288Y010534D03*
X022288Y010548D03*
X022460Y010305D03*
X021688Y010562D03*
X021317Y010462D03*
X021260Y010234D03*
X020831Y010376D03*
X020645Y010534D03*
X020488Y010505D03*
X020488Y010476D03*
X020474Y010591D03*
X020331Y010448D03*
X020331Y010434D03*
X020331Y010391D03*
X020117Y010305D03*
X019931Y010348D03*
X019931Y010476D03*
X019945Y010534D03*
X019788Y010491D03*
X019788Y010476D03*
X019417Y010491D03*
X019417Y010405D03*
X019188Y010491D03*
X019174Y010505D03*
X019202Y010534D03*
X019202Y010548D03*
X019002Y010576D03*
X018974Y010534D03*
X018960Y010462D03*
X018845Y010476D03*
X018845Y010491D03*
X018845Y010505D03*
X018688Y010448D03*
X018688Y010391D03*
X018474Y010305D03*
X018274Y010476D03*
X018088Y010405D03*
X017831Y010505D03*
X017788Y010291D03*
X017445Y010348D03*
X017445Y010362D03*
X017445Y010462D03*
X017288Y010448D03*
X017288Y010476D03*
X017274Y010376D03*
X017088Y010534D03*
X016931Y010491D03*
X016931Y010476D03*
X016931Y010462D03*
X016931Y010448D03*
X016931Y010434D03*
X016931Y010405D03*
X016917Y010376D03*
X016917Y010362D03*
X016917Y010534D03*
X016760Y010548D03*
X016660Y010634D03*
X016660Y010662D03*
X020702Y010705D03*
D56*
X022160Y010262D03*
X022160Y010234D03*
D57*
X018210Y010276D03*
X016353Y010248D03*
D58*
X016846Y010248D03*
X017103Y010662D03*
X017360Y010591D03*
X017817Y010491D03*
X017817Y010405D03*
X018117Y010448D03*
X018646Y010562D03*
X018646Y010262D03*
X020660Y010662D03*
X020803Y010705D03*
X020860Y010448D03*
X021103Y010305D03*
X021317Y010448D03*
X021446Y010434D03*
X021503Y010262D03*
X021717Y010534D03*
X021146Y010691D03*
D59*
X017160Y010248D03*
D60*
X018210Y010248D03*
D61*
X018196Y010305D03*
X017553Y010562D03*
X017524Y010548D03*
X017524Y010576D03*
X016767Y010591D03*
X019124Y010262D03*
X019124Y010248D03*
X021224Y010548D03*
X021239Y010562D03*
D62*
X022081Y010448D03*
X022081Y010434D03*
X019481Y010248D03*
X018981Y010491D03*
X019181Y010705D03*
X019181Y010734D03*
X019181Y010762D03*
X019181Y010776D03*
X018681Y010605D03*
X018681Y010591D03*
X018681Y010548D03*
X018281Y010534D03*
X018081Y010662D03*
X016681Y010648D03*
D63*
X016489Y010548D03*
X016489Y010534D03*
X016460Y010376D03*
X017160Y010262D03*
X017174Y010576D03*
X018203Y010391D03*
X018203Y010334D03*
X018389Y010591D03*
X019960Y010248D03*
X020703Y010605D03*
X021217Y010262D03*
X022360Y010605D03*
X022374Y010591D03*
D64*
X022496Y010362D03*
X022096Y010705D03*
X021667Y010605D03*
X021667Y010591D03*
X021667Y010576D03*
X021667Y010462D03*
X021667Y010248D03*
X021496Y010248D03*
X021096Y010291D03*
X020967Y010348D03*
X020896Y010691D03*
X020496Y010434D03*
X020367Y010476D03*
X019167Y010376D03*
X018496Y010276D03*
X017896Y010291D03*
X017896Y010405D03*
X017667Y010305D03*
X017296Y010534D03*
X017467Y010605D03*
X017367Y010705D03*
X017167Y010705D03*
X016667Y010376D03*
X016367Y010362D03*
X016396Y010834D03*
D65*
X022167Y010248D03*
D66*
X016803Y010334D03*
X016360Y010262D03*
X016360Y010691D03*
D67*
X016360Y010348D03*
X016360Y010334D03*
X018203Y010262D03*
D68*
X019481Y010262D03*
X019481Y010276D03*
X019481Y010291D03*
X016481Y010634D03*
D69*
X016753Y010376D03*
X017453Y010591D03*
X017810Y010305D03*
X018653Y010276D03*
X018953Y010434D03*
X019010Y010591D03*
X019010Y010605D03*
X019753Y010362D03*
X020110Y010262D03*
X020653Y010405D03*
X020653Y010491D03*
X020753Y010662D03*
X021453Y010448D03*
X021510Y010705D03*
X022453Y010262D03*
D70*
X020724Y010262D03*
X020724Y010591D03*
D71*
X020810Y010305D03*
X019953Y010548D03*
X019910Y010376D03*
X019410Y010434D03*
X019410Y010448D03*
X019410Y010462D03*
X021710Y010362D03*
X021710Y010348D03*
X021853Y010305D03*
X021853Y010262D03*
X016910Y010348D03*
D72*
X016360Y010291D03*
X016360Y010276D03*
X016360Y010662D03*
X016360Y010676D03*
X019689Y010576D03*
X019689Y010562D03*
D73*
X019981Y010291D03*
X020395Y010562D03*
X022067Y010562D03*
X022067Y010548D03*
X022067Y010576D03*
X022067Y010591D03*
X016781Y010276D03*
X016367Y010705D03*
D74*
X017167Y010276D03*
X018367Y010605D03*
X020067Y010448D03*
X022067Y010605D03*
D75*
X019117Y010291D03*
X019117Y010276D03*
D76*
X020710Y010276D03*
X020753Y010462D03*
X016810Y010562D03*
X016810Y010576D03*
D77*
X022138Y010276D03*
D78*
X021231Y010576D03*
X018188Y010362D03*
X016788Y010291D03*
D79*
X018245Y010291D03*
D80*
X022296Y010291D03*
D81*
X017960Y010534D03*
X016360Y010305D03*
D82*
X016795Y010305D03*
X016767Y010605D03*
X020038Y010405D03*
X020738Y010434D03*
D83*
X021503Y010562D03*
X019603Y010491D03*
X019603Y010434D03*
X019603Y010405D03*
X019003Y010305D03*
X018074Y010676D03*
X018074Y010691D03*
X018074Y010705D03*
X017603Y010605D03*
X016503Y010491D03*
X016503Y010476D03*
X016503Y010462D03*
X016503Y010448D03*
X016503Y010434D03*
X016489Y010362D03*
D84*
X018831Y010605D03*
X019531Y010305D03*
X021231Y010691D03*
D85*
X021317Y010519D03*
X022117Y010519D03*
X018117Y010419D03*
X017846Y010619D03*
X017417Y010319D03*
X016246Y010319D03*
D86*
X016445Y010319D03*
X017845Y010719D03*
D87*
X016795Y010319D03*
X020038Y010419D03*
X020738Y010419D03*
D88*
X018188Y010319D03*
D89*
X017631Y010519D03*
X018988Y010519D03*
X018988Y010319D03*
X019188Y010519D03*
X021231Y010719D03*
X021474Y010519D03*
D90*
X019695Y010319D03*
D91*
X020346Y010519D03*
X020960Y010319D03*
X021317Y010319D03*
X021703Y010419D03*
X022017Y010319D03*
X018703Y010519D03*
D92*
X021481Y010319D03*
X022281Y010519D03*
X022481Y010519D03*
X022481Y010319D03*
D93*
X021681Y010319D03*
X017681Y010619D03*
D94*
X017631Y010534D03*
X017131Y010476D03*
X017131Y010462D03*
X016231Y010591D03*
X020331Y010548D03*
X021231Y010634D03*
X022231Y010334D03*
D95*
X022281Y010505D03*
X022481Y010505D03*
X022481Y010491D03*
X022481Y010476D03*
X022481Y010534D03*
X021481Y010391D03*
X021481Y010376D03*
X021481Y010362D03*
X021481Y010348D03*
X020681Y010676D03*
X020481Y010548D03*
X020481Y010534D03*
X018981Y010505D03*
X018481Y010548D03*
X017281Y010462D03*
X017281Y010362D03*
X017281Y010348D03*
D96*
X018460Y010462D03*
X019160Y010562D03*
X019160Y010576D03*
X019603Y010591D03*
X019603Y010548D03*
X019603Y010534D03*
X019603Y010376D03*
X019603Y010362D03*
X020103Y010462D03*
X020703Y010562D03*
D97*
X022374Y010576D03*
X018388Y010576D03*
X018188Y010376D03*
D98*
X016360Y010391D03*
D99*
X017181Y010434D03*
X022381Y010405D03*
D100*
X019167Y010619D03*
X016496Y010419D03*
D101*
X016924Y010419D03*
X017095Y010519D03*
X021724Y010519D03*
D102*
X022381Y010419D03*
X017181Y010419D03*
D103*
X018381Y010419D03*
D104*
X019410Y010419D03*
X021510Y010719D03*
D105*
X022074Y010419D03*
X019603Y010419D03*
X018074Y010719D03*
D106*
X018124Y010748D03*
X018424Y010448D03*
X020039Y010591D03*
X022410Y010448D03*
D107*
X016367Y010505D03*
D108*
X016367Y010519D03*
D109*
X017988Y010519D03*
D110*
X019603Y010519D03*
D111*
X020653Y010519D03*
X021353Y010719D03*
D112*
X021231Y010591D03*
X020031Y010576D03*
X018131Y010734D03*
D113*
X020031Y010605D03*
X020731Y010576D03*
X021231Y010605D03*
D114*
X016760Y010619D03*
D115*
X017181Y010619D03*
D116*
X018231Y010619D03*
X018231Y010719D03*
X018831Y010619D03*
D117*
X019031Y010619D03*
X019531Y010619D03*
D118*
X021231Y010619D03*
D119*
X016360Y010719D03*
D120*
X008768Y021570D02*
X008768Y021837D01*
X008901Y021837D02*
X008768Y021703D01*
X008901Y021837D02*
X008968Y021837D01*
X008574Y021770D02*
X008574Y021703D01*
X008307Y021703D01*
X008307Y021636D02*
X008307Y021770D01*
X008374Y021837D01*
X008507Y021837D01*
X008574Y021770D01*
X008507Y021570D02*
X008374Y021570D01*
X008307Y021636D01*
X008134Y021570D02*
X008000Y021570D01*
X008067Y021570D02*
X008067Y021970D01*
X008000Y021970D01*
X007760Y021970D02*
X007760Y021570D01*
X007693Y021570D02*
X007827Y021570D01*
X007500Y021636D02*
X007500Y021770D01*
X007433Y021837D01*
X007300Y021837D01*
X007233Y021770D01*
X007233Y021636D01*
X007300Y021570D01*
X007433Y021570D01*
X007500Y021636D01*
X007693Y021970D02*
X007760Y021970D01*
X007050Y021837D02*
X006983Y021837D01*
X006849Y021703D01*
X006849Y021570D02*
X006849Y021837D01*
X006676Y021837D02*
X006542Y021837D01*
X006609Y021903D02*
X006609Y021636D01*
X006676Y021570D01*
X006349Y021570D02*
X006349Y021770D01*
X006282Y021837D01*
X006082Y021837D01*
X006082Y021570D01*
X005889Y021636D02*
X005889Y021770D01*
X005822Y021837D01*
X005688Y021837D01*
X005622Y021770D01*
X005622Y021636D01*
X005688Y021570D01*
X005822Y021570D01*
X005889Y021636D01*
X005428Y021636D02*
X005361Y021570D01*
X005228Y021570D01*
X005161Y021636D01*
X005161Y021903D01*
X005228Y021970D01*
X005361Y021970D01*
X005428Y021903D01*
X004507Y021837D02*
X004507Y021636D01*
X004441Y021570D01*
X004374Y021636D01*
X004307Y021570D01*
X004240Y021636D01*
X004240Y021837D01*
X004047Y021770D02*
X003980Y021837D01*
X003847Y021837D01*
X003780Y021770D01*
X003780Y021636D01*
X003847Y021570D01*
X003980Y021570D01*
X004047Y021636D01*
X004047Y021770D01*
X003607Y021570D02*
X003473Y021570D01*
X003540Y021570D02*
X003540Y021970D01*
X003473Y021970D01*
X003300Y021970D02*
X003233Y021903D01*
X003233Y021570D01*
X003166Y021770D02*
X003300Y021770D01*
X002973Y021770D02*
X002973Y021703D01*
X002706Y021703D01*
X002706Y021636D02*
X002706Y021770D01*
X002773Y021837D01*
X002906Y021837D01*
X002973Y021770D01*
X002906Y021570D02*
X002773Y021570D01*
X002706Y021636D01*
X002512Y021570D02*
X002379Y021703D01*
X002446Y021703D02*
X002245Y021703D01*
X002245Y021570D02*
X002245Y021970D01*
X002446Y021970D01*
X002512Y021903D01*
X002512Y021770D01*
X002446Y021703D01*
D121*
X016426Y012174D02*
X016426Y011974D01*
X016476Y011924D01*
X016576Y011924D01*
X016626Y011974D01*
X016730Y011974D02*
X016780Y011924D01*
X016880Y011924D01*
X016930Y011974D01*
X017034Y012074D02*
X017234Y012074D01*
X017338Y012074D02*
X017488Y012074D01*
X017538Y012024D01*
X017538Y011974D01*
X017488Y011924D01*
X017338Y011924D01*
X017338Y012224D01*
X017488Y012224D01*
X017538Y012174D01*
X017538Y012124D01*
X017488Y012074D01*
X017641Y012174D02*
X017641Y012224D01*
X017641Y012174D02*
X017741Y012074D01*
X017741Y011924D01*
X017741Y012074D02*
X017842Y012174D01*
X017842Y012224D01*
X017945Y012074D02*
X018145Y012074D01*
X018249Y012124D02*
X018299Y012074D01*
X018399Y012074D01*
X018449Y012024D01*
X018449Y011974D01*
X018399Y011924D01*
X018299Y011924D01*
X018249Y011974D01*
X018249Y012124D02*
X018249Y012174D01*
X018299Y012224D01*
X018399Y012224D01*
X018449Y012174D01*
X018553Y012124D02*
X018553Y011924D01*
X018553Y012074D02*
X018753Y012074D01*
X018753Y012124D02*
X018753Y011924D01*
X018742Y011756D02*
X018742Y011456D01*
X018638Y011456D02*
X018638Y011606D01*
X018588Y011656D01*
X018438Y011656D01*
X018438Y011456D01*
X018334Y011556D02*
X018134Y011556D01*
X018134Y011606D02*
X018184Y011656D01*
X018284Y011656D01*
X018334Y011606D01*
X018334Y011556D01*
X018284Y011456D02*
X018184Y011456D01*
X018134Y011506D01*
X018134Y011606D01*
X018030Y011606D02*
X018030Y011506D01*
X017980Y011456D01*
X017830Y011456D01*
X017830Y011355D02*
X017830Y011656D01*
X017980Y011656D01*
X018030Y011606D01*
X017726Y011606D02*
X017676Y011656D01*
X017576Y011656D01*
X017526Y011606D01*
X017526Y011506D01*
X017576Y011456D01*
X017676Y011456D01*
X017726Y011506D01*
X017726Y011606D01*
X017424Y011506D02*
X017424Y011456D01*
X017374Y011456D01*
X017374Y011506D01*
X017424Y011506D01*
X017272Y011456D02*
X017172Y011456D01*
X017222Y011456D02*
X017222Y011656D01*
X017172Y011656D01*
X017069Y011656D02*
X016918Y011556D01*
X017069Y011456D01*
X016918Y011456D02*
X016918Y011756D01*
X016766Y011756D02*
X016766Y011806D01*
X016766Y011656D02*
X016766Y011456D01*
X016716Y011456D02*
X016816Y011456D01*
X016824Y011265D02*
X016874Y011215D01*
X016674Y011014D01*
X016724Y010964D01*
X016824Y010964D01*
X016874Y011014D01*
X016874Y011215D01*
X016824Y011265D02*
X016724Y011265D01*
X016674Y011215D01*
X016674Y011014D01*
X016570Y010964D02*
X016370Y010964D01*
X016570Y011165D01*
X016570Y011215D01*
X016520Y011265D01*
X016420Y011265D01*
X016370Y011215D01*
X016462Y011456D02*
X016512Y011506D01*
X016562Y011456D01*
X016612Y011506D01*
X016612Y011656D01*
X016716Y011656D02*
X016766Y011656D01*
X016412Y011656D02*
X016412Y011506D01*
X016462Y011456D01*
X016978Y011165D02*
X017078Y011265D01*
X017078Y010964D01*
X016978Y010964D02*
X017178Y010964D01*
X017282Y011114D02*
X017482Y011114D01*
X017432Y010964D02*
X017432Y011265D01*
X017282Y011114D01*
X017890Y011064D02*
X018040Y011064D01*
X018090Y011114D01*
X018090Y011215D01*
X018040Y011265D01*
X017890Y011265D01*
X017890Y010964D01*
X018193Y011165D02*
X018294Y010964D01*
X018394Y011165D01*
X018497Y011114D02*
X018547Y011165D01*
X018697Y011165D01*
X018697Y011265D02*
X018697Y010964D01*
X018547Y010964D01*
X018497Y011014D01*
X018497Y011114D01*
X018801Y010964D02*
X018901Y011064D01*
X019001Y010964D01*
X019001Y011265D01*
X018942Y011456D02*
X018942Y011606D01*
X018892Y011656D01*
X018792Y011656D01*
X018742Y011606D01*
X019045Y011506D02*
X019096Y011456D01*
X019246Y011456D01*
X019246Y011606D01*
X019196Y011656D01*
X019096Y011656D01*
X019096Y011556D02*
X019246Y011556D01*
X019349Y011556D02*
X019449Y011656D01*
X019499Y011656D01*
X019603Y011606D02*
X019653Y011656D01*
X019803Y011656D01*
X019803Y011756D02*
X019803Y011456D01*
X019653Y011456D01*
X019603Y011506D01*
X019603Y011606D01*
X019349Y011656D02*
X019349Y011456D01*
X019096Y011556D02*
X019045Y011506D01*
X018801Y011265D02*
X018801Y010964D01*
X019906Y011506D02*
X019956Y011456D01*
X020007Y011506D01*
X020057Y011456D01*
X020107Y011506D01*
X020107Y011656D01*
X020260Y011656D02*
X020360Y011656D01*
X020410Y011606D01*
X020410Y011456D01*
X020260Y011456D01*
X020210Y011506D01*
X020260Y011556D01*
X020410Y011556D01*
X020514Y011556D02*
X020614Y011656D01*
X020664Y011656D01*
X020767Y011606D02*
X020817Y011656D01*
X020917Y011656D01*
X020968Y011606D01*
X020968Y011556D01*
X020767Y011556D01*
X020767Y011506D02*
X020767Y011606D01*
X020767Y011506D02*
X020817Y011456D01*
X020917Y011456D01*
X021071Y011456D02*
X021121Y011456D01*
X021121Y011506D01*
X021071Y011506D01*
X021071Y011456D01*
X021223Y011506D02*
X021273Y011456D01*
X021423Y011456D01*
X021527Y011506D02*
X021577Y011456D01*
X021677Y011456D01*
X021727Y011506D01*
X021727Y011606D01*
X021677Y011656D01*
X021577Y011656D01*
X021527Y011606D01*
X021527Y011506D01*
X021423Y011656D02*
X021273Y011656D01*
X021223Y011606D01*
X021223Y011506D01*
X021831Y011506D02*
X021831Y011456D01*
X021881Y011456D01*
X021881Y011506D01*
X021831Y011506D01*
X021983Y011456D02*
X022183Y011456D01*
X022287Y011506D02*
X022337Y011456D01*
X022487Y011456D01*
X022487Y011606D01*
X022437Y011656D01*
X022337Y011656D01*
X022337Y011556D02*
X022487Y011556D01*
X022337Y011556D02*
X022287Y011506D01*
X022183Y011656D02*
X021983Y011456D01*
X021983Y011656D02*
X022183Y011656D01*
X020514Y011656D02*
X020514Y011456D01*
X019906Y011506D02*
X019906Y011656D01*
X018753Y012124D02*
X018653Y012224D01*
X018553Y012124D01*
X017222Y011806D02*
X017222Y011756D01*
X016930Y012174D02*
X016880Y012224D01*
X016780Y012224D01*
X016730Y012174D01*
X016730Y011974D01*
X016626Y012174D02*
X016576Y012224D01*
X016476Y012224D01*
X016426Y012174D01*
D122*
X016425Y012432D02*
X017718Y012443D01*
X017078Y013620D01*
X016698Y012927D01*
X016704Y012939D02*
X016425Y012432D01*
X017064Y012624D02*
X017066Y012631D01*
X017071Y012636D01*
X017078Y012638D01*
X017085Y012636D01*
X017090Y012631D01*
X017092Y012624D01*
X017090Y012617D01*
X017085Y012612D01*
X017078Y012610D01*
X017071Y012612D01*
X017066Y012617D01*
X017064Y012624D01*
D123*
X017084Y012766D02*
X017080Y013176D01*
X017034Y013215D02*
X017036Y013228D01*
X017041Y013241D01*
X017050Y013252D01*
X017061Y013259D01*
X017074Y013264D01*
X017087Y013265D01*
X017101Y013262D01*
X017113Y013256D01*
X017123Y013247D01*
X017130Y013235D01*
X017134Y013222D01*
X017134Y013208D01*
X017130Y013195D01*
X017123Y013183D01*
X017113Y013174D01*
X017101Y013168D01*
X017087Y013165D01*
X017074Y013166D01*
X017061Y013171D01*
X017050Y013178D01*
X017041Y013189D01*
X017036Y013202D01*
X017034Y013215D01*
X017034Y013211D02*
X017134Y013210D01*
X017084Y012766D01*
X017083Y012768D02*
X017034Y013211D01*
X017066Y013219D02*
X017068Y013226D01*
X017073Y013231D01*
X017080Y013233D01*
X017087Y013231D01*
X017092Y013226D01*
X017094Y013219D01*
X017092Y013212D01*
X017087Y013207D01*
X017080Y013205D01*
X017073Y013207D01*
X017068Y013212D01*
X017066Y013219D01*
D124*
X029607Y001160D02*
X001857Y001160D01*
X001808Y001162D01*
X001759Y001168D01*
X001711Y001177D01*
X001664Y001191D01*
X001618Y001208D01*
X001573Y001228D01*
X001530Y001252D01*
X001490Y001279D01*
X001451Y001310D01*
X001415Y001343D01*
X001382Y001379D01*
X001351Y001418D01*
X001324Y001458D01*
X001300Y001501D01*
X001280Y001546D01*
X001263Y001592D01*
X001249Y001639D01*
X001240Y001687D01*
X001234Y001736D01*
X001232Y001785D01*
X001232Y021535D01*
X001238Y021600D01*
X001247Y021663D01*
X001261Y021726D01*
X001278Y021788D01*
X001299Y021849D01*
X001323Y021909D01*
X001352Y021967D01*
X001383Y022023D01*
X001418Y022077D01*
X001456Y022129D01*
X001497Y022178D01*
X001542Y022225D01*
X001589Y022270D01*
X001638Y022311D01*
X001690Y022349D01*
X001744Y022384D01*
X001800Y022415D01*
X001858Y022444D01*
X001918Y022468D01*
X001979Y022489D01*
X002041Y022506D01*
X002104Y022520D01*
X002167Y022529D01*
X002232Y022535D01*
X029357Y022535D01*
X029982Y021910D01*
X029982Y018535D01*
X031107Y017410D01*
X031107Y003285D01*
X030232Y002410D01*
X030232Y001785D01*
X029607Y001160D01*
D125*
X027560Y003984D03*
X027060Y003984D03*
X026560Y003984D03*
X026060Y003984D03*
X026060Y006110D03*
X026560Y006110D03*
X027060Y006110D03*
X027560Y006110D03*
D126*
X027247Y007614D03*
X025791Y007606D03*
X025791Y008708D03*
X027247Y008716D03*
X028673Y008716D03*
X030114Y008708D03*
X030114Y007606D03*
X028673Y007614D03*
D127*
X012621Y003717D02*
X012621Y003012D01*
X010653Y003012D02*
X010653Y003717D01*
X008724Y003717D02*
X008724Y003012D01*
X006755Y003012D02*
X006755Y003717D01*
X004779Y003717D02*
X004779Y003012D01*
X002810Y003012D02*
X002810Y003717D01*
D128*
X002564Y005931D03*
X003667Y005931D03*
X020900Y019416D03*
X022002Y019416D03*
D129*
X007633Y008874D03*
X006058Y008874D03*
D130*
X002987Y010501D03*
X002987Y011501D03*
X002987Y012501D03*
X006163Y019857D03*
X007163Y019957D03*
X008163Y019857D03*
X009163Y019957D03*
X010163Y019857D03*
X011163Y019957D03*
X012163Y019857D03*
D131*
X017184Y008961D03*
X017184Y007229D03*
X019715Y005772D03*
X019715Y004040D03*
X024096Y004018D03*
X024096Y005751D03*
D132*
X012380Y005602D03*
X011002Y005602D03*
X007554Y005613D03*
X006176Y005613D03*
D133*
X011036Y007639D03*
X012156Y007639D03*
D134*
X021298Y003917D03*
X022479Y003917D03*
D135*
X021888Y004017D03*
D136*
X021993Y004644D02*
X021783Y004644D01*
X021783Y005490D01*
X021993Y005490D01*
X021993Y004644D01*
X021993Y005273D02*
X021783Y005273D01*
D137*
X003767Y016063D03*
D138*
X007814Y015063D03*
X007814Y017063D03*
D139*
X011142Y014405D02*
X011742Y014405D01*
X011642Y013405D02*
X011042Y013405D01*
X011142Y012405D02*
X011742Y012405D01*
X011642Y011405D02*
X011042Y011405D01*
X011142Y010405D02*
X011742Y010405D01*
X011642Y009405D02*
X011042Y009405D01*
X017026Y002653D02*
X017026Y002053D01*
X018026Y001953D02*
X018026Y002553D01*
X019026Y002653D02*
X019026Y002053D01*
X020026Y001953D02*
X020026Y002553D01*
X021026Y002653D02*
X021026Y002053D01*
X022026Y001953D02*
X022026Y002553D01*
X024012Y002670D02*
X024012Y002070D01*
X025012Y001970D02*
X025012Y002570D01*
X026012Y002670D02*
X026012Y002070D01*
X027012Y001970D02*
X027012Y002570D01*
X028012Y002670D02*
X028012Y002070D01*
X029012Y001970D02*
X029012Y002570D01*
X029039Y020951D02*
X029039Y021551D01*
X028039Y021651D02*
X028039Y021051D01*
X027039Y020951D02*
X027039Y021551D01*
X026039Y021651D02*
X026039Y021051D01*
X025039Y020951D02*
X025039Y021551D01*
X024039Y021651D02*
X024039Y021051D01*
X023039Y020951D02*
X023039Y021551D01*
X022039Y021651D02*
X022039Y021051D01*
X020385Y020931D02*
X020385Y021531D01*
X019385Y021631D02*
X019385Y021031D01*
X018385Y020931D02*
X018385Y021531D01*
X017385Y021631D02*
X017385Y021031D01*
X016385Y020931D02*
X016385Y021531D01*
X015385Y021631D02*
X015385Y021031D01*
X014385Y020931D02*
X014385Y021531D01*
X013385Y021631D02*
X013385Y021031D01*
D140*
X005163Y019957D03*
D141*
X014139Y004376D03*
X015635Y004376D03*
X015635Y001895D03*
X014139Y001895D03*
D142*
X012958Y016828D03*
X012958Y017947D03*
D143*
X017981Y014379D02*
X018748Y014379D01*
X020540Y014379D02*
X021308Y014379D01*
X023006Y016004D02*
X023774Y016004D01*
X025565Y016004D02*
X026333Y016004D01*
X026333Y019161D02*
X025565Y019161D01*
X023774Y019161D02*
X023006Y019161D01*
X023005Y012729D02*
X023773Y012729D01*
X025564Y012729D02*
X026332Y012729D01*
D144*
X026622Y011654D03*
X028591Y011654D03*
X028591Y017363D03*
X027607Y017363D03*
X026622Y017363D03*
D145*
X025205Y014410D03*
X030008Y014410D03*
D146*
X014389Y019678D03*
X003051Y019678D03*
X003051Y008340D03*
X014389Y008340D03*
M02*
