G75*
G70*
%OFA0B0*%
%FSLAX24Y24*%
%IPPOS*%
%LPD*%
%AMOC8*
5,1,8,0,0,1.08239X$1,22.5*
%
%ADD10C,0.0000*%
%ADD11C,0.0039*%
%ADD12C,0.0705*%
%ADD13C,0.0740*%
%ADD14C,0.0600*%
%ADD15R,0.0740X0.0740*%
%ADD16C,0.0768*%
%ADD17R,0.0594X0.0594*%
%ADD18R,0.1266X0.1266*%
%ADD19C,0.0400*%
%ADD20R,0.0356X0.0356*%
%ADD21C,0.0240*%
%ADD22C,0.0320*%
%ADD23C,0.0860*%
%ADD24C,0.0120*%
%ADD25C,0.1660*%
D10*
X029336Y004277D02*
X029338Y004327D01*
X029344Y004377D01*
X029354Y004426D01*
X029368Y004474D01*
X029385Y004521D01*
X029406Y004566D01*
X029431Y004610D01*
X029459Y004651D01*
X029491Y004690D01*
X029525Y004727D01*
X029562Y004761D01*
X029602Y004791D01*
X029644Y004818D01*
X029688Y004842D01*
X029734Y004863D01*
X029781Y004879D01*
X029829Y004892D01*
X029879Y004901D01*
X029928Y004906D01*
X029979Y004907D01*
X030029Y004904D01*
X030078Y004897D01*
X030127Y004886D01*
X030175Y004871D01*
X030221Y004853D01*
X030266Y004831D01*
X030309Y004805D01*
X030350Y004776D01*
X030389Y004744D01*
X030425Y004709D01*
X030457Y004671D01*
X030487Y004631D01*
X030514Y004588D01*
X030537Y004544D01*
X030556Y004498D01*
X030572Y004450D01*
X030584Y004401D01*
X030592Y004352D01*
X030596Y004302D01*
X030596Y004252D01*
X030592Y004202D01*
X030584Y004153D01*
X030572Y004104D01*
X030556Y004056D01*
X030537Y004010D01*
X030514Y003966D01*
X030487Y003923D01*
X030457Y003883D01*
X030425Y003845D01*
X030389Y003810D01*
X030350Y003778D01*
X030309Y003749D01*
X030266Y003723D01*
X030221Y003701D01*
X030175Y003683D01*
X030127Y003668D01*
X030078Y003657D01*
X030029Y003650D01*
X029979Y003647D01*
X029928Y003648D01*
X029879Y003653D01*
X029829Y003662D01*
X029781Y003675D01*
X029734Y003691D01*
X029688Y003712D01*
X029644Y003736D01*
X029602Y003763D01*
X029562Y003793D01*
X029525Y003827D01*
X029491Y003864D01*
X029459Y003903D01*
X029431Y003944D01*
X029406Y003988D01*
X029385Y004033D01*
X029368Y004080D01*
X029354Y004128D01*
X029344Y004177D01*
X029338Y004227D01*
X029336Y004277D01*
D11*
X031107Y003285D02*
X031107Y017410D01*
X029982Y018535D01*
X029982Y021910D01*
X029357Y022535D01*
X002232Y022535D01*
X002167Y022529D01*
X002104Y022520D01*
X002041Y022506D01*
X001979Y022489D01*
X001918Y022468D01*
X001858Y022444D01*
X001800Y022415D01*
X001744Y022384D01*
X001690Y022349D01*
X001638Y022311D01*
X001589Y022270D01*
X001542Y022225D01*
X001497Y022178D01*
X001456Y022129D01*
X001418Y022077D01*
X001383Y022023D01*
X001352Y021967D01*
X001323Y021909D01*
X001299Y021849D01*
X001278Y021788D01*
X001261Y021726D01*
X001247Y021663D01*
X001238Y021600D01*
X001232Y021535D01*
X001232Y001785D01*
X001234Y001736D01*
X001240Y001687D01*
X001249Y001639D01*
X001263Y001592D01*
X001280Y001546D01*
X001300Y001501D01*
X001324Y001458D01*
X001351Y001418D01*
X001382Y001379D01*
X001415Y001343D01*
X001451Y001310D01*
X001490Y001279D01*
X001530Y001252D01*
X001573Y001228D01*
X001618Y001208D01*
X001664Y001191D01*
X001711Y001177D01*
X001759Y001168D01*
X001808Y001162D01*
X001857Y001160D01*
X029607Y001160D01*
X030232Y001785D01*
X030232Y002410D01*
X031107Y003285D01*
D12*
X012621Y003012D02*
X012621Y003717D01*
X010653Y003717D02*
X010653Y003012D01*
X008724Y003012D02*
X008724Y003717D01*
X006755Y003717D02*
X006755Y003012D01*
X004779Y003012D02*
X004779Y003717D01*
X002810Y003717D02*
X002810Y003012D01*
D13*
X002987Y010501D03*
X002987Y011501D03*
X002987Y012501D03*
X006163Y019857D03*
X007163Y019957D03*
X008163Y019857D03*
X009163Y019957D03*
X010163Y019857D03*
X011163Y019957D03*
X012163Y019857D03*
D14*
X013385Y021031D02*
X013385Y021631D01*
X014385Y021531D02*
X014385Y020931D01*
X015385Y021031D02*
X015385Y021631D01*
X016385Y021531D02*
X016385Y020931D01*
X017385Y021031D02*
X017385Y021631D01*
X018385Y021531D02*
X018385Y020931D01*
X019385Y021031D02*
X019385Y021631D01*
X020385Y021531D02*
X020385Y020931D01*
X022039Y021051D02*
X022039Y021651D01*
X023039Y021551D02*
X023039Y020951D01*
X024039Y021051D02*
X024039Y021651D01*
X025039Y021551D02*
X025039Y020951D01*
X026039Y021051D02*
X026039Y021651D01*
X027039Y021551D02*
X027039Y020951D01*
X028039Y021051D02*
X028039Y021651D01*
X029039Y021551D02*
X029039Y020951D01*
X011742Y014405D02*
X011142Y014405D01*
X011042Y013405D02*
X011642Y013405D01*
X011742Y012405D02*
X011142Y012405D01*
X011042Y011405D02*
X011642Y011405D01*
X011742Y010405D02*
X011142Y010405D01*
X011042Y009405D02*
X011642Y009405D01*
X017026Y002653D02*
X017026Y002053D01*
X018026Y001953D02*
X018026Y002553D01*
X019026Y002653D02*
X019026Y002053D01*
X020026Y001953D02*
X020026Y002553D01*
X021026Y002653D02*
X021026Y002053D01*
X022026Y001953D02*
X022026Y002553D01*
X024012Y002670D02*
X024012Y002070D01*
X025012Y001970D02*
X025012Y002570D01*
X026012Y002670D02*
X026012Y002070D01*
X027012Y001970D02*
X027012Y002570D01*
X028012Y002670D02*
X028012Y002070D01*
X029012Y001970D02*
X029012Y002570D01*
D15*
X005163Y019957D03*
D16*
X017981Y014379D02*
X018748Y014379D01*
X020540Y014379D02*
X021308Y014379D01*
X023006Y016004D02*
X023774Y016004D01*
X025565Y016004D02*
X026333Y016004D01*
X026333Y019161D02*
X025565Y019161D01*
X023774Y019161D02*
X023006Y019161D01*
X023005Y012729D02*
X023773Y012729D01*
X025564Y012729D02*
X026332Y012729D01*
D17*
X026622Y011654D03*
X028591Y011654D03*
X028591Y017363D03*
X027607Y017363D03*
X026622Y017363D03*
D18*
X025205Y014410D03*
X030008Y014410D03*
D19*
X029357Y015785D02*
X028607Y015035D01*
X028607Y011670D01*
X028591Y011654D01*
X027788Y012716D02*
X025961Y012716D01*
X025948Y012729D01*
X025740Y011128D02*
X023864Y011128D01*
X022643Y009907D01*
X022643Y008844D01*
X022525Y008726D01*
X019651Y008726D01*
X018470Y007545D01*
X017210Y007545D01*
X016974Y007309D01*
X015242Y007269D01*
X014415Y006442D01*
X006777Y006482D01*
X005123Y008135D01*
X005123Y017112D01*
X006147Y018135D01*
X007289Y018135D01*
X007683Y018529D01*
X007171Y019120D02*
X007171Y019949D01*
X007163Y019957D01*
X007171Y019120D02*
X006934Y018883D01*
X005360Y018883D01*
X004533Y018057D01*
X004533Y007899D01*
X006501Y005931D01*
X014808Y005891D01*
X015596Y006679D01*
X017328Y006718D01*
X017604Y006994D01*
X018785Y006994D01*
X019927Y008135D01*
X022919Y008135D01*
X023234Y008450D01*
X023234Y009513D01*
X024257Y010537D01*
X025346Y010537D01*
X026397Y009486D01*
X027395Y009486D01*
X027683Y009198D01*
X027683Y005222D01*
X028431Y004474D01*
X028431Y003332D01*
X028012Y002914D01*
X028012Y002370D01*
X029012Y002270D02*
X029012Y004798D01*
X028312Y005498D01*
X028312Y009435D01*
X027546Y010076D01*
X026666Y010076D01*
X025740Y011128D01*
X025045Y009986D02*
X024690Y009986D01*
X023824Y009120D01*
X023824Y007742D01*
X023667Y007584D01*
X020242Y007584D01*
X019060Y006403D01*
X017958Y006403D01*
X017683Y006128D01*
X015950Y006128D01*
X015163Y005340D01*
X004690Y005340D01*
X002794Y003443D01*
X002810Y003365D01*
X004740Y003736D02*
X004779Y003365D01*
X004740Y003736D02*
X005714Y004631D01*
X015399Y004631D01*
X016108Y005340D01*
X017958Y005340D01*
X018352Y005734D01*
X019415Y005734D01*
X020635Y006954D01*
X024257Y006954D01*
X024494Y007191D01*
X024494Y008805D01*
X025084Y009395D01*
X021501Y003372D02*
X014336Y003372D01*
X012761Y001797D01*
X010950Y001797D01*
X010616Y002131D01*
X010616Y003327D01*
X010653Y003365D01*
X021501Y003372D02*
X022026Y002847D01*
X022026Y002253D01*
X029357Y015785D02*
X029357Y017660D01*
X027732Y019285D01*
X027732Y019910D01*
X027016Y020626D01*
X027016Y021228D01*
X027039Y021251D01*
D20*
X022982Y019910D03*
X022407Y017072D03*
X020107Y016285D03*
X018785Y017624D03*
X014808Y017466D03*
X011620Y018687D03*
X009060Y017072D03*
X007683Y018529D03*
X008903Y015065D03*
X009415Y012939D03*
X007053Y011718D03*
X006974Y010498D03*
X006344Y010498D03*
X003379Y006543D03*
X005230Y005716D03*
X012919Y007033D03*
X012840Y007584D03*
X015871Y007899D03*
X016462Y004316D03*
X018509Y004316D03*
X021068Y005340D03*
X023273Y003411D03*
X025005Y005301D03*
X025360Y006324D03*
X029218Y005576D03*
X027564Y003254D03*
X025084Y009395D03*
X025045Y009986D03*
X027107Y010660D03*
X027788Y012716D03*
X030123Y009574D03*
D21*
X030209Y009579D01*
X030501Y009557D02*
X030675Y009316D01*
X030675Y005852D01*
X030399Y005576D01*
X029218Y005576D01*
X019100Y018175D02*
X020835Y019910D01*
X022982Y019910D01*
D22*
X023486Y020301D02*
X023754Y019907D01*
X025203Y019907D01*
X025949Y019161D01*
X026481Y019161D01*
X027607Y018035D01*
X027607Y017363D01*
X028591Y017363D02*
X028732Y017222D01*
X028732Y016035D01*
X028107Y015410D01*
X028107Y013035D01*
X027788Y012716D01*
X028591Y011654D02*
X028607Y011638D01*
X028607Y010785D01*
X028482Y010660D01*
X027107Y010660D01*
X030123Y009574D02*
X030139Y009557D01*
X030501Y009557D01*
X025360Y006324D02*
X025320Y006285D01*
X021240Y006285D01*
X021082Y006128D01*
X021068Y005340D01*
X021501Y003372D02*
X023234Y003372D01*
X023273Y003411D01*
X025005Y004631D02*
X025123Y004513D01*
X026226Y004513D01*
X026856Y003883D01*
X026856Y003529D01*
X027131Y003254D01*
X027564Y003254D01*
X025005Y004631D02*
X025005Y005301D01*
X021816Y009238D02*
X019375Y009238D01*
X018234Y008096D01*
X016974Y008096D01*
X016777Y007899D01*
X015871Y007899D01*
X012840Y007584D02*
X012761Y007505D01*
X007446Y007505D01*
X006974Y007978D01*
X006974Y010498D01*
X006344Y010498D02*
X006226Y010616D01*
X006226Y014710D01*
X007053Y015537D01*
X008549Y015537D01*
X009612Y016600D01*
X013667Y016600D01*
X014375Y017309D01*
X014375Y017820D01*
X014730Y018175D01*
X019100Y018175D01*
X018785Y017624D02*
X014966Y017624D01*
X014808Y017466D01*
X012210Y018372D02*
X012210Y019810D01*
X012163Y019857D01*
X011620Y018687D02*
X009336Y018687D01*
X009163Y018860D01*
X009163Y019957D01*
X008155Y018096D02*
X011895Y018096D01*
X012210Y018372D01*
X009966Y016128D02*
X008903Y015065D01*
X009966Y016128D02*
X018194Y016128D01*
X019139Y017072D01*
X022407Y017072D01*
X021607Y016285D02*
X020107Y016285D01*
X021607Y016285D02*
X022092Y015800D01*
X022092Y009513D01*
X021816Y009238D01*
X012919Y007033D02*
X007092Y007033D01*
X005753Y008372D01*
X005753Y016915D01*
X006462Y017624D01*
X007683Y017624D01*
X008155Y018096D01*
X009060Y017427D02*
X009060Y017072D01*
X009415Y012939D02*
X008194Y011718D01*
X007053Y011718D01*
X003942Y006876D02*
X003745Y006876D01*
X003379Y006543D01*
X003942Y006876D02*
X004808Y006009D01*
X005230Y005716D01*
X021186Y020655D02*
X021416Y020426D01*
X021186Y020655D02*
X021186Y021915D01*
X020849Y022179D01*
X014825Y022179D01*
X014769Y022151D01*
X014730Y022151D01*
X014413Y021835D01*
X014385Y021231D01*
D23*
X016462Y004316D02*
X018509Y004316D01*
D24*
X001770Y001348D02*
X001609Y001415D01*
X001486Y001538D01*
X001420Y001698D01*
X001411Y001785D01*
X001411Y001816D01*
X001411Y021527D01*
X001428Y021652D01*
X001516Y021893D01*
X001669Y022098D01*
X001874Y022251D01*
X002115Y022339D01*
X002240Y022355D01*
X029282Y022355D01*
X029802Y021836D01*
X029802Y018461D01*
X030927Y017336D01*
X030927Y003359D01*
X030052Y002484D01*
X030052Y001859D01*
X029532Y001340D01*
X001857Y001340D01*
X001770Y001348D01*
X001603Y001421D02*
X029614Y001421D01*
X029732Y001539D02*
X029123Y001539D01*
X029100Y001530D02*
X029262Y001597D01*
X029385Y001720D01*
X029452Y001882D01*
X029452Y002657D01*
X029385Y002819D01*
X029352Y002852D01*
X029352Y003774D01*
X029519Y003607D01*
X029809Y003487D01*
X030123Y003487D01*
X030413Y003607D01*
X030636Y003830D01*
X030756Y004120D01*
X030756Y004434D01*
X030636Y004725D01*
X030413Y004947D01*
X030123Y005067D01*
X029809Y005067D01*
X029519Y004947D01*
X029352Y004781D01*
X029352Y004865D01*
X029300Y004990D01*
X028652Y005638D01*
X028652Y009382D01*
X028657Y009397D01*
X028652Y009450D01*
X028652Y009502D01*
X028646Y009517D01*
X028645Y009532D01*
X028621Y009579D01*
X028601Y009627D01*
X028590Y009638D01*
X028583Y009652D01*
X028542Y009686D01*
X028505Y009723D01*
X028491Y009729D01*
X027775Y010327D01*
X027743Y010360D01*
X028541Y010360D01*
X028652Y010406D01*
X028777Y010531D01*
X028861Y010615D01*
X028907Y010725D01*
X028907Y011217D01*
X028946Y011217D01*
X029028Y011299D01*
X029028Y012009D01*
X028947Y012090D01*
X028947Y014894D01*
X029645Y015592D01*
X029697Y015717D01*
X029697Y017728D01*
X029645Y017853D01*
X029549Y017948D01*
X028072Y019426D01*
X028072Y019978D01*
X028020Y020103D01*
X027924Y020198D01*
X027415Y020708D01*
X027479Y020864D01*
X027479Y021639D01*
X027412Y021800D01*
X027289Y021924D01*
X027127Y021991D01*
X026952Y021991D01*
X026790Y021924D01*
X026666Y021800D01*
X026599Y021639D01*
X026599Y020864D01*
X026666Y020702D01*
X026676Y020692D01*
X026676Y020558D01*
X026728Y020433D01*
X026824Y020337D01*
X027392Y019769D01*
X027392Y019217D01*
X027443Y019092D01*
X028736Y017800D01*
X028236Y017800D01*
X028154Y017718D01*
X028154Y017008D01*
X028236Y016926D01*
X028432Y016926D01*
X028432Y016159D01*
X027852Y015580D01*
X027807Y015470D01*
X027807Y013159D01*
X027704Y013056D01*
X026746Y013056D01*
X026629Y013173D01*
X026436Y013253D01*
X025460Y013253D01*
X025268Y013173D01*
X025120Y013026D01*
X025041Y012833D01*
X025041Y012625D01*
X025120Y012432D01*
X025268Y012285D01*
X025460Y012205D01*
X026436Y012205D01*
X026629Y012285D01*
X026720Y012376D01*
X027855Y012376D01*
X027908Y012398D01*
X028024Y012398D01*
X028106Y012480D01*
X028106Y012596D01*
X028116Y012620D01*
X028267Y012771D01*
X028267Y012091D01*
X028236Y012091D01*
X028154Y012009D01*
X028154Y011299D01*
X028236Y011217D01*
X028307Y011217D01*
X028307Y010960D01*
X027361Y010960D01*
X027343Y010978D01*
X026871Y010978D01*
X026789Y010896D01*
X026789Y010451D01*
X026032Y011310D01*
X026028Y011320D01*
X025988Y011360D01*
X025950Y011403D01*
X025940Y011408D01*
X025932Y011416D01*
X025880Y011438D01*
X025829Y011463D01*
X025817Y011463D01*
X025807Y011468D01*
X025750Y011468D01*
X025694Y011471D01*
X025683Y011468D01*
X023796Y011468D01*
X023671Y011416D01*
X022451Y010195D01*
X022392Y010137D01*
X022392Y015859D01*
X022346Y015970D01*
X021861Y016455D01*
X021777Y016539D01*
X021666Y016585D01*
X020361Y016585D01*
X020343Y016603D01*
X019871Y016603D01*
X019789Y016521D01*
X019789Y016049D01*
X019871Y015967D01*
X020343Y015967D01*
X020361Y015985D01*
X021482Y015985D01*
X021792Y015675D01*
X021792Y014627D01*
X021773Y014665D01*
X021722Y014734D01*
X021662Y014794D01*
X021593Y014845D01*
X021516Y014884D01*
X021435Y014910D01*
X021350Y014923D01*
X020984Y014923D01*
X020984Y014439D01*
X020864Y014439D01*
X020864Y014319D01*
X020984Y014319D01*
X020984Y013836D01*
X021350Y013836D01*
X021435Y013849D01*
X021516Y013875D01*
X021593Y013914D01*
X021662Y013965D01*
X021722Y014025D01*
X021773Y014094D01*
X021792Y014132D01*
X021792Y009638D01*
X021692Y009538D01*
X019316Y009538D01*
X019205Y009492D01*
X019121Y009408D01*
X018109Y008396D01*
X016914Y008396D01*
X016804Y008350D01*
X016720Y008266D01*
X016653Y008199D01*
X016126Y008199D01*
X016108Y008217D01*
X015635Y008217D01*
X015553Y008135D01*
X015553Y007663D01*
X015599Y007617D01*
X015238Y007609D01*
X015174Y007609D01*
X015170Y007608D01*
X015166Y007608D01*
X015108Y007582D01*
X015049Y007557D01*
X015046Y007555D01*
X015042Y007553D01*
X014998Y007507D01*
X014275Y006783D01*
X013228Y006789D01*
X013237Y006797D01*
X013237Y007269D01*
X013158Y007348D01*
X013158Y007348D01*
X013158Y007820D01*
X013555Y007820D01*
X013567Y007790D02*
X013840Y007518D01*
X014196Y007370D01*
X014582Y007370D01*
X014939Y007518D01*
X015212Y007790D01*
X015359Y008147D01*
X015359Y008533D01*
X015212Y008889D01*
X014939Y009162D01*
X014582Y009310D01*
X014196Y009310D01*
X013840Y009162D01*
X013567Y008889D01*
X013419Y008533D01*
X013419Y008147D01*
X013567Y007790D01*
X013656Y007701D02*
X013158Y007701D01*
X013158Y007583D02*
X013774Y007583D01*
X013968Y007464D02*
X013158Y007464D01*
X013160Y007346D02*
X014837Y007346D01*
X014811Y007464D02*
X014956Y007464D01*
X015004Y007583D02*
X015110Y007583D01*
X015123Y007701D02*
X015553Y007701D01*
X015553Y007820D02*
X015224Y007820D01*
X015273Y007938D02*
X015553Y007938D01*
X015553Y008057D02*
X015322Y008057D01*
X015359Y008175D02*
X015594Y008175D01*
X015359Y008294D02*
X016748Y008294D01*
X018126Y008412D02*
X015359Y008412D01*
X015359Y008531D02*
X018244Y008531D01*
X018363Y008649D02*
X015311Y008649D01*
X015262Y008768D02*
X018481Y008768D01*
X018600Y008886D02*
X015213Y008886D01*
X015096Y009005D02*
X018718Y009005D01*
X018837Y009123D02*
X014977Y009123D01*
X014746Y009242D02*
X018955Y009242D01*
X019074Y009360D02*
X012082Y009360D01*
X012082Y009317D02*
X012082Y009492D01*
X012015Y009654D01*
X011891Y009778D01*
X011729Y009845D01*
X010954Y009845D01*
X010792Y009778D01*
X010669Y009654D01*
X010602Y009492D01*
X010602Y009317D01*
X010669Y009156D01*
X010792Y009032D01*
X010954Y008965D01*
X011729Y008965D01*
X011891Y009032D01*
X012015Y009156D01*
X012082Y009317D01*
X012050Y009242D02*
X014033Y009242D01*
X013801Y009123D02*
X011983Y009123D01*
X011826Y009005D02*
X013683Y009005D01*
X013566Y008886D02*
X007274Y008886D01*
X007274Y008768D02*
X013517Y008768D01*
X013468Y008649D02*
X007274Y008649D01*
X007274Y008531D02*
X013419Y008531D01*
X013419Y008412D02*
X007274Y008412D01*
X007274Y008294D02*
X013419Y008294D01*
X013419Y008175D02*
X007274Y008175D01*
X007274Y008102D02*
X007274Y010243D01*
X007292Y010261D01*
X007292Y010734D01*
X007210Y010816D01*
X006738Y010816D01*
X006659Y010737D01*
X006580Y010816D01*
X006526Y010816D01*
X006526Y014586D01*
X007177Y015237D01*
X008585Y015237D01*
X008585Y014828D01*
X008667Y014746D01*
X009139Y014746D01*
X009221Y014828D01*
X009221Y014958D01*
X010090Y015828D01*
X018254Y015828D01*
X018364Y015873D01*
X018449Y015958D01*
X019263Y016772D01*
X022153Y016772D01*
X022171Y016754D01*
X022643Y016754D01*
X022725Y016836D01*
X022725Y017309D01*
X022643Y017391D01*
X022171Y017391D01*
X022153Y017372D01*
X019088Y017372D01*
X019103Y017387D01*
X019103Y017860D01*
X019088Y017875D01*
X019159Y017875D01*
X019270Y017920D01*
X019354Y018005D01*
X019394Y018101D01*
X020943Y019650D01*
X022688Y019650D01*
X022726Y019612D01*
X022710Y019605D01*
X022562Y019458D01*
X022482Y019265D01*
X022482Y019057D01*
X022562Y018864D01*
X022710Y018717D01*
X022902Y018637D01*
X023878Y018637D01*
X024071Y018717D01*
X024218Y018864D01*
X024298Y019057D01*
X024298Y019265D01*
X024218Y019458D01*
X024071Y019605D01*
X023878Y019685D01*
X023300Y019685D01*
X023300Y020146D01*
X023218Y020228D01*
X022746Y020228D01*
X022688Y020170D01*
X020783Y020170D01*
X020688Y020130D01*
X020615Y020057D01*
X019032Y018475D01*
X014670Y018475D01*
X014560Y018429D01*
X014205Y018075D01*
X014121Y017990D01*
X014075Y017880D01*
X014075Y017433D01*
X013542Y016900D01*
X009552Y016900D01*
X009442Y016854D01*
X008424Y015837D01*
X006993Y015837D01*
X006883Y015791D01*
X006056Y014965D01*
X006053Y014962D01*
X006053Y016791D01*
X006586Y017324D01*
X007742Y017324D01*
X007852Y017369D01*
X008279Y017796D01*
X011885Y017796D01*
X011935Y017793D01*
X011944Y017796D01*
X011955Y017796D01*
X012001Y017815D01*
X012048Y017831D01*
X012056Y017838D01*
X012065Y017842D01*
X012100Y017877D01*
X012370Y018113D01*
X012380Y018117D01*
X012415Y018152D01*
X012453Y018185D01*
X012457Y018194D01*
X012464Y018202D01*
X012483Y018248D01*
X012505Y018292D01*
X012506Y018302D01*
X012510Y018312D01*
X012510Y018362D01*
X012513Y018411D01*
X012510Y018421D01*
X012510Y019483D01*
X012595Y019568D01*
X012673Y019756D01*
X012673Y019958D01*
X012595Y020146D01*
X012452Y020289D01*
X012264Y020367D01*
X012061Y020367D01*
X011874Y020289D01*
X011730Y020146D01*
X011686Y020039D01*
X011680Y020081D01*
X011654Y020160D01*
X011616Y020235D01*
X011567Y020302D01*
X011508Y020361D01*
X011441Y020410D01*
X011366Y020448D01*
X011287Y020474D01*
X011205Y020487D01*
X011203Y020487D01*
X011203Y019997D01*
X011123Y019997D01*
X011123Y020487D01*
X011121Y020487D01*
X011039Y020474D01*
X010959Y020448D01*
X010885Y020410D01*
X010818Y020361D01*
X010759Y020302D01*
X010710Y020235D01*
X010672Y020160D01*
X010646Y020081D01*
X010639Y020039D01*
X010595Y020146D01*
X010452Y020289D01*
X010264Y020367D01*
X010061Y020367D01*
X009874Y020289D01*
X009730Y020146D01*
X009673Y020007D01*
X009673Y020058D01*
X009595Y020246D01*
X009452Y020389D01*
X009264Y020467D01*
X009061Y020467D01*
X008874Y020389D01*
X008730Y020246D01*
X008654Y020061D01*
X008616Y020135D01*
X008567Y020202D01*
X008508Y020261D01*
X008441Y020310D01*
X008366Y020348D01*
X008287Y020374D01*
X008205Y020387D01*
X008203Y020387D01*
X008203Y019897D01*
X008123Y019897D01*
X008123Y020387D01*
X008121Y020387D01*
X008039Y020374D01*
X007959Y020348D01*
X007885Y020310D01*
X007818Y020261D01*
X007759Y020202D01*
X007710Y020135D01*
X007672Y020061D01*
X007595Y020246D01*
X007452Y020389D01*
X007264Y020467D01*
X007061Y020467D01*
X006874Y020389D01*
X006730Y020246D01*
X006653Y020058D01*
X006653Y020007D01*
X006595Y020146D01*
X006452Y020289D01*
X006264Y020367D01*
X006061Y020367D01*
X005874Y020289D01*
X005730Y020146D01*
X005673Y020007D01*
X005673Y020385D01*
X005591Y020467D01*
X004735Y020467D01*
X004653Y020385D01*
X004653Y019529D01*
X004735Y019447D01*
X005591Y019447D01*
X005673Y019529D01*
X005673Y019707D01*
X005730Y019568D01*
X005874Y019425D01*
X006061Y019347D01*
X006264Y019347D01*
X006452Y019425D01*
X006595Y019568D01*
X006673Y019756D01*
X006673Y019807D01*
X006730Y019668D01*
X006831Y019568D01*
X006831Y019260D01*
X006794Y019223D01*
X005292Y019223D01*
X005167Y019172D01*
X005071Y019076D01*
X004245Y018249D01*
X004193Y018124D01*
X004193Y007832D01*
X004245Y007707D01*
X004340Y007611D01*
X006260Y005691D01*
X006271Y005680D01*
X005548Y005680D01*
X005548Y005952D01*
X005466Y006034D01*
X005298Y006034D01*
X005002Y006240D01*
X004197Y007045D01*
X004112Y007130D01*
X004002Y007176D01*
X003753Y007176D01*
X003700Y007178D01*
X003693Y007176D01*
X003686Y007176D01*
X003637Y007155D01*
X003588Y007138D01*
X003582Y007133D01*
X003576Y007130D01*
X003538Y007093D01*
X003283Y006861D01*
X003143Y006861D01*
X003061Y006779D01*
X003061Y006307D01*
X003143Y006225D01*
X003615Y006225D01*
X003697Y006307D01*
X003697Y006426D01*
X003839Y006555D01*
X004573Y005820D01*
X004588Y005797D01*
X004615Y005778D01*
X004639Y005755D01*
X004664Y005745D01*
X004756Y005680D01*
X004623Y005680D01*
X004498Y005628D01*
X004402Y005533D01*
X003029Y004160D01*
X002908Y004210D01*
X002712Y004210D01*
X002531Y004135D01*
X002393Y003996D01*
X002318Y003815D01*
X002318Y002914D01*
X002393Y002733D01*
X002531Y002595D01*
X002712Y002520D01*
X002908Y002520D01*
X003089Y002595D01*
X003228Y002733D01*
X003303Y002914D01*
X003303Y003472D01*
X004831Y005000D01*
X015230Y005000D01*
X015327Y005040D01*
X015258Y004971D01*
X005721Y004971D01*
X005661Y004974D01*
X005654Y004971D01*
X005646Y004971D01*
X005590Y004948D01*
X005534Y004928D01*
X005528Y004923D01*
X005521Y004920D01*
X005479Y004877D01*
X004753Y004210D01*
X004681Y004210D01*
X004500Y004135D01*
X004361Y003996D01*
X004286Y003815D01*
X004286Y002914D01*
X004361Y002733D01*
X004500Y002595D01*
X004681Y002520D01*
X004877Y002520D01*
X005058Y002595D01*
X005196Y002733D01*
X005271Y002914D01*
X005271Y003763D01*
X005847Y004291D01*
X015467Y004291D01*
X015592Y004343D01*
X016249Y005000D01*
X018026Y005000D01*
X018151Y005052D01*
X018493Y005394D01*
X019482Y005394D01*
X019607Y005446D01*
X020776Y006614D01*
X024325Y006614D01*
X024450Y006666D01*
X024686Y006902D01*
X024782Y006998D01*
X024834Y007123D01*
X024834Y008664D01*
X025247Y009077D01*
X025320Y009077D01*
X025402Y009159D01*
X025402Y009275D01*
X025424Y009328D01*
X025424Y009463D01*
X025402Y009516D01*
X025402Y009631D01*
X025323Y009710D01*
X025363Y009750D01*
X025363Y009865D01*
X025385Y009918D01*
X025385Y010017D01*
X026204Y009198D01*
X026329Y009146D01*
X027254Y009146D01*
X027343Y009058D01*
X027343Y005154D01*
X027394Y005029D01*
X027490Y004934D01*
X028091Y004333D01*
X028091Y003473D01*
X027724Y003107D01*
X027672Y002982D01*
X027672Y002952D01*
X027639Y002919D01*
X027572Y002757D01*
X027572Y001982D01*
X027639Y001820D01*
X027763Y001697D01*
X027925Y001630D01*
X028100Y001630D01*
X028262Y001697D01*
X028385Y001820D01*
X028452Y001982D01*
X028452Y002757D01*
X028418Y002839D01*
X028623Y003044D01*
X028672Y003093D01*
X028672Y002852D01*
X028639Y002819D01*
X028572Y002657D01*
X028572Y001882D01*
X028639Y001720D01*
X028763Y001597D01*
X028925Y001530D01*
X029100Y001530D01*
X028901Y001539D02*
X027123Y001539D01*
X027100Y001530D02*
X027262Y001597D01*
X027385Y001720D01*
X027452Y001882D01*
X027452Y002657D01*
X027385Y002819D01*
X027262Y002943D01*
X027100Y003010D01*
X026925Y003010D01*
X026763Y002943D01*
X026639Y002819D01*
X026572Y002657D01*
X026572Y001882D01*
X026639Y001720D01*
X026763Y001597D01*
X026925Y001530D01*
X027100Y001530D01*
X026901Y001539D02*
X025123Y001539D01*
X025100Y001530D02*
X025262Y001597D01*
X025385Y001720D01*
X025452Y001882D01*
X025452Y002657D01*
X025385Y002819D01*
X025262Y002943D01*
X025100Y003010D01*
X024925Y003010D01*
X024763Y002943D01*
X024639Y002819D01*
X024572Y002657D01*
X024572Y001882D01*
X024639Y001720D01*
X024763Y001597D01*
X024925Y001530D01*
X025100Y001530D01*
X024901Y001539D02*
X022177Y001539D01*
X022114Y001513D02*
X022276Y001580D01*
X022399Y001704D01*
X022466Y001866D01*
X022466Y002641D01*
X022399Y002803D01*
X022366Y002836D01*
X022366Y002914D01*
X022315Y003039D01*
X022282Y003072D01*
X023293Y003072D01*
X023345Y003093D01*
X023509Y003093D01*
X023591Y003175D01*
X023591Y003647D01*
X023509Y003729D01*
X023037Y003729D01*
X022979Y003672D01*
X021666Y003672D01*
X021569Y003712D01*
X014268Y003712D01*
X014143Y003660D01*
X012620Y002137D01*
X011091Y002137D01*
X010956Y002272D01*
X010956Y002618D01*
X011070Y002733D01*
X011145Y002914D01*
X011145Y003815D01*
X011070Y003996D01*
X010932Y004135D01*
X010751Y004210D01*
X010555Y004210D01*
X010374Y004135D01*
X010235Y003996D01*
X010160Y003815D01*
X010160Y002914D01*
X010235Y002733D01*
X010276Y002693D01*
X010276Y002064D01*
X010327Y001939D01*
X010423Y001843D01*
X010758Y001509D01*
X010883Y001457D01*
X012829Y001457D01*
X012954Y001509D01*
X013049Y001604D01*
X014477Y003032D01*
X016790Y003032D01*
X016777Y003026D01*
X016653Y002903D01*
X016586Y002741D01*
X016586Y001966D01*
X016653Y001804D01*
X016777Y001680D01*
X016939Y001613D01*
X017114Y001613D01*
X017276Y001680D01*
X017399Y001804D01*
X017466Y001966D01*
X017466Y002741D01*
X017399Y002903D01*
X017276Y003026D01*
X017263Y003032D01*
X018790Y003032D01*
X018777Y003026D01*
X018653Y002903D01*
X018586Y002741D01*
X018586Y001966D01*
X018653Y001804D01*
X018777Y001680D01*
X018939Y001613D01*
X019114Y001613D01*
X019276Y001680D01*
X019399Y001804D01*
X019466Y001966D01*
X019466Y002741D01*
X019399Y002903D01*
X019276Y003026D01*
X019263Y003032D01*
X020764Y003032D01*
X020727Y003004D01*
X020676Y002953D01*
X020633Y002894D01*
X020600Y002830D01*
X020578Y002761D01*
X020566Y002690D01*
X020566Y002393D01*
X020986Y002393D01*
X020986Y002313D01*
X021066Y002313D01*
X021066Y001594D01*
X021134Y001605D01*
X021203Y001627D01*
X021268Y001660D01*
X021326Y001703D01*
X021377Y001754D01*
X021420Y001812D01*
X021453Y001877D01*
X021475Y001946D01*
X021486Y002017D01*
X021486Y002313D01*
X021066Y002313D01*
X021066Y002393D01*
X021486Y002393D01*
X021486Y002690D01*
X021475Y002761D01*
X021453Y002830D01*
X021420Y002894D01*
X021377Y002953D01*
X021326Y003004D01*
X021288Y003032D01*
X021361Y003032D01*
X021635Y002757D01*
X021586Y002641D01*
X021586Y001866D01*
X021653Y001704D01*
X021777Y001580D01*
X021939Y001513D01*
X022114Y001513D01*
X021876Y001539D02*
X020227Y001539D01*
X020203Y001527D02*
X020268Y001560D01*
X020326Y001603D01*
X020377Y001654D01*
X020420Y001712D01*
X020453Y001777D01*
X020475Y001846D01*
X020486Y001917D01*
X020486Y002213D01*
X020066Y002213D01*
X020066Y001494D01*
X020134Y001505D01*
X020203Y001527D01*
X020066Y001539D02*
X019986Y001539D01*
X019986Y001494D02*
X019986Y002213D01*
X020066Y002213D01*
X020066Y002293D01*
X019986Y002293D01*
X019986Y002213D01*
X019566Y002213D01*
X019566Y001917D01*
X019578Y001846D01*
X019600Y001777D01*
X019633Y001712D01*
X019676Y001654D01*
X019727Y001603D01*
X019785Y001560D01*
X019850Y001527D01*
X019919Y001505D01*
X019986Y001494D01*
X019986Y001658D02*
X020066Y001658D01*
X020066Y001776D02*
X019986Y001776D01*
X019986Y001895D02*
X020066Y001895D01*
X020066Y002013D02*
X019986Y002013D01*
X019986Y002132D02*
X020066Y002132D01*
X020066Y002250D02*
X020566Y002250D01*
X020566Y002313D02*
X020566Y002017D01*
X020578Y001946D01*
X020600Y001877D01*
X020633Y001812D01*
X020676Y001754D01*
X020727Y001703D01*
X020785Y001660D01*
X020850Y001627D01*
X020919Y001605D01*
X020986Y001594D01*
X020986Y002313D01*
X020566Y002313D01*
X020486Y002293D02*
X020486Y002590D01*
X020475Y002661D01*
X020453Y002730D01*
X020420Y002794D01*
X020377Y002853D01*
X020326Y002904D01*
X020268Y002947D01*
X020203Y002980D01*
X020134Y003002D01*
X020066Y003013D01*
X020066Y002293D01*
X020486Y002293D01*
X020486Y002369D02*
X020986Y002369D01*
X021066Y002369D02*
X021586Y002369D01*
X021586Y002487D02*
X021486Y002487D01*
X021486Y002606D02*
X021586Y002606D01*
X021621Y002724D02*
X021481Y002724D01*
X021446Y002843D02*
X021549Y002843D01*
X021431Y002961D02*
X021369Y002961D01*
X020684Y002961D02*
X020239Y002961D01*
X020066Y002961D02*
X019986Y002961D01*
X019986Y003013D02*
X019919Y003002D01*
X019850Y002980D01*
X019785Y002947D01*
X019727Y002904D01*
X019676Y002853D01*
X019633Y002794D01*
X019600Y002730D01*
X019578Y002661D01*
X019566Y002590D01*
X019566Y002293D01*
X019986Y002293D01*
X019986Y003013D01*
X019986Y002843D02*
X020066Y002843D01*
X020066Y002724D02*
X019986Y002724D01*
X019986Y002606D02*
X020066Y002606D01*
X020066Y002487D02*
X019986Y002487D01*
X019986Y002369D02*
X020066Y002369D01*
X019986Y002250D02*
X019466Y002250D01*
X019466Y002132D02*
X019566Y002132D01*
X019566Y002013D02*
X019466Y002013D01*
X019437Y001895D02*
X019570Y001895D01*
X019600Y001776D02*
X019372Y001776D01*
X019222Y001658D02*
X019673Y001658D01*
X019826Y001539D02*
X018177Y001539D01*
X018114Y001513D02*
X018276Y001580D01*
X018399Y001704D01*
X018466Y001866D01*
X018466Y002641D01*
X018399Y002803D01*
X018276Y002926D01*
X018114Y002993D01*
X017939Y002993D01*
X017777Y002926D01*
X017653Y002803D01*
X017586Y002641D01*
X017586Y001866D01*
X017653Y001704D01*
X017777Y001580D01*
X017939Y001513D01*
X018114Y001513D01*
X017876Y001539D02*
X012985Y001539D01*
X013103Y001658D02*
X016831Y001658D01*
X016681Y001776D02*
X013222Y001776D01*
X013340Y001895D02*
X016616Y001895D01*
X016586Y002013D02*
X013459Y002013D01*
X013577Y002132D02*
X016586Y002132D01*
X016586Y002250D02*
X013696Y002250D01*
X013814Y002369D02*
X016586Y002369D01*
X016586Y002487D02*
X013933Y002487D01*
X014051Y002606D02*
X016586Y002606D01*
X016586Y002724D02*
X014170Y002724D01*
X014288Y002843D02*
X016629Y002843D01*
X016712Y002961D02*
X014407Y002961D01*
X013919Y003435D02*
X013134Y003435D01*
X013134Y003422D02*
X013134Y003758D01*
X013121Y003837D01*
X013096Y003914D01*
X013060Y003986D01*
X013012Y004051D01*
X012955Y004108D01*
X012890Y004156D01*
X012818Y004192D01*
X012741Y004217D01*
X012679Y004227D01*
X012679Y003422D01*
X013134Y003422D01*
X013134Y003307D02*
X012679Y003307D01*
X012679Y002502D01*
X012741Y002512D01*
X012818Y002537D01*
X012890Y002574D01*
X012955Y002621D01*
X013012Y002678D01*
X013060Y002744D01*
X013096Y002815D01*
X013121Y002892D01*
X013134Y002972D01*
X013134Y003307D01*
X013134Y003198D02*
X013682Y003198D01*
X013564Y003080D02*
X013134Y003080D01*
X013132Y002961D02*
X013445Y002961D01*
X013327Y002843D02*
X013105Y002843D01*
X013046Y002724D02*
X013208Y002724D01*
X013090Y002606D02*
X012934Y002606D01*
X012971Y002487D02*
X010956Y002487D01*
X010956Y002369D02*
X012853Y002369D01*
X012734Y002250D02*
X010977Y002250D01*
X010956Y002606D02*
X012309Y002606D01*
X012288Y002621D02*
X012353Y002574D01*
X012425Y002537D01*
X012501Y002512D01*
X012564Y002502D01*
X012564Y003307D01*
X012679Y003307D01*
X012679Y003422D01*
X012564Y003422D01*
X012564Y003307D01*
X012109Y003307D01*
X012109Y002972D01*
X012122Y002892D01*
X012147Y002815D01*
X012183Y002744D01*
X012231Y002678D01*
X012288Y002621D01*
X012197Y002724D02*
X011062Y002724D01*
X011116Y002843D02*
X012138Y002843D01*
X012111Y002961D02*
X011145Y002961D01*
X011145Y003080D02*
X012109Y003080D01*
X012109Y003198D02*
X011145Y003198D01*
X011145Y003317D02*
X012564Y003317D01*
X012564Y003422D02*
X012109Y003422D01*
X012109Y003758D01*
X012122Y003837D01*
X012147Y003914D01*
X012183Y003986D01*
X012231Y004051D01*
X012288Y004108D01*
X012353Y004156D01*
X012425Y004192D01*
X012501Y004217D01*
X012564Y004227D01*
X012564Y003422D01*
X012564Y003435D02*
X012679Y003435D01*
X012679Y003317D02*
X013801Y003317D01*
X014038Y003554D02*
X013134Y003554D01*
X013134Y003672D02*
X014174Y003672D01*
X013129Y003791D02*
X028091Y003791D01*
X028091Y003909D02*
X013098Y003909D01*
X013029Y004028D02*
X028091Y004028D01*
X028091Y004146D02*
X012903Y004146D01*
X012679Y004146D02*
X012564Y004146D01*
X012564Y004028D02*
X012679Y004028D01*
X012679Y003909D02*
X012564Y003909D01*
X012564Y003791D02*
X012679Y003791D01*
X012679Y003672D02*
X012564Y003672D01*
X012564Y003554D02*
X012679Y003554D01*
X012109Y003554D02*
X011145Y003554D01*
X011145Y003672D02*
X012109Y003672D01*
X012114Y003791D02*
X011145Y003791D01*
X011106Y003909D02*
X012145Y003909D01*
X012214Y004028D02*
X011039Y004028D01*
X010904Y004146D02*
X012340Y004146D01*
X012109Y003435D02*
X011145Y003435D01*
X010160Y003435D02*
X009216Y003435D01*
X009216Y003317D02*
X010160Y003317D01*
X010160Y003198D02*
X009216Y003198D01*
X009216Y003080D02*
X010160Y003080D01*
X010160Y002961D02*
X009216Y002961D01*
X009216Y002914D02*
X009141Y002733D01*
X009003Y002595D01*
X008822Y002520D01*
X008626Y002520D01*
X008445Y002595D01*
X008306Y002733D01*
X008231Y002914D01*
X008231Y003815D01*
X008306Y003996D01*
X008445Y004135D01*
X008626Y004210D01*
X008822Y004210D01*
X009003Y004135D01*
X009141Y003996D01*
X009216Y003815D01*
X009216Y002914D01*
X009187Y002843D02*
X010190Y002843D01*
X010244Y002724D02*
X009133Y002724D01*
X009014Y002606D02*
X010276Y002606D01*
X010276Y002487D02*
X001411Y002487D01*
X001411Y002369D02*
X010276Y002369D01*
X010276Y002250D02*
X001411Y002250D01*
X001411Y002132D02*
X010276Y002132D01*
X010296Y002013D02*
X001411Y002013D01*
X001411Y001895D02*
X010371Y001895D01*
X010490Y001776D02*
X001412Y001776D01*
X001437Y001658D02*
X010608Y001658D01*
X010727Y001539D02*
X001486Y001539D01*
X001411Y002606D02*
X002520Y002606D01*
X002402Y002724D02*
X001411Y002724D01*
X001411Y002843D02*
X002347Y002843D01*
X002318Y002961D02*
X001411Y002961D01*
X001411Y003080D02*
X002318Y003080D01*
X002318Y003198D02*
X001411Y003198D01*
X001411Y003317D02*
X002318Y003317D01*
X002318Y003435D02*
X001411Y003435D01*
X001411Y003554D02*
X002318Y003554D01*
X002318Y003672D02*
X001411Y003672D01*
X001411Y003791D02*
X002318Y003791D01*
X002357Y003909D02*
X001411Y003909D01*
X001411Y004028D02*
X002425Y004028D01*
X002560Y004146D02*
X001411Y004146D01*
X001411Y004265D02*
X003134Y004265D01*
X003253Y004383D02*
X001411Y004383D01*
X001411Y004502D02*
X003371Y004502D01*
X003490Y004620D02*
X001411Y004620D01*
X001411Y004739D02*
X003608Y004739D01*
X003727Y004857D02*
X001411Y004857D01*
X001411Y004976D02*
X003845Y004976D01*
X003964Y005094D02*
X001411Y005094D01*
X001411Y005213D02*
X004082Y005213D01*
X004201Y005331D02*
X001411Y005331D01*
X001411Y005450D02*
X004319Y005450D01*
X004438Y005568D02*
X001411Y005568D01*
X001411Y005687D02*
X004746Y005687D01*
X004583Y005805D02*
X001411Y005805D01*
X001411Y005924D02*
X004470Y005924D01*
X004351Y006042D02*
X001411Y006042D01*
X001411Y006161D02*
X004233Y006161D01*
X004114Y006279D02*
X003670Y006279D01*
X003697Y006398D02*
X003996Y006398D01*
X003877Y006516D02*
X003796Y006516D01*
X003426Y006990D02*
X001411Y006990D01*
X001411Y006872D02*
X003296Y006872D01*
X003061Y006753D02*
X001411Y006753D01*
X001411Y006635D02*
X003061Y006635D01*
X003061Y006516D02*
X001411Y006516D01*
X001411Y006398D02*
X003061Y006398D01*
X003088Y006279D02*
X001411Y006279D01*
X001411Y007109D02*
X003555Y007109D01*
X003472Y007464D02*
X004487Y007464D01*
X004605Y007346D02*
X001411Y007346D01*
X001411Y007464D02*
X002629Y007464D01*
X002501Y007518D02*
X002858Y007370D01*
X003244Y007370D01*
X003600Y007518D01*
X003873Y007790D01*
X004021Y008147D01*
X004021Y008533D01*
X003873Y008889D01*
X003600Y009162D01*
X003244Y009310D01*
X002858Y009310D01*
X002501Y009162D01*
X002228Y008889D01*
X002081Y008533D01*
X002081Y008147D01*
X002228Y007790D01*
X002501Y007518D01*
X002436Y007583D02*
X001411Y007583D01*
X001411Y007701D02*
X002317Y007701D01*
X002216Y007820D02*
X001411Y007820D01*
X001411Y007938D02*
X002167Y007938D01*
X002118Y008057D02*
X001411Y008057D01*
X001411Y008175D02*
X002081Y008175D01*
X002081Y008294D02*
X001411Y008294D01*
X001411Y008412D02*
X002081Y008412D01*
X002081Y008531D02*
X001411Y008531D01*
X001411Y008649D02*
X002129Y008649D01*
X002178Y008768D02*
X001411Y008768D01*
X001411Y008886D02*
X002227Y008886D01*
X002344Y009005D02*
X001411Y009005D01*
X001411Y009123D02*
X002463Y009123D01*
X002694Y009242D02*
X001411Y009242D01*
X001411Y009360D02*
X004193Y009360D01*
X004193Y009242D02*
X003407Y009242D01*
X003639Y009123D02*
X004193Y009123D01*
X004193Y009005D02*
X003757Y009005D01*
X003874Y008886D02*
X004193Y008886D01*
X004193Y008768D02*
X003923Y008768D01*
X003972Y008649D02*
X004193Y008649D01*
X004193Y008531D02*
X004021Y008531D01*
X004021Y008412D02*
X004193Y008412D01*
X004193Y008294D02*
X004021Y008294D01*
X004021Y008175D02*
X004193Y008175D01*
X004193Y008057D02*
X003983Y008057D01*
X003934Y007938D02*
X004193Y007938D01*
X004198Y007820D02*
X003885Y007820D01*
X003784Y007701D02*
X004250Y007701D01*
X004368Y007583D02*
X003666Y007583D01*
X004133Y007109D02*
X004842Y007109D01*
X004724Y007227D02*
X001411Y007227D01*
X004252Y006990D02*
X004961Y006990D01*
X005079Y006872D02*
X004370Y006872D01*
X004489Y006753D02*
X005198Y006753D01*
X005316Y006635D02*
X004607Y006635D01*
X004726Y006516D02*
X005435Y006516D01*
X005553Y006398D02*
X004844Y006398D01*
X004963Y006279D02*
X005672Y006279D01*
X005790Y006161D02*
X005116Y006161D01*
X005286Y006042D02*
X005909Y006042D01*
X006027Y005924D02*
X005548Y005924D01*
X005548Y005805D02*
X006146Y005805D01*
X006264Y005687D02*
X005548Y005687D01*
X004807Y004976D02*
X015263Y004976D01*
X015750Y004502D02*
X027922Y004502D01*
X028040Y004383D02*
X015632Y004383D01*
X015869Y004620D02*
X027803Y004620D01*
X027685Y004739D02*
X015987Y004739D01*
X016106Y004857D02*
X027566Y004857D01*
X027448Y004976D02*
X016224Y004976D01*
X018193Y005094D02*
X020760Y005094D01*
X020750Y005104D02*
X020832Y005022D01*
X021304Y005022D01*
X021386Y005104D01*
X021386Y005576D01*
X021373Y005590D01*
X021380Y005985D01*
X025380Y005985D01*
X025431Y006006D01*
X025596Y006006D01*
X025678Y006088D01*
X025678Y006560D01*
X025596Y006642D01*
X025124Y006642D01*
X025066Y006585D01*
X021180Y006585D01*
X021070Y006539D01*
X020985Y006455D01*
X020872Y006341D01*
X020831Y006302D01*
X020830Y006299D01*
X020828Y006297D01*
X020806Y006245D01*
X020783Y006192D01*
X020783Y006190D01*
X020782Y006187D01*
X020782Y006130D01*
X020773Y005599D01*
X020750Y005576D01*
X020750Y005104D01*
X020750Y005213D02*
X018312Y005213D01*
X018430Y005331D02*
X020750Y005331D01*
X020750Y005450D02*
X019612Y005450D01*
X019730Y005568D02*
X020750Y005568D01*
X020774Y005687D02*
X019849Y005687D01*
X019967Y005805D02*
X020776Y005805D01*
X020778Y005924D02*
X020086Y005924D01*
X020204Y006042D02*
X020781Y006042D01*
X020782Y006161D02*
X020323Y006161D01*
X020441Y006279D02*
X020820Y006279D01*
X020928Y006398D02*
X020560Y006398D01*
X020678Y006516D02*
X021047Y006516D01*
X021379Y005924D02*
X027343Y005924D01*
X027343Y006042D02*
X025632Y006042D01*
X025678Y006161D02*
X027343Y006161D01*
X027343Y006279D02*
X025678Y006279D01*
X025678Y006398D02*
X027343Y006398D01*
X027343Y006516D02*
X025678Y006516D01*
X025603Y006635D02*
X027343Y006635D01*
X027343Y006753D02*
X024537Y006753D01*
X024656Y006872D02*
X027343Y006872D01*
X027343Y006990D02*
X024774Y006990D01*
X024828Y007109D02*
X027343Y007109D01*
X027343Y007227D02*
X024834Y007227D01*
X024834Y007346D02*
X027343Y007346D01*
X027343Y007464D02*
X024834Y007464D01*
X024834Y007583D02*
X027343Y007583D01*
X027343Y007701D02*
X024834Y007701D01*
X024834Y007820D02*
X027343Y007820D01*
X027343Y007938D02*
X024834Y007938D01*
X024834Y008057D02*
X027343Y008057D01*
X027343Y008175D02*
X024834Y008175D01*
X024834Y008294D02*
X027343Y008294D01*
X027343Y008412D02*
X024834Y008412D01*
X024834Y008531D02*
X027343Y008531D01*
X027343Y008649D02*
X024834Y008649D01*
X024938Y008768D02*
X027343Y008768D01*
X027343Y008886D02*
X025056Y008886D01*
X025175Y009005D02*
X027343Y009005D01*
X027277Y009123D02*
X025367Y009123D01*
X025402Y009242D02*
X026160Y009242D01*
X026042Y009360D02*
X025424Y009360D01*
X025417Y009479D02*
X025923Y009479D01*
X025805Y009597D02*
X025402Y009597D01*
X025329Y009716D02*
X025686Y009716D01*
X025568Y009834D02*
X025363Y009834D01*
X025385Y009953D02*
X025449Y009953D01*
X026497Y010782D02*
X026789Y010782D01*
X026789Y010664D02*
X026601Y010664D01*
X026706Y010545D02*
X026789Y010545D01*
X026793Y010901D02*
X026392Y010901D01*
X026288Y011019D02*
X028307Y011019D01*
X028307Y011138D02*
X026184Y011138D01*
X026227Y011229D02*
X026264Y011208D01*
X026305Y011197D01*
X026584Y011197D01*
X026584Y011616D01*
X026166Y011616D01*
X026166Y011336D01*
X026177Y011295D01*
X026198Y011259D01*
X026227Y011229D01*
X026200Y011256D02*
X026079Y011256D01*
X026166Y011375D02*
X025975Y011375D01*
X026166Y011493D02*
X022392Y011493D01*
X022392Y011375D02*
X023630Y011375D01*
X023512Y011256D02*
X022392Y011256D01*
X022392Y011138D02*
X023393Y011138D01*
X023275Y011019D02*
X022392Y011019D01*
X022392Y010901D02*
X023156Y010901D01*
X023038Y010782D02*
X022392Y010782D01*
X022392Y010664D02*
X022919Y010664D01*
X022801Y010545D02*
X022392Y010545D01*
X022392Y010427D02*
X022682Y010427D01*
X022564Y010308D02*
X022392Y010308D01*
X022392Y010190D02*
X022445Y010190D01*
X021792Y010190D02*
X012129Y010190D01*
X012115Y010156D02*
X012182Y010317D01*
X012182Y010492D01*
X012115Y010654D01*
X011991Y010778D01*
X011829Y010845D01*
X011054Y010845D01*
X010892Y010778D01*
X010769Y010654D01*
X010702Y010492D01*
X010702Y010317D01*
X010769Y010156D01*
X010892Y010032D01*
X011054Y009965D01*
X011829Y009965D01*
X011991Y010032D01*
X012115Y010156D01*
X012031Y010071D02*
X021792Y010071D01*
X021792Y009953D02*
X007274Y009953D01*
X007274Y010071D02*
X010853Y010071D01*
X010754Y010190D02*
X007274Y010190D01*
X007292Y010308D02*
X010705Y010308D01*
X010702Y010427D02*
X007292Y010427D01*
X007292Y010545D02*
X010724Y010545D01*
X010779Y010664D02*
X007292Y010664D01*
X007243Y010782D02*
X010904Y010782D01*
X010954Y010965D02*
X011729Y010965D01*
X011891Y011032D01*
X012015Y011156D01*
X012082Y011317D01*
X012082Y011492D01*
X012015Y011654D01*
X011891Y011778D01*
X011729Y011845D01*
X010954Y011845D01*
X010792Y011778D01*
X010669Y011654D01*
X010602Y011492D01*
X010602Y011317D01*
X010669Y011156D01*
X010792Y011032D01*
X010954Y010965D01*
X010822Y011019D02*
X006526Y011019D01*
X006526Y010901D02*
X021792Y010901D01*
X021792Y011019D02*
X011861Y011019D01*
X011997Y011138D02*
X021792Y011138D01*
X021792Y011256D02*
X012056Y011256D01*
X012082Y011375D02*
X021792Y011375D01*
X021792Y011493D02*
X012081Y011493D01*
X012032Y011612D02*
X021792Y011612D01*
X021792Y011730D02*
X011938Y011730D01*
X011836Y011967D02*
X021792Y011967D01*
X021792Y011849D02*
X006526Y011849D01*
X006526Y011967D02*
X011048Y011967D01*
X011054Y011965D02*
X011829Y011965D01*
X011991Y012032D01*
X012115Y012156D01*
X012182Y012317D01*
X012182Y012492D01*
X012115Y012654D01*
X011991Y012778D01*
X011829Y012845D01*
X011054Y012845D01*
X010892Y012778D01*
X010769Y012654D01*
X010702Y012492D01*
X010702Y012317D01*
X010769Y012156D01*
X010892Y012032D01*
X011054Y011965D01*
X010838Y012086D02*
X006526Y012086D01*
X006526Y012204D02*
X010748Y012204D01*
X010702Y012323D02*
X006526Y012323D01*
X006526Y012441D02*
X010702Y012441D01*
X010730Y012560D02*
X006526Y012560D01*
X006526Y012678D02*
X010793Y012678D01*
X010939Y012797D02*
X006526Y012797D01*
X006526Y012915D02*
X021792Y012915D01*
X021792Y012797D02*
X011945Y012797D01*
X012090Y012678D02*
X021792Y012678D01*
X021792Y012560D02*
X012154Y012560D01*
X012182Y012441D02*
X021792Y012441D01*
X021792Y012323D02*
X012182Y012323D01*
X012135Y012204D02*
X021792Y012204D01*
X021792Y012086D02*
X012045Y012086D01*
X011729Y012965D02*
X010954Y012965D01*
X010792Y013032D01*
X010669Y013156D01*
X010602Y013317D01*
X010602Y013492D01*
X010669Y013654D01*
X010792Y013778D01*
X010954Y013845D01*
X011729Y013845D01*
X011891Y013778D01*
X012015Y013654D01*
X012082Y013492D01*
X012082Y013317D01*
X012015Y013156D01*
X011891Y013032D01*
X011729Y012965D01*
X011893Y013034D02*
X021792Y013034D01*
X021792Y013152D02*
X012012Y013152D01*
X012062Y013271D02*
X021792Y013271D01*
X021792Y013389D02*
X012082Y013389D01*
X012075Y013508D02*
X021792Y013508D01*
X021792Y013626D02*
X012026Y013626D01*
X011924Y013745D02*
X021792Y013745D01*
X021792Y013863D02*
X021479Y013863D01*
X021679Y013982D02*
X021792Y013982D01*
X021792Y014100D02*
X021776Y014100D01*
X021752Y014693D02*
X021792Y014693D01*
X021792Y014811D02*
X021638Y014811D01*
X021792Y014930D02*
X009221Y014930D01*
X009204Y014811D02*
X010974Y014811D01*
X011054Y014845D02*
X010892Y014778D01*
X010769Y014654D01*
X010702Y014492D01*
X010702Y014317D01*
X010769Y014156D01*
X010892Y014032D01*
X011054Y013965D01*
X011829Y013965D01*
X011991Y014032D01*
X012115Y014156D01*
X012182Y014317D01*
X012182Y014492D01*
X012115Y014654D01*
X011991Y014778D01*
X011829Y014845D01*
X011054Y014845D01*
X010808Y014693D02*
X006633Y014693D01*
X006526Y014574D02*
X010736Y014574D01*
X010702Y014456D02*
X006526Y014456D01*
X006526Y014337D02*
X010702Y014337D01*
X010742Y014219D02*
X006526Y014219D01*
X006526Y014100D02*
X010824Y014100D01*
X011013Y013982D02*
X006526Y013982D01*
X006526Y013863D02*
X017858Y013863D01*
X017877Y013856D02*
X018853Y013856D01*
X019045Y013935D01*
X019193Y014083D01*
X019272Y014275D01*
X019272Y014484D01*
X019193Y014676D01*
X019045Y014824D01*
X018853Y014903D01*
X017877Y014903D01*
X017684Y014824D01*
X017537Y014676D01*
X017457Y014484D01*
X017457Y014275D01*
X017537Y014083D01*
X017684Y013935D01*
X017877Y013856D01*
X017637Y013982D02*
X011871Y013982D01*
X012060Y014100D02*
X017529Y014100D01*
X017480Y014219D02*
X012141Y014219D01*
X012182Y014337D02*
X017457Y014337D01*
X017457Y014456D02*
X012182Y014456D01*
X012148Y014574D02*
X017494Y014574D01*
X017553Y014693D02*
X012076Y014693D01*
X011910Y014811D02*
X017672Y014811D01*
X018369Y015878D02*
X021589Y015878D01*
X021708Y015759D02*
X010022Y015759D01*
X009904Y015641D02*
X021792Y015641D01*
X021792Y015522D02*
X009785Y015522D01*
X009667Y015404D02*
X021792Y015404D01*
X021792Y015285D02*
X009548Y015285D01*
X009430Y015167D02*
X021792Y015167D01*
X021792Y015048D02*
X009311Y015048D01*
X008585Y015048D02*
X006988Y015048D01*
X006870Y014930D02*
X008585Y014930D01*
X008602Y014811D02*
X006751Y014811D01*
X007107Y015167D02*
X008585Y015167D01*
X008465Y015878D02*
X006053Y015878D01*
X006053Y015996D02*
X008584Y015996D01*
X008702Y016115D02*
X006053Y016115D01*
X006053Y016233D02*
X008821Y016233D01*
X008939Y016352D02*
X006053Y016352D01*
X006053Y016470D02*
X009058Y016470D01*
X009176Y016589D02*
X006053Y016589D01*
X006053Y016707D02*
X009295Y016707D01*
X009413Y016826D02*
X006089Y016826D01*
X006207Y016944D02*
X013587Y016944D01*
X013706Y017063D02*
X006326Y017063D01*
X006444Y017181D02*
X013824Y017181D01*
X013943Y017300D02*
X006563Y017300D01*
X005542Y018011D02*
X004968Y018011D01*
X004873Y017916D02*
X005500Y018543D01*
X007002Y018543D01*
X007127Y018595D01*
X007363Y018831D01*
X007459Y018927D01*
X007511Y019052D01*
X007511Y019584D01*
X007595Y019668D01*
X007639Y019775D01*
X007646Y019733D01*
X007672Y019654D01*
X007710Y019579D01*
X007759Y019512D01*
X007818Y019453D01*
X007885Y019404D01*
X007959Y019366D01*
X008039Y019340D01*
X008121Y019327D01*
X008123Y019327D01*
X008123Y019817D01*
X008203Y019817D01*
X008203Y019327D01*
X008205Y019327D01*
X008287Y019340D01*
X008366Y019366D01*
X008441Y019404D01*
X008508Y019453D01*
X008567Y019512D01*
X008616Y019579D01*
X008654Y019654D01*
X008680Y019733D01*
X008686Y019775D01*
X008730Y019668D01*
X008863Y019536D01*
X008863Y018800D01*
X008908Y018690D01*
X009082Y018517D01*
X009166Y018432D01*
X009254Y018396D01*
X008095Y018396D01*
X008001Y018357D01*
X008001Y018409D01*
X008022Y018461D01*
X008022Y018597D01*
X008001Y018650D01*
X008001Y018765D01*
X007919Y018847D01*
X007803Y018847D01*
X007750Y018869D01*
X007615Y018869D01*
X007562Y018847D01*
X007446Y018847D01*
X007364Y018765D01*
X007364Y018692D01*
X007148Y018475D01*
X006079Y018475D01*
X005954Y018424D01*
X005859Y018328D01*
X004873Y017342D01*
X004873Y017916D01*
X004873Y017892D02*
X005423Y017892D01*
X005305Y017774D02*
X004873Y017774D01*
X004873Y017655D02*
X005186Y017655D01*
X005068Y017537D02*
X004873Y017537D01*
X004873Y017418D02*
X004949Y017418D01*
X005087Y018129D02*
X005660Y018129D01*
X005779Y018248D02*
X005205Y018248D01*
X005324Y018366D02*
X005897Y018366D01*
X005442Y018485D02*
X007158Y018485D01*
X007135Y018603D02*
X007276Y018603D01*
X007254Y018722D02*
X007364Y018722D01*
X007372Y018840D02*
X007440Y018840D01*
X007472Y018959D02*
X008863Y018959D01*
X008863Y019077D02*
X007511Y019077D01*
X007511Y019196D02*
X008863Y019196D01*
X008863Y019314D02*
X007511Y019314D01*
X007511Y019433D02*
X007845Y019433D01*
X007730Y019551D02*
X007511Y019551D01*
X007596Y019670D02*
X007666Y019670D01*
X008123Y019670D02*
X008203Y019670D01*
X008203Y019788D02*
X008123Y019788D01*
X008123Y019907D02*
X008203Y019907D01*
X008203Y020025D02*
X008123Y020025D01*
X008123Y020144D02*
X008203Y020144D01*
X008203Y020262D02*
X008123Y020262D01*
X008123Y020381D02*
X008203Y020381D01*
X008243Y020381D02*
X008866Y020381D01*
X008747Y020262D02*
X008506Y020262D01*
X008609Y020144D02*
X008688Y020144D01*
X008659Y019670D02*
X008730Y019670D01*
X008847Y019551D02*
X008596Y019551D01*
X008481Y019433D02*
X008863Y019433D01*
X008863Y018840D02*
X007925Y018840D01*
X008001Y018722D02*
X008895Y018722D01*
X008995Y018603D02*
X008020Y018603D01*
X008022Y018485D02*
X009113Y018485D01*
X009463Y018987D02*
X009463Y019536D01*
X009595Y019668D01*
X009653Y019807D01*
X009653Y019756D01*
X009730Y019568D01*
X009874Y019425D01*
X010061Y019347D01*
X010264Y019347D01*
X010452Y019425D01*
X010595Y019568D01*
X010672Y019753D01*
X010710Y019679D01*
X010759Y019612D01*
X010818Y019553D01*
X010885Y019504D01*
X010959Y019466D01*
X011039Y019440D01*
X011121Y019427D01*
X011123Y019427D01*
X011123Y019917D01*
X011203Y019917D01*
X011203Y019427D01*
X011205Y019427D01*
X011287Y019440D01*
X011366Y019466D01*
X011441Y019504D01*
X011508Y019553D01*
X011567Y019612D01*
X011616Y019679D01*
X011654Y019753D01*
X011730Y019568D01*
X011874Y019425D01*
X011910Y019410D01*
X011910Y018950D01*
X011856Y019005D01*
X011383Y019005D01*
X011365Y018987D01*
X009463Y018987D01*
X009463Y019077D02*
X011910Y019077D01*
X011901Y018959D02*
X011910Y018959D01*
X011910Y019196D02*
X009463Y019196D01*
X009463Y019314D02*
X011910Y019314D01*
X011866Y019433D02*
X011242Y019433D01*
X011203Y019433D02*
X011123Y019433D01*
X011084Y019433D02*
X010460Y019433D01*
X010579Y019551D02*
X010819Y019551D01*
X010716Y019670D02*
X010637Y019670D01*
X010666Y020144D02*
X010596Y020144D01*
X010479Y020262D02*
X010730Y020262D01*
X010845Y020381D02*
X009460Y020381D01*
X009579Y020262D02*
X009847Y020262D01*
X009730Y020144D02*
X009637Y020144D01*
X009673Y020025D02*
X009681Y020025D01*
X009653Y019788D02*
X009645Y019788D01*
X009688Y019670D02*
X009596Y019670D01*
X009479Y019551D02*
X009747Y019551D01*
X009866Y019433D02*
X009463Y019433D01*
X008203Y019433D02*
X008123Y019433D01*
X008123Y019551D02*
X008203Y019551D01*
X007716Y020144D02*
X007637Y020144D01*
X007579Y020262D02*
X007819Y020262D01*
X008083Y020381D02*
X007460Y020381D01*
X006866Y020381D02*
X005673Y020381D01*
X005673Y020262D02*
X005847Y020262D01*
X005730Y020144D02*
X005673Y020144D01*
X005673Y020025D02*
X005681Y020025D01*
X005673Y019670D02*
X005688Y019670D01*
X005673Y019551D02*
X005747Y019551D01*
X005866Y019433D02*
X003999Y019433D01*
X004021Y019485D02*
X003873Y019129D01*
X003600Y018856D01*
X003244Y018708D01*
X002858Y018708D01*
X002501Y018856D01*
X002228Y019129D01*
X002081Y019485D01*
X002081Y019871D01*
X002228Y020228D01*
X002501Y020501D01*
X002858Y020648D01*
X003244Y020648D01*
X003600Y020501D01*
X003873Y020228D01*
X004021Y019871D01*
X004021Y019485D01*
X004021Y019551D02*
X004653Y019551D01*
X004653Y019670D02*
X004021Y019670D01*
X004021Y019788D02*
X004653Y019788D01*
X004653Y019907D02*
X004006Y019907D01*
X003957Y020025D02*
X004653Y020025D01*
X004653Y020144D02*
X003908Y020144D01*
X003838Y020262D02*
X004653Y020262D01*
X004653Y020381D02*
X003720Y020381D01*
X003601Y020499D02*
X013839Y020499D01*
X013840Y020501D02*
X013567Y020228D01*
X013419Y019871D01*
X013419Y019485D01*
X013567Y019129D01*
X013840Y018856D01*
X014196Y018708D01*
X014582Y018708D01*
X014939Y018856D01*
X015212Y019129D01*
X015359Y019485D01*
X015359Y019871D01*
X015212Y020228D01*
X014939Y020501D01*
X014703Y020598D01*
X014736Y020632D01*
X014779Y020690D01*
X014812Y020755D01*
X014834Y020824D01*
X014845Y020895D01*
X014845Y021191D01*
X014425Y021191D01*
X014425Y021271D01*
X014345Y021271D01*
X014345Y021191D01*
X013925Y021191D01*
X013925Y020895D01*
X013937Y020824D01*
X013959Y020755D01*
X013992Y020690D01*
X014035Y020632D01*
X014070Y020596D01*
X013840Y020501D01*
X013720Y020381D02*
X011481Y020381D01*
X011596Y020262D02*
X011847Y020262D01*
X011730Y020144D02*
X011659Y020144D01*
X011203Y020144D02*
X011123Y020144D01*
X011123Y020262D02*
X011203Y020262D01*
X011203Y020381D02*
X011123Y020381D01*
X011123Y020025D02*
X011203Y020025D01*
X011203Y019907D02*
X011123Y019907D01*
X011123Y019788D02*
X011203Y019788D01*
X011203Y019670D02*
X011123Y019670D01*
X011123Y019551D02*
X011203Y019551D01*
X011506Y019551D02*
X011747Y019551D01*
X011688Y019670D02*
X011609Y019670D01*
X012510Y019433D02*
X013441Y019433D01*
X013419Y019551D02*
X012579Y019551D01*
X012637Y019670D02*
X013419Y019670D01*
X013419Y019788D02*
X012673Y019788D01*
X012673Y019907D02*
X013434Y019907D01*
X013483Y020025D02*
X012645Y020025D01*
X012596Y020144D02*
X013532Y020144D01*
X013602Y020262D02*
X012479Y020262D01*
X013012Y020782D02*
X013136Y020658D01*
X013298Y020591D01*
X013473Y020591D01*
X013635Y020658D01*
X013758Y020782D01*
X013825Y020944D01*
X013825Y021719D01*
X013758Y021881D01*
X013635Y022004D01*
X013473Y022071D01*
X013298Y022071D01*
X013136Y022004D01*
X013012Y021881D01*
X012945Y021719D01*
X012945Y020944D01*
X013012Y020782D01*
X013058Y020736D02*
X001411Y020736D01*
X001411Y020618D02*
X002785Y020618D01*
X002500Y020499D02*
X001411Y020499D01*
X001411Y020381D02*
X002382Y020381D01*
X002263Y020262D02*
X001411Y020262D01*
X001411Y020144D02*
X002194Y020144D01*
X002145Y020025D02*
X001411Y020025D01*
X001411Y019907D02*
X002096Y019907D01*
X002081Y019788D02*
X001411Y019788D01*
X001411Y019670D02*
X002081Y019670D01*
X002081Y019551D02*
X001411Y019551D01*
X001411Y019433D02*
X002102Y019433D01*
X002152Y019314D02*
X001411Y019314D01*
X001411Y019196D02*
X002201Y019196D01*
X002280Y019077D02*
X001411Y019077D01*
X001411Y018959D02*
X002398Y018959D01*
X002539Y018840D02*
X001411Y018840D01*
X001411Y018722D02*
X002825Y018722D01*
X003276Y018722D02*
X004717Y018722D01*
X004599Y018603D02*
X001411Y018603D01*
X001411Y018485D02*
X004480Y018485D01*
X004362Y018366D02*
X001411Y018366D01*
X001411Y018248D02*
X004244Y018248D01*
X004195Y018129D02*
X001411Y018129D01*
X001411Y018011D02*
X004193Y018011D01*
X004193Y017892D02*
X001411Y017892D01*
X001411Y017774D02*
X004193Y017774D01*
X004193Y017655D02*
X001411Y017655D01*
X001411Y017537D02*
X004193Y017537D01*
X004193Y017418D02*
X001411Y017418D01*
X001411Y017300D02*
X004193Y017300D01*
X004193Y017181D02*
X001411Y017181D01*
X001411Y017063D02*
X004193Y017063D01*
X004193Y016944D02*
X001411Y016944D01*
X001411Y016826D02*
X004193Y016826D01*
X004193Y016707D02*
X001411Y016707D01*
X001411Y016589D02*
X004193Y016589D01*
X004193Y016470D02*
X001411Y016470D01*
X001411Y016352D02*
X004193Y016352D01*
X004193Y016233D02*
X001411Y016233D01*
X001411Y016115D02*
X004193Y016115D01*
X004193Y015996D02*
X001411Y015996D01*
X001411Y015878D02*
X004193Y015878D01*
X004193Y015759D02*
X001411Y015759D01*
X001411Y015641D02*
X004193Y015641D01*
X004193Y015522D02*
X001411Y015522D01*
X001411Y015404D02*
X004193Y015404D01*
X004193Y015285D02*
X001411Y015285D01*
X001411Y015167D02*
X004193Y015167D01*
X004193Y015048D02*
X001411Y015048D01*
X001411Y014930D02*
X004193Y014930D01*
X004193Y014811D02*
X001411Y014811D01*
X001411Y014693D02*
X004193Y014693D01*
X004193Y014574D02*
X001411Y014574D01*
X001411Y014456D02*
X004193Y014456D01*
X004193Y014337D02*
X001411Y014337D01*
X001411Y014219D02*
X004193Y014219D01*
X004193Y014100D02*
X001411Y014100D01*
X001411Y013982D02*
X004193Y013982D01*
X004193Y013863D02*
X001411Y013863D01*
X001411Y013745D02*
X004193Y013745D01*
X004193Y013626D02*
X001411Y013626D01*
X001411Y013508D02*
X004193Y013508D01*
X004193Y013389D02*
X001411Y013389D01*
X001411Y013271D02*
X004193Y013271D01*
X004193Y013152D02*
X001411Y013152D01*
X001411Y013034D02*
X004193Y013034D01*
X004193Y012915D02*
X003317Y012915D01*
X003332Y012905D02*
X003264Y012954D01*
X003190Y012992D01*
X003111Y013018D01*
X003028Y013031D01*
X003027Y013031D01*
X003027Y012541D01*
X002947Y012541D01*
X002947Y013031D01*
X002945Y013031D01*
X002863Y013018D01*
X002783Y012992D01*
X002709Y012954D01*
X002641Y012905D01*
X002582Y012846D01*
X002533Y012778D01*
X002495Y012704D01*
X002470Y012625D01*
X002457Y012542D01*
X002457Y012541D01*
X002947Y012541D01*
X002947Y012461D01*
X002457Y012461D01*
X002457Y012459D01*
X002470Y012376D01*
X002495Y012297D01*
X002533Y012223D01*
X002582Y012155D01*
X002641Y012096D01*
X002709Y012047D01*
X002783Y012009D01*
X002839Y011991D01*
X002698Y011933D01*
X002554Y011789D01*
X002477Y011602D01*
X002477Y011399D01*
X002554Y011212D01*
X002698Y011068D01*
X002861Y011001D01*
X002698Y010933D01*
X002554Y010789D01*
X002477Y010602D01*
X002477Y010399D01*
X002554Y010212D01*
X002698Y010068D01*
X002885Y009991D01*
X003088Y009991D01*
X003276Y010068D01*
X003419Y010212D01*
X003497Y010399D01*
X003497Y010602D01*
X003419Y010789D01*
X003276Y010933D01*
X003112Y011001D01*
X003276Y011068D01*
X003419Y011212D01*
X003497Y011399D01*
X003497Y011602D01*
X003419Y011789D01*
X003276Y011933D01*
X003135Y011991D01*
X003190Y012009D01*
X003264Y012047D01*
X003332Y012096D01*
X003391Y012155D01*
X003440Y012223D01*
X003478Y012297D01*
X003504Y012376D01*
X003517Y012459D01*
X003517Y012461D01*
X003027Y012461D01*
X003027Y012541D01*
X003517Y012541D01*
X003517Y012542D01*
X003504Y012625D01*
X003478Y012704D01*
X003440Y012778D01*
X003391Y012846D01*
X003332Y012905D01*
X003426Y012797D02*
X004193Y012797D01*
X004193Y012678D02*
X003486Y012678D01*
X003514Y012560D02*
X004193Y012560D01*
X004193Y012441D02*
X003514Y012441D01*
X003486Y012323D02*
X004193Y012323D01*
X004193Y012204D02*
X003427Y012204D01*
X003318Y012086D02*
X004193Y012086D01*
X004193Y011967D02*
X003192Y011967D01*
X003359Y011849D02*
X004193Y011849D01*
X004193Y011730D02*
X003443Y011730D01*
X003493Y011612D02*
X004193Y011612D01*
X004193Y011493D02*
X003497Y011493D01*
X003487Y011375D02*
X004193Y011375D01*
X004193Y011256D02*
X003438Y011256D01*
X003345Y011138D02*
X004193Y011138D01*
X004193Y011019D02*
X003158Y011019D01*
X003307Y010901D02*
X004193Y010901D01*
X004193Y010782D02*
X003422Y010782D01*
X003471Y010664D02*
X004193Y010664D01*
X004193Y010545D02*
X003497Y010545D01*
X003497Y010427D02*
X004193Y010427D01*
X004193Y010308D02*
X003459Y010308D01*
X003397Y010190D02*
X004193Y010190D01*
X004193Y010071D02*
X003279Y010071D01*
X002694Y010071D02*
X001411Y010071D01*
X001411Y009953D02*
X004193Y009953D01*
X004193Y009834D02*
X001411Y009834D01*
X001411Y009716D02*
X004193Y009716D01*
X004193Y009597D02*
X001411Y009597D01*
X001411Y009479D02*
X004193Y009479D01*
X002576Y010190D02*
X001411Y010190D01*
X001411Y010308D02*
X002514Y010308D01*
X002477Y010427D02*
X001411Y010427D01*
X001411Y010545D02*
X002477Y010545D01*
X002502Y010664D02*
X001411Y010664D01*
X001411Y010782D02*
X002551Y010782D01*
X002666Y010901D02*
X001411Y010901D01*
X001411Y011019D02*
X002815Y011019D01*
X002628Y011138D02*
X001411Y011138D01*
X001411Y011256D02*
X002536Y011256D01*
X002487Y011375D02*
X001411Y011375D01*
X001411Y011493D02*
X002477Y011493D01*
X002481Y011612D02*
X001411Y011612D01*
X001411Y011730D02*
X002530Y011730D01*
X002614Y011849D02*
X001411Y011849D01*
X001411Y011967D02*
X002781Y011967D01*
X002656Y012086D02*
X001411Y012086D01*
X001411Y012204D02*
X002547Y012204D01*
X002487Y012323D02*
X001411Y012323D01*
X001411Y012441D02*
X002459Y012441D01*
X002459Y012560D02*
X001411Y012560D01*
X001411Y012678D02*
X002487Y012678D01*
X002547Y012797D02*
X001411Y012797D01*
X001411Y012915D02*
X002656Y012915D01*
X002947Y012915D02*
X003027Y012915D01*
X003027Y012797D02*
X002947Y012797D01*
X002947Y012678D02*
X003027Y012678D01*
X003027Y012560D02*
X002947Y012560D01*
X006526Y013034D02*
X010790Y013034D01*
X010672Y013152D02*
X006526Y013152D01*
X006526Y013271D02*
X010621Y013271D01*
X010602Y013389D02*
X006526Y013389D01*
X006526Y013508D02*
X010608Y013508D01*
X010657Y013626D02*
X006526Y013626D01*
X006526Y013745D02*
X010760Y013745D01*
X010745Y011730D02*
X006526Y011730D01*
X006526Y011612D02*
X010651Y011612D01*
X010602Y011493D02*
X006526Y011493D01*
X006526Y011375D02*
X010602Y011375D01*
X010627Y011256D02*
X006526Y011256D01*
X006526Y011138D02*
X010686Y011138D01*
X011980Y010782D02*
X021792Y010782D01*
X021792Y010664D02*
X012105Y010664D01*
X012160Y010545D02*
X021792Y010545D01*
X021792Y010427D02*
X012182Y010427D01*
X012178Y010308D02*
X021792Y010308D01*
X021792Y009834D02*
X011754Y009834D01*
X011953Y009716D02*
X021792Y009716D01*
X021752Y009597D02*
X012038Y009597D01*
X012082Y009479D02*
X019192Y009479D01*
X022392Y011612D02*
X026166Y011612D01*
X026166Y011693D02*
X026584Y011693D01*
X026584Y012111D01*
X026305Y012111D01*
X026264Y012100D01*
X026227Y012079D01*
X026198Y012049D01*
X026177Y012013D01*
X026166Y011972D01*
X026166Y011693D01*
X026166Y011730D02*
X022392Y011730D01*
X022392Y011849D02*
X026166Y011849D01*
X026166Y011967D02*
X022392Y011967D01*
X022392Y012086D02*
X026239Y012086D01*
X026584Y012086D02*
X026661Y012086D01*
X026661Y012111D02*
X026940Y012111D01*
X026981Y012100D01*
X027018Y012079D01*
X027047Y012049D01*
X027068Y012013D01*
X027079Y011972D01*
X027079Y011693D01*
X026661Y011693D01*
X026584Y011693D01*
X026584Y011616D01*
X026661Y011616D01*
X026661Y011693D01*
X026661Y012111D01*
X026661Y011967D02*
X026584Y011967D01*
X026584Y011849D02*
X026661Y011849D01*
X026661Y011730D02*
X026584Y011730D01*
X026584Y011612D02*
X026661Y011612D01*
X026661Y011616D02*
X026661Y011197D01*
X026940Y011197D01*
X026981Y011208D01*
X027018Y011229D01*
X027047Y011259D01*
X027068Y011295D01*
X027079Y011336D01*
X027079Y011616D01*
X026661Y011616D01*
X026661Y011493D02*
X026584Y011493D01*
X026584Y011375D02*
X026661Y011375D01*
X026661Y011256D02*
X026584Y011256D01*
X027045Y011256D02*
X028197Y011256D01*
X028154Y011375D02*
X027079Y011375D01*
X027079Y011493D02*
X028154Y011493D01*
X028154Y011612D02*
X027079Y011612D01*
X027079Y011730D02*
X028154Y011730D01*
X028154Y011849D02*
X027079Y011849D01*
X027079Y011967D02*
X028154Y011967D01*
X028231Y012086D02*
X027005Y012086D01*
X026667Y012323D02*
X028267Y012323D01*
X028267Y012441D02*
X028067Y012441D01*
X028106Y012560D02*
X028267Y012560D01*
X028267Y012678D02*
X028174Y012678D01*
X028267Y012204D02*
X023919Y012204D01*
X023900Y012198D02*
X023982Y012225D01*
X024058Y012264D01*
X024127Y012314D01*
X024188Y012375D01*
X024238Y012444D01*
X024277Y012520D01*
X024304Y012602D01*
X024314Y012669D01*
X023449Y012669D01*
X023449Y012185D01*
X023816Y012185D01*
X023900Y012198D01*
X024136Y012323D02*
X025229Y012323D01*
X025116Y012441D02*
X024236Y012441D01*
X024290Y012560D02*
X025067Y012560D01*
X025041Y012678D02*
X023449Y012678D01*
X023449Y012669D02*
X023449Y012789D01*
X023329Y012789D01*
X023329Y012669D01*
X022464Y012669D01*
X022475Y012602D01*
X022501Y012520D01*
X022540Y012444D01*
X022591Y012375D01*
X022651Y012314D01*
X022720Y012264D01*
X022797Y012225D01*
X022878Y012198D01*
X022963Y012185D01*
X023329Y012185D01*
X023329Y012669D01*
X023449Y012669D01*
X023449Y012560D02*
X023329Y012560D01*
X023329Y012678D02*
X022392Y012678D01*
X022392Y012560D02*
X022488Y012560D01*
X022542Y012441D02*
X022392Y012441D01*
X022392Y012323D02*
X022642Y012323D01*
X022859Y012204D02*
X022392Y012204D01*
X022464Y012789D02*
X023329Y012789D01*
X023329Y013273D01*
X022963Y013273D01*
X022878Y013259D01*
X022797Y013233D01*
X022720Y013194D01*
X022651Y013144D01*
X022591Y013083D01*
X022540Y013014D01*
X022501Y012938D01*
X022475Y012856D01*
X022464Y012789D01*
X022465Y012797D02*
X022392Y012797D01*
X022392Y012915D02*
X022494Y012915D01*
X022555Y013034D02*
X022392Y013034D01*
X022392Y013152D02*
X022663Y013152D01*
X022392Y013271D02*
X022951Y013271D01*
X023329Y013271D02*
X023449Y013271D01*
X023449Y013273D02*
X023449Y012789D01*
X024314Y012789D01*
X024304Y012856D01*
X024277Y012938D01*
X024238Y013014D01*
X024188Y013083D01*
X024127Y013144D01*
X024058Y013194D01*
X023982Y013233D01*
X023900Y013259D01*
X023816Y013273D01*
X023449Y013273D01*
X023449Y013152D02*
X023329Y013152D01*
X023329Y013034D02*
X023449Y013034D01*
X023449Y012915D02*
X023329Y012915D01*
X023329Y012797D02*
X023449Y012797D01*
X023449Y012441D02*
X023329Y012441D01*
X023329Y012323D02*
X023449Y012323D01*
X023449Y012204D02*
X023329Y012204D01*
X024313Y012797D02*
X025041Y012797D01*
X025075Y012915D02*
X024284Y012915D01*
X024224Y013034D02*
X025129Y013034D01*
X025247Y013152D02*
X024115Y013152D01*
X023827Y013271D02*
X027807Y013271D01*
X027807Y013389D02*
X022392Y013389D01*
X022392Y013508D02*
X027807Y013508D01*
X027807Y013626D02*
X022392Y013626D01*
X022392Y013745D02*
X024432Y013745D01*
X024432Y013719D02*
X024514Y013637D01*
X025896Y013637D01*
X025978Y013719D01*
X025978Y015101D01*
X025896Y015183D01*
X024514Y015183D01*
X024432Y015101D01*
X024432Y013719D01*
X024432Y013863D02*
X022392Y013863D01*
X022392Y013982D02*
X024432Y013982D01*
X024432Y014100D02*
X022392Y014100D01*
X022392Y014219D02*
X024432Y014219D01*
X024432Y014337D02*
X022392Y014337D01*
X022392Y014456D02*
X024432Y014456D01*
X024432Y014574D02*
X022392Y014574D01*
X022392Y014693D02*
X024432Y014693D01*
X024432Y014811D02*
X022392Y014811D01*
X022392Y014930D02*
X024432Y014930D01*
X024432Y015048D02*
X022392Y015048D01*
X022392Y015167D02*
X024498Y015167D01*
X024071Y015560D02*
X023878Y015481D01*
X022902Y015481D01*
X022710Y015560D01*
X022562Y015708D01*
X022482Y015900D01*
X022482Y016109D01*
X022562Y016301D01*
X022710Y016449D01*
X022902Y016528D01*
X023878Y016528D01*
X024071Y016449D01*
X024218Y016301D01*
X024298Y016109D01*
X024298Y015900D01*
X024218Y015708D01*
X024071Y015560D01*
X023979Y015522D02*
X025313Y015522D01*
X025280Y015539D02*
X025357Y015500D01*
X025438Y015474D01*
X025523Y015461D01*
X025889Y015461D01*
X025889Y015944D01*
X026009Y015944D01*
X026009Y015461D01*
X026376Y015461D01*
X026460Y015474D01*
X026542Y015500D01*
X026618Y015539D01*
X026687Y015590D01*
X026748Y015650D01*
X026798Y015719D01*
X026837Y015796D01*
X026864Y015877D01*
X026874Y015944D01*
X026009Y015944D01*
X026009Y016064D01*
X026874Y016064D01*
X026864Y016132D01*
X026837Y016213D01*
X026798Y016290D01*
X026748Y016359D01*
X026687Y016419D01*
X026618Y016470D01*
X026542Y016509D01*
X026460Y016535D01*
X026376Y016548D01*
X026009Y016548D01*
X026009Y016064D01*
X025889Y016064D01*
X025889Y015944D01*
X025024Y015944D01*
X025035Y015877D01*
X025061Y015796D01*
X025100Y015719D01*
X025151Y015650D01*
X025211Y015590D01*
X025280Y015539D01*
X025160Y015641D02*
X024151Y015641D01*
X024240Y015759D02*
X025080Y015759D01*
X025035Y015878D02*
X024289Y015878D01*
X024298Y015996D02*
X025889Y015996D01*
X025889Y016064D02*
X025024Y016064D01*
X025035Y016132D01*
X025061Y016213D01*
X025100Y016290D01*
X025151Y016359D01*
X025211Y016419D01*
X025280Y016470D01*
X025357Y016509D01*
X025438Y016535D01*
X025523Y016548D01*
X025889Y016548D01*
X025889Y016064D01*
X025889Y016115D02*
X026009Y016115D01*
X026009Y016233D02*
X025889Y016233D01*
X025889Y016352D02*
X026009Y016352D01*
X026009Y016470D02*
X025889Y016470D01*
X026009Y015996D02*
X028269Y015996D01*
X028150Y015878D02*
X026864Y015878D01*
X026819Y015759D02*
X028032Y015759D01*
X027913Y015641D02*
X026739Y015641D01*
X026585Y015522D02*
X027829Y015522D01*
X027807Y015404D02*
X022392Y015404D01*
X022392Y015522D02*
X022801Y015522D01*
X022629Y015641D02*
X022392Y015641D01*
X022392Y015759D02*
X022541Y015759D01*
X022492Y015878D02*
X022384Y015878D01*
X022319Y015996D02*
X022482Y015996D01*
X022485Y016115D02*
X022201Y016115D01*
X022082Y016233D02*
X022534Y016233D01*
X022613Y016352D02*
X021964Y016352D01*
X021845Y016470D02*
X022762Y016470D01*
X022715Y016826D02*
X028432Y016826D01*
X028432Y016707D02*
X019199Y016707D01*
X019080Y016589D02*
X019856Y016589D01*
X019789Y016470D02*
X018962Y016470D01*
X018843Y016352D02*
X019789Y016352D01*
X019789Y016233D02*
X018725Y016233D01*
X018606Y016115D02*
X019789Y016115D01*
X019841Y015996D02*
X018488Y015996D01*
X019057Y014811D02*
X020209Y014811D01*
X020185Y014794D02*
X020125Y014734D01*
X020075Y014665D01*
X020036Y014588D01*
X020009Y014507D01*
X019999Y014439D01*
X020864Y014439D01*
X020864Y014923D01*
X020497Y014923D01*
X020412Y014910D01*
X020331Y014884D01*
X020255Y014845D01*
X020185Y014794D01*
X020095Y014693D02*
X019176Y014693D01*
X019235Y014574D02*
X020031Y014574D01*
X020001Y014456D02*
X019272Y014456D01*
X019272Y014337D02*
X020864Y014337D01*
X020864Y014319D02*
X019999Y014319D01*
X020009Y014252D01*
X020036Y014171D01*
X020075Y014094D01*
X020125Y014025D01*
X020185Y013965D01*
X020255Y013914D01*
X020331Y013875D01*
X020412Y013849D01*
X020497Y013836D01*
X020864Y013836D01*
X020864Y014319D01*
X020864Y014219D02*
X020984Y014219D01*
X020984Y014100D02*
X020864Y014100D01*
X020864Y013982D02*
X020984Y013982D01*
X020984Y013863D02*
X020864Y013863D01*
X020368Y013863D02*
X018872Y013863D01*
X019092Y013982D02*
X020168Y013982D01*
X020072Y014100D02*
X019200Y014100D01*
X019249Y014219D02*
X020020Y014219D01*
X020864Y014456D02*
X020984Y014456D01*
X020984Y014574D02*
X020864Y014574D01*
X020864Y014693D02*
X020984Y014693D01*
X020984Y014811D02*
X020864Y014811D01*
X022392Y015285D02*
X027807Y015285D01*
X027807Y015167D02*
X025912Y015167D01*
X025978Y015048D02*
X027807Y015048D01*
X027807Y014930D02*
X025978Y014930D01*
X025978Y014811D02*
X027807Y014811D01*
X027807Y014693D02*
X025978Y014693D01*
X025978Y014574D02*
X027807Y014574D01*
X027807Y014456D02*
X025978Y014456D01*
X025978Y014337D02*
X027807Y014337D01*
X027807Y014219D02*
X025978Y014219D01*
X025978Y014100D02*
X027807Y014100D01*
X027807Y013982D02*
X025978Y013982D01*
X025978Y013863D02*
X027807Y013863D01*
X027807Y013745D02*
X025978Y013745D01*
X026649Y013152D02*
X027800Y013152D01*
X028947Y013152D02*
X030927Y013152D01*
X030927Y013034D02*
X028947Y013034D01*
X028947Y012915D02*
X030927Y012915D01*
X030927Y012797D02*
X028947Y012797D01*
X028947Y012678D02*
X030927Y012678D01*
X030927Y012560D02*
X028947Y012560D01*
X028947Y012441D02*
X030927Y012441D01*
X030927Y012323D02*
X028947Y012323D01*
X028947Y012204D02*
X030927Y012204D01*
X030927Y012086D02*
X028951Y012086D01*
X029028Y011967D02*
X030927Y011967D01*
X030927Y011849D02*
X029028Y011849D01*
X029028Y011730D02*
X030927Y011730D01*
X030927Y011612D02*
X029028Y011612D01*
X029028Y011493D02*
X030927Y011493D01*
X030927Y011375D02*
X029028Y011375D01*
X028985Y011256D02*
X030927Y011256D01*
X030927Y011138D02*
X028907Y011138D01*
X028907Y011019D02*
X030927Y011019D01*
X030927Y010901D02*
X028907Y010901D01*
X028907Y010782D02*
X030927Y010782D01*
X030927Y010664D02*
X028881Y010664D01*
X028791Y010545D02*
X030927Y010545D01*
X030927Y010427D02*
X028673Y010427D01*
X028223Y009953D02*
X030927Y009953D01*
X030927Y010071D02*
X028081Y010071D01*
X027940Y010190D02*
X030927Y010190D01*
X030927Y010308D02*
X027798Y010308D01*
X028364Y009834D02*
X030927Y009834D01*
X030927Y009716D02*
X028512Y009716D01*
X028613Y009597D02*
X030927Y009597D01*
X030927Y009479D02*
X028652Y009479D01*
X028652Y009360D02*
X030927Y009360D01*
X030927Y009242D02*
X028652Y009242D01*
X028652Y009123D02*
X030927Y009123D01*
X030927Y009005D02*
X028652Y009005D01*
X028652Y008886D02*
X030927Y008886D01*
X030927Y008768D02*
X028652Y008768D01*
X028652Y008649D02*
X030927Y008649D01*
X030927Y008531D02*
X028652Y008531D01*
X028652Y008412D02*
X030927Y008412D01*
X030927Y008294D02*
X028652Y008294D01*
X028652Y008175D02*
X030927Y008175D01*
X030927Y008057D02*
X028652Y008057D01*
X028652Y007938D02*
X030927Y007938D01*
X030927Y007820D02*
X028652Y007820D01*
X028652Y007701D02*
X030927Y007701D01*
X030927Y007583D02*
X028652Y007583D01*
X028652Y007464D02*
X030927Y007464D01*
X030927Y007346D02*
X028652Y007346D01*
X028652Y007227D02*
X030927Y007227D01*
X030927Y007109D02*
X028652Y007109D01*
X028652Y006990D02*
X030927Y006990D01*
X030927Y006872D02*
X028652Y006872D01*
X028652Y006753D02*
X030927Y006753D01*
X030927Y006635D02*
X028652Y006635D01*
X028652Y006516D02*
X030927Y006516D01*
X030927Y006398D02*
X028652Y006398D01*
X028652Y006279D02*
X030927Y006279D01*
X030927Y006161D02*
X028652Y006161D01*
X028652Y006042D02*
X030927Y006042D01*
X030927Y005924D02*
X028652Y005924D01*
X028652Y005805D02*
X030927Y005805D01*
X030927Y005687D02*
X028652Y005687D01*
X028722Y005568D02*
X030927Y005568D01*
X030927Y005450D02*
X028841Y005450D01*
X028959Y005331D02*
X030927Y005331D01*
X030927Y005213D02*
X029078Y005213D01*
X029196Y005094D02*
X030927Y005094D01*
X030927Y004976D02*
X030343Y004976D01*
X030503Y004857D02*
X030927Y004857D01*
X030927Y004739D02*
X030621Y004739D01*
X030679Y004620D02*
X030927Y004620D01*
X030927Y004502D02*
X030728Y004502D01*
X030756Y004383D02*
X030927Y004383D01*
X030927Y004265D02*
X030756Y004265D01*
X030756Y004146D02*
X030927Y004146D01*
X030927Y004028D02*
X030718Y004028D01*
X030669Y003909D02*
X030927Y003909D01*
X030927Y003791D02*
X030597Y003791D01*
X030478Y003672D02*
X030927Y003672D01*
X030927Y003554D02*
X030284Y003554D01*
X030885Y003317D02*
X029352Y003317D01*
X029352Y003435D02*
X030927Y003435D01*
X030766Y003198D02*
X029352Y003198D01*
X029352Y003080D02*
X030648Y003080D01*
X030529Y002961D02*
X029352Y002961D01*
X029361Y002843D02*
X030411Y002843D01*
X030292Y002724D02*
X029424Y002724D01*
X029452Y002606D02*
X030174Y002606D01*
X030055Y002487D02*
X029452Y002487D01*
X029452Y002369D02*
X030052Y002369D01*
X030052Y002250D02*
X029452Y002250D01*
X029452Y002132D02*
X030052Y002132D01*
X030052Y002013D02*
X029452Y002013D01*
X029452Y001895D02*
X030052Y001895D01*
X029969Y001776D02*
X029408Y001776D01*
X029323Y001658D02*
X029851Y001658D01*
X028702Y001658D02*
X028168Y001658D01*
X028341Y001776D02*
X028616Y001776D01*
X028572Y001895D02*
X028416Y001895D01*
X028452Y002013D02*
X028572Y002013D01*
X028572Y002132D02*
X028452Y002132D01*
X028452Y002250D02*
X028572Y002250D01*
X028572Y002369D02*
X028452Y002369D01*
X028452Y002487D02*
X028572Y002487D01*
X028572Y002606D02*
X028452Y002606D01*
X028452Y002724D02*
X028600Y002724D01*
X028663Y002843D02*
X028422Y002843D01*
X028541Y002961D02*
X028672Y002961D01*
X028659Y003080D02*
X028672Y003080D01*
X028053Y003435D02*
X023591Y003435D01*
X023591Y003317D02*
X027934Y003317D01*
X027816Y003198D02*
X023591Y003198D01*
X023763Y003043D02*
X023639Y002919D01*
X023572Y002757D01*
X023572Y001982D01*
X023639Y001820D01*
X023763Y001697D01*
X023925Y001630D01*
X024100Y001630D01*
X024262Y001697D01*
X024385Y001820D01*
X024452Y001982D01*
X024452Y002757D01*
X024385Y002919D01*
X024262Y003043D01*
X024100Y003110D01*
X023925Y003110D01*
X023763Y003043D01*
X023853Y003080D02*
X023313Y003080D01*
X023608Y002843D02*
X022366Y002843D01*
X022347Y002961D02*
X023682Y002961D01*
X023572Y002724D02*
X022432Y002724D01*
X022466Y002606D02*
X023572Y002606D01*
X023572Y002487D02*
X022466Y002487D01*
X022466Y002369D02*
X023572Y002369D01*
X023572Y002250D02*
X022466Y002250D01*
X022466Y002132D02*
X023572Y002132D01*
X023572Y002013D02*
X022466Y002013D01*
X022466Y001895D02*
X023608Y001895D01*
X023683Y001776D02*
X022429Y001776D01*
X022353Y001658D02*
X023857Y001658D01*
X024168Y001658D02*
X024702Y001658D01*
X024616Y001776D02*
X024341Y001776D01*
X024416Y001895D02*
X024572Y001895D01*
X024572Y002013D02*
X024452Y002013D01*
X024452Y002132D02*
X024572Y002132D01*
X024572Y002250D02*
X024452Y002250D01*
X024452Y002369D02*
X024572Y002369D01*
X024572Y002487D02*
X024452Y002487D01*
X024452Y002606D02*
X024572Y002606D01*
X024600Y002724D02*
X024452Y002724D01*
X024417Y002843D02*
X024663Y002843D01*
X024808Y002961D02*
X024343Y002961D01*
X024172Y003080D02*
X025853Y003080D01*
X025925Y003110D02*
X025763Y003043D01*
X025639Y002919D01*
X025572Y002757D01*
X025572Y001982D01*
X025639Y001820D01*
X025763Y001697D01*
X025925Y001630D01*
X026100Y001630D01*
X026262Y001697D01*
X026385Y001820D01*
X026452Y001982D01*
X026452Y002757D01*
X026385Y002919D01*
X026262Y003043D01*
X026100Y003110D01*
X025925Y003110D01*
X026172Y003080D02*
X027713Y003080D01*
X027672Y002961D02*
X027216Y002961D01*
X027361Y002843D02*
X027608Y002843D01*
X027572Y002724D02*
X027424Y002724D01*
X027452Y002606D02*
X027572Y002606D01*
X027572Y002487D02*
X027452Y002487D01*
X027452Y002369D02*
X027572Y002369D01*
X027572Y002250D02*
X027452Y002250D01*
X027452Y002132D02*
X027572Y002132D01*
X027572Y002013D02*
X027452Y002013D01*
X027452Y001895D02*
X027608Y001895D01*
X027683Y001776D02*
X027408Y001776D01*
X027323Y001658D02*
X027857Y001658D01*
X026702Y001658D02*
X026168Y001658D01*
X026341Y001776D02*
X026616Y001776D01*
X026572Y001895D02*
X026416Y001895D01*
X026452Y002013D02*
X026572Y002013D01*
X026572Y002132D02*
X026452Y002132D01*
X026452Y002250D02*
X026572Y002250D01*
X026572Y002369D02*
X026452Y002369D01*
X026452Y002487D02*
X026572Y002487D01*
X026572Y002606D02*
X026452Y002606D01*
X026452Y002724D02*
X026600Y002724D01*
X026663Y002843D02*
X026417Y002843D01*
X026343Y002961D02*
X026808Y002961D01*
X025682Y002961D02*
X025216Y002961D01*
X025361Y002843D02*
X025608Y002843D01*
X025572Y002724D02*
X025424Y002724D01*
X025452Y002606D02*
X025572Y002606D01*
X025572Y002487D02*
X025452Y002487D01*
X025452Y002369D02*
X025572Y002369D01*
X025572Y002250D02*
X025452Y002250D01*
X025452Y002132D02*
X025572Y002132D01*
X025572Y002013D02*
X025452Y002013D01*
X025452Y001895D02*
X025608Y001895D01*
X025683Y001776D02*
X025408Y001776D01*
X025323Y001658D02*
X025857Y001658D01*
X028091Y003554D02*
X023591Y003554D01*
X023566Y003672D02*
X028091Y003672D01*
X028091Y004265D02*
X005818Y004265D01*
X005689Y004146D02*
X006505Y004146D01*
X006476Y004135D02*
X006657Y004210D01*
X006853Y004210D01*
X007034Y004135D01*
X007173Y003996D01*
X007248Y003815D01*
X007248Y002914D01*
X007173Y002733D01*
X007034Y002595D01*
X006853Y002520D01*
X006657Y002520D01*
X006476Y002595D01*
X006338Y002733D01*
X006263Y002914D01*
X006263Y003815D01*
X006338Y003996D01*
X006476Y004135D01*
X006370Y004028D02*
X005560Y004028D01*
X005431Y003909D02*
X006302Y003909D01*
X006263Y003791D02*
X005302Y003791D01*
X005271Y003672D02*
X006263Y003672D01*
X006263Y003554D02*
X005271Y003554D01*
X005271Y003435D02*
X006263Y003435D01*
X006263Y003317D02*
X005271Y003317D01*
X005271Y003198D02*
X006263Y003198D01*
X006263Y003080D02*
X005271Y003080D01*
X005271Y002961D02*
X006263Y002961D01*
X006292Y002843D02*
X005242Y002843D01*
X005188Y002724D02*
X006347Y002724D01*
X006465Y002606D02*
X005069Y002606D01*
X004489Y002606D02*
X003101Y002606D01*
X003219Y002724D02*
X004370Y002724D01*
X004316Y002843D02*
X003273Y002843D01*
X003303Y002961D02*
X004286Y002961D01*
X004286Y003080D02*
X003303Y003080D01*
X003303Y003198D02*
X004286Y003198D01*
X004286Y003317D02*
X003303Y003317D01*
X003303Y003435D02*
X004286Y003435D01*
X004286Y003554D02*
X003385Y003554D01*
X003504Y003672D02*
X004286Y003672D01*
X004286Y003791D02*
X003622Y003791D01*
X003741Y003909D02*
X004326Y003909D01*
X004393Y004028D02*
X003859Y004028D01*
X003978Y004146D02*
X004528Y004146D01*
X004813Y004265D02*
X004096Y004265D01*
X004215Y004383D02*
X004942Y004383D01*
X005071Y004502D02*
X004333Y004502D01*
X004452Y004620D02*
X005200Y004620D01*
X005329Y004739D02*
X004570Y004739D01*
X004689Y004857D02*
X005457Y004857D01*
X007006Y004146D02*
X008473Y004146D01*
X008338Y004028D02*
X007141Y004028D01*
X007209Y003909D02*
X008270Y003909D01*
X008231Y003791D02*
X007248Y003791D01*
X007248Y003672D02*
X008231Y003672D01*
X008231Y003554D02*
X007248Y003554D01*
X007248Y003435D02*
X008231Y003435D01*
X008231Y003317D02*
X007248Y003317D01*
X007248Y003198D02*
X008231Y003198D01*
X008231Y003080D02*
X007248Y003080D01*
X007248Y002961D02*
X008231Y002961D01*
X008261Y002843D02*
X007218Y002843D01*
X007164Y002724D02*
X008315Y002724D01*
X008434Y002606D02*
X007046Y002606D01*
X008975Y004146D02*
X010402Y004146D01*
X010267Y004028D02*
X009110Y004028D01*
X009177Y003909D02*
X010200Y003909D01*
X010160Y003791D02*
X009216Y003791D01*
X009216Y003672D02*
X010160Y003672D01*
X010160Y003554D02*
X009216Y003554D01*
X012564Y003198D02*
X012679Y003198D01*
X012679Y003080D02*
X012564Y003080D01*
X012564Y002961D02*
X012679Y002961D01*
X012679Y002843D02*
X012564Y002843D01*
X012564Y002724D02*
X012679Y002724D01*
X012679Y002606D02*
X012564Y002606D01*
X017222Y001658D02*
X017700Y001658D01*
X017623Y001776D02*
X017372Y001776D01*
X017437Y001895D02*
X017586Y001895D01*
X017586Y002013D02*
X017466Y002013D01*
X017466Y002132D02*
X017586Y002132D01*
X017586Y002250D02*
X017466Y002250D01*
X017466Y002369D02*
X017586Y002369D01*
X017586Y002487D02*
X017466Y002487D01*
X017466Y002606D02*
X017586Y002606D01*
X017621Y002724D02*
X017466Y002724D01*
X017424Y002843D02*
X017694Y002843D01*
X017862Y002961D02*
X017341Y002961D01*
X018191Y002961D02*
X018712Y002961D01*
X018629Y002843D02*
X018359Y002843D01*
X018432Y002724D02*
X018586Y002724D01*
X018586Y002606D02*
X018466Y002606D01*
X018466Y002487D02*
X018586Y002487D01*
X018586Y002369D02*
X018466Y002369D01*
X018466Y002250D02*
X018586Y002250D01*
X018586Y002132D02*
X018466Y002132D01*
X018466Y002013D02*
X018586Y002013D01*
X018616Y001895D02*
X018466Y001895D01*
X018429Y001776D02*
X018681Y001776D01*
X018831Y001658D02*
X018353Y001658D01*
X019466Y002369D02*
X019566Y002369D01*
X019566Y002487D02*
X019466Y002487D01*
X019466Y002606D02*
X019569Y002606D01*
X019598Y002724D02*
X019466Y002724D01*
X019424Y002843D02*
X019668Y002843D01*
X019814Y002961D02*
X019341Y002961D01*
X020385Y002843D02*
X020607Y002843D01*
X020572Y002724D02*
X020455Y002724D01*
X020484Y002606D02*
X020566Y002606D01*
X020566Y002487D02*
X020486Y002487D01*
X020486Y002132D02*
X020566Y002132D01*
X020567Y002013D02*
X020486Y002013D01*
X020483Y001895D02*
X020594Y001895D01*
X020659Y001776D02*
X020453Y001776D01*
X020380Y001658D02*
X020789Y001658D01*
X020986Y001658D02*
X021066Y001658D01*
X021066Y001776D02*
X020986Y001776D01*
X020986Y001895D02*
X021066Y001895D01*
X021066Y002013D02*
X020986Y002013D01*
X020986Y002132D02*
X021066Y002132D01*
X021066Y002250D02*
X020986Y002250D01*
X021459Y001895D02*
X021586Y001895D01*
X021586Y002013D02*
X021486Y002013D01*
X021486Y002132D02*
X021586Y002132D01*
X021586Y002250D02*
X021486Y002250D01*
X021394Y001776D02*
X021623Y001776D01*
X021700Y001658D02*
X021264Y001658D01*
X021664Y003672D02*
X022980Y003672D01*
X021377Y005094D02*
X027367Y005094D01*
X027343Y005213D02*
X021386Y005213D01*
X021386Y005331D02*
X027343Y005331D01*
X027343Y005450D02*
X021386Y005450D01*
X021386Y005568D02*
X027343Y005568D01*
X027343Y005687D02*
X021374Y005687D01*
X021377Y005805D02*
X027343Y005805D01*
X029306Y004976D02*
X029589Y004976D01*
X029429Y004857D02*
X029352Y004857D01*
X029352Y003672D02*
X029454Y003672D01*
X029352Y003554D02*
X029648Y003554D01*
X025116Y006635D02*
X024375Y006635D01*
X028947Y013271D02*
X030927Y013271D01*
X030927Y013389D02*
X028947Y013389D01*
X028947Y013508D02*
X030927Y013508D01*
X030927Y013626D02*
X028947Y013626D01*
X028947Y013745D02*
X029235Y013745D01*
X029235Y013719D02*
X029317Y013637D01*
X030699Y013637D01*
X030781Y013719D01*
X030781Y015101D01*
X030699Y015183D01*
X029317Y015183D01*
X029235Y015101D01*
X029235Y013719D01*
X029235Y013863D02*
X028947Y013863D01*
X028947Y013982D02*
X029235Y013982D01*
X029235Y014100D02*
X028947Y014100D01*
X028947Y014219D02*
X029235Y014219D01*
X029235Y014337D02*
X028947Y014337D01*
X028947Y014456D02*
X029235Y014456D01*
X029235Y014574D02*
X028947Y014574D01*
X028947Y014693D02*
X029235Y014693D01*
X029235Y014811D02*
X028947Y014811D01*
X028983Y014930D02*
X029235Y014930D01*
X029235Y015048D02*
X029101Y015048D01*
X029220Y015167D02*
X029301Y015167D01*
X029338Y015285D02*
X030927Y015285D01*
X030927Y015167D02*
X030715Y015167D01*
X030781Y015048D02*
X030927Y015048D01*
X030927Y014930D02*
X030781Y014930D01*
X030781Y014811D02*
X030927Y014811D01*
X030927Y014693D02*
X030781Y014693D01*
X030781Y014574D02*
X030927Y014574D01*
X030927Y014456D02*
X030781Y014456D01*
X030781Y014337D02*
X030927Y014337D01*
X030927Y014219D02*
X030781Y014219D01*
X030781Y014100D02*
X030927Y014100D01*
X030927Y013982D02*
X030781Y013982D01*
X030781Y013863D02*
X030927Y013863D01*
X030927Y013745D02*
X030781Y013745D01*
X030927Y015404D02*
X029457Y015404D01*
X029575Y015522D02*
X030927Y015522D01*
X030927Y015641D02*
X029665Y015641D01*
X029697Y015759D02*
X030927Y015759D01*
X030927Y015878D02*
X029697Y015878D01*
X029697Y015996D02*
X030927Y015996D01*
X030927Y016115D02*
X029697Y016115D01*
X029697Y016233D02*
X030927Y016233D01*
X030927Y016352D02*
X029697Y016352D01*
X029697Y016470D02*
X030927Y016470D01*
X030927Y016589D02*
X029697Y016589D01*
X029697Y016707D02*
X030927Y016707D01*
X030927Y016826D02*
X029697Y016826D01*
X029697Y016944D02*
X030927Y016944D01*
X030927Y017063D02*
X029697Y017063D01*
X029697Y017181D02*
X030927Y017181D01*
X030927Y017300D02*
X029697Y017300D01*
X029697Y017418D02*
X030844Y017418D01*
X030726Y017537D02*
X029697Y017537D01*
X029697Y017655D02*
X030607Y017655D01*
X030489Y017774D02*
X029678Y017774D01*
X029605Y017892D02*
X030370Y017892D01*
X030252Y018011D02*
X029487Y018011D01*
X029368Y018129D02*
X030133Y018129D01*
X030015Y018248D02*
X029250Y018248D01*
X029131Y018366D02*
X029896Y018366D01*
X029802Y018485D02*
X029013Y018485D01*
X028894Y018603D02*
X029802Y018603D01*
X029802Y018722D02*
X028776Y018722D01*
X028657Y018840D02*
X029802Y018840D01*
X029802Y018959D02*
X028539Y018959D01*
X028420Y019077D02*
X029802Y019077D01*
X029802Y019196D02*
X028302Y019196D01*
X028183Y019314D02*
X029802Y019314D01*
X029802Y019433D02*
X028072Y019433D01*
X028072Y019551D02*
X029802Y019551D01*
X029802Y019670D02*
X028072Y019670D01*
X028072Y019788D02*
X029802Y019788D01*
X029802Y019907D02*
X028072Y019907D01*
X028052Y020025D02*
X029802Y020025D01*
X029802Y020144D02*
X027979Y020144D01*
X027924Y020198D02*
X027924Y020198D01*
X027860Y020262D02*
X029802Y020262D01*
X029802Y020381D02*
X027742Y020381D01*
X027623Y020499D02*
X029802Y020499D01*
X029802Y020618D02*
X029328Y020618D01*
X029289Y020578D02*
X029412Y020702D01*
X029479Y020864D01*
X029479Y021639D01*
X029412Y021800D01*
X029289Y021924D01*
X029127Y021991D01*
X028952Y021991D01*
X028790Y021924D01*
X028666Y021800D01*
X028599Y021639D01*
X028599Y020864D01*
X028666Y020702D01*
X028790Y020578D01*
X028952Y020511D01*
X029127Y020511D01*
X029289Y020578D01*
X029427Y020736D02*
X029802Y020736D01*
X029802Y020855D02*
X029476Y020855D01*
X029479Y020973D02*
X029802Y020973D01*
X029802Y021092D02*
X029479Y021092D01*
X029479Y021210D02*
X029802Y021210D01*
X029802Y021329D02*
X029479Y021329D01*
X029479Y021447D02*
X029802Y021447D01*
X029802Y021566D02*
X029479Y021566D01*
X029460Y021684D02*
X029802Y021684D01*
X029802Y021803D02*
X029410Y021803D01*
X029291Y021921D02*
X029716Y021921D01*
X029598Y022040D02*
X028250Y022040D01*
X028289Y022024D02*
X028127Y022091D01*
X027952Y022091D01*
X027790Y022024D01*
X027666Y021900D01*
X027599Y021739D01*
X027599Y020964D01*
X027666Y020802D01*
X027790Y020678D01*
X027952Y020611D01*
X028127Y020611D01*
X028289Y020678D01*
X028412Y020802D01*
X028479Y020964D01*
X028479Y021739D01*
X028412Y021900D01*
X028289Y022024D01*
X028391Y021921D02*
X028787Y021921D01*
X028669Y021803D02*
X028453Y021803D01*
X028479Y021684D02*
X028618Y021684D01*
X028599Y021566D02*
X028479Y021566D01*
X028479Y021447D02*
X028599Y021447D01*
X028599Y021329D02*
X028479Y021329D01*
X028479Y021210D02*
X028599Y021210D01*
X028599Y021092D02*
X028479Y021092D01*
X028479Y020973D02*
X028599Y020973D01*
X028603Y020855D02*
X028434Y020855D01*
X028347Y020736D02*
X028652Y020736D01*
X028750Y020618D02*
X028143Y020618D01*
X027935Y020618D02*
X027505Y020618D01*
X027427Y020736D02*
X027732Y020736D01*
X027644Y020855D02*
X027476Y020855D01*
X027479Y020973D02*
X027599Y020973D01*
X027599Y021092D02*
X027479Y021092D01*
X027479Y021210D02*
X027599Y021210D01*
X027599Y021329D02*
X027479Y021329D01*
X027479Y021447D02*
X027599Y021447D01*
X027599Y021566D02*
X027479Y021566D01*
X027460Y021684D02*
X027599Y021684D01*
X027626Y021803D02*
X027410Y021803D01*
X027291Y021921D02*
X027687Y021921D01*
X027828Y022040D02*
X026250Y022040D01*
X026289Y022024D02*
X026127Y022091D01*
X025952Y022091D01*
X025790Y022024D01*
X025666Y021900D01*
X025599Y021739D01*
X025599Y020964D01*
X025666Y020802D01*
X025790Y020678D01*
X025952Y020611D01*
X026127Y020611D01*
X026289Y020678D01*
X026412Y020802D01*
X026479Y020964D01*
X026479Y021739D01*
X026412Y021900D01*
X026289Y022024D01*
X026391Y021921D02*
X026787Y021921D01*
X026669Y021803D02*
X026453Y021803D01*
X026479Y021684D02*
X026618Y021684D01*
X026599Y021566D02*
X026479Y021566D01*
X026479Y021447D02*
X026599Y021447D01*
X026599Y021329D02*
X026479Y021329D01*
X026479Y021210D02*
X026599Y021210D01*
X026599Y021092D02*
X026479Y021092D01*
X026479Y020973D02*
X026599Y020973D01*
X026603Y020855D02*
X026434Y020855D01*
X026347Y020736D02*
X026652Y020736D01*
X026676Y020618D02*
X026143Y020618D01*
X025935Y020618D02*
X025328Y020618D01*
X025289Y020578D02*
X025412Y020702D01*
X025479Y020864D01*
X025479Y021639D01*
X025412Y021800D01*
X025289Y021924D01*
X025127Y021991D01*
X024952Y021991D01*
X024790Y021924D01*
X024666Y021800D01*
X024599Y021639D01*
X024599Y020864D01*
X024666Y020702D01*
X024790Y020578D01*
X024952Y020511D01*
X025127Y020511D01*
X025289Y020578D01*
X025427Y020736D02*
X025732Y020736D01*
X025644Y020855D02*
X025476Y020855D01*
X025479Y020973D02*
X025599Y020973D01*
X025599Y021092D02*
X025479Y021092D01*
X025479Y021210D02*
X025599Y021210D01*
X025599Y021329D02*
X025479Y021329D01*
X025479Y021447D02*
X025599Y021447D01*
X025599Y021566D02*
X025479Y021566D01*
X025460Y021684D02*
X025599Y021684D01*
X025626Y021803D02*
X025410Y021803D01*
X025291Y021921D02*
X025687Y021921D01*
X025828Y022040D02*
X024250Y022040D01*
X024289Y022024D02*
X024127Y022091D01*
X023952Y022091D01*
X023790Y022024D01*
X023666Y021900D01*
X023599Y021739D01*
X023599Y020964D01*
X023666Y020802D01*
X023790Y020678D01*
X023952Y020611D01*
X024127Y020611D01*
X024289Y020678D01*
X024412Y020802D01*
X024479Y020964D01*
X024479Y021739D01*
X024412Y021900D01*
X024289Y022024D01*
X024391Y021921D02*
X024787Y021921D01*
X024669Y021803D02*
X024453Y021803D01*
X024479Y021684D02*
X024618Y021684D01*
X024599Y021566D02*
X024479Y021566D01*
X024479Y021447D02*
X024599Y021447D01*
X024599Y021329D02*
X024479Y021329D01*
X024479Y021210D02*
X024599Y021210D01*
X024599Y021092D02*
X024479Y021092D01*
X024479Y020973D02*
X024599Y020973D01*
X024603Y020855D02*
X024434Y020855D01*
X024347Y020736D02*
X024652Y020736D01*
X024750Y020618D02*
X024143Y020618D01*
X023935Y020618D02*
X023328Y020618D01*
X023289Y020578D02*
X023412Y020702D01*
X023479Y020864D01*
X023479Y021639D01*
X023412Y021800D01*
X023289Y021924D01*
X023127Y021991D01*
X022952Y021991D01*
X022790Y021924D01*
X022666Y021800D01*
X022599Y021639D01*
X022599Y020864D01*
X022666Y020702D01*
X022790Y020578D01*
X022952Y020511D01*
X023127Y020511D01*
X023289Y020578D01*
X023427Y020736D02*
X023732Y020736D01*
X023644Y020855D02*
X023476Y020855D01*
X023479Y020973D02*
X023599Y020973D01*
X023599Y021092D02*
X023479Y021092D01*
X023479Y021210D02*
X023599Y021210D01*
X023599Y021329D02*
X023479Y021329D01*
X023479Y021447D02*
X023599Y021447D01*
X023599Y021566D02*
X023479Y021566D01*
X023460Y021684D02*
X023599Y021684D01*
X023626Y021803D02*
X023410Y021803D01*
X023291Y021921D02*
X023687Y021921D01*
X023828Y022040D02*
X022250Y022040D01*
X022289Y022024D02*
X022127Y022091D01*
X021952Y022091D01*
X021790Y022024D01*
X021666Y021900D01*
X021599Y021739D01*
X021599Y020964D01*
X021666Y020802D01*
X021790Y020678D01*
X021952Y020611D01*
X022127Y020611D01*
X022289Y020678D01*
X022412Y020802D01*
X022479Y020964D01*
X022479Y021739D01*
X022412Y021900D01*
X022289Y022024D01*
X022391Y021921D02*
X022787Y021921D01*
X022669Y021803D02*
X022453Y021803D01*
X022479Y021684D02*
X022618Y021684D01*
X022599Y021566D02*
X022479Y021566D01*
X022479Y021447D02*
X022599Y021447D01*
X022599Y021329D02*
X022479Y021329D01*
X022479Y021210D02*
X022599Y021210D01*
X022599Y021092D02*
X022479Y021092D01*
X022479Y020973D02*
X022599Y020973D01*
X022603Y020855D02*
X022434Y020855D01*
X022347Y020736D02*
X022652Y020736D01*
X022750Y020618D02*
X022143Y020618D01*
X021935Y020618D02*
X020694Y020618D01*
X020635Y020558D02*
X020758Y020682D01*
X020825Y020844D01*
X020825Y021619D01*
X020758Y021781D01*
X020635Y021904D01*
X020473Y021971D01*
X020298Y021971D01*
X020136Y021904D01*
X020012Y021781D01*
X019945Y021619D01*
X019945Y020844D01*
X020012Y020682D01*
X020136Y020558D01*
X020298Y020491D01*
X020473Y020491D01*
X020635Y020558D01*
X020492Y020499D02*
X026700Y020499D01*
X026780Y020381D02*
X015058Y020381D01*
X014940Y020499D02*
X016278Y020499D01*
X016298Y020491D02*
X016473Y020491D01*
X016635Y020558D01*
X016758Y020682D01*
X016825Y020844D01*
X016825Y021619D01*
X016758Y021781D01*
X016635Y021904D01*
X016473Y021971D01*
X016298Y021971D01*
X016136Y021904D01*
X016012Y021781D01*
X015945Y021619D01*
X015945Y020844D01*
X016012Y020682D01*
X016136Y020558D01*
X016298Y020491D01*
X016492Y020499D02*
X018278Y020499D01*
X018298Y020491D02*
X018473Y020491D01*
X018635Y020558D01*
X018758Y020682D01*
X018825Y020844D01*
X018825Y021619D01*
X018758Y021781D01*
X018635Y021904D01*
X018473Y021971D01*
X018298Y021971D01*
X018136Y021904D01*
X018012Y021781D01*
X017945Y021619D01*
X017945Y020844D01*
X018012Y020682D01*
X018136Y020558D01*
X018298Y020491D01*
X018492Y020499D02*
X020278Y020499D01*
X020077Y020618D02*
X019537Y020618D01*
X019473Y020591D02*
X019635Y020658D01*
X019758Y020782D01*
X019825Y020944D01*
X019825Y021719D01*
X019758Y021881D01*
X019635Y022004D01*
X019473Y022071D01*
X019298Y022071D01*
X019136Y022004D01*
X019012Y021881D01*
X018945Y021719D01*
X018945Y020944D01*
X019012Y020782D01*
X019136Y020658D01*
X019298Y020591D01*
X019473Y020591D01*
X019234Y020618D02*
X018694Y020618D01*
X018781Y020736D02*
X019058Y020736D01*
X018982Y020855D02*
X018825Y020855D01*
X018825Y020973D02*
X018945Y020973D01*
X018945Y021092D02*
X018825Y021092D01*
X018825Y021210D02*
X018945Y021210D01*
X018945Y021329D02*
X018825Y021329D01*
X018825Y021447D02*
X018945Y021447D01*
X018945Y021566D02*
X018825Y021566D01*
X018798Y021684D02*
X018945Y021684D01*
X018980Y021803D02*
X018736Y021803D01*
X018593Y021921D02*
X019053Y021921D01*
X019222Y022040D02*
X017549Y022040D01*
X017473Y022071D02*
X017298Y022071D01*
X017136Y022004D01*
X017012Y021881D01*
X016945Y021719D01*
X016945Y020944D01*
X017012Y020782D01*
X017136Y020658D01*
X017298Y020591D01*
X017473Y020591D01*
X017635Y020658D01*
X017758Y020782D01*
X017825Y020944D01*
X017825Y021719D01*
X017758Y021881D01*
X017635Y022004D01*
X017473Y022071D01*
X017222Y022040D02*
X015549Y022040D01*
X015473Y022071D02*
X015298Y022071D01*
X015136Y022004D01*
X015012Y021881D01*
X014945Y021719D01*
X014945Y020944D01*
X015012Y020782D01*
X015136Y020658D01*
X015298Y020591D01*
X015473Y020591D01*
X015635Y020658D01*
X015758Y020782D01*
X015825Y020944D01*
X015825Y021719D01*
X015758Y021881D01*
X015635Y022004D01*
X015473Y022071D01*
X015222Y022040D02*
X013549Y022040D01*
X013718Y021921D02*
X014140Y021921D01*
X014144Y021925D02*
X014086Y021882D01*
X014035Y021831D01*
X013992Y021772D01*
X013959Y021708D01*
X013937Y021639D01*
X013925Y021568D01*
X013925Y021271D01*
X014345Y021271D01*
X014345Y021991D01*
X014278Y021980D01*
X014209Y021958D01*
X014144Y021925D01*
X014014Y021803D02*
X013791Y021803D01*
X013825Y021684D02*
X013951Y021684D01*
X013925Y021566D02*
X013825Y021566D01*
X013825Y021447D02*
X013925Y021447D01*
X013925Y021329D02*
X013825Y021329D01*
X013825Y021210D02*
X014345Y021210D01*
X014425Y021210D02*
X014945Y021210D01*
X014845Y021271D02*
X014845Y021568D01*
X014834Y021639D01*
X014812Y021708D01*
X014779Y021772D01*
X014736Y021831D01*
X014685Y021882D01*
X014626Y021925D01*
X014562Y021958D01*
X014493Y021980D01*
X014425Y021991D01*
X014425Y021271D01*
X014845Y021271D01*
X014845Y021329D02*
X014945Y021329D01*
X014945Y021447D02*
X014845Y021447D01*
X014845Y021566D02*
X014945Y021566D01*
X014945Y021684D02*
X014819Y021684D01*
X014757Y021803D02*
X014980Y021803D01*
X015053Y021921D02*
X014631Y021921D01*
X014425Y021921D02*
X014345Y021921D01*
X014345Y021803D02*
X014425Y021803D01*
X014425Y021684D02*
X014345Y021684D01*
X014345Y021566D02*
X014425Y021566D01*
X014425Y021447D02*
X014345Y021447D01*
X014345Y021329D02*
X014425Y021329D01*
X014845Y021092D02*
X014945Y021092D01*
X014945Y020973D02*
X014845Y020973D01*
X014839Y020855D02*
X014982Y020855D01*
X015058Y020736D02*
X014802Y020736D01*
X014723Y020618D02*
X015234Y020618D01*
X015537Y020618D02*
X016077Y020618D01*
X015990Y020736D02*
X015713Y020736D01*
X015789Y020855D02*
X015945Y020855D01*
X015945Y020973D02*
X015825Y020973D01*
X015825Y021092D02*
X015945Y021092D01*
X015945Y021210D02*
X015825Y021210D01*
X015825Y021329D02*
X015945Y021329D01*
X015945Y021447D02*
X015825Y021447D01*
X015825Y021566D02*
X015945Y021566D01*
X015973Y021684D02*
X015825Y021684D01*
X015791Y021803D02*
X016035Y021803D01*
X016177Y021921D02*
X015718Y021921D01*
X016593Y021921D02*
X017053Y021921D01*
X016980Y021803D02*
X016736Y021803D01*
X016798Y021684D02*
X016945Y021684D01*
X016945Y021566D02*
X016825Y021566D01*
X016825Y021447D02*
X016945Y021447D01*
X016945Y021329D02*
X016825Y021329D01*
X016825Y021210D02*
X016945Y021210D01*
X016945Y021092D02*
X016825Y021092D01*
X016825Y020973D02*
X016945Y020973D01*
X016982Y020855D02*
X016825Y020855D01*
X016781Y020736D02*
X017058Y020736D01*
X017234Y020618D02*
X016694Y020618D01*
X017537Y020618D02*
X018077Y020618D01*
X017990Y020736D02*
X017713Y020736D01*
X017789Y020855D02*
X017945Y020855D01*
X017945Y020973D02*
X017825Y020973D01*
X017825Y021092D02*
X017945Y021092D01*
X017945Y021210D02*
X017825Y021210D01*
X017825Y021329D02*
X017945Y021329D01*
X017945Y021447D02*
X017825Y021447D01*
X017825Y021566D02*
X017945Y021566D01*
X017973Y021684D02*
X017825Y021684D01*
X017791Y021803D02*
X018035Y021803D01*
X018177Y021921D02*
X017718Y021921D01*
X019549Y022040D02*
X021828Y022040D01*
X021687Y021921D02*
X020593Y021921D01*
X020736Y021803D02*
X021626Y021803D01*
X021599Y021684D02*
X020798Y021684D01*
X020825Y021566D02*
X021599Y021566D01*
X021599Y021447D02*
X020825Y021447D01*
X020825Y021329D02*
X021599Y021329D01*
X021599Y021210D02*
X020825Y021210D01*
X020825Y021092D02*
X021599Y021092D01*
X021599Y020973D02*
X020825Y020973D01*
X020825Y020855D02*
X021644Y020855D01*
X021732Y020736D02*
X020781Y020736D01*
X019990Y020736D02*
X019713Y020736D01*
X019789Y020855D02*
X019945Y020855D01*
X019945Y020973D02*
X019825Y020973D01*
X019825Y021092D02*
X019945Y021092D01*
X019945Y021210D02*
X019825Y021210D01*
X019825Y021329D02*
X019945Y021329D01*
X019945Y021447D02*
X019825Y021447D01*
X019825Y021566D02*
X019945Y021566D01*
X019973Y021684D02*
X019825Y021684D01*
X019791Y021803D02*
X020035Y021803D01*
X020177Y021921D02*
X019718Y021921D01*
X020721Y020144D02*
X015246Y020144D01*
X015295Y020025D02*
X020583Y020025D01*
X020615Y020057D02*
X020615Y020057D01*
X020464Y019907D02*
X015344Y019907D01*
X015359Y019788D02*
X020346Y019788D01*
X020227Y019670D02*
X015359Y019670D01*
X015359Y019551D02*
X020109Y019551D01*
X019990Y019433D02*
X015337Y019433D01*
X015288Y019314D02*
X019872Y019314D01*
X019753Y019196D02*
X015239Y019196D01*
X015160Y019077D02*
X019635Y019077D01*
X019516Y018959D02*
X015042Y018959D01*
X014901Y018840D02*
X019398Y018840D01*
X019279Y018722D02*
X014615Y018722D01*
X014497Y018366D02*
X012510Y018366D01*
X012510Y018485D02*
X019042Y018485D01*
X019161Y018603D02*
X012510Y018603D01*
X012510Y018722D02*
X014164Y018722D01*
X013878Y018840D02*
X012510Y018840D01*
X012510Y018959D02*
X013737Y018959D01*
X013618Y019077D02*
X012510Y019077D01*
X012510Y019196D02*
X013539Y019196D01*
X013490Y019314D02*
X012510Y019314D01*
X012484Y018248D02*
X014379Y018248D01*
X014260Y018129D02*
X012392Y018129D01*
X012253Y018011D02*
X014142Y018011D01*
X014081Y017892D02*
X012118Y017892D01*
X014075Y017774D02*
X008257Y017774D01*
X008139Y017655D02*
X014075Y017655D01*
X014075Y017537D02*
X008020Y017537D01*
X007902Y017418D02*
X014061Y017418D01*
X015177Y020262D02*
X026898Y020262D01*
X026824Y020337D02*
X026824Y020337D01*
X027017Y020144D02*
X023300Y020144D01*
X023300Y020025D02*
X027135Y020025D01*
X027254Y019907D02*
X023300Y019907D01*
X023300Y019788D02*
X027372Y019788D01*
X027392Y019670D02*
X026526Y019670D01*
X026542Y019665D02*
X026460Y019691D01*
X026376Y019705D01*
X026009Y019705D01*
X026009Y019221D01*
X025889Y019221D01*
X025889Y019101D01*
X025024Y019101D01*
X025035Y019034D01*
X025061Y018952D01*
X025100Y018876D01*
X025151Y018807D01*
X025211Y018746D01*
X025280Y018696D01*
X025357Y018657D01*
X025438Y018631D01*
X025523Y018617D01*
X025889Y018617D01*
X025889Y019101D01*
X026009Y019101D01*
X026009Y018617D01*
X026376Y018617D01*
X026460Y018631D01*
X026542Y018657D01*
X026618Y018696D01*
X026687Y018746D01*
X026748Y018807D01*
X026798Y018876D01*
X026837Y018952D01*
X026864Y019034D01*
X026874Y019101D01*
X026009Y019101D01*
X026009Y019221D01*
X026874Y019221D01*
X026864Y019288D01*
X026837Y019370D01*
X026798Y019446D01*
X026748Y019515D01*
X026687Y019576D01*
X026618Y019626D01*
X026542Y019665D01*
X026712Y019551D02*
X027392Y019551D01*
X027392Y019433D02*
X026805Y019433D01*
X026855Y019314D02*
X027392Y019314D01*
X027401Y019196D02*
X026009Y019196D01*
X026009Y019314D02*
X025889Y019314D01*
X025889Y019221D02*
X025889Y019705D01*
X025523Y019705D01*
X025438Y019691D01*
X025357Y019665D01*
X025280Y019626D01*
X025211Y019576D01*
X025151Y019515D01*
X025100Y019446D01*
X025061Y019370D01*
X025035Y019288D01*
X025024Y019221D01*
X025889Y019221D01*
X025889Y019196D02*
X024298Y019196D01*
X024298Y019077D02*
X025028Y019077D01*
X025059Y018959D02*
X024257Y018959D01*
X024194Y018840D02*
X025126Y018840D01*
X025244Y018722D02*
X024076Y018722D01*
X024277Y019314D02*
X025043Y019314D01*
X025094Y019433D02*
X024228Y019433D01*
X024124Y019551D02*
X025187Y019551D01*
X025372Y019670D02*
X023914Y019670D01*
X022656Y019551D02*
X020844Y019551D01*
X020726Y019433D02*
X022552Y019433D01*
X022503Y019314D02*
X020607Y019314D01*
X020489Y019196D02*
X022482Y019196D01*
X022482Y019077D02*
X020370Y019077D01*
X020252Y018959D02*
X022523Y018959D01*
X022586Y018840D02*
X020133Y018840D01*
X020015Y018722D02*
X022704Y018722D01*
X022725Y017300D02*
X026186Y017300D01*
X026186Y017418D02*
X019103Y017418D01*
X019103Y017537D02*
X026186Y017537D01*
X026186Y017655D02*
X019103Y017655D01*
X019103Y017774D02*
X026242Y017774D01*
X026268Y017800D02*
X026186Y017718D01*
X026186Y017008D01*
X026268Y016926D01*
X026977Y016926D01*
X027059Y017008D01*
X027059Y017718D01*
X026977Y017800D01*
X026268Y017800D01*
X026186Y017181D02*
X022725Y017181D01*
X022725Y017063D02*
X026186Y017063D01*
X026249Y016944D02*
X022725Y016944D01*
X024018Y016470D02*
X025282Y016470D01*
X025146Y016352D02*
X024167Y016352D01*
X024246Y016233D02*
X025072Y016233D01*
X025032Y016115D02*
X024295Y016115D01*
X025889Y015878D02*
X026009Y015878D01*
X026009Y015759D02*
X025889Y015759D01*
X025889Y015641D02*
X026009Y015641D01*
X026009Y015522D02*
X025889Y015522D01*
X026866Y016115D02*
X028387Y016115D01*
X028432Y016233D02*
X026827Y016233D01*
X026753Y016352D02*
X028432Y016352D01*
X028432Y016470D02*
X026616Y016470D01*
X026996Y016944D02*
X027205Y016944D01*
X027212Y016938D02*
X027248Y016917D01*
X027289Y016906D01*
X027568Y016906D01*
X027568Y017324D01*
X027645Y017324D01*
X027645Y016906D01*
X027925Y016906D01*
X027965Y016917D01*
X028002Y016938D01*
X028032Y016968D01*
X028053Y017004D01*
X028064Y017045D01*
X028064Y017324D01*
X027645Y017324D01*
X027645Y017401D01*
X028064Y017401D01*
X028064Y017681D01*
X028053Y017721D01*
X028032Y017758D01*
X028002Y017788D01*
X027965Y017809D01*
X027925Y017820D01*
X027645Y017820D01*
X027645Y017401D01*
X027568Y017401D01*
X027568Y017324D01*
X027150Y017324D01*
X027150Y017045D01*
X027161Y017004D01*
X027182Y016968D01*
X027212Y016938D01*
X027150Y017063D02*
X027059Y017063D01*
X027059Y017181D02*
X027150Y017181D01*
X027150Y017300D02*
X027059Y017300D01*
X027059Y017418D02*
X027150Y017418D01*
X027150Y017401D02*
X027568Y017401D01*
X027568Y017820D01*
X027289Y017820D01*
X027248Y017809D01*
X027212Y017788D01*
X027182Y017758D01*
X027161Y017721D01*
X027150Y017681D01*
X027150Y017401D01*
X027150Y017537D02*
X027059Y017537D01*
X027059Y017655D02*
X027150Y017655D01*
X027198Y017774D02*
X027003Y017774D01*
X027568Y017774D02*
X027645Y017774D01*
X027645Y017655D02*
X027568Y017655D01*
X027568Y017537D02*
X027645Y017537D01*
X027645Y017418D02*
X027568Y017418D01*
X027568Y017300D02*
X027645Y017300D01*
X027645Y017181D02*
X027568Y017181D01*
X027568Y017063D02*
X027645Y017063D01*
X027645Y016944D02*
X027568Y016944D01*
X028008Y016944D02*
X028218Y016944D01*
X028154Y017063D02*
X028064Y017063D01*
X028064Y017181D02*
X028154Y017181D01*
X028154Y017300D02*
X028064Y017300D01*
X028064Y017418D02*
X028154Y017418D01*
X028154Y017537D02*
X028064Y017537D01*
X028064Y017655D02*
X028154Y017655D01*
X028211Y017774D02*
X028015Y017774D01*
X028525Y018011D02*
X019357Y018011D01*
X019422Y018129D02*
X028406Y018129D01*
X028288Y018248D02*
X019541Y018248D01*
X019659Y018366D02*
X028169Y018366D01*
X028051Y018485D02*
X019778Y018485D01*
X019896Y018603D02*
X027932Y018603D01*
X027814Y018722D02*
X026654Y018722D01*
X026772Y018840D02*
X027695Y018840D01*
X027577Y018959D02*
X026839Y018959D01*
X026871Y019077D02*
X027458Y019077D01*
X026009Y019077D02*
X025889Y019077D01*
X025889Y018959D02*
X026009Y018959D01*
X026009Y018840D02*
X025889Y018840D01*
X025889Y018722D02*
X026009Y018722D01*
X026009Y019433D02*
X025889Y019433D01*
X025889Y019551D02*
X026009Y019551D01*
X026009Y019670D02*
X025889Y019670D01*
X028643Y017892D02*
X019202Y017892D01*
X020357Y016589D02*
X028432Y016589D01*
X029479Y022158D02*
X001750Y022158D01*
X001625Y022040D02*
X013222Y022040D01*
X013053Y021921D02*
X001537Y021921D01*
X001483Y021803D02*
X012980Y021803D01*
X012945Y021684D02*
X001440Y021684D01*
X001417Y021566D02*
X012945Y021566D01*
X012945Y021447D02*
X001411Y021447D01*
X001411Y021329D02*
X012945Y021329D01*
X012945Y021210D02*
X001411Y021210D01*
X001411Y021092D02*
X012945Y021092D01*
X012945Y020973D02*
X001411Y020973D01*
X001411Y020855D02*
X012982Y020855D01*
X013234Y020618D02*
X003317Y020618D01*
X003950Y019314D02*
X006831Y019314D01*
X006831Y019433D02*
X006460Y019433D01*
X006579Y019551D02*
X006831Y019551D01*
X006730Y019670D02*
X006637Y019670D01*
X006673Y019788D02*
X006681Y019788D01*
X006653Y020025D02*
X006645Y020025D01*
X006688Y020144D02*
X006596Y020144D01*
X006479Y020262D02*
X006747Y020262D01*
X005226Y019196D02*
X003901Y019196D01*
X003821Y019077D02*
X005073Y019077D01*
X004954Y018959D02*
X003703Y018959D01*
X003562Y018840D02*
X004836Y018840D01*
X008001Y018366D02*
X008024Y018366D01*
X006851Y015759D02*
X006053Y015759D01*
X006053Y015641D02*
X006732Y015641D01*
X006614Y015522D02*
X006053Y015522D01*
X006053Y015404D02*
X006495Y015404D01*
X006377Y015285D02*
X006053Y015285D01*
X006053Y015167D02*
X006258Y015167D01*
X006140Y015048D02*
X006053Y015048D01*
X006613Y010782D02*
X006705Y010782D01*
X007274Y009834D02*
X010929Y009834D01*
X010731Y009716D02*
X007274Y009716D01*
X007274Y009597D02*
X010645Y009597D01*
X010602Y009479D02*
X007274Y009479D01*
X007274Y009360D02*
X010602Y009360D01*
X010633Y009242D02*
X007274Y009242D01*
X007274Y009123D02*
X010701Y009123D01*
X010857Y009005D02*
X007274Y009005D01*
X007274Y008102D02*
X007571Y007805D01*
X012522Y007805D01*
X012522Y007820D01*
X007556Y007820D01*
X007438Y007938D02*
X013506Y007938D01*
X013457Y008057D02*
X007319Y008057D01*
X012522Y007820D02*
X012604Y007902D01*
X013076Y007902D01*
X013158Y007820D01*
X013237Y007227D02*
X014719Y007227D01*
X014600Y007109D02*
X013237Y007109D01*
X013237Y006990D02*
X014482Y006990D01*
X014363Y006872D02*
X013237Y006872D01*
X013537Y020618D02*
X014048Y020618D01*
X013968Y020736D02*
X013713Y020736D01*
X013789Y020855D02*
X013932Y020855D01*
X013925Y020973D02*
X013825Y020973D01*
X013825Y021092D02*
X013925Y021092D01*
X001945Y022277D02*
X029361Y022277D01*
D25*
X014389Y019678D03*
X003051Y019678D03*
X003051Y008340D03*
X014389Y008340D03*
M02*
