%
M48
M72
T01C0.0236
T02C0.0394
T03C0.0400
T04C0.0470
T05C0.0512
T06C0.0866
T07C0.1260
%
T01
X27564Y3254
X29218Y5576
X25360Y6324
X25005Y5301
X23273Y3411
X21068Y5340
X18509Y4316
X16462Y4316
X12919Y7033
X12840Y7584
X15871Y7899
X9415Y12939
X7053Y11718
X6974Y10498
X6344Y10498
X3379Y6543
X5230Y5716
X8903Y15065
X9060Y17072
X7683Y18529
X11620Y18687
X14808Y17466
X18785Y17624
X20107Y16285
X22407Y17072
X22982Y19910
X27788Y12716
X27107Y10660
X25045Y9986
X25084Y9395
X30123Y9574
T02
X28591Y11654
X26622Y11654
X26622Y17363
X27607Y17363
X28591Y17363
T03
X29012Y2270
X28012Y2370
X27012Y2270
X26012Y2370
X25012Y2270
X24012Y2370
X22026Y2253
X21026Y2353
X20026Y2253
X19026Y2353
X18026Y2253
X17026Y2353
X11342Y9405
X11442Y10405
X11342Y11405
X11442Y12405
X11342Y13405
X11442Y14405
X12163Y19857
X11163Y19957
X10163Y19857
X9163Y19957
X8163Y19857
X7163Y19957
X6163Y19857
X5163Y19957
X13385Y21331
X14385Y21231
X15385Y21331
X16385Y21231
X17385Y21331
X18385Y21231
X19385Y21331
X20385Y21231
X22039Y21351
X23039Y21251
X24039Y21351
X25039Y21251
X26039Y21351
X27039Y21251
X28039Y21351
X29039Y21251
X2987Y10501
X2987Y11501
X2987Y12501
T04
X12621Y3365
X10653Y3365
X8724Y3365
X6755Y3365
X4779Y3365
X2810Y3365
T05
X25948Y12729
X23389Y12729
X20924Y14379
X23390Y16004
X25949Y16004
X25949Y19161
X23390Y19161
X18365Y14379
T06
X30008Y14410
X25205Y14410
T07
X29966Y4277
X14389Y8340
X3051Y8340
X3051Y19678
X14389Y19678
M30
