G75*
G70*
%OFA0B0*%
%FSLAX24Y24*%
%IPPOS*%
%LPD*%
%AMOC8*
5,1,8,0,0,1.08239X$1,22.5*
%
%ADD10C,0.0000*%
%ADD11C,0.0039*%
D10*
X029336Y004277D02*
X029338Y004327D01*
X029344Y004377D01*
X029354Y004426D01*
X029368Y004474D01*
X029385Y004521D01*
X029406Y004566D01*
X029431Y004610D01*
X029459Y004651D01*
X029491Y004690D01*
X029525Y004727D01*
X029562Y004761D01*
X029602Y004791D01*
X029644Y004818D01*
X029688Y004842D01*
X029734Y004863D01*
X029781Y004879D01*
X029829Y004892D01*
X029879Y004901D01*
X029928Y004906D01*
X029979Y004907D01*
X030029Y004904D01*
X030078Y004897D01*
X030127Y004886D01*
X030175Y004871D01*
X030221Y004853D01*
X030266Y004831D01*
X030309Y004805D01*
X030350Y004776D01*
X030389Y004744D01*
X030425Y004709D01*
X030457Y004671D01*
X030487Y004631D01*
X030514Y004588D01*
X030537Y004544D01*
X030556Y004498D01*
X030572Y004450D01*
X030584Y004401D01*
X030592Y004352D01*
X030596Y004302D01*
X030596Y004252D01*
X030592Y004202D01*
X030584Y004153D01*
X030572Y004104D01*
X030556Y004056D01*
X030537Y004010D01*
X030514Y003966D01*
X030487Y003923D01*
X030457Y003883D01*
X030425Y003845D01*
X030389Y003810D01*
X030350Y003778D01*
X030309Y003749D01*
X030266Y003723D01*
X030221Y003701D01*
X030175Y003683D01*
X030127Y003668D01*
X030078Y003657D01*
X030029Y003650D01*
X029979Y003647D01*
X029928Y003648D01*
X029879Y003653D01*
X029829Y003662D01*
X029781Y003675D01*
X029734Y003691D01*
X029688Y003712D01*
X029644Y003736D01*
X029602Y003763D01*
X029562Y003793D01*
X029525Y003827D01*
X029491Y003864D01*
X029459Y003903D01*
X029431Y003944D01*
X029406Y003988D01*
X029385Y004033D01*
X029368Y004080D01*
X029354Y004128D01*
X029344Y004177D01*
X029338Y004227D01*
X029336Y004277D01*
D11*
X029607Y001160D02*
X001857Y001160D01*
X001808Y001162D01*
X001759Y001168D01*
X001711Y001177D01*
X001664Y001191D01*
X001618Y001208D01*
X001573Y001228D01*
X001530Y001252D01*
X001490Y001279D01*
X001451Y001310D01*
X001415Y001343D01*
X001382Y001379D01*
X001351Y001418D01*
X001324Y001458D01*
X001300Y001501D01*
X001280Y001546D01*
X001263Y001592D01*
X001249Y001639D01*
X001240Y001687D01*
X001234Y001736D01*
X001232Y001785D01*
X001232Y021535D01*
X001238Y021600D01*
X001247Y021663D01*
X001261Y021726D01*
X001278Y021788D01*
X001299Y021849D01*
X001323Y021909D01*
X001352Y021967D01*
X001383Y022023D01*
X001418Y022077D01*
X001456Y022129D01*
X001497Y022178D01*
X001542Y022225D01*
X001589Y022270D01*
X001638Y022311D01*
X001690Y022349D01*
X001744Y022384D01*
X001800Y022415D01*
X001858Y022444D01*
X001918Y022468D01*
X001979Y022489D01*
X002041Y022506D01*
X002104Y022520D01*
X002167Y022529D01*
X002232Y022535D01*
X029357Y022535D01*
X029982Y021910D01*
X029982Y018535D01*
X031107Y017410D01*
X031107Y003285D01*
X030232Y002410D01*
X030232Y001785D01*
X029607Y001160D01*
M02*
