G75*
G70*
%OFA0B0*%
%FSLAX24Y24*%
%IPPOS*%
%LPD*%
%AMOC8*
5,1,8,0,0,1.08239X$1,22.5*
%
%ADD10C,0.0000*%
%ADD11C,0.0039*%
%ADD12C,0.0050*%
%ADD13C,0.0120*%
%ADD14C,0.0100*%
%ADD15C,0.0070*%
%ADD16C,0.0060*%
%ADD17C,0.0090*%
%ADD18C,0.0130*%
%ADD19C,0.0160*%
%ADD20C,0.0080*%
%ADD21R,0.0626X0.0025*%
%ADD22R,0.0625X0.0025*%
%ADD23R,0.0676X0.0025*%
%ADD24R,0.0674X0.0025*%
%ADD25R,0.0774X0.0025*%
%ADD26R,0.0824X0.0025*%
%ADD27R,0.0825X0.0025*%
%ADD28R,0.0874X0.0025*%
%ADD29R,0.0249X0.0025*%
%ADD30R,0.0250X0.0025*%
%ADD31R,0.0275X0.0025*%
%ADD32R,0.0274X0.0025*%
%ADD33R,0.0276X0.0025*%
%ADD34R,0.5850X0.0025*%
%ADD35R,0.6001X0.0025*%
%ADD36R,0.6100X0.0025*%
%ADD37R,0.6150X0.0025*%
%ADD38R,0.6200X0.0025*%
%ADD39R,0.6249X0.0025*%
%ADD40R,0.6301X0.0025*%
%ADD41R,0.6349X0.0025*%
%ADD42R,0.0325X0.0025*%
%ADD43R,0.0324X0.0025*%
%ADD44R,0.0301X0.0025*%
%ADD45R,0.0300X0.0025*%
%ADD46R,0.0251X0.0025*%
%ADD47R,0.4474X0.0025*%
%ADD48R,0.3025X0.0025*%
%ADD49R,0.0050X0.0025*%
%ADD50R,0.1299X0.0025*%
%ADD51R,0.2774X0.0025*%
%ADD52R,0.1150X0.0025*%
%ADD53R,0.3250X0.0025*%
%ADD54R,0.0176X0.0025*%
%ADD55R,0.3376X0.0025*%
%ADD56R,0.3401X0.0025*%
%ADD57R,0.0349X0.0025*%
%ADD58R,0.0199X0.0025*%
%ADD59R,0.0400X0.0025*%
%ADD60R,0.0150X0.0025*%
%ADD61R,0.0200X0.0025*%
%ADD62R,0.0424X0.0025*%
%ADD63R,0.0175X0.0025*%
%ADD64R,0.0475X0.0025*%
%ADD65R,0.0100X0.0025*%
%ADD66R,0.0500X0.0025*%
%ADD67R,0.0201X0.0025*%
%ADD68R,0.0524X0.0025*%
%ADD69R,0.0151X0.0025*%
%ADD70R,0.0426X0.0025*%
%ADD71R,0.0549X0.0025*%
%ADD72R,0.0576X0.0025*%
%ADD73R,0.0600X0.0025*%
%ADD74R,0.0449X0.0025*%
%ADD75R,0.0675X0.0025*%
%ADD76R,0.0225X0.0025*%
%ADD77R,0.0375X0.0025*%
%ADD78R,0.0174X0.0025*%
%ADD79R,0.0149X0.0025*%
%ADD80R,0.0224X0.0025*%
%ADD81R,0.0126X0.0025*%
%ADD82R,0.0124X0.0025*%
%ADD83R,0.0299X0.0025*%
%ADD84R,0.0551X0.0025*%
%ADD85R,0.0451X0.0025*%
%ADD86R,0.0550X0.0025*%
%ADD87R,0.0575X0.0025*%
%ADD88R,0.0526X0.0025*%
%ADD89R,0.1776X0.0025*%
%ADD90R,0.1524X0.0025*%
%ADD91R,0.1751X0.0025*%
%ADD92R,0.1474X0.0025*%
%ADD93R,0.1649X0.0025*%
%ADD94R,0.1349X0.0025*%
D10*
X029336Y004277D02*
X029338Y004327D01*
X029344Y004377D01*
X029354Y004426D01*
X029368Y004474D01*
X029385Y004521D01*
X029406Y004566D01*
X029431Y004610D01*
X029459Y004651D01*
X029491Y004690D01*
X029525Y004727D01*
X029562Y004761D01*
X029602Y004791D01*
X029644Y004818D01*
X029688Y004842D01*
X029734Y004863D01*
X029781Y004879D01*
X029829Y004892D01*
X029879Y004901D01*
X029928Y004906D01*
X029979Y004907D01*
X030029Y004904D01*
X030078Y004897D01*
X030127Y004886D01*
X030175Y004871D01*
X030221Y004853D01*
X030266Y004831D01*
X030309Y004805D01*
X030350Y004776D01*
X030389Y004744D01*
X030425Y004709D01*
X030457Y004671D01*
X030487Y004631D01*
X030514Y004588D01*
X030537Y004544D01*
X030556Y004498D01*
X030572Y004450D01*
X030584Y004401D01*
X030592Y004352D01*
X030596Y004302D01*
X030596Y004252D01*
X030592Y004202D01*
X030584Y004153D01*
X030572Y004104D01*
X030556Y004056D01*
X030537Y004010D01*
X030514Y003966D01*
X030487Y003923D01*
X030457Y003883D01*
X030425Y003845D01*
X030389Y003810D01*
X030350Y003778D01*
X030309Y003749D01*
X030266Y003723D01*
X030221Y003701D01*
X030175Y003683D01*
X030127Y003668D01*
X030078Y003657D01*
X030029Y003650D01*
X029979Y003647D01*
X029928Y003648D01*
X029879Y003653D01*
X029829Y003662D01*
X029781Y003675D01*
X029734Y003691D01*
X029688Y003712D01*
X029644Y003736D01*
X029602Y003763D01*
X029562Y003793D01*
X029525Y003827D01*
X029491Y003864D01*
X029459Y003903D01*
X029431Y003944D01*
X029406Y003988D01*
X029385Y004033D01*
X029368Y004080D01*
X029354Y004128D01*
X029344Y004177D01*
X029338Y004227D01*
X029336Y004277D01*
D11*
X029607Y001160D02*
X001857Y001160D01*
X001808Y001162D01*
X001759Y001168D01*
X001711Y001177D01*
X001664Y001191D01*
X001618Y001208D01*
X001573Y001228D01*
X001530Y001252D01*
X001490Y001279D01*
X001451Y001310D01*
X001415Y001343D01*
X001382Y001379D01*
X001351Y001418D01*
X001324Y001458D01*
X001300Y001501D01*
X001280Y001546D01*
X001263Y001592D01*
X001249Y001639D01*
X001240Y001687D01*
X001234Y001736D01*
X001232Y001785D01*
X001232Y021535D01*
X001238Y021600D01*
X001247Y021663D01*
X001261Y021726D01*
X001278Y021788D01*
X001299Y021849D01*
X001323Y021909D01*
X001352Y021967D01*
X001383Y022023D01*
X001418Y022077D01*
X001456Y022129D01*
X001497Y022178D01*
X001542Y022225D01*
X001589Y022270D01*
X001638Y022311D01*
X001690Y022349D01*
X001744Y022384D01*
X001800Y022415D01*
X001858Y022444D01*
X001918Y022468D01*
X001979Y022489D01*
X002041Y022506D01*
X002104Y022520D01*
X002167Y022529D01*
X002232Y022535D01*
X029357Y022535D01*
X029982Y021910D01*
X029982Y018535D01*
X031107Y017410D01*
X031107Y003285D01*
X030232Y002410D01*
X030232Y001785D01*
X029607Y001160D01*
X015803Y008188D02*
X015803Y019752D01*
X015797Y019761D02*
X015795Y019833D01*
X015788Y019905D01*
X015778Y019977D01*
X015765Y020048D01*
X015747Y020118D01*
X015725Y020187D01*
X015700Y020255D01*
X015672Y020322D01*
X015639Y020387D01*
X015604Y020450D01*
X015565Y020511D01*
X015522Y020569D01*
X015477Y020626D01*
X015429Y020680D01*
X015378Y020731D01*
X015324Y020780D01*
X015267Y020825D01*
X015209Y020867D01*
X015148Y020907D01*
X015085Y020943D01*
X015020Y020975D01*
X014954Y021004D01*
X014886Y021029D01*
X014817Y021051D01*
X014747Y021069D01*
X014676Y021083D01*
X014604Y021093D01*
X014532Y021099D01*
X014460Y021102D01*
X014387Y021101D01*
X014393Y021102D02*
X002973Y021102D01*
X002901Y021100D01*
X002829Y021093D01*
X002757Y021083D01*
X002686Y021070D01*
X002616Y021052D01*
X002547Y021030D01*
X002479Y021005D01*
X002412Y020977D01*
X002347Y020944D01*
X002284Y020909D01*
X002223Y020870D01*
X002165Y020827D01*
X002108Y020782D01*
X002054Y020734D01*
X002003Y020683D01*
X001954Y020629D01*
X001909Y020572D01*
X001867Y020514D01*
X001827Y020453D01*
X001791Y020390D01*
X001759Y020325D01*
X001730Y020259D01*
X001705Y020191D01*
X001683Y020122D01*
X001665Y020052D01*
X001651Y019981D01*
X001641Y019909D01*
X001635Y019837D01*
X001632Y019765D01*
X001633Y019692D01*
X001633Y019702D02*
X001633Y008108D01*
X001639Y008034D01*
X001649Y007960D01*
X001664Y007888D01*
X001681Y007816D01*
X001703Y007745D01*
X001728Y007675D01*
X001757Y007607D01*
X001789Y007540D01*
X001825Y007476D01*
X001864Y007413D01*
X001906Y007352D01*
X001952Y007293D01*
X002000Y007237D01*
X002051Y007184D01*
X002105Y007133D01*
X002162Y007085D01*
X002221Y007040D01*
X002282Y006998D01*
X002345Y006960D01*
X002410Y006924D01*
X002477Y006893D01*
X002545Y006864D01*
X002615Y006840D01*
X002686Y006819D01*
X002758Y006801D01*
X002831Y006788D01*
X002905Y006778D01*
X002978Y006772D01*
X003052Y006770D01*
X003127Y006772D01*
X003200Y006777D01*
X003201Y006778D02*
X014568Y006778D01*
X014637Y006783D01*
X014707Y006792D01*
X014775Y006805D01*
X014843Y006821D01*
X014910Y006841D01*
X014976Y006864D01*
X015040Y006891D01*
X015103Y006921D01*
X015164Y006954D01*
X015224Y006991D01*
X015281Y007031D01*
X015336Y007074D01*
X015388Y007120D01*
X015439Y007169D01*
X015486Y007220D01*
X015531Y007274D01*
X015572Y007330D01*
X015611Y007388D01*
X015646Y007448D01*
X015678Y007510D01*
X015707Y007573D01*
X015732Y007638D01*
X015754Y007705D01*
X015772Y007772D01*
X015786Y007840D01*
X015797Y007909D01*
X015804Y007979D01*
X015808Y008048D01*
X015807Y008118D01*
X015803Y008188D01*
X003470Y010222D02*
X003234Y009986D01*
X002722Y009986D01*
X002446Y010261D01*
X002446Y010734D01*
X002722Y011009D01*
X002486Y011246D01*
X002486Y011757D01*
X002722Y011994D01*
X002486Y012230D01*
X002486Y012742D01*
X002722Y012978D01*
X003234Y012978D01*
X003470Y012742D01*
X003470Y012230D01*
X003234Y011994D01*
X003470Y011757D01*
X003470Y011246D01*
X003234Y011009D01*
X003234Y010970D01*
X003470Y010734D01*
X003470Y010222D01*
D12*
X008080Y014417D02*
X008175Y014417D01*
X008207Y014449D01*
X008207Y014575D01*
X008175Y014607D01*
X008080Y014607D01*
X008080Y014417D01*
X008301Y014417D02*
X008301Y014449D01*
X008428Y014575D01*
X008428Y014607D01*
X008301Y014607D01*
X006240Y014932D02*
X006240Y015049D01*
X006240Y014990D02*
X005890Y014990D01*
X005890Y014932D02*
X005890Y015049D01*
X005890Y015178D02*
X005890Y015353D01*
X005948Y015411D01*
X006065Y015411D01*
X006123Y015353D01*
X006123Y015178D01*
X006123Y015294D02*
X006240Y015411D01*
X006240Y015546D02*
X005890Y015546D01*
X005890Y015779D01*
X005890Y015914D02*
X005890Y016148D01*
X005948Y016148D01*
X006182Y015914D01*
X006240Y015914D01*
X006240Y016148D01*
X006240Y016283D02*
X006240Y016516D01*
X006065Y016651D02*
X006065Y016884D01*
X006065Y017019D02*
X006065Y017253D01*
X005890Y017194D02*
X006065Y017019D01*
X006240Y017194D02*
X005890Y017194D01*
X005890Y016826D02*
X006065Y016651D01*
X005948Y016516D02*
X006182Y016283D01*
X006240Y016283D01*
X005890Y016283D02*
X005890Y016516D01*
X005948Y016516D01*
X005890Y016826D02*
X006240Y016826D01*
X006065Y015663D02*
X006065Y015546D01*
X006240Y015178D02*
X005890Y015178D01*
X005950Y019127D02*
X005918Y019159D01*
X005950Y019127D02*
X006013Y019127D01*
X006045Y019159D01*
X006045Y019191D01*
X006013Y019223D01*
X005950Y019223D01*
X005918Y019254D01*
X005918Y019286D01*
X005950Y019318D01*
X006013Y019318D01*
X006045Y019286D01*
X006139Y019286D02*
X006139Y019159D01*
X006171Y019127D01*
X006234Y019127D01*
X006266Y019159D01*
X006360Y019127D02*
X006487Y019127D01*
X006360Y019127D02*
X006360Y019318D01*
X006266Y019286D02*
X006234Y019318D01*
X006171Y019318D01*
X006139Y019286D01*
X005366Y019286D02*
X005334Y019318D01*
X005271Y019318D01*
X005239Y019286D01*
X005239Y019159D01*
X005271Y019127D01*
X005334Y019127D01*
X005366Y019159D01*
X005145Y019127D02*
X005145Y019318D01*
X005018Y019318D02*
X005145Y019127D01*
X005018Y019127D02*
X005018Y019318D01*
X004608Y019459D02*
X004608Y019523D01*
X004577Y019554D01*
X004450Y019554D01*
X004418Y019523D01*
X004418Y019459D01*
X004450Y019427D01*
X004577Y019427D01*
X004608Y019459D01*
X004608Y019648D02*
X004418Y019648D01*
X004608Y019648D02*
X004608Y019775D01*
X004608Y019869D02*
X004608Y019996D01*
X004608Y020090D02*
X004608Y020186D01*
X004577Y020217D01*
X004450Y020217D01*
X004418Y020186D01*
X004418Y020090D01*
X004608Y020090D01*
X004513Y019933D02*
X004513Y019869D01*
X004418Y019869D02*
X004608Y019869D01*
X004418Y019869D02*
X004418Y019996D01*
X006878Y019286D02*
X006878Y019254D01*
X006910Y019223D01*
X006973Y019223D01*
X007005Y019191D01*
X007005Y019159D01*
X006973Y019127D01*
X006910Y019127D01*
X006878Y019159D01*
X006878Y019286D02*
X006910Y019318D01*
X006973Y019318D01*
X007005Y019286D01*
X007099Y019318D02*
X007194Y019318D01*
X007226Y019286D01*
X007226Y019159D01*
X007194Y019127D01*
X007099Y019127D01*
X007099Y019318D01*
X007320Y019254D02*
X007320Y019127D01*
X007320Y019223D02*
X007447Y019223D01*
X007447Y019254D02*
X007447Y019127D01*
X007447Y019254D02*
X007384Y019318D01*
X007320Y019254D01*
X008018Y019318D02*
X008018Y019127D01*
X008113Y019127D01*
X008145Y019159D01*
X008145Y019286D01*
X008113Y019318D01*
X008018Y019318D01*
X008239Y019286D02*
X008239Y019159D01*
X008271Y019127D01*
X008334Y019127D01*
X008366Y019159D01*
X008366Y019286D02*
X008334Y019318D01*
X008271Y019318D01*
X008239Y019286D01*
X009098Y019318D02*
X009098Y019127D01*
X009193Y019127D01*
X009225Y019159D01*
X009225Y019286D01*
X009193Y019318D01*
X009098Y019318D01*
X009319Y019223D02*
X009446Y019223D01*
X009414Y019318D02*
X009319Y019223D01*
X009414Y019318D02*
X009414Y019127D01*
X009878Y019127D02*
X009878Y019318D01*
X010005Y019127D01*
X010005Y019318D01*
X010099Y019127D02*
X010226Y019318D01*
X010320Y019286D02*
X010320Y019159D01*
X010352Y019127D01*
X010415Y019127D01*
X010447Y019159D01*
X010447Y019286D02*
X010415Y019318D01*
X010352Y019318D01*
X010320Y019286D01*
X010958Y019286D02*
X010958Y019159D01*
X010990Y019127D01*
X011053Y019127D01*
X011085Y019159D01*
X011085Y019223D01*
X011022Y019223D01*
X011085Y019286D02*
X011053Y019318D01*
X010990Y019318D01*
X010958Y019286D01*
X011179Y019318D02*
X011306Y019127D01*
X011306Y019318D01*
X011400Y019318D02*
X011400Y019127D01*
X011495Y019127D01*
X011527Y019159D01*
X011527Y019286D01*
X011495Y019318D01*
X011400Y019318D01*
X011179Y019318D02*
X011179Y019127D01*
X011918Y019159D02*
X011950Y019127D01*
X012013Y019127D01*
X012045Y019159D01*
X012045Y019191D01*
X012013Y019223D01*
X011982Y019223D01*
X012013Y019223D02*
X012045Y019254D01*
X012045Y019286D01*
X012013Y019318D01*
X011950Y019318D01*
X011918Y019286D01*
X012139Y019159D02*
X012171Y019159D01*
X012171Y019127D01*
X012139Y019127D01*
X012139Y019159D01*
X012250Y019159D02*
X012282Y019127D01*
X012345Y019127D01*
X012377Y019159D01*
X012377Y019191D01*
X012345Y019223D01*
X012313Y019223D01*
X012345Y019223D02*
X012377Y019254D01*
X012377Y019286D01*
X012345Y019318D01*
X012282Y019318D01*
X012250Y019286D01*
X012471Y019318D02*
X012471Y019191D01*
X012534Y019127D01*
X012598Y019191D01*
X012598Y019318D01*
X012560Y014518D02*
X012592Y014487D01*
X012592Y014455D01*
X012560Y014423D01*
X012592Y014392D01*
X012592Y014360D01*
X012560Y014328D01*
X012497Y014328D01*
X012465Y014360D01*
X012529Y014423D02*
X012560Y014423D01*
X012560Y014518D02*
X012497Y014518D01*
X012465Y014487D01*
X012308Y014518D02*
X012308Y014328D01*
X012371Y014328D02*
X012244Y014328D01*
X012150Y014360D02*
X012150Y014487D01*
X012118Y014518D01*
X012023Y014518D01*
X012023Y014328D01*
X012118Y014328D01*
X012150Y014360D01*
X012244Y014455D02*
X012308Y014518D01*
X012233Y013489D02*
X012138Y013489D01*
X012138Y013299D01*
X012233Y013299D01*
X012264Y013331D01*
X012264Y013458D01*
X012233Y013489D01*
X012359Y013426D02*
X012422Y013489D01*
X012422Y013299D01*
X012359Y013299D02*
X012485Y013299D01*
X012580Y013299D02*
X012706Y013426D01*
X012706Y013458D01*
X012675Y013489D01*
X012611Y013489D01*
X012580Y013458D01*
X012580Y013299D02*
X012706Y013299D01*
X012543Y012489D02*
X012543Y012299D01*
X012480Y012299D02*
X012606Y012299D01*
X012480Y012426D02*
X012543Y012489D01*
X012322Y012489D02*
X012322Y012299D01*
X012259Y012299D02*
X012385Y012299D01*
X012259Y012426D02*
X012322Y012489D01*
X012164Y012457D02*
X012133Y012489D01*
X012038Y012489D01*
X012038Y012299D01*
X012133Y012299D01*
X012164Y012331D01*
X012164Y012457D01*
X012152Y011489D02*
X012247Y011489D01*
X012279Y011457D01*
X012279Y011330D01*
X012247Y011299D01*
X012152Y011299D01*
X012152Y011489D01*
X012373Y011425D02*
X012436Y011489D01*
X012436Y011299D01*
X012373Y011299D02*
X012500Y011299D01*
X012594Y011330D02*
X012721Y011457D01*
X012721Y011330D01*
X012689Y011299D01*
X012626Y011299D01*
X012594Y011330D01*
X012594Y011457D01*
X012626Y011489D01*
X012689Y011489D01*
X012721Y011457D01*
X012397Y010503D02*
X012333Y010503D01*
X012302Y010471D01*
X012302Y010439D01*
X012333Y010408D01*
X012428Y010408D01*
X012428Y010471D02*
X012397Y010503D01*
X012428Y010471D02*
X012428Y010344D01*
X012397Y010313D01*
X012333Y010313D01*
X012302Y010344D01*
X012207Y010344D02*
X012207Y010471D01*
X012176Y010503D01*
X012081Y010503D01*
X012081Y010313D01*
X012176Y010313D01*
X012207Y010344D01*
X012247Y009488D02*
X012152Y009488D01*
X012152Y009298D01*
X012247Y009298D01*
X012279Y009330D01*
X012279Y009457D01*
X012247Y009488D01*
X012373Y009457D02*
X012373Y009425D01*
X012405Y009393D01*
X012468Y009393D01*
X012500Y009361D01*
X012500Y009330D01*
X012468Y009298D01*
X012405Y009298D01*
X012373Y009330D01*
X012373Y009361D01*
X012405Y009393D01*
X012468Y009393D02*
X012500Y009425D01*
X012500Y009457D01*
X012468Y009488D01*
X012405Y009488D01*
X012373Y009457D01*
D13*
X012564Y008096D02*
X010635Y008096D01*
X010635Y007191D01*
X012564Y007191D01*
X012564Y008096D01*
X012761Y006009D02*
X010596Y006009D01*
X010596Y005183D01*
X012761Y005183D01*
X012761Y006009D01*
X013588Y005025D02*
X013588Y001442D01*
X009730Y001442D01*
X009690Y001482D01*
X009690Y004986D01*
X007919Y005183D02*
X007919Y006009D01*
X005793Y006009D01*
X005793Y005183D01*
X007919Y005183D01*
X005753Y005025D02*
X005753Y001482D01*
X001856Y001442D02*
X001856Y005025D01*
X005753Y005025D01*
X013588Y005025D01*
X014454Y004002D02*
X015360Y004002D01*
X015793Y003962D02*
X015793Y002348D01*
X015360Y002269D02*
X014415Y002269D01*
X013982Y002309D02*
X013982Y003962D01*
X016501Y007033D02*
X017840Y007033D01*
X018234Y007427D01*
X018234Y009120D01*
X017525Y009120D01*
X016816Y009120D02*
X016147Y009120D01*
X016147Y007387D01*
X016501Y007033D01*
X018706Y005931D02*
X019336Y005931D01*
X018706Y005931D02*
X018706Y004159D01*
X018982Y003883D01*
X019375Y003883D01*
X020123Y003883D02*
X020399Y003883D01*
X020753Y004238D01*
X020753Y005931D01*
X020123Y005931D01*
X020990Y005183D02*
X020990Y004238D01*
X022761Y004238D01*
X022761Y005143D01*
X022368Y005143D01*
X022368Y005970D01*
X021383Y005970D01*
X021383Y005222D01*
X021383Y005183D02*
X020990Y005183D01*
X021305Y004198D02*
X021305Y004159D01*
X021895Y004159D02*
X021895Y004198D01*
X022486Y004198D02*
X022486Y004159D01*
X023037Y004198D02*
X023037Y005931D01*
X025123Y005931D01*
X025123Y004198D01*
X024769Y003844D01*
X023431Y003844D01*
X023391Y003844D02*
X023037Y004198D01*
X025793Y004316D02*
X025793Y005773D01*
X027801Y005773D01*
X027801Y004316D01*
X025793Y004316D01*
X026029Y004671D02*
X026031Y004689D01*
X026037Y004705D01*
X026046Y004720D01*
X026059Y004733D01*
X026074Y004742D01*
X026090Y004748D01*
X026108Y004750D01*
X026126Y004748D01*
X026142Y004742D01*
X026157Y004733D01*
X026170Y004720D01*
X026179Y004705D01*
X026185Y004689D01*
X026187Y004671D01*
X026185Y004653D01*
X026179Y004637D01*
X026170Y004622D01*
X026157Y004609D01*
X026142Y004600D01*
X026126Y004594D01*
X026108Y004592D01*
X026090Y004594D01*
X026074Y004600D01*
X026059Y004609D01*
X026046Y004622D01*
X026037Y004637D01*
X026031Y004653D01*
X026029Y004671D01*
X025951Y004671D02*
X025953Y004696D01*
X025959Y004720D01*
X025968Y004742D01*
X025981Y004763D01*
X025997Y004782D01*
X026016Y004798D01*
X026037Y004811D01*
X026059Y004820D01*
X026083Y004826D01*
X026108Y004828D01*
X026133Y004826D01*
X026157Y004820D01*
X026179Y004811D01*
X026200Y004798D01*
X026219Y004782D01*
X026235Y004763D01*
X026248Y004742D01*
X026257Y004720D01*
X026263Y004696D01*
X026265Y004671D01*
X026263Y004646D01*
X026257Y004622D01*
X026248Y004600D01*
X026235Y004579D01*
X026219Y004560D01*
X026200Y004544D01*
X026179Y004531D01*
X026157Y004522D01*
X026133Y004516D01*
X026108Y004514D01*
X026083Y004516D01*
X026059Y004522D01*
X026037Y004531D01*
X026016Y004544D01*
X025997Y004560D01*
X025981Y004579D01*
X025968Y004600D01*
X025959Y004622D01*
X025953Y004646D01*
X025951Y004671D01*
X026265Y007191D02*
X025320Y007191D01*
X025320Y009120D01*
X026265Y009120D01*
X026265Y007191D01*
X026777Y007230D02*
X027722Y007230D01*
X027722Y009120D01*
X026777Y009120D01*
X026777Y007230D01*
X028194Y007191D02*
X028194Y009120D01*
X029139Y009120D01*
X029139Y007191D01*
X028194Y007191D01*
X029612Y007191D02*
X029612Y009120D01*
X030596Y009120D01*
X030596Y007191D01*
X029612Y007191D01*
X022407Y018923D02*
X020517Y018923D01*
X020517Y019868D01*
X022407Y019868D01*
X022407Y018923D01*
X013352Y018293D02*
X013352Y016482D01*
X012564Y016482D01*
X012564Y018293D01*
X013352Y018293D01*
X011698Y020143D02*
X011698Y020183D01*
X011934Y020419D01*
X012446Y020419D01*
X012683Y020183D01*
X011698Y020143D02*
X011423Y020419D01*
X010950Y020419D01*
X010714Y020183D01*
X010675Y020183D01*
X010438Y020419D01*
X009927Y020419D01*
X009690Y020183D01*
X009454Y020419D01*
X008903Y020419D01*
X008667Y020183D01*
X008431Y020419D01*
X007919Y020419D01*
X007683Y020183D01*
X007683Y020143D01*
X007407Y020419D01*
X006895Y020419D01*
X006659Y020183D01*
X006423Y020419D01*
X005950Y020419D01*
X005714Y020183D01*
X005675Y020183D01*
X005438Y020419D01*
X004927Y020419D01*
X004690Y020183D01*
X004690Y020143D01*
X004693Y020182D02*
X004693Y019642D01*
X004933Y019402D01*
X005473Y019402D01*
X005713Y019642D01*
X005753Y018568D02*
X001777Y018568D01*
X001777Y013568D01*
X001816Y013568D02*
X005753Y013568D01*
X005753Y018568D01*
X006383Y017505D02*
X007249Y017505D01*
X007249Y017427D01*
X007053Y017427D01*
X006462Y017427D01*
X006462Y016994D01*
X006974Y016994D01*
X006974Y017348D01*
X006501Y017348D01*
X006501Y017072D01*
X006541Y017033D01*
X006856Y017033D01*
X006895Y017072D01*
X006895Y017269D01*
X006541Y017269D01*
X006541Y017151D01*
X006816Y017151D01*
X007053Y016915D02*
X006383Y016915D01*
X006383Y017505D01*
X007053Y017427D02*
X007053Y016915D01*
X007053Y015183D02*
X006383Y015183D01*
X006383Y014592D01*
X007210Y014592D01*
X007210Y014671D01*
X007092Y014671D01*
X006423Y014671D01*
X006423Y014750D02*
X006423Y014828D01*
X006974Y014828D01*
X006974Y014868D01*
X006934Y014907D01*
X006462Y014907D01*
X006423Y014946D01*
X006462Y014986D02*
X006462Y015065D01*
X006423Y015104D01*
X006895Y015104D01*
X006934Y015065D01*
X006974Y015104D01*
X006974Y014907D01*
X006934Y014986D02*
X006462Y014986D01*
X006423Y014750D02*
X006974Y014750D01*
X007053Y014710D02*
X007092Y014671D01*
X007053Y014710D02*
X007053Y015183D01*
X007761Y009435D02*
X005950Y009435D01*
X005950Y009395D01*
X006620Y009277D02*
X006620Y008450D01*
X005950Y008372D02*
X005950Y008293D01*
X007761Y008293D01*
X007761Y008372D01*
X007761Y009356D02*
X007761Y009435D01*
X004060Y006364D02*
X004060Y005498D01*
X002171Y005498D01*
X002171Y006364D01*
X004060Y006364D01*
X001856Y001442D02*
X009730Y001442D01*
D14*
X013756Y004760D02*
X013756Y005221D01*
X013986Y005221D01*
X014063Y005144D01*
X014063Y004990D01*
X013986Y004914D01*
X013756Y004914D01*
X013910Y004914D02*
X014063Y004760D01*
X014272Y004760D02*
X014579Y004760D01*
X014787Y004837D02*
X014864Y004760D01*
X015018Y004760D01*
X015094Y004837D01*
X015094Y004914D01*
X015018Y004990D01*
X014864Y004990D01*
X014787Y005067D01*
X014787Y005144D01*
X014864Y005221D01*
X015018Y005221D01*
X015094Y005144D01*
X015303Y005221D02*
X015303Y004760D01*
X015610Y004760D01*
X015457Y004990D02*
X015303Y004990D01*
X015303Y005221D02*
X015610Y005221D01*
X015819Y005221D02*
X016126Y005221D01*
X015972Y005221D02*
X015972Y004760D01*
X014579Y005221D02*
X014272Y005221D01*
X014272Y004760D01*
X014272Y004990D02*
X014425Y004990D01*
X012433Y019402D02*
X011953Y019402D01*
X011713Y019642D01*
X011653Y019642D01*
X011413Y019402D01*
X010933Y019402D01*
X010693Y019642D01*
X010453Y019402D01*
X009973Y019402D01*
X009733Y019642D01*
X009673Y019642D01*
X009433Y019402D01*
X008953Y019402D01*
X008713Y019642D01*
X008653Y019642D01*
X008413Y019402D01*
X007933Y019402D01*
X007693Y019642D01*
X007453Y019402D01*
X006913Y019402D01*
X006673Y019642D01*
X006433Y019402D01*
X005953Y019402D01*
X005713Y019642D01*
X012433Y019402D02*
X012673Y019642D01*
X012673Y020182D01*
D15*
X012481Y006538D02*
X012316Y006538D01*
X012316Y006207D01*
X012316Y006317D02*
X012481Y006317D01*
X012536Y006372D01*
X012536Y006483D01*
X012481Y006538D01*
X012678Y006532D02*
X012788Y006532D01*
X012788Y006202D01*
X012678Y006202D01*
X012536Y006207D02*
X012426Y006317D01*
X012168Y006207D02*
X011948Y006207D01*
X011948Y006538D01*
X012168Y006538D01*
X012058Y006372D02*
X011948Y006372D01*
X011799Y006207D02*
X011799Y006538D01*
X011579Y006538D02*
X011579Y006207D01*
X011689Y006317D01*
X011799Y006207D01*
X011431Y006262D02*
X011431Y006483D01*
X011376Y006538D01*
X011266Y006538D01*
X011211Y006483D01*
X011211Y006262D01*
X011266Y006207D01*
X011376Y006207D01*
X011431Y006262D01*
X011063Y006372D02*
X011008Y006317D01*
X010843Y006317D01*
X010843Y006207D02*
X010843Y006538D01*
X011008Y006538D01*
X011063Y006483D01*
X011063Y006372D01*
X010662Y006532D02*
X010552Y006532D01*
X010552Y006202D01*
X010662Y006202D01*
X008143Y006202D02*
X008143Y006532D01*
X008032Y006532D01*
X007889Y006477D02*
X007889Y006367D01*
X007834Y006312D01*
X007669Y006312D01*
X007669Y006202D02*
X007669Y006532D01*
X007834Y006532D01*
X007889Y006477D01*
X007779Y006312D02*
X007889Y006202D01*
X008032Y006202D02*
X008143Y006202D01*
X007521Y006202D02*
X007301Y006202D01*
X007301Y006532D01*
X007521Y006532D01*
X007411Y006367D02*
X007301Y006367D01*
X007153Y006532D02*
X006933Y006532D01*
X007043Y006532D02*
X007043Y006202D01*
X006785Y006202D02*
X006785Y006422D01*
X006674Y006532D01*
X006564Y006422D01*
X006564Y006202D01*
X006416Y006202D02*
X006196Y006202D01*
X006196Y006532D01*
X006416Y006532D01*
X006306Y006367D02*
X006196Y006367D01*
X006048Y006367D02*
X005828Y006367D01*
X005828Y006202D02*
X005828Y006532D01*
X005702Y006532D02*
X005592Y006532D01*
X005592Y006202D01*
X005702Y006202D01*
X006048Y006202D02*
X006048Y006532D01*
X006564Y006367D02*
X006785Y006367D01*
D16*
X006986Y004700D02*
X006941Y004655D01*
X006941Y004475D01*
X006986Y004430D01*
X007076Y004430D01*
X007121Y004475D01*
X007121Y004655D01*
X007076Y004700D01*
X006986Y004700D01*
X007245Y004700D02*
X007245Y004475D01*
X007290Y004430D01*
X007380Y004430D01*
X007425Y004475D01*
X007425Y004700D01*
X007549Y004700D02*
X007729Y004700D01*
X007639Y004700D02*
X007639Y004430D01*
X007853Y004430D02*
X007853Y004700D01*
X007988Y004700D01*
X008033Y004655D01*
X008033Y004565D01*
X007988Y004520D01*
X007853Y004520D01*
X008157Y004475D02*
X008202Y004430D01*
X008292Y004430D01*
X008337Y004475D01*
X008337Y004700D01*
X008460Y004700D02*
X008641Y004700D01*
X008551Y004700D02*
X008551Y004430D01*
X008157Y004475D02*
X008157Y004700D01*
X010314Y007457D02*
X010227Y007543D01*
X010487Y007543D01*
X010487Y007457D02*
X010487Y007630D01*
X010487Y007751D02*
X010227Y007751D01*
X010357Y007795D02*
X010487Y007925D01*
X010400Y007751D02*
X010227Y007925D01*
X007921Y009622D02*
X007748Y009622D01*
X007748Y009882D01*
X007921Y009882D01*
X007834Y009752D02*
X007748Y009752D01*
X007627Y009665D02*
X007627Y009839D01*
X007583Y009882D01*
X007453Y009882D01*
X007453Y009622D01*
X007583Y009622D01*
X007627Y009665D01*
X007332Y009665D02*
X007332Y009839D01*
X007289Y009882D01*
X007202Y009882D01*
X007158Y009839D01*
X007158Y009665D01*
X007202Y009622D01*
X007289Y009622D01*
X007332Y009665D01*
X007049Y009622D02*
X006962Y009622D01*
X007005Y009622D02*
X007005Y009882D01*
X006962Y009882D02*
X007049Y009882D01*
X006841Y009839D02*
X006797Y009882D01*
X006667Y009882D01*
X006667Y009622D01*
X006797Y009622D01*
X006841Y009665D01*
X006841Y009839D01*
X006546Y009752D02*
X006373Y009752D01*
X006251Y009752D02*
X006078Y009752D01*
X006208Y009882D01*
X006208Y009622D01*
X005957Y009622D02*
X005957Y009882D01*
X005870Y009796D01*
X005783Y009882D01*
X005783Y009622D01*
X005763Y010370D02*
X005850Y010370D01*
X005893Y010413D01*
X005893Y010587D01*
X005850Y010630D01*
X005763Y010630D01*
X005720Y010587D01*
X005720Y010413D01*
X005763Y010370D01*
X005599Y010457D02*
X005599Y010630D01*
X005599Y010457D02*
X005512Y010370D01*
X005425Y010457D01*
X005425Y010630D01*
X005304Y010587D02*
X005304Y010500D01*
X005261Y010457D01*
X005131Y010457D01*
X005217Y010457D02*
X005304Y010370D01*
X005131Y010370D02*
X005131Y010630D01*
X005261Y010630D01*
X005304Y010587D01*
X005009Y010630D02*
X004836Y010630D01*
X004836Y010370D01*
X005009Y010370D01*
X004923Y010500D02*
X004836Y010500D01*
X004715Y010457D02*
X004715Y010413D01*
X004671Y010370D01*
X004585Y010370D01*
X004541Y010413D01*
X004585Y010500D02*
X004541Y010544D01*
X004541Y010587D01*
X004585Y010630D01*
X004671Y010630D01*
X004715Y010587D01*
X004671Y010500D02*
X004715Y010457D01*
X004671Y010500D02*
X004585Y010500D01*
X004420Y010500D02*
X004247Y010500D01*
X004126Y010457D02*
X004082Y010500D01*
X003952Y010500D01*
X003952Y010413D01*
X003995Y010370D01*
X004082Y010370D01*
X004126Y010413D01*
X004126Y010457D01*
X004039Y010587D02*
X003952Y010500D01*
X004039Y010587D02*
X004126Y010630D01*
X003831Y010587D02*
X003831Y010413D01*
X003787Y010370D01*
X003657Y010370D01*
X003657Y010630D01*
X003787Y010630D01*
X003831Y010587D01*
X003956Y011433D02*
X004043Y011433D01*
X004086Y011476D01*
X004207Y011476D02*
X004251Y011433D01*
X004337Y011433D01*
X004381Y011476D01*
X004207Y011476D02*
X004207Y011650D01*
X004251Y011693D01*
X004337Y011693D01*
X004381Y011650D01*
X004086Y011650D02*
X004043Y011693D01*
X003956Y011693D01*
X003913Y011650D01*
X003913Y011476D01*
X003956Y011433D01*
X003791Y011520D02*
X003791Y011693D01*
X003618Y011693D02*
X003618Y011520D01*
X003705Y011433D01*
X003791Y011520D01*
X003748Y012378D02*
X003791Y012421D01*
X003791Y012508D01*
X003705Y012508D01*
X003791Y012595D02*
X003748Y012638D01*
X003661Y012638D01*
X003618Y012595D01*
X003618Y012421D01*
X003661Y012378D01*
X003748Y012378D01*
X003913Y012378D02*
X003913Y012638D01*
X004086Y012378D01*
X004086Y012638D01*
X004207Y012638D02*
X004337Y012638D01*
X004381Y012595D01*
X004381Y012421D01*
X004337Y012378D01*
X004207Y012378D01*
X004207Y012638D01*
X012577Y018475D02*
X012750Y018475D01*
X012663Y018475D02*
X012663Y018736D01*
X012577Y018649D01*
X012871Y018692D02*
X012871Y018519D01*
X013045Y018692D01*
X013045Y018519D01*
X013001Y018475D01*
X012915Y018475D01*
X012871Y018519D01*
X012871Y018692D02*
X012915Y018736D01*
X013001Y018736D01*
X013045Y018692D01*
X013166Y018736D02*
X013166Y018475D01*
X013166Y018562D02*
X013339Y018736D01*
X013209Y018605D02*
X013339Y018475D01*
X020074Y019100D02*
X020335Y019100D01*
X020335Y019014D02*
X020335Y019187D01*
X020291Y019308D02*
X020118Y019308D01*
X020074Y019352D01*
X020074Y019438D01*
X020118Y019482D01*
X020291Y019308D01*
X020335Y019352D01*
X020335Y019438D01*
X020291Y019482D01*
X020118Y019482D01*
X020074Y019603D02*
X020074Y019733D01*
X020118Y019777D01*
X020205Y019777D01*
X020248Y019733D01*
X020248Y019603D01*
X020335Y019603D02*
X020074Y019603D01*
X020248Y019690D02*
X020335Y019777D01*
X020074Y019100D02*
X020161Y019014D01*
X025354Y009528D02*
X025311Y009485D01*
X025354Y009528D02*
X025441Y009528D01*
X025484Y009485D01*
X025484Y009441D01*
X025311Y009268D01*
X025484Y009268D01*
X025606Y009311D02*
X025779Y009485D01*
X025779Y009311D01*
X025736Y009268D01*
X025649Y009268D01*
X025606Y009311D01*
X025606Y009485D01*
X025649Y009528D01*
X025736Y009528D01*
X025779Y009485D01*
X025900Y009485D02*
X025944Y009528D01*
X026030Y009528D01*
X026074Y009485D01*
X025900Y009311D01*
X025944Y009268D01*
X026030Y009268D01*
X026074Y009311D01*
X026074Y009485D01*
X026195Y009528D02*
X026195Y009268D01*
X026195Y009354D02*
X026368Y009528D01*
X026238Y009398D02*
X026368Y009268D01*
X025900Y009311D02*
X025900Y009485D01*
X027044Y009436D02*
X027131Y009523D01*
X027131Y009263D01*
X027044Y009263D02*
X027218Y009263D01*
X027339Y009263D02*
X027339Y009523D01*
X027382Y009393D02*
X027513Y009263D01*
X027339Y009349D02*
X027513Y009523D01*
X028422Y009436D02*
X028509Y009523D01*
X028509Y009263D01*
X028422Y009263D02*
X028596Y009263D01*
X028717Y009263D02*
X028717Y009523D01*
X028760Y009393D02*
X028891Y009263D01*
X028717Y009349D02*
X028891Y009523D01*
X029602Y009485D02*
X029646Y009528D01*
X029732Y009528D01*
X029776Y009485D01*
X029776Y009441D01*
X029602Y009268D01*
X029776Y009268D01*
X029897Y009311D02*
X030070Y009485D01*
X030070Y009311D01*
X030027Y009268D01*
X029940Y009268D01*
X029897Y009311D01*
X029897Y009485D01*
X029940Y009528D01*
X030027Y009528D01*
X030070Y009485D01*
X030192Y009485D02*
X030235Y009528D01*
X030322Y009528D01*
X030365Y009485D01*
X030192Y009311D01*
X030235Y009268D01*
X030322Y009268D01*
X030365Y009311D01*
X030365Y009485D01*
X030486Y009528D02*
X030486Y009268D01*
X030486Y009354D02*
X030660Y009528D01*
X030530Y009398D02*
X030660Y009268D01*
X030192Y009311D02*
X030192Y009485D01*
X025583Y006295D02*
X025410Y006295D01*
X025410Y006034D01*
X025289Y006034D02*
X025289Y006208D01*
X025410Y006164D02*
X025497Y006164D01*
X025289Y006034D02*
X025159Y006034D01*
X025115Y006078D01*
X025115Y006208D01*
X024994Y006251D02*
X024821Y006078D01*
X024864Y006034D01*
X024951Y006034D01*
X024994Y006078D01*
X024994Y006251D01*
X024951Y006295D01*
X024864Y006295D01*
X024821Y006251D01*
X024821Y006078D01*
X024699Y006034D02*
X024526Y006034D01*
X024613Y006034D02*
X024613Y006295D01*
X024526Y006208D01*
X021211Y006339D02*
X021037Y006339D01*
X021037Y006079D01*
X020916Y006079D02*
X020916Y006252D01*
X021037Y006209D02*
X021124Y006209D01*
X020916Y006079D02*
X020786Y006079D01*
X020743Y006122D01*
X020743Y006252D01*
X020622Y006296D02*
X020448Y006122D01*
X020491Y006079D01*
X020578Y006079D01*
X020622Y006122D01*
X020622Y006296D01*
X020578Y006339D01*
X020491Y006339D01*
X020448Y006296D01*
X020448Y006122D01*
X020327Y006079D02*
X020153Y006079D01*
X020240Y006079D02*
X020240Y006339D01*
X020153Y006252D01*
X018676Y008087D02*
X018676Y008260D01*
X018676Y008173D02*
X018416Y008173D01*
X018503Y008087D01*
X018459Y008381D02*
X018416Y008425D01*
X018416Y008511D01*
X018459Y008555D01*
X018633Y008381D01*
X018676Y008425D01*
X018676Y008511D01*
X018633Y008555D01*
X018459Y008555D01*
X018503Y008676D02*
X018633Y008676D01*
X018676Y008719D01*
X018676Y008849D01*
X018503Y008849D01*
X018546Y008971D02*
X018546Y009057D01*
X018676Y008971D02*
X018416Y008971D01*
X018416Y009144D01*
X018459Y008381D02*
X018633Y008381D01*
X019138Y003697D02*
X019138Y003524D01*
X019051Y003610D02*
X019225Y003610D01*
X020744Y003544D02*
X020744Y003327D01*
X020787Y003284D01*
X020874Y003284D01*
X020917Y003327D01*
X020917Y003544D01*
X021039Y003544D02*
X021212Y003544D01*
X021125Y003544D02*
X021125Y003284D01*
X021333Y003327D02*
X021377Y003284D01*
X021463Y003284D01*
X021507Y003327D01*
X021628Y003327D02*
X021628Y003284D01*
X021628Y003327D02*
X021801Y003500D01*
X021801Y003544D01*
X021628Y003544D01*
X021507Y003500D02*
X021463Y003544D01*
X021377Y003544D01*
X021333Y003500D01*
X021333Y003327D01*
X021923Y003327D02*
X021923Y003370D01*
X021966Y003414D01*
X022053Y003414D01*
X022096Y003370D01*
X022096Y003327D01*
X022053Y003284D01*
X021966Y003284D01*
X021923Y003327D01*
X021966Y003414D02*
X021923Y003457D01*
X021923Y003500D01*
X021966Y003544D01*
X022053Y003544D01*
X022096Y003500D01*
X022096Y003457D01*
X022053Y003414D01*
X022217Y003544D02*
X022217Y003284D01*
X022391Y003284D01*
X022512Y003327D02*
X022685Y003500D01*
X022685Y003327D01*
X022642Y003284D01*
X022555Y003284D01*
X022512Y003327D01*
X022512Y003500D01*
X022555Y003544D01*
X022642Y003544D01*
X022685Y003500D01*
X022807Y003500D02*
X022850Y003544D01*
X022937Y003544D01*
X022980Y003500D01*
X022980Y003327D01*
X022937Y003284D01*
X022850Y003284D01*
X022807Y003327D01*
X022850Y003414D02*
X022980Y003414D01*
X022850Y003414D02*
X022807Y003457D01*
X022807Y003500D01*
X023500Y003610D02*
X023673Y003610D01*
X023587Y003524D02*
X023587Y003697D01*
X027943Y004386D02*
X028204Y004386D01*
X028204Y004559D01*
X028204Y004681D02*
X027943Y004681D01*
X028030Y004767D01*
X027943Y004854D01*
X028204Y004854D01*
X028160Y004975D02*
X028204Y005019D01*
X028204Y005105D01*
X028160Y005149D01*
X028117Y005149D01*
X028074Y005105D01*
X028074Y005062D01*
X028074Y005105D02*
X028030Y005149D01*
X027987Y005149D01*
X027943Y005105D01*
X027943Y005019D01*
X027987Y004975D01*
X027943Y005270D02*
X028074Y005270D01*
X028030Y005357D01*
X028030Y005400D01*
X028074Y005443D01*
X028160Y005443D01*
X028204Y005400D01*
X028204Y005313D01*
X028160Y005270D01*
X027943Y005270D02*
X027943Y005443D01*
X027987Y005564D02*
X027943Y005608D01*
X027943Y005695D01*
X027987Y005738D01*
X028030Y005738D01*
X028074Y005695D01*
X028074Y005608D01*
X028030Y005564D01*
X027987Y005564D01*
X028074Y005608D02*
X028117Y005564D01*
X028160Y005564D01*
X028204Y005608D01*
X028204Y005695D01*
X028160Y005738D01*
X028117Y005738D01*
X028074Y005695D01*
X004464Y005685D02*
X004464Y005859D01*
X004464Y005772D02*
X004203Y005772D01*
X004290Y005685D01*
X004203Y005980D02*
X004464Y005980D01*
X004377Y005980D02*
X004203Y006153D01*
X004333Y006023D02*
X004464Y006153D01*
D17*
X002254Y010464D02*
X002323Y010532D01*
X002323Y010669D01*
X002254Y010737D01*
X002186Y010737D01*
X002117Y010669D01*
X002117Y010532D01*
X002049Y010464D01*
X001981Y010464D01*
X001912Y010532D01*
X001912Y010669D01*
X001981Y010737D01*
X001912Y010924D02*
X002323Y010924D01*
X002323Y011198D01*
X002323Y011385D02*
X001912Y011385D01*
X001912Y011590D01*
X001981Y011658D01*
X002117Y011658D01*
X002186Y011590D01*
X002186Y011385D01*
X002186Y011521D02*
X002323Y011658D01*
X002186Y011845D02*
X002323Y011982D01*
X002186Y012119D01*
X001912Y012119D01*
X001981Y012305D02*
X001912Y012374D01*
X001912Y012511D01*
X001981Y012579D01*
X002254Y012579D01*
X002323Y012511D01*
X002323Y012374D01*
X002254Y012305D01*
X001981Y012305D01*
X001912Y011845D02*
X002186Y011845D01*
X001912Y011198D02*
X001912Y010924D01*
X002117Y010924D02*
X002117Y011061D01*
D18*
X002279Y004741D02*
X002279Y004360D01*
X002089Y004550D02*
X002469Y004550D01*
X002322Y002711D02*
X002322Y002331D01*
X002132Y002521D02*
X002512Y002521D01*
X005061Y002478D02*
X005442Y002478D01*
X006062Y002536D02*
X006442Y002536D01*
X006252Y002726D02*
X006252Y002345D01*
X006195Y004360D02*
X006195Y004741D01*
X006385Y004550D02*
X006004Y004550D01*
X005499Y004565D02*
X005118Y004565D01*
X009034Y002507D02*
X009414Y002507D01*
X009991Y002550D02*
X010372Y002550D01*
X010182Y002740D02*
X010182Y002360D01*
X010139Y004346D02*
X010139Y004726D01*
X010329Y004536D02*
X009948Y004536D01*
X009486Y004522D02*
X009105Y004522D01*
X012964Y004550D02*
X013344Y004550D01*
X013358Y002521D02*
X012978Y002521D01*
D19*
X013570Y004086D02*
X001895Y004086D01*
D20*
X003264Y004718D02*
X003478Y004718D01*
X003371Y004718D02*
X003371Y004397D01*
X003633Y004397D02*
X003846Y004718D01*
X004001Y004664D02*
X004001Y004451D01*
X004054Y004397D01*
X004161Y004397D01*
X004214Y004451D01*
X004214Y004664D02*
X004161Y004718D01*
X004054Y004718D01*
X004001Y004664D01*
X010692Y004614D02*
X010799Y004720D01*
X010799Y004400D01*
X010905Y004400D02*
X010692Y004400D01*
X011060Y004400D02*
X011274Y004614D01*
X011274Y004667D01*
X011220Y004720D01*
X011113Y004720D01*
X011060Y004667D01*
X011060Y004400D02*
X011274Y004400D01*
X011428Y004560D02*
X011642Y004560D01*
X011797Y004667D02*
X011850Y004720D01*
X011957Y004720D01*
X012010Y004667D01*
X012010Y004614D01*
X011797Y004400D01*
X012010Y004400D01*
X012165Y004453D02*
X012165Y004667D01*
X012218Y004720D01*
X012325Y004720D01*
X012379Y004667D01*
X012165Y004453D01*
X012218Y004400D01*
X012325Y004400D01*
X012379Y004453D01*
X012379Y004667D01*
X012533Y004720D02*
X012533Y004507D01*
X012640Y004400D01*
X012747Y004507D01*
X012747Y004720D01*
D21*
G36*
X020325Y013513D02*
X019701Y013481D01*
X019699Y013505D01*
X020323Y013537D01*
X020325Y013513D01*
G37*
D22*
G36*
X024544Y013741D02*
X023922Y013709D01*
X023920Y013733D01*
X024542Y013765D01*
X024544Y013741D01*
G37*
D23*
G36*
X020349Y013540D02*
X019675Y013504D01*
X019673Y013528D01*
X020347Y013564D01*
X020349Y013540D01*
G37*
D24*
G36*
X024567Y013768D02*
X023895Y013732D01*
X023893Y013756D01*
X024565Y013792D01*
X024567Y013768D01*
G37*
D25*
G36*
X024615Y013795D02*
X023843Y013755D01*
X023841Y013779D01*
X024613Y013819D01*
X024615Y013795D01*
G37*
G36*
X024614Y013820D02*
X023842Y013780D01*
X023840Y013804D01*
X024612Y013844D01*
X024614Y013820D01*
G37*
G36*
X020397Y013567D02*
X019625Y013527D01*
X019623Y013551D01*
X020395Y013591D01*
X020397Y013567D01*
G37*
G36*
X020395Y013592D02*
X019623Y013552D01*
X019621Y013576D01*
X020393Y013616D01*
X020395Y013592D01*
G37*
D26*
G36*
X020419Y013619D02*
X019597Y013575D01*
X019595Y013599D01*
X020417Y013643D01*
X020419Y013619D01*
G37*
D27*
G36*
X024638Y013847D02*
X023816Y013803D01*
X023814Y013827D01*
X024636Y013871D01*
X024638Y013847D01*
G37*
D28*
G36*
X024661Y013873D02*
X023789Y013827D01*
X023787Y013851D01*
X024659Y013897D01*
X024661Y013873D01*
G37*
G36*
X024660Y013898D02*
X023788Y013852D01*
X023786Y013876D01*
X024658Y013922D01*
X024660Y013898D01*
G37*
G36*
X024659Y013923D02*
X023787Y013877D01*
X023785Y013901D01*
X024657Y013947D01*
X024659Y013923D01*
G37*
G36*
X024657Y013948D02*
X023785Y013902D01*
X023783Y013926D01*
X024655Y013972D01*
X024657Y013948D01*
G37*
G36*
X024656Y013973D02*
X023784Y013927D01*
X023782Y013951D01*
X024654Y013997D01*
X024656Y013973D01*
G37*
G36*
X020437Y013744D02*
X019565Y013698D01*
X019563Y013722D01*
X020435Y013768D01*
X020437Y013744D01*
G37*
G36*
X020439Y013719D02*
X019567Y013673D01*
X019565Y013697D01*
X020437Y013743D01*
X020439Y013719D01*
G37*
G36*
X020440Y013694D02*
X019568Y013648D01*
X019566Y013672D01*
X020438Y013718D01*
X020440Y013694D01*
G37*
G36*
X020441Y013669D02*
X019569Y013623D01*
X019567Y013647D01*
X020439Y013693D01*
X020441Y013669D01*
G37*
G36*
X020443Y013644D02*
X019571Y013598D01*
X019569Y013622D01*
X020441Y013668D01*
X020443Y013644D01*
G37*
D29*
G36*
X020435Y013770D02*
X020188Y013757D01*
X020187Y013780D01*
X020434Y013793D01*
X020435Y013770D01*
G37*
G36*
X020434Y013795D02*
X020187Y013782D01*
X020186Y013805D01*
X020433Y013818D01*
X020434Y013795D01*
G37*
G36*
X020432Y013820D02*
X020185Y013807D01*
X020184Y013830D01*
X020431Y013843D01*
X020432Y013820D01*
G37*
G36*
X020431Y013845D02*
X020184Y013832D01*
X020183Y013855D01*
X020430Y013868D01*
X020431Y013845D01*
G37*
G36*
X019807Y013811D02*
X019560Y013798D01*
X019559Y013821D01*
X019806Y013834D01*
X019807Y013811D01*
G37*
G36*
X019808Y013786D02*
X019561Y013773D01*
X019560Y013796D01*
X019807Y013809D01*
X019808Y013786D01*
G37*
G36*
X019809Y013761D02*
X019562Y013748D01*
X019561Y013771D01*
X019808Y013784D01*
X019809Y013761D01*
G37*
G36*
X019811Y013736D02*
X019564Y013723D01*
X019563Y013746D01*
X019810Y013759D01*
X019811Y013736D01*
G37*
G36*
X019755Y014760D02*
X019508Y014747D01*
X019507Y014770D01*
X019754Y014783D01*
X019755Y014760D01*
G37*
G36*
X019754Y014785D02*
X019507Y014772D01*
X019506Y014795D01*
X019753Y014808D01*
X019754Y014785D01*
G37*
G36*
X019753Y014810D02*
X019506Y014797D01*
X019505Y014820D01*
X019752Y014833D01*
X019753Y014810D01*
G37*
G36*
X019751Y014835D02*
X019504Y014822D01*
X019503Y014845D01*
X019750Y014858D01*
X019751Y014835D01*
G37*
G36*
X019750Y014860D02*
X019503Y014847D01*
X019502Y014870D01*
X019749Y014883D01*
X019750Y014860D01*
G37*
G36*
X019749Y014885D02*
X019502Y014872D01*
X019501Y014895D01*
X019748Y014908D01*
X019749Y014885D01*
G37*
G36*
X019747Y014910D02*
X019500Y014897D01*
X019499Y014920D01*
X019746Y014933D01*
X019747Y014910D01*
G37*
G36*
X019746Y014935D02*
X019499Y014922D01*
X019498Y014945D01*
X019745Y014958D01*
X019746Y014935D01*
G37*
G36*
X019745Y014960D02*
X019498Y014947D01*
X019497Y014970D01*
X019744Y014983D01*
X019745Y014960D01*
G37*
G36*
X019743Y014985D02*
X019496Y014972D01*
X019495Y014995D01*
X019742Y015008D01*
X019743Y014985D01*
G37*
G36*
X019742Y015010D02*
X019495Y014997D01*
X019494Y015020D01*
X019741Y015033D01*
X019742Y015010D01*
G37*
G36*
X019740Y015035D02*
X019493Y015022D01*
X019492Y015045D01*
X019739Y015058D01*
X019740Y015035D01*
G37*
G36*
X019739Y015059D02*
X019492Y015046D01*
X019491Y015069D01*
X019738Y015082D01*
X019739Y015059D01*
G37*
G36*
X019738Y015084D02*
X019491Y015071D01*
X019490Y015094D01*
X019737Y015107D01*
X019738Y015084D01*
G37*
G36*
X019736Y015109D02*
X019489Y015096D01*
X019488Y015119D01*
X019735Y015132D01*
X019736Y015109D01*
G37*
G36*
X019735Y015134D02*
X019488Y015121D01*
X019487Y015144D01*
X019734Y015157D01*
X019735Y015134D01*
G37*
G36*
X019734Y015159D02*
X019487Y015146D01*
X019486Y015169D01*
X019733Y015182D01*
X019734Y015159D01*
G37*
G36*
X019732Y015184D02*
X019485Y015171D01*
X019484Y015194D01*
X019731Y015207D01*
X019732Y015184D01*
G37*
G36*
X019731Y015209D02*
X019484Y015196D01*
X019483Y015219D01*
X019730Y015232D01*
X019731Y015209D01*
G37*
G36*
X019730Y015234D02*
X019483Y015221D01*
X019482Y015244D01*
X019729Y015257D01*
X019730Y015234D01*
G37*
G36*
X019728Y015259D02*
X019481Y015246D01*
X019480Y015269D01*
X019727Y015282D01*
X019728Y015259D01*
G37*
G36*
X019727Y015284D02*
X019480Y015271D01*
X019479Y015294D01*
X019726Y015307D01*
X019727Y015284D01*
G37*
G36*
X019726Y015309D02*
X019479Y015296D01*
X019478Y015319D01*
X019725Y015332D01*
X019726Y015309D01*
G37*
G36*
X019724Y015334D02*
X019477Y015321D01*
X019476Y015344D01*
X019723Y015357D01*
X019724Y015334D01*
G37*
G36*
X019723Y015359D02*
X019476Y015346D01*
X019475Y015369D01*
X019722Y015382D01*
X019723Y015359D01*
G37*
G36*
X019722Y015384D02*
X019475Y015371D01*
X019474Y015394D01*
X019721Y015407D01*
X019722Y015384D01*
G37*
G36*
X019720Y015409D02*
X019473Y015396D01*
X019472Y015419D01*
X019719Y015432D01*
X019720Y015409D01*
G37*
G36*
X019719Y015434D02*
X019472Y015421D01*
X019471Y015444D01*
X019718Y015457D01*
X019719Y015434D01*
G37*
G36*
X019717Y015459D02*
X019470Y015446D01*
X019469Y015469D01*
X019716Y015482D01*
X019717Y015459D01*
G37*
G36*
X019716Y015484D02*
X019469Y015471D01*
X019468Y015494D01*
X019715Y015507D01*
X019716Y015484D01*
G37*
G36*
X019670Y016333D02*
X019423Y016320D01*
X019422Y016343D01*
X019669Y016356D01*
X019670Y016333D01*
G37*
G36*
X019669Y016358D02*
X019422Y016345D01*
X019421Y016368D01*
X019668Y016381D01*
X019669Y016358D01*
G37*
G36*
X019667Y016383D02*
X019420Y016370D01*
X019419Y016393D01*
X019666Y016406D01*
X019667Y016383D01*
G37*
G36*
X019666Y016408D02*
X019419Y016395D01*
X019418Y016418D01*
X019665Y016431D01*
X019666Y016408D01*
G37*
G36*
X019665Y016432D02*
X019418Y016419D01*
X019417Y016442D01*
X019664Y016455D01*
X019665Y016432D01*
G37*
G36*
X019663Y016457D02*
X019416Y016444D01*
X019415Y016467D01*
X019662Y016480D01*
X019663Y016457D01*
G37*
G36*
X019662Y016482D02*
X019415Y016469D01*
X019414Y016492D01*
X019661Y016505D01*
X019662Y016482D01*
G37*
G36*
X019661Y016507D02*
X019414Y016494D01*
X019413Y016517D01*
X019660Y016530D01*
X019661Y016507D01*
G37*
G36*
X019659Y016532D02*
X019412Y016519D01*
X019411Y016542D01*
X019658Y016555D01*
X019659Y016532D01*
G37*
G36*
X019658Y016557D02*
X019411Y016544D01*
X019410Y016567D01*
X019657Y016580D01*
X019658Y016557D01*
G37*
G36*
X019657Y016582D02*
X019410Y016569D01*
X019409Y016592D01*
X019656Y016605D01*
X019657Y016582D01*
G37*
G36*
X019655Y016607D02*
X019408Y016594D01*
X019407Y016617D01*
X019654Y016630D01*
X019655Y016607D01*
G37*
G36*
X019654Y016632D02*
X019407Y016619D01*
X019406Y016642D01*
X019653Y016655D01*
X019654Y016632D01*
G37*
G36*
X019653Y016657D02*
X019406Y016644D01*
X019405Y016667D01*
X019652Y016680D01*
X019653Y016657D01*
G37*
G36*
X019651Y016682D02*
X019404Y016669D01*
X019403Y016692D01*
X019650Y016705D01*
X019651Y016682D01*
G37*
G36*
X019650Y016707D02*
X019403Y016694D01*
X019402Y016717D01*
X019649Y016730D01*
X019650Y016707D01*
G37*
G36*
X019649Y016732D02*
X019402Y016719D01*
X019401Y016742D01*
X019648Y016755D01*
X019649Y016732D01*
G37*
G36*
X019647Y016757D02*
X019400Y016744D01*
X019399Y016767D01*
X019646Y016780D01*
X019647Y016757D01*
G37*
G36*
X019646Y016782D02*
X019399Y016769D01*
X019398Y016792D01*
X019645Y016805D01*
X019646Y016782D01*
G37*
G36*
X019644Y016807D02*
X019397Y016794D01*
X019396Y016817D01*
X019643Y016830D01*
X019644Y016807D01*
G37*
G36*
X019643Y016832D02*
X019396Y016819D01*
X019395Y016842D01*
X019642Y016855D01*
X019643Y016832D01*
G37*
G36*
X019642Y016857D02*
X019395Y016844D01*
X019394Y016867D01*
X019641Y016880D01*
X019642Y016857D01*
G37*
G36*
X019640Y016882D02*
X019393Y016869D01*
X019392Y016892D01*
X019639Y016905D01*
X019640Y016882D01*
G37*
G36*
X019639Y016907D02*
X019392Y016894D01*
X019391Y016917D01*
X019638Y016930D01*
X019639Y016907D01*
G37*
G36*
X019638Y016932D02*
X019391Y016919D01*
X019390Y016942D01*
X019637Y016955D01*
X019638Y016932D01*
G37*
G36*
X019636Y016957D02*
X019389Y016944D01*
X019388Y016967D01*
X019635Y016980D01*
X019636Y016957D01*
G37*
G36*
X019635Y016982D02*
X019388Y016969D01*
X019387Y016992D01*
X019634Y017005D01*
X019635Y016982D01*
G37*
G36*
X019634Y017007D02*
X019387Y016994D01*
X019386Y017017D01*
X019633Y017030D01*
X019634Y017007D01*
G37*
G36*
X019632Y017032D02*
X019385Y017019D01*
X019384Y017042D01*
X019631Y017055D01*
X019632Y017032D01*
G37*
G36*
X019631Y017057D02*
X019384Y017044D01*
X019383Y017067D01*
X019630Y017080D01*
X019631Y017057D01*
G37*
G36*
X019630Y017082D02*
X019383Y017069D01*
X019382Y017092D01*
X019629Y017105D01*
X019630Y017082D01*
G37*
G36*
X019628Y017106D02*
X019381Y017093D01*
X019380Y017116D01*
X019627Y017129D01*
X019628Y017106D01*
G37*
G36*
X019627Y017131D02*
X019380Y017118D01*
X019379Y017141D01*
X019626Y017154D01*
X019627Y017131D01*
G37*
G36*
X019626Y017156D02*
X019379Y017143D01*
X019378Y017166D01*
X019625Y017179D01*
X019626Y017156D01*
G37*
G36*
X019624Y017181D02*
X019377Y017168D01*
X019376Y017191D01*
X019623Y017204D01*
X019624Y017181D01*
G37*
G36*
X019623Y017206D02*
X019376Y017193D01*
X019375Y017216D01*
X019622Y017229D01*
X019623Y017206D01*
G37*
G36*
X019622Y017231D02*
X019375Y017218D01*
X019374Y017241D01*
X019621Y017254D01*
X019622Y017231D01*
G37*
G36*
X019620Y017256D02*
X019373Y017243D01*
X019372Y017266D01*
X019619Y017279D01*
X019620Y017256D01*
G37*
G36*
X019619Y017281D02*
X019372Y017268D01*
X019371Y017291D01*
X019618Y017304D01*
X019619Y017281D01*
G37*
G36*
X020930Y016651D02*
X020683Y016638D01*
X020682Y016661D01*
X020929Y016674D01*
X020930Y016651D01*
G37*
G36*
X020934Y016576D02*
X020687Y016563D01*
X020686Y016586D01*
X020933Y016599D01*
X020934Y016576D01*
G37*
G36*
X020949Y016302D02*
X020702Y016289D01*
X020701Y016312D01*
X020948Y016325D01*
X020949Y016302D01*
G37*
G36*
X020970Y015902D02*
X020723Y015889D01*
X020722Y015912D01*
X020969Y015925D01*
X020970Y015902D01*
G37*
G36*
X020985Y015628D02*
X020738Y015615D01*
X020737Y015638D01*
X020984Y015651D01*
X020985Y015628D01*
G37*
G36*
X020989Y015553D02*
X020742Y015540D01*
X020741Y015563D01*
X020988Y015576D01*
X020989Y015553D01*
G37*
G36*
X023861Y017085D02*
X023614Y017072D01*
X023613Y017095D01*
X023860Y017108D01*
X023861Y017085D01*
G37*
G36*
X023862Y017060D02*
X023615Y017047D01*
X023614Y017070D01*
X023861Y017083D01*
X023862Y017060D01*
G37*
G36*
X023863Y017035D02*
X023616Y017022D01*
X023615Y017045D01*
X023862Y017058D01*
X023863Y017035D01*
G37*
G36*
X023865Y017010D02*
X023618Y016997D01*
X023617Y017020D01*
X023864Y017033D01*
X023865Y017010D01*
G37*
G36*
X023866Y016985D02*
X023619Y016972D01*
X023618Y016995D01*
X023865Y017008D01*
X023866Y016985D01*
G37*
G36*
X023867Y016961D02*
X023620Y016948D01*
X023619Y016971D01*
X023866Y016984D01*
X023867Y016961D01*
G37*
G36*
X023869Y016936D02*
X023622Y016923D01*
X023621Y016946D01*
X023868Y016959D01*
X023869Y016936D01*
G37*
G36*
X023870Y016911D02*
X023623Y016898D01*
X023622Y016921D01*
X023869Y016934D01*
X023870Y016911D01*
G37*
G36*
X023871Y016886D02*
X023624Y016873D01*
X023623Y016896D01*
X023870Y016909D01*
X023871Y016886D01*
G37*
G36*
X023873Y016861D02*
X023626Y016848D01*
X023625Y016871D01*
X023872Y016884D01*
X023873Y016861D01*
G37*
G36*
X023874Y016836D02*
X023627Y016823D01*
X023626Y016846D01*
X023873Y016859D01*
X023874Y016836D01*
G37*
G36*
X023875Y016811D02*
X023628Y016798D01*
X023627Y016821D01*
X023874Y016834D01*
X023875Y016811D01*
G37*
G36*
X023877Y016786D02*
X023630Y016773D01*
X023629Y016796D01*
X023876Y016809D01*
X023877Y016786D01*
G37*
G36*
X023878Y016761D02*
X023631Y016748D01*
X023630Y016771D01*
X023877Y016784D01*
X023878Y016761D01*
G37*
G36*
X023880Y016736D02*
X023633Y016723D01*
X023632Y016746D01*
X023879Y016759D01*
X023880Y016736D01*
G37*
G36*
X023881Y016711D02*
X023634Y016698D01*
X023633Y016721D01*
X023880Y016734D01*
X023881Y016711D01*
G37*
G36*
X023882Y016686D02*
X023635Y016673D01*
X023634Y016696D01*
X023881Y016709D01*
X023882Y016686D01*
G37*
G36*
X023884Y016661D02*
X023637Y016648D01*
X023636Y016671D01*
X023883Y016684D01*
X023884Y016661D01*
G37*
G36*
X023885Y016636D02*
X023638Y016623D01*
X023637Y016646D01*
X023884Y016659D01*
X023885Y016636D01*
G37*
G36*
X023886Y016611D02*
X023639Y016598D01*
X023638Y016621D01*
X023885Y016634D01*
X023886Y016611D01*
G37*
G36*
X023888Y016586D02*
X023641Y016573D01*
X023640Y016596D01*
X023887Y016609D01*
X023888Y016586D01*
G37*
G36*
X023889Y016561D02*
X023642Y016548D01*
X023641Y016571D01*
X023888Y016584D01*
X023889Y016561D01*
G37*
G36*
X023890Y016536D02*
X023643Y016523D01*
X023642Y016546D01*
X023889Y016559D01*
X023890Y016536D01*
G37*
G36*
X023892Y016511D02*
X023645Y016498D01*
X023644Y016521D01*
X023891Y016534D01*
X023892Y016511D01*
G37*
G36*
X023893Y016486D02*
X023646Y016473D01*
X023645Y016496D01*
X023892Y016509D01*
X023893Y016486D01*
G37*
G36*
X023894Y016461D02*
X023647Y016448D01*
X023646Y016471D01*
X023893Y016484D01*
X023894Y016461D01*
G37*
G36*
X023896Y016436D02*
X023649Y016423D01*
X023648Y016446D01*
X023895Y016459D01*
X023896Y016436D01*
G37*
G36*
X023897Y016411D02*
X023650Y016398D01*
X023649Y016421D01*
X023896Y016434D01*
X023897Y016411D01*
G37*
G36*
X023898Y016386D02*
X023651Y016373D01*
X023650Y016396D01*
X023897Y016409D01*
X023898Y016386D01*
G37*
G36*
X023900Y016361D02*
X023653Y016348D01*
X023652Y016371D01*
X023899Y016384D01*
X023900Y016361D01*
G37*
G36*
X023901Y016336D02*
X023654Y016323D01*
X023653Y016346D01*
X023900Y016359D01*
X023901Y016336D01*
G37*
G36*
X023903Y016311D02*
X023656Y016298D01*
X023655Y016321D01*
X023902Y016334D01*
X023903Y016311D01*
G37*
G36*
X023904Y016286D02*
X023657Y016273D01*
X023656Y016296D01*
X023903Y016309D01*
X023904Y016286D01*
G37*
G36*
X023905Y016262D02*
X023658Y016249D01*
X023657Y016272D01*
X023904Y016285D01*
X023905Y016262D01*
G37*
G36*
X023907Y016237D02*
X023660Y016224D01*
X023659Y016247D01*
X023906Y016260D01*
X023907Y016237D01*
G37*
G36*
X023908Y016212D02*
X023661Y016199D01*
X023660Y016222D01*
X023907Y016235D01*
X023908Y016212D01*
G37*
G36*
X023909Y016187D02*
X023662Y016174D01*
X023661Y016197D01*
X023908Y016210D01*
X023909Y016187D01*
G37*
G36*
X023911Y016162D02*
X023664Y016149D01*
X023663Y016172D01*
X023910Y016185D01*
X023911Y016162D01*
G37*
G36*
X023912Y016137D02*
X023665Y016124D01*
X023664Y016147D01*
X023911Y016160D01*
X023912Y016137D01*
G37*
G36*
X023913Y016112D02*
X023666Y016099D01*
X023665Y016122D01*
X023912Y016135D01*
X023913Y016112D01*
G37*
G36*
X023915Y016087D02*
X023668Y016074D01*
X023667Y016097D01*
X023914Y016110D01*
X023915Y016087D01*
G37*
G36*
X023916Y016062D02*
X023669Y016049D01*
X023668Y016072D01*
X023915Y016085D01*
X023916Y016062D01*
G37*
G36*
X023917Y016037D02*
X023670Y016024D01*
X023669Y016047D01*
X023916Y016060D01*
X023917Y016037D01*
G37*
G36*
X023919Y016012D02*
X023672Y015999D01*
X023671Y016022D01*
X023918Y016035D01*
X023919Y016012D01*
G37*
G36*
X023920Y015987D02*
X023673Y015974D01*
X023672Y015997D01*
X023919Y016010D01*
X023920Y015987D01*
G37*
G36*
X023921Y015962D02*
X023674Y015949D01*
X023673Y015972D01*
X023920Y015985D01*
X023921Y015962D01*
G37*
G36*
X023923Y015937D02*
X023676Y015924D01*
X023675Y015947D01*
X023922Y015960D01*
X023923Y015937D01*
G37*
G36*
X023924Y015912D02*
X023677Y015899D01*
X023676Y015922D01*
X023923Y015935D01*
X023924Y015912D01*
G37*
G36*
X023925Y015887D02*
X023678Y015874D01*
X023677Y015897D01*
X023924Y015910D01*
X023925Y015887D01*
G37*
G36*
X023927Y015862D02*
X023680Y015849D01*
X023679Y015872D01*
X023926Y015885D01*
X023927Y015862D01*
G37*
G36*
X023928Y015837D02*
X023681Y015824D01*
X023680Y015847D01*
X023927Y015860D01*
X023928Y015837D01*
G37*
G36*
X023930Y015812D02*
X023683Y015799D01*
X023682Y015822D01*
X023929Y015835D01*
X023930Y015812D01*
G37*
G36*
X023931Y015787D02*
X023684Y015774D01*
X023683Y015797D01*
X023930Y015810D01*
X023931Y015787D01*
G37*
G36*
X023932Y015762D02*
X023685Y015749D01*
X023684Y015772D01*
X023931Y015785D01*
X023932Y015762D01*
G37*
G36*
X023934Y015737D02*
X023687Y015724D01*
X023686Y015747D01*
X023933Y015760D01*
X023934Y015737D01*
G37*
G36*
X023935Y015712D02*
X023688Y015699D01*
X023687Y015722D01*
X023934Y015735D01*
X023935Y015712D01*
G37*
G36*
X023936Y015687D02*
X023689Y015674D01*
X023688Y015697D01*
X023935Y015710D01*
X023936Y015687D01*
G37*
G36*
X023938Y015662D02*
X023691Y015649D01*
X023690Y015672D01*
X023937Y015685D01*
X023938Y015662D01*
G37*
G36*
X023939Y015637D02*
X023692Y015624D01*
X023691Y015647D01*
X023938Y015660D01*
X023939Y015637D01*
G37*
G36*
X023940Y015612D02*
X023693Y015599D01*
X023692Y015622D01*
X023939Y015635D01*
X023940Y015612D01*
G37*
G36*
X023942Y015588D02*
X023695Y015575D01*
X023694Y015598D01*
X023941Y015611D01*
X023942Y015588D01*
G37*
G36*
X023943Y015563D02*
X023696Y015550D01*
X023695Y015573D01*
X023942Y015586D01*
X023943Y015563D01*
G37*
G36*
X023944Y015538D02*
X023697Y015525D01*
X023696Y015548D01*
X023943Y015561D01*
X023944Y015538D01*
G37*
G36*
X023946Y015513D02*
X023699Y015500D01*
X023698Y015523D01*
X023945Y015536D01*
X023946Y015513D01*
G37*
G36*
X023947Y015488D02*
X023700Y015475D01*
X023699Y015498D01*
X023946Y015511D01*
X023947Y015488D01*
G37*
G36*
X023948Y015463D02*
X023701Y015450D01*
X023700Y015473D01*
X023947Y015486D01*
X023948Y015463D01*
G37*
G36*
X023950Y015438D02*
X023703Y015425D01*
X023702Y015448D01*
X023949Y015461D01*
X023950Y015438D01*
G37*
G36*
X023951Y015413D02*
X023704Y015400D01*
X023703Y015423D01*
X023950Y015436D01*
X023951Y015413D01*
G37*
G36*
X023953Y015388D02*
X023706Y015375D01*
X023705Y015398D01*
X023952Y015411D01*
X023953Y015388D01*
G37*
G36*
X023954Y015363D02*
X023707Y015350D01*
X023706Y015373D01*
X023953Y015386D01*
X023954Y015363D01*
G37*
G36*
X023955Y015338D02*
X023708Y015325D01*
X023707Y015348D01*
X023954Y015361D01*
X023955Y015338D01*
G37*
G36*
X023957Y015313D02*
X023710Y015300D01*
X023709Y015323D01*
X023956Y015336D01*
X023957Y015313D01*
G37*
G36*
X023958Y015288D02*
X023711Y015275D01*
X023710Y015298D01*
X023957Y015311D01*
X023958Y015288D01*
G37*
G36*
X023959Y015263D02*
X023712Y015250D01*
X023711Y015273D01*
X023958Y015286D01*
X023959Y015263D01*
G37*
G36*
X023961Y015238D02*
X023714Y015225D01*
X023713Y015248D01*
X023960Y015261D01*
X023961Y015238D01*
G37*
G36*
X023962Y015213D02*
X023715Y015200D01*
X023714Y015223D01*
X023961Y015236D01*
X023962Y015213D01*
G37*
G36*
X023963Y015188D02*
X023716Y015175D01*
X023715Y015198D01*
X023962Y015211D01*
X023963Y015188D01*
G37*
G36*
X023965Y015163D02*
X023718Y015150D01*
X023717Y015173D01*
X023964Y015186D01*
X023965Y015163D01*
G37*
G36*
X023966Y015138D02*
X023719Y015125D01*
X023718Y015148D01*
X023965Y015161D01*
X023966Y015138D01*
G37*
G36*
X023967Y015113D02*
X023720Y015100D01*
X023719Y015123D01*
X023966Y015136D01*
X023967Y015113D01*
G37*
G36*
X023969Y015088D02*
X023722Y015075D01*
X023721Y015098D01*
X023968Y015111D01*
X023969Y015088D01*
G37*
G36*
X023970Y015063D02*
X023723Y015050D01*
X023722Y015073D01*
X023969Y015086D01*
X023970Y015063D01*
G37*
G36*
X023971Y015038D02*
X023724Y015025D01*
X023723Y015048D01*
X023970Y015061D01*
X023971Y015038D01*
G37*
G36*
X023973Y015013D02*
X023726Y015000D01*
X023725Y015023D01*
X023972Y015036D01*
X023973Y015013D01*
G37*
G36*
X023974Y014988D02*
X023727Y014975D01*
X023726Y014998D01*
X023973Y015011D01*
X023974Y014988D01*
G37*
G36*
X024026Y014040D02*
X023779Y014027D01*
X023778Y014050D01*
X024025Y014063D01*
X024026Y014040D01*
G37*
G36*
X024027Y014015D02*
X023780Y014002D01*
X023779Y014025D01*
X024026Y014038D01*
X024027Y014015D01*
G37*
G36*
X024028Y013990D02*
X023781Y013977D01*
X023780Y014000D01*
X024027Y014013D01*
X024028Y013990D01*
G37*
G36*
X024030Y013965D02*
X023783Y013952D01*
X023782Y013975D01*
X024029Y013988D01*
X024030Y013965D01*
G37*
G36*
X023859Y017110D02*
X023612Y017097D01*
X023611Y017120D01*
X023858Y017133D01*
X023859Y017110D01*
G37*
G36*
X023858Y017135D02*
X023611Y017122D01*
X023610Y017145D01*
X023857Y017158D01*
X023858Y017135D01*
G37*
G36*
X023857Y017160D02*
X023610Y017147D01*
X023609Y017170D01*
X023856Y017183D01*
X023857Y017160D01*
G37*
G36*
X023855Y017185D02*
X023608Y017172D01*
X023607Y017195D01*
X023854Y017208D01*
X023855Y017185D01*
G37*
G36*
X023854Y017210D02*
X023607Y017197D01*
X023606Y017220D01*
X023853Y017233D01*
X023854Y017210D01*
G37*
G36*
X023852Y017235D02*
X023605Y017222D01*
X023604Y017245D01*
X023851Y017258D01*
X023852Y017235D01*
G37*
G36*
X023851Y017260D02*
X023604Y017247D01*
X023603Y017270D01*
X023850Y017283D01*
X023851Y017260D01*
G37*
G36*
X023850Y017285D02*
X023603Y017272D01*
X023602Y017295D01*
X023849Y017308D01*
X023850Y017285D01*
G37*
G36*
X023848Y017310D02*
X023601Y017297D01*
X023600Y017320D01*
X023847Y017333D01*
X023848Y017310D01*
G37*
G36*
X023847Y017335D02*
X023600Y017322D01*
X023599Y017345D01*
X023846Y017358D01*
X023847Y017335D01*
G37*
G36*
X023846Y017360D02*
X023599Y017347D01*
X023598Y017370D01*
X023845Y017383D01*
X023846Y017360D01*
G37*
G36*
X023844Y017385D02*
X023597Y017372D01*
X023596Y017395D01*
X023843Y017408D01*
X023844Y017385D01*
G37*
G36*
X023843Y017410D02*
X023596Y017397D01*
X023595Y017420D01*
X023842Y017433D01*
X023843Y017410D01*
G37*
G36*
X023842Y017435D02*
X023595Y017422D01*
X023594Y017445D01*
X023841Y017458D01*
X023842Y017435D01*
G37*
G36*
X023840Y017460D02*
X023593Y017447D01*
X023592Y017470D01*
X023839Y017483D01*
X023840Y017460D01*
G37*
G36*
X023839Y017485D02*
X023592Y017472D01*
X023591Y017495D01*
X023838Y017508D01*
X023839Y017485D01*
G37*
G36*
X023838Y017510D02*
X023591Y017497D01*
X023590Y017520D01*
X023837Y017533D01*
X023838Y017510D01*
G37*
D30*
G36*
X025112Y017579D02*
X024863Y017566D01*
X024862Y017589D01*
X025111Y017602D01*
X025112Y017579D01*
G37*
G36*
X025114Y017554D02*
X024865Y017541D01*
X024864Y017564D01*
X025113Y017577D01*
X025114Y017554D01*
G37*
G36*
X025115Y017529D02*
X024866Y017516D01*
X024865Y017539D01*
X025114Y017552D01*
X025115Y017529D01*
G37*
G36*
X025116Y017504D02*
X024867Y017491D01*
X024866Y017514D01*
X025115Y017527D01*
X025116Y017504D01*
G37*
G36*
X025118Y017479D02*
X024869Y017466D01*
X024868Y017489D01*
X025117Y017502D01*
X025118Y017479D01*
G37*
G36*
X025119Y017454D02*
X024870Y017441D01*
X024869Y017464D01*
X025118Y017477D01*
X025119Y017454D01*
G37*
G36*
X025120Y017429D02*
X024871Y017416D01*
X024870Y017439D01*
X025119Y017452D01*
X025120Y017429D01*
G37*
G36*
X025122Y017404D02*
X024873Y017391D01*
X024872Y017414D01*
X025121Y017427D01*
X025122Y017404D01*
G37*
G36*
X025123Y017379D02*
X024874Y017366D01*
X024873Y017389D01*
X025122Y017402D01*
X025123Y017379D01*
G37*
G36*
X025124Y017354D02*
X024875Y017341D01*
X024874Y017364D01*
X025123Y017377D01*
X025124Y017354D01*
G37*
G36*
X025126Y017329D02*
X024877Y017316D01*
X024876Y017339D01*
X025125Y017352D01*
X025126Y017329D01*
G37*
G36*
X025127Y017304D02*
X024878Y017291D01*
X024877Y017314D01*
X025126Y017327D01*
X025127Y017304D01*
G37*
G36*
X025128Y017279D02*
X024879Y017266D01*
X024878Y017289D01*
X025127Y017302D01*
X025128Y017279D01*
G37*
G36*
X025130Y017254D02*
X024881Y017241D01*
X024880Y017264D01*
X025129Y017277D01*
X025130Y017254D01*
G37*
G36*
X025131Y017229D02*
X024882Y017216D01*
X024881Y017239D01*
X025130Y017252D01*
X025131Y017229D01*
G37*
G36*
X025133Y017204D02*
X024884Y017191D01*
X024883Y017214D01*
X025132Y017227D01*
X025133Y017204D01*
G37*
G36*
X025134Y017179D02*
X024885Y017166D01*
X024884Y017189D01*
X025133Y017202D01*
X025134Y017179D01*
G37*
G36*
X025135Y017154D02*
X024886Y017141D01*
X024885Y017164D01*
X025134Y017177D01*
X025135Y017154D01*
G37*
G36*
X025137Y017129D02*
X024888Y017116D01*
X024887Y017139D01*
X025136Y017152D01*
X025137Y017129D01*
G37*
G36*
X025138Y017104D02*
X024889Y017091D01*
X024888Y017114D01*
X025137Y017127D01*
X025138Y017104D01*
G37*
G36*
X025139Y017079D02*
X024890Y017066D01*
X024889Y017089D01*
X025138Y017102D01*
X025139Y017079D01*
G37*
G36*
X025141Y017054D02*
X024892Y017041D01*
X024891Y017064D01*
X025140Y017077D01*
X025141Y017054D01*
G37*
G36*
X025142Y017029D02*
X024893Y017016D01*
X024892Y017039D01*
X025141Y017052D01*
X025142Y017029D01*
G37*
G36*
X025143Y017005D02*
X024894Y016992D01*
X024893Y017015D01*
X025142Y017028D01*
X025143Y017005D01*
G37*
G36*
X025145Y016980D02*
X024896Y016967D01*
X024895Y016990D01*
X025144Y017003D01*
X025145Y016980D01*
G37*
G36*
X025146Y016955D02*
X024897Y016942D01*
X024896Y016965D01*
X025145Y016978D01*
X025146Y016955D01*
G37*
G36*
X025147Y016930D02*
X024898Y016917D01*
X024897Y016940D01*
X025146Y016953D01*
X025147Y016930D01*
G37*
G36*
X025149Y016905D02*
X024900Y016892D01*
X024899Y016915D01*
X025148Y016928D01*
X025149Y016905D01*
G37*
G36*
X025150Y016880D02*
X024901Y016867D01*
X024900Y016890D01*
X025149Y016903D01*
X025150Y016880D01*
G37*
G36*
X025151Y016855D02*
X024902Y016842D01*
X024901Y016865D01*
X025150Y016878D01*
X025151Y016855D01*
G37*
G36*
X025153Y016830D02*
X024904Y016817D01*
X024903Y016840D01*
X025152Y016853D01*
X025153Y016830D01*
G37*
G36*
X025154Y016805D02*
X024905Y016792D01*
X024904Y016815D01*
X025153Y016828D01*
X025154Y016805D01*
G37*
G36*
X025156Y016780D02*
X024907Y016767D01*
X024906Y016790D01*
X025155Y016803D01*
X025156Y016780D01*
G37*
G36*
X025157Y016755D02*
X024908Y016742D01*
X024907Y016765D01*
X025156Y016778D01*
X025157Y016755D01*
G37*
G36*
X025158Y016730D02*
X024909Y016717D01*
X024908Y016740D01*
X025157Y016753D01*
X025158Y016730D01*
G37*
G36*
X025160Y016705D02*
X024911Y016692D01*
X024910Y016715D01*
X025159Y016728D01*
X025160Y016705D01*
G37*
G36*
X025161Y016680D02*
X024912Y016667D01*
X024911Y016690D01*
X025160Y016703D01*
X025161Y016680D01*
G37*
G36*
X025162Y016655D02*
X024913Y016642D01*
X024912Y016665D01*
X025161Y016678D01*
X025162Y016655D01*
G37*
G36*
X025164Y016630D02*
X024915Y016617D01*
X024914Y016640D01*
X025163Y016653D01*
X025164Y016630D01*
G37*
G36*
X025165Y016605D02*
X024916Y016592D01*
X024915Y016615D01*
X025164Y016628D01*
X025165Y016605D01*
G37*
G36*
X025166Y016580D02*
X024917Y016567D01*
X024916Y016590D01*
X025165Y016603D01*
X025166Y016580D01*
G37*
G36*
X025168Y016555D02*
X024919Y016542D01*
X024918Y016565D01*
X025167Y016578D01*
X025168Y016555D01*
G37*
G36*
X025169Y016530D02*
X024920Y016517D01*
X024919Y016540D01*
X025168Y016553D01*
X025169Y016530D01*
G37*
G36*
X025170Y016505D02*
X024921Y016492D01*
X024920Y016515D01*
X025169Y016528D01*
X025170Y016505D01*
G37*
G36*
X025172Y016480D02*
X024923Y016467D01*
X024922Y016490D01*
X025171Y016503D01*
X025172Y016480D01*
G37*
G36*
X025173Y016455D02*
X024924Y016442D01*
X024923Y016465D01*
X025172Y016478D01*
X025173Y016455D01*
G37*
G36*
X025174Y016430D02*
X024925Y016417D01*
X024924Y016440D01*
X025173Y016453D01*
X025174Y016430D01*
G37*
G36*
X025176Y016405D02*
X024927Y016392D01*
X024926Y016415D01*
X025175Y016428D01*
X025176Y016405D01*
G37*
G36*
X025177Y016380D02*
X024928Y016367D01*
X024927Y016390D01*
X025176Y016403D01*
X025177Y016380D01*
G37*
G36*
X025178Y016355D02*
X024929Y016342D01*
X024928Y016365D01*
X025177Y016378D01*
X025178Y016355D01*
G37*
G36*
X025180Y016331D02*
X024931Y016318D01*
X024930Y016341D01*
X025179Y016354D01*
X025180Y016331D01*
G37*
G36*
X025181Y016306D02*
X024932Y016293D01*
X024931Y016316D01*
X025180Y016329D01*
X025181Y016306D01*
G37*
G36*
X025183Y016281D02*
X024934Y016268D01*
X024933Y016291D01*
X025182Y016304D01*
X025183Y016281D01*
G37*
G36*
X025184Y016256D02*
X024935Y016243D01*
X024934Y016266D01*
X025183Y016279D01*
X025184Y016256D01*
G37*
G36*
X025185Y016231D02*
X024936Y016218D01*
X024935Y016241D01*
X025184Y016254D01*
X025185Y016231D01*
G37*
G36*
X025187Y016206D02*
X024938Y016193D01*
X024937Y016216D01*
X025186Y016229D01*
X025187Y016206D01*
G37*
G36*
X025188Y016181D02*
X024939Y016168D01*
X024938Y016191D01*
X025187Y016204D01*
X025188Y016181D01*
G37*
G36*
X025189Y016156D02*
X024940Y016143D01*
X024939Y016166D01*
X025188Y016179D01*
X025189Y016156D01*
G37*
G36*
X025191Y016131D02*
X024942Y016118D01*
X024941Y016141D01*
X025190Y016154D01*
X025191Y016131D01*
G37*
G36*
X025192Y016106D02*
X024943Y016093D01*
X024942Y016116D01*
X025191Y016129D01*
X025192Y016106D01*
G37*
G36*
X025193Y016081D02*
X024944Y016068D01*
X024943Y016091D01*
X025192Y016104D01*
X025193Y016081D01*
G37*
G36*
X025195Y016056D02*
X024946Y016043D01*
X024945Y016066D01*
X025194Y016079D01*
X025195Y016056D01*
G37*
G36*
X025196Y016031D02*
X024947Y016018D01*
X024946Y016041D01*
X025195Y016054D01*
X025196Y016031D01*
G37*
G36*
X025197Y016006D02*
X024948Y015993D01*
X024947Y016016D01*
X025196Y016029D01*
X025197Y016006D01*
G37*
G36*
X025199Y015981D02*
X024950Y015968D01*
X024949Y015991D01*
X025198Y016004D01*
X025199Y015981D01*
G37*
G36*
X025200Y015956D02*
X024951Y015943D01*
X024950Y015966D01*
X025199Y015979D01*
X025200Y015956D01*
G37*
G36*
X025201Y015931D02*
X024952Y015918D01*
X024951Y015941D01*
X025200Y015954D01*
X025201Y015931D01*
G37*
G36*
X025203Y015906D02*
X024954Y015893D01*
X024953Y015916D01*
X025202Y015929D01*
X025203Y015906D01*
G37*
G36*
X025204Y015881D02*
X024955Y015868D01*
X024954Y015891D01*
X025203Y015904D01*
X025204Y015881D01*
G37*
G36*
X025206Y015856D02*
X024957Y015843D01*
X024956Y015866D01*
X025205Y015879D01*
X025206Y015856D01*
G37*
G36*
X025207Y015831D02*
X024958Y015818D01*
X024957Y015841D01*
X025206Y015854D01*
X025207Y015831D01*
G37*
G36*
X025208Y015806D02*
X024959Y015793D01*
X024958Y015816D01*
X025207Y015829D01*
X025208Y015806D01*
G37*
G36*
X025210Y015781D02*
X024961Y015768D01*
X024960Y015791D01*
X025209Y015804D01*
X025210Y015781D01*
G37*
G36*
X025211Y015756D02*
X024962Y015743D01*
X024961Y015766D01*
X025210Y015779D01*
X025211Y015756D01*
G37*
G36*
X025212Y015731D02*
X024963Y015718D01*
X024962Y015741D01*
X025211Y015754D01*
X025212Y015731D01*
G37*
G36*
X025214Y015706D02*
X024965Y015693D01*
X024964Y015716D01*
X025213Y015729D01*
X025214Y015706D01*
G37*
G36*
X025215Y015681D02*
X024966Y015668D01*
X024965Y015691D01*
X025214Y015704D01*
X025215Y015681D01*
G37*
G36*
X025216Y015656D02*
X024967Y015643D01*
X024966Y015666D01*
X025215Y015679D01*
X025216Y015656D01*
G37*
G36*
X025218Y015632D02*
X024969Y015619D01*
X024968Y015642D01*
X025217Y015655D01*
X025218Y015632D01*
G37*
G36*
X025219Y015607D02*
X024970Y015594D01*
X024969Y015617D01*
X025218Y015630D01*
X025219Y015607D01*
G37*
G36*
X025220Y015582D02*
X024971Y015569D01*
X024970Y015592D01*
X025219Y015605D01*
X025220Y015582D01*
G37*
G36*
X025222Y015557D02*
X024973Y015544D01*
X024972Y015567D01*
X025221Y015580D01*
X025222Y015557D01*
G37*
G36*
X025223Y015532D02*
X024974Y015519D01*
X024973Y015542D01*
X025222Y015555D01*
X025223Y015532D01*
G37*
G36*
X025224Y015507D02*
X024975Y015494D01*
X024974Y015517D01*
X025223Y015530D01*
X025224Y015507D01*
G37*
G36*
X025226Y015482D02*
X024977Y015469D01*
X024976Y015492D01*
X025225Y015505D01*
X025226Y015482D01*
G37*
G36*
X025227Y015457D02*
X024978Y015444D01*
X024977Y015467D01*
X025226Y015480D01*
X025227Y015457D01*
G37*
G36*
X025229Y015432D02*
X024980Y015419D01*
X024979Y015442D01*
X025228Y015455D01*
X025229Y015432D01*
G37*
G36*
X025230Y015407D02*
X024981Y015394D01*
X024980Y015417D01*
X025229Y015430D01*
X025230Y015407D01*
G37*
G36*
X025231Y015382D02*
X024982Y015369D01*
X024981Y015392D01*
X025230Y015405D01*
X025231Y015382D01*
G37*
G36*
X025233Y015357D02*
X024984Y015344D01*
X024983Y015367D01*
X025232Y015380D01*
X025233Y015357D01*
G37*
G36*
X025234Y015332D02*
X024985Y015319D01*
X024984Y015342D01*
X025233Y015355D01*
X025234Y015332D01*
G37*
G36*
X025235Y015307D02*
X024986Y015294D01*
X024985Y015317D01*
X025234Y015330D01*
X025235Y015307D01*
G37*
G36*
X025237Y015282D02*
X024988Y015269D01*
X024987Y015292D01*
X025236Y015305D01*
X025237Y015282D01*
G37*
G36*
X025238Y015257D02*
X024989Y015244D01*
X024988Y015267D01*
X025237Y015280D01*
X025238Y015257D01*
G37*
G36*
X025239Y015232D02*
X024990Y015219D01*
X024989Y015242D01*
X025238Y015255D01*
X025239Y015232D01*
G37*
G36*
X025241Y015207D02*
X024992Y015194D01*
X024991Y015217D01*
X025240Y015230D01*
X025241Y015207D01*
G37*
G36*
X025242Y015182D02*
X024993Y015169D01*
X024992Y015192D01*
X025241Y015205D01*
X025242Y015182D01*
G37*
G36*
X025243Y015157D02*
X024994Y015144D01*
X024993Y015167D01*
X025242Y015180D01*
X025243Y015157D01*
G37*
G36*
X025245Y015132D02*
X024996Y015119D01*
X024995Y015142D01*
X025244Y015155D01*
X025245Y015132D01*
G37*
G36*
X025246Y015107D02*
X024997Y015094D01*
X024996Y015117D01*
X025245Y015130D01*
X025246Y015107D01*
G37*
G36*
X025247Y015082D02*
X024998Y015069D01*
X024997Y015092D01*
X025246Y015105D01*
X025247Y015082D01*
G37*
G36*
X025249Y015057D02*
X025000Y015044D01*
X024999Y015067D01*
X025248Y015080D01*
X025249Y015057D01*
G37*
G36*
X025250Y015032D02*
X025001Y015019D01*
X025000Y015042D01*
X025249Y015055D01*
X025250Y015032D01*
G37*
G36*
X025251Y015007D02*
X025002Y014994D01*
X025001Y015017D01*
X025250Y015030D01*
X025251Y015007D01*
G37*
G36*
X025253Y014982D02*
X025004Y014969D01*
X025003Y014992D01*
X025252Y015005D01*
X025253Y014982D01*
G37*
G36*
X025254Y014958D02*
X025005Y014945D01*
X025004Y014968D01*
X025253Y014981D01*
X025254Y014958D01*
G37*
G36*
X025256Y014933D02*
X025007Y014920D01*
X025006Y014943D01*
X025255Y014956D01*
X025256Y014933D01*
G37*
G36*
X025257Y014908D02*
X025008Y014895D01*
X025007Y014918D01*
X025256Y014931D01*
X025257Y014908D01*
G37*
G36*
X025258Y014883D02*
X025009Y014870D01*
X025008Y014893D01*
X025257Y014906D01*
X025258Y014883D01*
G37*
G36*
X025260Y014858D02*
X025011Y014845D01*
X025010Y014868D01*
X025259Y014881D01*
X025260Y014858D01*
G37*
G36*
X025261Y014833D02*
X025012Y014820D01*
X025011Y014843D01*
X025260Y014856D01*
X025261Y014833D01*
G37*
G36*
X025262Y014808D02*
X025013Y014795D01*
X025012Y014818D01*
X025261Y014831D01*
X025262Y014808D01*
G37*
G36*
X025264Y014783D02*
X025015Y014770D01*
X025014Y014793D01*
X025263Y014806D01*
X025264Y014783D01*
G37*
G36*
X025265Y014758D02*
X025016Y014745D01*
X025015Y014768D01*
X025264Y014781D01*
X025265Y014758D01*
G37*
G36*
X025266Y014733D02*
X025017Y014720D01*
X025016Y014743D01*
X025265Y014756D01*
X025266Y014733D01*
G37*
G36*
X025268Y014708D02*
X025019Y014695D01*
X025018Y014718D01*
X025267Y014731D01*
X025268Y014708D01*
G37*
G36*
X025269Y014683D02*
X025020Y014670D01*
X025019Y014693D01*
X025268Y014706D01*
X025269Y014683D01*
G37*
G36*
X025270Y014658D02*
X025021Y014645D01*
X025020Y014668D01*
X025269Y014681D01*
X025270Y014658D01*
G37*
G36*
X025272Y014633D02*
X025023Y014620D01*
X025022Y014643D01*
X025271Y014656D01*
X025272Y014633D01*
G37*
G36*
X025273Y014608D02*
X025024Y014595D01*
X025023Y014618D01*
X025272Y014631D01*
X025273Y014608D01*
G37*
G36*
X025274Y014583D02*
X025025Y014570D01*
X025024Y014593D01*
X025273Y014606D01*
X025274Y014583D01*
G37*
G36*
X025276Y014558D02*
X025027Y014545D01*
X025026Y014568D01*
X025275Y014581D01*
X025276Y014558D01*
G37*
G36*
X025277Y014533D02*
X025028Y014520D01*
X025027Y014543D01*
X025276Y014556D01*
X025277Y014533D01*
G37*
G36*
X025279Y014508D02*
X025030Y014495D01*
X025029Y014518D01*
X025278Y014531D01*
X025279Y014508D01*
G37*
G36*
X024650Y014074D02*
X024401Y014061D01*
X024400Y014084D01*
X024649Y014097D01*
X024650Y014074D01*
G37*
G36*
X024651Y014049D02*
X024402Y014036D01*
X024401Y014059D01*
X024650Y014072D01*
X024651Y014049D01*
G37*
G36*
X024653Y014024D02*
X024404Y014011D01*
X024403Y014034D01*
X024652Y014047D01*
X024653Y014024D01*
G37*
G36*
X024654Y013999D02*
X024405Y013986D01*
X024404Y014009D01*
X024653Y014022D01*
X024654Y013999D01*
G37*
G36*
X023532Y015315D02*
X023283Y015302D01*
X023282Y015325D01*
X023531Y015338D01*
X023532Y015315D01*
G37*
G36*
X022613Y015641D02*
X022364Y015628D01*
X022363Y015651D01*
X022612Y015664D01*
X022613Y015641D01*
G37*
G36*
X022609Y015716D02*
X022360Y015703D01*
X022359Y015726D01*
X022608Y015739D01*
X022609Y015716D01*
G37*
G36*
X022594Y015990D02*
X022345Y015977D01*
X022344Y016000D01*
X022593Y016013D01*
X022594Y015990D01*
G37*
G36*
X022573Y016390D02*
X022324Y016377D01*
X022323Y016400D01*
X022572Y016413D01*
X022573Y016390D01*
G37*
G36*
X022558Y016664D02*
X022309Y016651D01*
X022308Y016674D01*
X022557Y016687D01*
X022558Y016664D01*
G37*
G36*
X022554Y016739D02*
X022305Y016726D01*
X022304Y016749D01*
X022553Y016762D01*
X022554Y016739D01*
G37*
G36*
X025111Y017604D02*
X024862Y017591D01*
X024861Y017614D01*
X025110Y017627D01*
X025111Y017604D01*
G37*
G36*
X025110Y017629D02*
X024861Y017616D01*
X024860Y017639D01*
X025109Y017652D01*
X025110Y017629D01*
G37*
G36*
X025108Y017654D02*
X024859Y017641D01*
X024858Y017664D01*
X025107Y017677D01*
X025108Y017654D01*
G37*
G36*
X025107Y017679D02*
X024858Y017666D01*
X024857Y017689D01*
X025106Y017702D01*
X025107Y017679D01*
G37*
G36*
X025105Y017703D02*
X024856Y017690D01*
X024855Y017713D01*
X025104Y017726D01*
X025105Y017703D01*
G37*
G36*
X025104Y017728D02*
X024855Y017715D01*
X024854Y017738D01*
X025103Y017751D01*
X025104Y017728D01*
G37*
G36*
X025103Y017753D02*
X024854Y017740D01*
X024853Y017763D01*
X025102Y017776D01*
X025103Y017753D01*
G37*
G36*
X025101Y017778D02*
X024852Y017765D01*
X024851Y017788D01*
X025100Y017801D01*
X025101Y017778D01*
G37*
G36*
X025100Y017803D02*
X024851Y017790D01*
X024850Y017813D01*
X025099Y017826D01*
X025100Y017803D01*
G37*
G36*
X025099Y017828D02*
X024850Y017815D01*
X024849Y017838D01*
X025098Y017851D01*
X025099Y017828D01*
G37*
G36*
X025097Y017853D02*
X024848Y017840D01*
X024847Y017863D01*
X025096Y017876D01*
X025097Y017853D01*
G37*
G36*
X025096Y017878D02*
X024847Y017865D01*
X024846Y017888D01*
X025095Y017901D01*
X025096Y017878D01*
G37*
G36*
X025095Y017903D02*
X024846Y017890D01*
X024845Y017913D01*
X025094Y017926D01*
X025095Y017903D01*
G37*
G36*
X025093Y017928D02*
X024844Y017915D01*
X024843Y017938D01*
X025092Y017951D01*
X025093Y017928D01*
G37*
G36*
X025092Y017953D02*
X024843Y017940D01*
X024842Y017963D01*
X025091Y017976D01*
X025092Y017953D01*
G37*
G36*
X025091Y017978D02*
X024842Y017965D01*
X024841Y017988D01*
X025090Y018001D01*
X025091Y017978D01*
G37*
G36*
X025089Y018003D02*
X024840Y017990D01*
X024839Y018013D01*
X025088Y018026D01*
X025089Y018003D01*
G37*
G36*
X025088Y018028D02*
X024839Y018015D01*
X024838Y018038D01*
X025087Y018051D01*
X025088Y018028D01*
G37*
G36*
X025087Y018053D02*
X024838Y018040D01*
X024837Y018063D01*
X025086Y018076D01*
X025087Y018053D01*
G37*
G36*
X025085Y018078D02*
X024836Y018065D01*
X024835Y018088D01*
X025084Y018101D01*
X025085Y018078D01*
G37*
G36*
X025084Y018103D02*
X024835Y018090D01*
X024834Y018113D01*
X025083Y018126D01*
X025084Y018103D01*
G37*
G36*
X025083Y018128D02*
X024834Y018115D01*
X024833Y018138D01*
X025082Y018151D01*
X025083Y018128D01*
G37*
D31*
G36*
X022555Y016714D02*
X022282Y016699D01*
X022281Y016722D01*
X022554Y016737D01*
X022555Y016714D01*
G37*
G36*
X022556Y016689D02*
X022283Y016674D01*
X022282Y016697D01*
X022555Y016712D01*
X022556Y016689D01*
G37*
G36*
X022610Y015691D02*
X022337Y015676D01*
X022336Y015699D01*
X022609Y015714D01*
X022610Y015691D01*
G37*
G36*
X022612Y015666D02*
X022339Y015651D01*
X022338Y015674D01*
X022611Y015689D01*
X022612Y015666D01*
G37*
G36*
X023290Y015152D02*
X023017Y015137D01*
X023016Y015160D01*
X023289Y015175D01*
X023290Y015152D01*
G37*
G36*
X023531Y015340D02*
X023258Y015325D01*
X023257Y015348D01*
X023530Y015363D01*
X023531Y015340D01*
G37*
G36*
X021014Y015579D02*
X020741Y015564D01*
X020740Y015587D01*
X021013Y015602D01*
X021014Y015579D01*
G37*
G36*
X021013Y015604D02*
X020740Y015589D01*
X020739Y015612D01*
X021012Y015627D01*
X021013Y015604D01*
G37*
G36*
X020958Y016603D02*
X020685Y016588D01*
X020684Y016611D01*
X020957Y016626D01*
X020958Y016603D01*
G37*
G36*
X020957Y016628D02*
X020684Y016613D01*
X020683Y016636D01*
X020956Y016651D01*
X020957Y016628D01*
G37*
G36*
X018964Y017822D02*
X018691Y017807D01*
X018690Y017830D01*
X018963Y017845D01*
X018964Y017822D01*
G37*
G36*
X018962Y017847D02*
X018689Y017832D01*
X018688Y017855D01*
X018961Y017870D01*
X018962Y017847D01*
G37*
G36*
X019162Y014152D02*
X018889Y014137D01*
X018888Y014160D01*
X019161Y014175D01*
X019162Y014152D01*
G37*
G36*
X019164Y014127D02*
X018891Y014112D01*
X018890Y014135D01*
X019163Y014150D01*
X019164Y014127D01*
G37*
G36*
X019805Y013837D02*
X019532Y013822D01*
X019531Y013845D01*
X019804Y013860D01*
X019805Y013837D01*
G37*
D32*
G36*
X020455Y013872D02*
X020182Y013857D01*
X020181Y013880D01*
X020454Y013895D01*
X020455Y013872D01*
G37*
G36*
X024025Y014065D02*
X023752Y014050D01*
X023751Y014073D01*
X024024Y014088D01*
X024025Y014065D01*
G37*
G36*
X021551Y017211D02*
X021278Y017196D01*
X021277Y017219D01*
X021550Y017234D01*
X021551Y017211D01*
G37*
D33*
G36*
X025081Y018153D02*
X024806Y018138D01*
X024805Y018161D01*
X025080Y018176D01*
X025081Y018153D01*
G37*
G36*
X025080Y018178D02*
X024805Y018163D01*
X024804Y018186D01*
X025079Y018201D01*
X025080Y018178D01*
G37*
G36*
X025280Y014484D02*
X025005Y014469D01*
X025004Y014492D01*
X025279Y014507D01*
X025280Y014484D01*
G37*
G36*
X025281Y014459D02*
X025006Y014444D01*
X025005Y014467D01*
X025280Y014482D01*
X025281Y014459D01*
G37*
G36*
X024675Y014100D02*
X024400Y014085D01*
X024399Y014108D01*
X024674Y014123D01*
X024675Y014100D01*
G37*
D34*
G36*
X025022Y014143D02*
X019181Y013827D01*
X019180Y013851D01*
X025021Y014167D01*
X025022Y014143D01*
G37*
G36*
X024788Y018462D02*
X018947Y018146D01*
X018946Y018170D01*
X024787Y018486D01*
X024788Y018462D01*
G37*
D35*
G36*
X024865Y018441D02*
X018875Y018117D01*
X018873Y018141D01*
X024863Y018465D01*
X024865Y018441D01*
G37*
G36*
X025096Y014172D02*
X019106Y013848D01*
X019104Y013872D01*
X025094Y014196D01*
X025096Y014172D01*
G37*
D36*
G36*
X025145Y014199D02*
X019055Y013871D01*
X019053Y013895D01*
X025143Y014223D01*
X025145Y014199D01*
G37*
G36*
X024917Y018418D02*
X018827Y018090D01*
X018825Y018114D01*
X024915Y018442D01*
X024917Y018418D01*
G37*
D37*
G36*
X024942Y018395D02*
X018802Y018063D01*
X018800Y018087D01*
X024940Y018419D01*
X024942Y018395D01*
G37*
G36*
X025168Y014226D02*
X019028Y013894D01*
X019026Y013918D01*
X025166Y014250D01*
X025168Y014226D01*
G37*
D38*
G36*
X025193Y014252D02*
X019003Y013918D01*
X019001Y013942D01*
X025191Y014276D01*
X025193Y014252D01*
G37*
G36*
X024969Y018371D02*
X018779Y018037D01*
X018777Y018061D01*
X024967Y018395D01*
X024969Y018371D01*
G37*
D39*
G36*
X024994Y018347D02*
X018756Y018011D01*
X018754Y018035D01*
X024992Y018371D01*
X024994Y018347D01*
G37*
G36*
X025215Y014278D02*
X018977Y013942D01*
X018975Y013966D01*
X025213Y014302D01*
X025215Y014278D01*
G37*
D40*
G36*
X025239Y014305D02*
X018949Y013965D01*
X018947Y013989D01*
X025237Y014329D01*
X025239Y014305D01*
G37*
G36*
X025238Y014330D02*
X018948Y013990D01*
X018946Y014014D01*
X025236Y014354D01*
X025238Y014330D01*
G37*
G36*
X025023Y018299D02*
X018733Y017959D01*
X018731Y017983D01*
X025021Y018323D01*
X025023Y018299D01*
G37*
G36*
X025022Y018324D02*
X018732Y017984D01*
X018730Y018008D01*
X025020Y018348D01*
X025022Y018324D01*
G37*
D41*
G36*
X025048Y018275D02*
X018710Y017933D01*
X018708Y017957D01*
X025046Y018299D01*
X025048Y018275D01*
G37*
G36*
X025050Y018250D02*
X018712Y017908D01*
X018710Y017932D01*
X025048Y018274D01*
X025050Y018250D01*
G37*
G36*
X025259Y014381D02*
X018921Y014039D01*
X018919Y014063D01*
X025257Y014405D01*
X025259Y014381D01*
G37*
G36*
X025261Y014356D02*
X018923Y014014D01*
X018921Y014038D01*
X025259Y014380D01*
X025261Y014356D01*
G37*
D42*
G36*
X023529Y015365D02*
X023206Y015348D01*
X023205Y015371D01*
X023528Y015388D01*
X023529Y015365D01*
G37*
G36*
X019242Y014081D02*
X018919Y014064D01*
X018918Y014087D01*
X019241Y014104D01*
X019242Y014081D01*
G37*
G36*
X019036Y017901D02*
X018713Y017884D01*
X018712Y017907D01*
X019035Y017924D01*
X019036Y017901D01*
G37*
D43*
G36*
X024543Y016972D02*
X024220Y016955D01*
X024219Y016978D01*
X024542Y016995D01*
X024543Y016972D01*
G37*
G36*
X025051Y018226D02*
X024728Y018209D01*
X024727Y018232D01*
X025050Y018249D01*
X025051Y018226D01*
G37*
G36*
X024618Y015599D02*
X024295Y015582D01*
X024294Y015605D01*
X024617Y015622D01*
X024618Y015599D01*
G37*
G36*
X025258Y014407D02*
X024935Y014390D01*
X024934Y014413D01*
X025257Y014430D01*
X025258Y014407D01*
G37*
D44*
G36*
X022423Y015906D02*
X022124Y015889D01*
X022123Y015912D01*
X022422Y015929D01*
X022423Y015906D01*
G37*
G36*
X021170Y016389D02*
X020871Y016372D01*
X020870Y016395D01*
X021169Y016412D01*
X021170Y016389D01*
G37*
G36*
X018987Y017874D02*
X018688Y017857D01*
X018687Y017880D01*
X018986Y017897D01*
X018987Y017874D01*
G37*
G36*
X019191Y014104D02*
X018892Y014087D01*
X018891Y014110D01*
X019190Y014127D01*
X019191Y014104D01*
G37*
D45*
G36*
X020801Y015819D02*
X020502Y015802D01*
X020501Y015825D01*
X020800Y015842D01*
X020801Y015819D01*
G37*
G36*
X020771Y016368D02*
X020472Y016351D01*
X020471Y016374D01*
X020770Y016391D01*
X020771Y016368D01*
G37*
G36*
X024496Y017396D02*
X024197Y017379D01*
X024196Y017402D01*
X024495Y017419D01*
X024496Y017396D01*
G37*
G36*
X025078Y018203D02*
X024779Y018186D01*
X024778Y018209D01*
X025077Y018226D01*
X025078Y018203D01*
G37*
G36*
X024545Y016497D02*
X024246Y016480D01*
X024245Y016503D01*
X024544Y016520D01*
X024545Y016497D01*
G37*
G36*
X024568Y016073D02*
X024269Y016056D01*
X024268Y016079D01*
X024567Y016096D01*
X024568Y016073D01*
G37*
G36*
X024617Y015174D02*
X024318Y015157D01*
X024317Y015180D01*
X024616Y015197D01*
X024617Y015174D01*
G37*
G36*
X025283Y014434D02*
X024984Y014417D01*
X024983Y014440D01*
X025282Y014457D01*
X025283Y014434D01*
G37*
D46*
G36*
X019137Y014176D02*
X018888Y014163D01*
X018887Y014186D01*
X019136Y014199D01*
X019137Y014176D01*
G37*
G36*
X019136Y014201D02*
X018887Y014188D01*
X018886Y014211D01*
X019135Y014224D01*
X019136Y014201D01*
G37*
G36*
X019134Y014225D02*
X018885Y014212D01*
X018884Y014235D01*
X019133Y014248D01*
X019134Y014225D01*
G37*
G36*
X019133Y014250D02*
X018884Y014237D01*
X018883Y014260D01*
X019132Y014273D01*
X019133Y014250D01*
G37*
G36*
X019132Y014275D02*
X018883Y014262D01*
X018882Y014285D01*
X019131Y014298D01*
X019132Y014275D01*
G37*
G36*
X019130Y014300D02*
X018881Y014287D01*
X018880Y014310D01*
X019129Y014323D01*
X019130Y014300D01*
G37*
G36*
X019129Y014325D02*
X018880Y014312D01*
X018879Y014335D01*
X019128Y014348D01*
X019129Y014325D01*
G37*
G36*
X019128Y014350D02*
X018879Y014337D01*
X018878Y014360D01*
X019127Y014373D01*
X019128Y014350D01*
G37*
G36*
X019126Y014375D02*
X018877Y014362D01*
X018876Y014385D01*
X019125Y014398D01*
X019126Y014375D01*
G37*
G36*
X019125Y014400D02*
X018876Y014387D01*
X018875Y014410D01*
X019124Y014423D01*
X019125Y014400D01*
G37*
G36*
X019124Y014425D02*
X018875Y014412D01*
X018874Y014435D01*
X019123Y014448D01*
X019124Y014425D01*
G37*
G36*
X019122Y014450D02*
X018873Y014437D01*
X018872Y014460D01*
X019121Y014473D01*
X019122Y014450D01*
G37*
G36*
X019121Y014475D02*
X018872Y014462D01*
X018871Y014485D01*
X019120Y014498D01*
X019121Y014475D01*
G37*
G36*
X019119Y014500D02*
X018870Y014487D01*
X018869Y014510D01*
X019118Y014523D01*
X019119Y014500D01*
G37*
G36*
X019118Y014525D02*
X018869Y014512D01*
X018868Y014535D01*
X019117Y014548D01*
X019118Y014525D01*
G37*
G36*
X019117Y014550D02*
X018868Y014537D01*
X018867Y014560D01*
X019116Y014573D01*
X019117Y014550D01*
G37*
G36*
X019115Y014575D02*
X018866Y014562D01*
X018865Y014585D01*
X019114Y014598D01*
X019115Y014575D01*
G37*
G36*
X019114Y014600D02*
X018865Y014587D01*
X018864Y014610D01*
X019113Y014623D01*
X019114Y014600D01*
G37*
G36*
X019113Y014625D02*
X018864Y014612D01*
X018863Y014635D01*
X019112Y014648D01*
X019113Y014625D01*
G37*
G36*
X019111Y014650D02*
X018862Y014637D01*
X018861Y014660D01*
X019110Y014673D01*
X019111Y014650D01*
G37*
G36*
X019110Y014675D02*
X018861Y014662D01*
X018860Y014685D01*
X019109Y014698D01*
X019110Y014675D01*
G37*
G36*
X019109Y014700D02*
X018860Y014687D01*
X018859Y014710D01*
X019108Y014723D01*
X019109Y014700D01*
G37*
G36*
X019107Y014725D02*
X018858Y014712D01*
X018857Y014735D01*
X019106Y014748D01*
X019107Y014725D01*
G37*
G36*
X019106Y014750D02*
X018857Y014737D01*
X018856Y014760D01*
X019105Y014773D01*
X019106Y014750D01*
G37*
G36*
X019105Y014775D02*
X018856Y014762D01*
X018855Y014785D01*
X019104Y014798D01*
X019105Y014775D01*
G37*
G36*
X019103Y014800D02*
X018854Y014787D01*
X018853Y014810D01*
X019102Y014823D01*
X019103Y014800D01*
G37*
G36*
X019102Y014825D02*
X018853Y014812D01*
X018852Y014835D01*
X019101Y014848D01*
X019102Y014825D01*
G37*
G36*
X019101Y014850D02*
X018852Y014837D01*
X018851Y014860D01*
X019100Y014873D01*
X019101Y014850D01*
G37*
G36*
X019099Y014875D02*
X018850Y014862D01*
X018849Y014885D01*
X019098Y014898D01*
X019099Y014875D01*
G37*
G36*
X019098Y014900D02*
X018849Y014887D01*
X018848Y014910D01*
X019097Y014923D01*
X019098Y014900D01*
G37*
G36*
X019096Y014924D02*
X018847Y014911D01*
X018846Y014934D01*
X019095Y014947D01*
X019096Y014924D01*
G37*
G36*
X019095Y014949D02*
X018846Y014936D01*
X018845Y014959D01*
X019094Y014972D01*
X019095Y014949D01*
G37*
G36*
X019094Y014974D02*
X018845Y014961D01*
X018844Y014984D01*
X019093Y014997D01*
X019094Y014974D01*
G37*
G36*
X019092Y014999D02*
X018843Y014986D01*
X018842Y015009D01*
X019091Y015022D01*
X019092Y014999D01*
G37*
G36*
X019091Y015024D02*
X018842Y015011D01*
X018841Y015034D01*
X019090Y015047D01*
X019091Y015024D01*
G37*
G36*
X019090Y015049D02*
X018841Y015036D01*
X018840Y015059D01*
X019089Y015072D01*
X019090Y015049D01*
G37*
G36*
X019088Y015074D02*
X018839Y015061D01*
X018838Y015084D01*
X019087Y015097D01*
X019088Y015074D01*
G37*
G36*
X019087Y015099D02*
X018838Y015086D01*
X018837Y015109D01*
X019086Y015122D01*
X019087Y015099D01*
G37*
G36*
X019086Y015124D02*
X018837Y015111D01*
X018836Y015134D01*
X019085Y015147D01*
X019086Y015124D01*
G37*
G36*
X019084Y015149D02*
X018835Y015136D01*
X018834Y015159D01*
X019083Y015172D01*
X019084Y015149D01*
G37*
G36*
X019083Y015174D02*
X018834Y015161D01*
X018833Y015184D01*
X019082Y015197D01*
X019083Y015174D01*
G37*
G36*
X019082Y015199D02*
X018833Y015186D01*
X018832Y015209D01*
X019081Y015222D01*
X019082Y015199D01*
G37*
G36*
X019080Y015224D02*
X018831Y015211D01*
X018830Y015234D01*
X019079Y015247D01*
X019080Y015224D01*
G37*
G36*
X019079Y015249D02*
X018830Y015236D01*
X018829Y015259D01*
X019078Y015272D01*
X019079Y015249D01*
G37*
G36*
X019078Y015274D02*
X018829Y015261D01*
X018828Y015284D01*
X019077Y015297D01*
X019078Y015274D01*
G37*
G36*
X019076Y015299D02*
X018827Y015286D01*
X018826Y015309D01*
X019075Y015322D01*
X019076Y015299D01*
G37*
G36*
X019075Y015324D02*
X018826Y015311D01*
X018825Y015334D01*
X019074Y015347D01*
X019075Y015324D01*
G37*
G36*
X019073Y015349D02*
X018824Y015336D01*
X018823Y015359D01*
X019072Y015372D01*
X019073Y015349D01*
G37*
G36*
X019072Y015374D02*
X018823Y015361D01*
X018822Y015384D01*
X019071Y015397D01*
X019072Y015374D01*
G37*
G36*
X019071Y015399D02*
X018822Y015386D01*
X018821Y015409D01*
X019070Y015422D01*
X019071Y015399D01*
G37*
G36*
X019069Y015424D02*
X018820Y015411D01*
X018819Y015434D01*
X019068Y015447D01*
X019069Y015424D01*
G37*
G36*
X019068Y015449D02*
X018819Y015436D01*
X018818Y015459D01*
X019067Y015472D01*
X019068Y015449D01*
G37*
G36*
X019067Y015474D02*
X018818Y015461D01*
X018817Y015484D01*
X019066Y015497D01*
X019067Y015474D01*
G37*
G36*
X019065Y015499D02*
X018816Y015486D01*
X018815Y015509D01*
X019064Y015522D01*
X019065Y015499D01*
G37*
G36*
X019064Y015524D02*
X018815Y015511D01*
X018814Y015534D01*
X019063Y015547D01*
X019064Y015524D01*
G37*
G36*
X019063Y015549D02*
X018814Y015536D01*
X018813Y015559D01*
X019062Y015572D01*
X019063Y015549D01*
G37*
G36*
X019061Y015574D02*
X018812Y015561D01*
X018811Y015584D01*
X019060Y015597D01*
X019061Y015574D01*
G37*
G36*
X019060Y015598D02*
X018811Y015585D01*
X018810Y015608D01*
X019059Y015621D01*
X019060Y015598D01*
G37*
G36*
X019059Y015623D02*
X018810Y015610D01*
X018809Y015633D01*
X019058Y015646D01*
X019059Y015623D01*
G37*
G36*
X019057Y015648D02*
X018808Y015635D01*
X018807Y015658D01*
X019056Y015671D01*
X019057Y015648D01*
G37*
G36*
X019056Y015673D02*
X018807Y015660D01*
X018806Y015683D01*
X019055Y015696D01*
X019056Y015673D01*
G37*
G36*
X019055Y015698D02*
X018806Y015685D01*
X018805Y015708D01*
X019054Y015721D01*
X019055Y015698D01*
G37*
G36*
X019053Y015723D02*
X018804Y015710D01*
X018803Y015733D01*
X019052Y015746D01*
X019053Y015723D01*
G37*
G36*
X019052Y015748D02*
X018803Y015735D01*
X018802Y015758D01*
X019051Y015771D01*
X019052Y015748D01*
G37*
G36*
X019051Y015773D02*
X018802Y015760D01*
X018801Y015783D01*
X019050Y015796D01*
X019051Y015773D01*
G37*
G36*
X019049Y015798D02*
X018800Y015785D01*
X018799Y015808D01*
X019048Y015821D01*
X019049Y015798D01*
G37*
G36*
X019048Y015823D02*
X018799Y015810D01*
X018798Y015833D01*
X019047Y015846D01*
X019048Y015823D01*
G37*
G36*
X019046Y015848D02*
X018797Y015835D01*
X018796Y015858D01*
X019045Y015871D01*
X019046Y015848D01*
G37*
G36*
X019045Y015873D02*
X018796Y015860D01*
X018795Y015883D01*
X019044Y015896D01*
X019045Y015873D01*
G37*
G36*
X019044Y015898D02*
X018795Y015885D01*
X018794Y015908D01*
X019043Y015921D01*
X019044Y015898D01*
G37*
G36*
X019042Y015923D02*
X018793Y015910D01*
X018792Y015933D01*
X019041Y015946D01*
X019042Y015923D01*
G37*
G36*
X019041Y015948D02*
X018792Y015935D01*
X018791Y015958D01*
X019040Y015971D01*
X019041Y015948D01*
G37*
G36*
X019040Y015973D02*
X018791Y015960D01*
X018790Y015983D01*
X019039Y015996D01*
X019040Y015973D01*
G37*
G36*
X019038Y015998D02*
X018789Y015985D01*
X018788Y016008D01*
X019037Y016021D01*
X019038Y015998D01*
G37*
G36*
X019037Y016023D02*
X018788Y016010D01*
X018787Y016033D01*
X019036Y016046D01*
X019037Y016023D01*
G37*
G36*
X019036Y016048D02*
X018787Y016035D01*
X018786Y016058D01*
X019035Y016071D01*
X019036Y016048D01*
G37*
G36*
X019034Y016073D02*
X018785Y016060D01*
X018784Y016083D01*
X019033Y016096D01*
X019034Y016073D01*
G37*
G36*
X019033Y016098D02*
X018784Y016085D01*
X018783Y016108D01*
X019032Y016121D01*
X019033Y016098D01*
G37*
G36*
X019032Y016123D02*
X018783Y016110D01*
X018782Y016133D01*
X019031Y016146D01*
X019032Y016123D01*
G37*
G36*
X019030Y016148D02*
X018781Y016135D01*
X018780Y016158D01*
X019029Y016171D01*
X019030Y016148D01*
G37*
G36*
X019029Y016173D02*
X018780Y016160D01*
X018779Y016183D01*
X019028Y016196D01*
X019029Y016173D01*
G37*
G36*
X019028Y016198D02*
X018779Y016185D01*
X018778Y016208D01*
X019027Y016221D01*
X019028Y016198D01*
G37*
G36*
X019026Y016223D02*
X018777Y016210D01*
X018776Y016233D01*
X019025Y016246D01*
X019026Y016223D01*
G37*
G36*
X019025Y016248D02*
X018776Y016235D01*
X018775Y016258D01*
X019024Y016271D01*
X019025Y016248D01*
G37*
G36*
X019023Y016272D02*
X018774Y016259D01*
X018773Y016282D01*
X019022Y016295D01*
X019023Y016272D01*
G37*
G36*
X019022Y016297D02*
X018773Y016284D01*
X018772Y016307D01*
X019021Y016320D01*
X019022Y016297D01*
G37*
G36*
X019021Y016322D02*
X018772Y016309D01*
X018771Y016332D01*
X019020Y016345D01*
X019021Y016322D01*
G37*
G36*
X019019Y016347D02*
X018770Y016334D01*
X018769Y016357D01*
X019018Y016370D01*
X019019Y016347D01*
G37*
G36*
X019018Y016372D02*
X018769Y016359D01*
X018768Y016382D01*
X019017Y016395D01*
X019018Y016372D01*
G37*
G36*
X019017Y016397D02*
X018768Y016384D01*
X018767Y016407D01*
X019016Y016420D01*
X019017Y016397D01*
G37*
G36*
X019015Y016422D02*
X018766Y016409D01*
X018765Y016432D01*
X019014Y016445D01*
X019015Y016422D01*
G37*
G36*
X019014Y016447D02*
X018765Y016434D01*
X018764Y016457D01*
X019013Y016470D01*
X019014Y016447D01*
G37*
G36*
X019013Y016472D02*
X018764Y016459D01*
X018763Y016482D01*
X019012Y016495D01*
X019013Y016472D01*
G37*
G36*
X019011Y016497D02*
X018762Y016484D01*
X018761Y016507D01*
X019010Y016520D01*
X019011Y016497D01*
G37*
G36*
X019010Y016522D02*
X018761Y016509D01*
X018760Y016532D01*
X019009Y016545D01*
X019010Y016522D01*
G37*
G36*
X019009Y016547D02*
X018760Y016534D01*
X018759Y016557D01*
X019008Y016570D01*
X019009Y016547D01*
G37*
G36*
X019007Y016572D02*
X018758Y016559D01*
X018757Y016582D01*
X019006Y016595D01*
X019007Y016572D01*
G37*
G36*
X019006Y016597D02*
X018757Y016584D01*
X018756Y016607D01*
X019005Y016620D01*
X019006Y016597D01*
G37*
G36*
X019005Y016622D02*
X018756Y016609D01*
X018755Y016632D01*
X019004Y016645D01*
X019005Y016622D01*
G37*
G36*
X019003Y016647D02*
X018754Y016634D01*
X018753Y016657D01*
X019002Y016670D01*
X019003Y016647D01*
G37*
G36*
X019002Y016672D02*
X018753Y016659D01*
X018752Y016682D01*
X019001Y016695D01*
X019002Y016672D01*
G37*
G36*
X019000Y016697D02*
X018751Y016684D01*
X018750Y016707D01*
X018999Y016720D01*
X019000Y016697D01*
G37*
G36*
X018999Y016722D02*
X018750Y016709D01*
X018749Y016732D01*
X018998Y016745D01*
X018999Y016722D01*
G37*
G36*
X018998Y016747D02*
X018749Y016734D01*
X018748Y016757D01*
X018997Y016770D01*
X018998Y016747D01*
G37*
G36*
X018996Y016772D02*
X018747Y016759D01*
X018746Y016782D01*
X018995Y016795D01*
X018996Y016772D01*
G37*
G36*
X018995Y016797D02*
X018746Y016784D01*
X018745Y016807D01*
X018994Y016820D01*
X018995Y016797D01*
G37*
G36*
X018994Y016822D02*
X018745Y016809D01*
X018744Y016832D01*
X018993Y016845D01*
X018994Y016822D01*
G37*
G36*
X018992Y016847D02*
X018743Y016834D01*
X018742Y016857D01*
X018991Y016870D01*
X018992Y016847D01*
G37*
G36*
X018991Y016872D02*
X018742Y016859D01*
X018741Y016882D01*
X018990Y016895D01*
X018991Y016872D01*
G37*
G36*
X018990Y016897D02*
X018741Y016884D01*
X018740Y016907D01*
X018989Y016920D01*
X018990Y016897D01*
G37*
G36*
X018988Y016922D02*
X018739Y016909D01*
X018738Y016932D01*
X018987Y016945D01*
X018988Y016922D01*
G37*
G36*
X018987Y016947D02*
X018738Y016934D01*
X018737Y016957D01*
X018986Y016970D01*
X018987Y016947D01*
G37*
G36*
X018986Y016971D02*
X018737Y016958D01*
X018736Y016981D01*
X018985Y016994D01*
X018986Y016971D01*
G37*
G36*
X018984Y016996D02*
X018735Y016983D01*
X018734Y017006D01*
X018983Y017019D01*
X018984Y016996D01*
G37*
G36*
X018983Y017021D02*
X018734Y017008D01*
X018733Y017031D01*
X018982Y017044D01*
X018983Y017021D01*
G37*
G36*
X018982Y017046D02*
X018733Y017033D01*
X018732Y017056D01*
X018981Y017069D01*
X018982Y017046D01*
G37*
G36*
X018980Y017071D02*
X018731Y017058D01*
X018730Y017081D01*
X018979Y017094D01*
X018980Y017071D01*
G37*
G36*
X018979Y017096D02*
X018730Y017083D01*
X018729Y017106D01*
X018978Y017119D01*
X018979Y017096D01*
G37*
G36*
X018978Y017121D02*
X018729Y017108D01*
X018728Y017131D01*
X018977Y017144D01*
X018978Y017121D01*
G37*
G36*
X018976Y017146D02*
X018727Y017133D01*
X018726Y017156D01*
X018975Y017169D01*
X018976Y017146D01*
G37*
G36*
X018975Y017171D02*
X018726Y017158D01*
X018725Y017181D01*
X018974Y017194D01*
X018975Y017171D01*
G37*
G36*
X018973Y017196D02*
X018724Y017183D01*
X018723Y017206D01*
X018972Y017219D01*
X018973Y017196D01*
G37*
G36*
X018972Y017221D02*
X018723Y017208D01*
X018722Y017231D01*
X018971Y017244D01*
X018972Y017221D01*
G37*
G36*
X018971Y017246D02*
X018722Y017233D01*
X018721Y017256D01*
X018970Y017269D01*
X018971Y017246D01*
G37*
G36*
X018969Y017271D02*
X018720Y017258D01*
X018719Y017281D01*
X018968Y017294D01*
X018969Y017271D01*
G37*
G36*
X018968Y017296D02*
X018719Y017283D01*
X018718Y017306D01*
X018967Y017319D01*
X018968Y017296D01*
G37*
G36*
X018967Y017321D02*
X018718Y017308D01*
X018717Y017331D01*
X018966Y017344D01*
X018967Y017321D01*
G37*
G36*
X018965Y017346D02*
X018716Y017333D01*
X018715Y017356D01*
X018964Y017369D01*
X018965Y017346D01*
G37*
G36*
X018964Y017371D02*
X018715Y017358D01*
X018714Y017381D01*
X018963Y017394D01*
X018964Y017371D01*
G37*
G36*
X018963Y017396D02*
X018714Y017383D01*
X018713Y017406D01*
X018962Y017419D01*
X018963Y017396D01*
G37*
G36*
X018961Y017421D02*
X018712Y017408D01*
X018711Y017431D01*
X018960Y017444D01*
X018961Y017421D01*
G37*
G36*
X018960Y017446D02*
X018711Y017433D01*
X018710Y017456D01*
X018959Y017469D01*
X018960Y017446D01*
G37*
G36*
X018959Y017471D02*
X018710Y017458D01*
X018709Y017481D01*
X018958Y017494D01*
X018959Y017471D01*
G37*
G36*
X018957Y017496D02*
X018708Y017483D01*
X018707Y017506D01*
X018956Y017519D01*
X018957Y017496D01*
G37*
G36*
X018956Y017521D02*
X018707Y017508D01*
X018706Y017531D01*
X018955Y017544D01*
X018956Y017521D01*
G37*
G36*
X018955Y017546D02*
X018706Y017533D01*
X018705Y017556D01*
X018954Y017569D01*
X018955Y017546D01*
G37*
G36*
X018953Y017571D02*
X018704Y017558D01*
X018703Y017581D01*
X018952Y017594D01*
X018953Y017571D01*
G37*
G36*
X018952Y017596D02*
X018703Y017583D01*
X018702Y017606D01*
X018951Y017619D01*
X018952Y017596D01*
G37*
G36*
X018950Y017621D02*
X018701Y017608D01*
X018700Y017631D01*
X018949Y017644D01*
X018950Y017621D01*
G37*
G36*
X018949Y017645D02*
X018700Y017632D01*
X018699Y017655D01*
X018948Y017668D01*
X018949Y017645D01*
G37*
G36*
X018948Y017670D02*
X018699Y017657D01*
X018698Y017680D01*
X018947Y017693D01*
X018948Y017670D01*
G37*
G36*
X018946Y017695D02*
X018697Y017682D01*
X018696Y017705D01*
X018945Y017718D01*
X018946Y017695D01*
G37*
G36*
X018945Y017720D02*
X018696Y017707D01*
X018695Y017730D01*
X018944Y017743D01*
X018945Y017720D01*
G37*
G36*
X018944Y017745D02*
X018695Y017732D01*
X018694Y017755D01*
X018943Y017768D01*
X018944Y017745D01*
G37*
G36*
X018942Y017770D02*
X018693Y017757D01*
X018692Y017780D01*
X018941Y017793D01*
X018942Y017770D01*
G37*
G36*
X018941Y017795D02*
X018692Y017782D01*
X018691Y017805D01*
X018940Y017818D01*
X018941Y017795D01*
G37*
D47*
G36*
X023825Y017758D02*
X019358Y017518D01*
X019357Y017542D01*
X023824Y017782D01*
X023825Y017758D01*
G37*
G36*
X023826Y017733D02*
X019359Y017493D01*
X019358Y017517D01*
X023825Y017757D01*
X023826Y017733D01*
G37*
G36*
X023827Y017708D02*
X019360Y017468D01*
X019359Y017492D01*
X023826Y017732D01*
X023827Y017708D01*
G37*
G36*
X023829Y017683D02*
X019362Y017443D01*
X019361Y017467D01*
X023828Y017707D01*
X023829Y017683D01*
G37*
G36*
X023830Y017658D02*
X019363Y017418D01*
X019362Y017442D01*
X023829Y017682D01*
X023830Y017658D01*
G37*
G36*
X023831Y017633D02*
X019364Y017393D01*
X019363Y017417D01*
X023830Y017657D01*
X023831Y017633D01*
G37*
G36*
X023833Y017608D02*
X019366Y017368D01*
X019365Y017392D01*
X023832Y017632D01*
X023833Y017608D01*
G37*
G36*
X023834Y017583D02*
X019367Y017343D01*
X019366Y017367D01*
X023833Y017607D01*
X023834Y017583D01*
G37*
G36*
X023836Y017558D02*
X019369Y017318D01*
X019368Y017342D01*
X023835Y017582D01*
X023836Y017558D01*
G37*
G36*
X023837Y017533D02*
X019370Y017293D01*
X019369Y017317D01*
X023836Y017557D01*
X023837Y017533D01*
G37*
G36*
X023979Y014912D02*
X019512Y014672D01*
X019511Y014696D01*
X023978Y014936D01*
X023979Y014912D01*
G37*
G36*
X023980Y014887D02*
X019513Y014647D01*
X019512Y014671D01*
X023979Y014911D01*
X023980Y014887D01*
G37*
G36*
X023982Y014862D02*
X019515Y014622D01*
X019514Y014646D01*
X023981Y014886D01*
X023982Y014862D01*
G37*
G36*
X023983Y014837D02*
X019516Y014597D01*
X019515Y014621D01*
X023982Y014861D01*
X023983Y014837D01*
G37*
G36*
X023984Y014812D02*
X019517Y014572D01*
X019516Y014596D01*
X023983Y014836D01*
X023984Y014812D01*
G37*
G36*
X023986Y014787D02*
X019519Y014547D01*
X019518Y014571D01*
X023985Y014811D01*
X023986Y014787D01*
G37*
G36*
X023987Y014762D02*
X019520Y014522D01*
X019519Y014546D01*
X023986Y014786D01*
X023987Y014762D01*
G37*
G36*
X023988Y014738D02*
X019521Y014498D01*
X019520Y014522D01*
X023987Y014762D01*
X023988Y014738D01*
G37*
D48*
G36*
X022530Y014859D02*
X019511Y014697D01*
X019510Y014721D01*
X022529Y014883D01*
X022530Y014859D01*
G37*
D49*
G36*
X022655Y014867D02*
X022606Y014864D01*
X022605Y014887D01*
X022654Y014890D01*
X022655Y014867D01*
G37*
D50*
G36*
X023977Y014938D02*
X022682Y014868D01*
X022681Y014892D01*
X023976Y014962D01*
X023977Y014938D01*
G37*
D51*
G36*
X022278Y014871D02*
X019509Y014722D01*
X019508Y014745D01*
X022277Y014894D01*
X022278Y014871D01*
G37*
D52*
G36*
X023976Y014963D02*
X022829Y014901D01*
X022828Y014925D01*
X023975Y014987D01*
X023976Y014963D01*
G37*
D53*
G36*
X023270Y015074D02*
X020026Y014900D01*
X020024Y014924D01*
X023268Y015098D01*
X023270Y015074D01*
G37*
D54*
G36*
X023535Y015265D02*
X023360Y015256D01*
X023359Y015279D01*
X023534Y015288D01*
X023535Y015265D01*
G37*
G36*
X023033Y015288D02*
X022858Y015279D01*
X022857Y015302D01*
X023032Y015311D01*
X023033Y015288D01*
G37*
G36*
X023018Y015562D02*
X022843Y015553D01*
X022842Y015576D01*
X023017Y015585D01*
X023018Y015562D01*
G37*
G36*
X022992Y015586D02*
X022817Y015577D01*
X022816Y015600D01*
X022991Y015609D01*
X022992Y015586D01*
G37*
G36*
X022225Y016346D02*
X022050Y016337D01*
X022049Y016360D01*
X022224Y016369D01*
X022225Y016346D01*
G37*
G36*
X021775Y016321D02*
X021600Y016312D01*
X021599Y016335D01*
X021774Y016344D01*
X021775Y016321D01*
G37*
G36*
X021703Y016267D02*
X021528Y016258D01*
X021527Y016281D01*
X021702Y016290D01*
X021703Y016267D01*
G37*
G36*
X021631Y016213D02*
X021456Y016204D01*
X021455Y016227D01*
X021630Y016236D01*
X021631Y016213D01*
G37*
G36*
X021767Y016020D02*
X021592Y016011D01*
X021591Y016034D01*
X021766Y016043D01*
X021767Y016020D01*
G37*
G36*
X021694Y015966D02*
X021519Y015957D01*
X021518Y015980D01*
X021693Y015989D01*
X021694Y015966D01*
G37*
G36*
X021590Y016962D02*
X021415Y016953D01*
X021414Y016976D01*
X021589Y016985D01*
X021590Y016962D01*
G37*
G36*
X021639Y016990D02*
X021464Y016981D01*
X021463Y017004D01*
X021638Y017013D01*
X021639Y016990D01*
G37*
G36*
X021711Y017044D02*
X021536Y017035D01*
X021535Y017058D01*
X021710Y017067D01*
X021711Y017044D01*
G37*
G36*
X024445Y017417D02*
X024270Y017408D01*
X024269Y017431D01*
X024444Y017440D01*
X024445Y017417D01*
G37*
G36*
X024568Y015146D02*
X024393Y015137D01*
X024392Y015160D01*
X024567Y015169D01*
X024568Y015146D01*
G37*
D55*
G36*
X023319Y015103D02*
X019949Y014921D01*
X019947Y014945D01*
X023317Y015127D01*
X023319Y015103D01*
G37*
D56*
G36*
X023317Y015127D02*
X019923Y014945D01*
X019921Y014969D01*
X023315Y015151D01*
X023317Y015127D01*
G37*
D57*
G36*
X024639Y015200D02*
X024292Y015181D01*
X024291Y015204D01*
X024638Y015223D01*
X024639Y015200D01*
G37*
G36*
X024521Y017372D02*
X024174Y017353D01*
X024173Y017376D01*
X024520Y017395D01*
X024521Y017372D01*
G37*
D58*
G36*
X023398Y017311D02*
X023201Y017300D01*
X023200Y017323D01*
X023397Y017334D01*
X023398Y017311D01*
G37*
G36*
X022816Y016503D02*
X022619Y016492D01*
X022618Y016515D01*
X022815Y016526D01*
X022816Y016503D01*
G37*
G36*
X022848Y015904D02*
X022651Y015893D01*
X022650Y015916D01*
X022847Y015927D01*
X022848Y015904D01*
G37*
G36*
X022876Y015380D02*
X022679Y015369D01*
X022678Y015392D01*
X022875Y015403D01*
X022876Y015380D01*
G37*
G36*
X023352Y015381D02*
X023155Y015370D01*
X023154Y015393D01*
X023351Y015404D01*
X023352Y015381D01*
G37*
G36*
X022151Y016292D02*
X021954Y016281D01*
X021953Y016304D01*
X022150Y016315D01*
X022151Y016292D01*
G37*
G36*
X022127Y016266D02*
X021930Y016255D01*
X021929Y016278D01*
X022126Y016289D01*
X022127Y016266D01*
G37*
G36*
X022079Y016238D02*
X021882Y016227D01*
X021881Y016250D01*
X022078Y016261D01*
X022079Y016238D01*
G37*
G36*
X022007Y016184D02*
X021810Y016173D01*
X021809Y016196D01*
X022006Y016207D01*
X022007Y016184D01*
G37*
G36*
X022015Y016485D02*
X021818Y016474D01*
X021817Y016497D01*
X022014Y016508D01*
X022015Y016485D01*
G37*
G36*
X022064Y016513D02*
X021867Y016502D01*
X021866Y016525D01*
X022063Y016536D01*
X022064Y016513D01*
G37*
G36*
X021493Y016882D02*
X021296Y016871D01*
X021295Y016894D01*
X021492Y016905D01*
X021493Y016882D01*
G37*
G36*
X021478Y017157D02*
X021281Y017146D01*
X021280Y017169D01*
X021477Y017180D01*
X021478Y017157D01*
G37*
G36*
X021951Y017208D02*
X021754Y017197D01*
X021753Y017220D01*
X021950Y017231D01*
X021951Y017208D01*
G37*
G36*
X022000Y017235D02*
X021803Y017224D01*
X021802Y017247D01*
X021999Y017258D01*
X022000Y017235D01*
G37*
G36*
X021213Y016967D02*
X021016Y016956D01*
X021015Y016979D01*
X021212Y016990D01*
X021213Y016967D01*
G37*
G36*
X021165Y016940D02*
X020968Y016929D01*
X020967Y016952D01*
X021164Y016963D01*
X021165Y016940D01*
G37*
G36*
X020890Y016925D02*
X020693Y016914D01*
X020692Y016937D01*
X020889Y016948D01*
X020890Y016925D01*
G37*
G36*
X020903Y016675D02*
X020706Y016664D01*
X020705Y016687D01*
X020902Y016698D01*
X020903Y016675D01*
G37*
G36*
X020910Y016550D02*
X020713Y016539D01*
X020712Y016562D01*
X020909Y016573D01*
X020910Y016550D01*
G37*
G36*
X021193Y016415D02*
X020996Y016404D01*
X020995Y016427D01*
X021192Y016438D01*
X021193Y016415D01*
G37*
G36*
X021241Y016443D02*
X021044Y016432D01*
X021043Y016455D01*
X021240Y016466D01*
X021241Y016443D01*
G37*
G36*
X021364Y016024D02*
X021167Y016013D01*
X021166Y016036D01*
X021363Y016047D01*
X021364Y016024D01*
G37*
G36*
X021292Y015970D02*
X021095Y015959D01*
X021094Y015982D01*
X021291Y015993D01*
X021292Y015970D01*
G37*
G36*
X021220Y015916D02*
X021023Y015905D01*
X021022Y015928D01*
X021219Y015939D01*
X021220Y015916D01*
G37*
G36*
X021549Y015859D02*
X021352Y015848D01*
X021351Y015871D01*
X021548Y015882D01*
X021549Y015859D01*
G37*
G36*
X021297Y015420D02*
X021100Y015409D01*
X021099Y015432D01*
X021296Y015443D01*
X021297Y015420D01*
G37*
G36*
X021248Y015392D02*
X021051Y015381D01*
X021050Y015404D01*
X021247Y015415D01*
X021248Y015392D01*
G37*
G36*
X020979Y015277D02*
X020782Y015266D01*
X020781Y015289D01*
X020978Y015300D01*
X020979Y015277D01*
G37*
G36*
X020966Y015527D02*
X020769Y015516D01*
X020768Y015539D01*
X020965Y015550D01*
X020966Y015527D01*
G37*
G36*
X020959Y015652D02*
X020762Y015641D01*
X020761Y015664D01*
X020958Y015675D01*
X020959Y015652D01*
G37*
G36*
X020676Y015787D02*
X020479Y015776D01*
X020478Y015799D01*
X020675Y015810D01*
X020676Y015787D01*
G37*
G36*
X020644Y016386D02*
X020447Y016375D01*
X020446Y016398D01*
X020643Y016409D01*
X020644Y016386D01*
G37*
G36*
X019978Y017126D02*
X019781Y017115D01*
X019780Y017138D01*
X019977Y017149D01*
X019978Y017126D01*
G37*
G36*
X020094Y014979D02*
X019897Y014968D01*
X019896Y014991D01*
X020093Y015002D01*
X020094Y014979D01*
G37*
D59*
G36*
X024549Y017348D02*
X024150Y017327D01*
X024149Y017350D01*
X024548Y017371D01*
X024549Y017348D01*
G37*
G36*
X024598Y016449D02*
X024199Y016428D01*
X024198Y016451D01*
X024597Y016472D01*
X024598Y016449D01*
G37*
G36*
X024615Y016125D02*
X024216Y016104D01*
X024215Y016127D01*
X024614Y016148D01*
X024615Y016125D01*
G37*
G36*
X024664Y015226D02*
X024265Y015205D01*
X024264Y015228D01*
X024663Y015249D01*
X024664Y015226D01*
G37*
D60*
G36*
X021368Y015524D02*
X021219Y015515D01*
X021218Y015538D01*
X021367Y015547D01*
X021368Y015524D01*
G37*
G36*
X021344Y015498D02*
X021195Y015489D01*
X021194Y015512D01*
X021343Y015521D01*
X021344Y015498D01*
G37*
G36*
X021358Y015699D02*
X021209Y015690D01*
X021208Y015713D01*
X021357Y015722D01*
X021358Y015699D01*
G37*
G36*
X021357Y015724D02*
X021208Y015715D01*
X021207Y015738D01*
X021356Y015747D01*
X021357Y015724D01*
G37*
G36*
X020572Y015431D02*
X020423Y015422D01*
X020422Y015445D01*
X020571Y015454D01*
X020572Y015431D01*
G37*
G36*
X020557Y015705D02*
X020408Y015696D01*
X020407Y015719D01*
X020556Y015728D01*
X020557Y015705D01*
G37*
G36*
X019983Y015674D02*
X019834Y015665D01*
X019833Y015688D01*
X019982Y015697D01*
X019983Y015674D01*
G37*
G36*
X019984Y015649D02*
X019835Y015640D01*
X019834Y015663D01*
X019983Y015672D01*
X019984Y015649D01*
G37*
G36*
X019985Y015624D02*
X019836Y015615D01*
X019835Y015638D01*
X019984Y015647D01*
X019985Y015624D01*
G37*
G36*
X019987Y015599D02*
X019838Y015590D01*
X019837Y015613D01*
X019986Y015622D01*
X019987Y015599D01*
G37*
G36*
X019988Y015574D02*
X019839Y015565D01*
X019838Y015588D01*
X019987Y015597D01*
X019988Y015574D01*
G37*
G36*
X019989Y015549D02*
X019840Y015540D01*
X019839Y015563D01*
X019988Y015572D01*
X019989Y015549D01*
G37*
G36*
X019991Y015524D02*
X019842Y015515D01*
X019841Y015538D01*
X019990Y015547D01*
X019991Y015524D01*
G37*
G36*
X019992Y015499D02*
X019843Y015490D01*
X019842Y015513D01*
X019991Y015522D01*
X019992Y015499D01*
G37*
G36*
X019994Y015474D02*
X019845Y015465D01*
X019844Y015488D01*
X019993Y015497D01*
X019994Y015474D01*
G37*
G36*
X019995Y015450D02*
X019846Y015441D01*
X019845Y015464D01*
X019994Y015473D01*
X019995Y015450D01*
G37*
G36*
X019996Y015425D02*
X019847Y015416D01*
X019846Y015439D01*
X019995Y015448D01*
X019996Y015425D01*
G37*
G36*
X019998Y015400D02*
X019849Y015391D01*
X019848Y015414D01*
X019997Y015423D01*
X019998Y015400D01*
G37*
G36*
X019999Y015375D02*
X019850Y015366D01*
X019849Y015389D01*
X019998Y015398D01*
X019999Y015375D01*
G37*
G36*
X020000Y015350D02*
X019851Y015341D01*
X019850Y015364D01*
X019999Y015373D01*
X020000Y015350D01*
G37*
G36*
X020002Y015325D02*
X019853Y015316D01*
X019852Y015339D01*
X020001Y015348D01*
X020002Y015325D01*
G37*
G36*
X020003Y015300D02*
X019854Y015291D01*
X019853Y015314D01*
X020002Y015323D01*
X020003Y015300D01*
G37*
G36*
X020004Y015275D02*
X019855Y015266D01*
X019854Y015289D01*
X020003Y015298D01*
X020004Y015275D01*
G37*
G36*
X020006Y015250D02*
X019857Y015241D01*
X019856Y015264D01*
X020005Y015273D01*
X020006Y015250D01*
G37*
G36*
X020007Y015225D02*
X019858Y015216D01*
X019857Y015239D01*
X020006Y015248D01*
X020007Y015225D01*
G37*
G36*
X020008Y015200D02*
X019859Y015191D01*
X019858Y015214D01*
X020007Y015223D01*
X020008Y015200D01*
G37*
G36*
X020010Y015175D02*
X019861Y015166D01*
X019860Y015189D01*
X020009Y015198D01*
X020010Y015175D01*
G37*
G36*
X020011Y015150D02*
X019862Y015141D01*
X019861Y015164D01*
X020010Y015173D01*
X020011Y015150D01*
G37*
G36*
X020012Y015125D02*
X019863Y015116D01*
X019862Y015139D01*
X020011Y015148D01*
X020012Y015125D01*
G37*
G36*
X020014Y015100D02*
X019865Y015091D01*
X019864Y015114D01*
X020013Y015123D01*
X020014Y015100D01*
G37*
G36*
X020015Y015075D02*
X019866Y015066D01*
X019865Y015089D01*
X020014Y015098D01*
X020015Y015075D01*
G37*
G36*
X020016Y015050D02*
X019867Y015041D01*
X019866Y015064D01*
X020015Y015073D01*
X020016Y015050D01*
G37*
G36*
X020018Y015025D02*
X019869Y015016D01*
X019868Y015039D01*
X020017Y015048D01*
X020018Y015025D01*
G37*
G36*
X020019Y015000D02*
X019870Y014991D01*
X019869Y015014D01*
X020018Y015023D01*
X020019Y015000D01*
G37*
G36*
X019981Y015699D02*
X019832Y015690D01*
X019831Y015713D01*
X019980Y015722D01*
X019981Y015699D01*
G37*
G36*
X019980Y015724D02*
X019831Y015715D01*
X019830Y015738D01*
X019979Y015747D01*
X019980Y015724D01*
G37*
G36*
X019979Y015749D02*
X019830Y015740D01*
X019829Y015763D01*
X019978Y015772D01*
X019979Y015749D01*
G37*
G36*
X019977Y015774D02*
X019828Y015765D01*
X019827Y015788D01*
X019976Y015797D01*
X019977Y015774D01*
G37*
G36*
X019976Y015799D02*
X019827Y015790D01*
X019826Y015813D01*
X019975Y015822D01*
X019976Y015799D01*
G37*
G36*
X019975Y015824D02*
X019826Y015815D01*
X019825Y015838D01*
X019974Y015847D01*
X019975Y015824D01*
G37*
G36*
X019973Y015849D02*
X019824Y015840D01*
X019823Y015863D01*
X019972Y015872D01*
X019973Y015849D01*
G37*
G36*
X019972Y015874D02*
X019823Y015865D01*
X019822Y015888D01*
X019971Y015897D01*
X019972Y015874D01*
G37*
G36*
X019971Y015899D02*
X019822Y015890D01*
X019821Y015913D01*
X019970Y015922D01*
X019971Y015899D01*
G37*
G36*
X019969Y015924D02*
X019820Y015915D01*
X019819Y015938D01*
X019968Y015947D01*
X019969Y015924D01*
G37*
G36*
X019968Y015949D02*
X019819Y015940D01*
X019818Y015963D01*
X019967Y015972D01*
X019968Y015949D01*
G37*
G36*
X019966Y015974D02*
X019817Y015965D01*
X019816Y015988D01*
X019965Y015997D01*
X019966Y015974D01*
G37*
G36*
X019965Y015999D02*
X019816Y015990D01*
X019815Y016013D01*
X019964Y016022D01*
X019965Y015999D01*
G37*
G36*
X019964Y016024D02*
X019815Y016015D01*
X019814Y016038D01*
X019963Y016047D01*
X019964Y016024D01*
G37*
G36*
X019962Y016049D02*
X019813Y016040D01*
X019812Y016063D01*
X019961Y016072D01*
X019962Y016049D01*
G37*
G36*
X019961Y016074D02*
X019812Y016065D01*
X019811Y016088D01*
X019960Y016097D01*
X019961Y016074D01*
G37*
G36*
X019960Y016099D02*
X019811Y016090D01*
X019810Y016113D01*
X019959Y016122D01*
X019960Y016099D01*
G37*
G36*
X019958Y016124D02*
X019809Y016115D01*
X019808Y016138D01*
X019957Y016147D01*
X019958Y016124D01*
G37*
G36*
X019957Y016149D02*
X019808Y016140D01*
X019807Y016163D01*
X019956Y016172D01*
X019957Y016149D01*
G37*
G36*
X019956Y016173D02*
X019807Y016164D01*
X019806Y016187D01*
X019955Y016196D01*
X019956Y016173D01*
G37*
G36*
X019954Y016198D02*
X019805Y016189D01*
X019804Y016212D01*
X019953Y016221D01*
X019954Y016198D01*
G37*
G36*
X019953Y016223D02*
X019804Y016214D01*
X019803Y016237D01*
X019952Y016246D01*
X019953Y016223D01*
G37*
G36*
X019952Y016248D02*
X019803Y016239D01*
X019802Y016262D01*
X019951Y016271D01*
X019952Y016248D01*
G37*
G36*
X019950Y016273D02*
X019801Y016264D01*
X019800Y016287D01*
X019949Y016296D01*
X019950Y016273D01*
G37*
G36*
X019949Y016298D02*
X019800Y016289D01*
X019799Y016312D01*
X019948Y016321D01*
X019949Y016298D01*
G37*
G36*
X019948Y016323D02*
X019799Y016314D01*
X019798Y016337D01*
X019947Y016346D01*
X019948Y016323D01*
G37*
G36*
X019946Y016348D02*
X019797Y016339D01*
X019796Y016362D01*
X019945Y016371D01*
X019946Y016348D01*
G37*
G36*
X019945Y016373D02*
X019796Y016364D01*
X019795Y016387D01*
X019944Y016396D01*
X019945Y016373D01*
G37*
G36*
X019943Y016398D02*
X019794Y016389D01*
X019793Y016412D01*
X019942Y016421D01*
X019943Y016398D01*
G37*
G36*
X019942Y016423D02*
X019793Y016414D01*
X019792Y016437D01*
X019941Y016446D01*
X019942Y016423D01*
G37*
G36*
X019941Y016448D02*
X019792Y016439D01*
X019791Y016462D01*
X019940Y016471D01*
X019941Y016448D01*
G37*
G36*
X019939Y016473D02*
X019790Y016464D01*
X019789Y016487D01*
X019938Y016496D01*
X019939Y016473D01*
G37*
G36*
X019938Y016498D02*
X019789Y016489D01*
X019788Y016512D01*
X019937Y016521D01*
X019938Y016498D01*
G37*
G36*
X019937Y016523D02*
X019788Y016514D01*
X019787Y016537D01*
X019936Y016546D01*
X019937Y016523D01*
G37*
G36*
X019935Y016548D02*
X019786Y016539D01*
X019785Y016562D01*
X019934Y016571D01*
X019935Y016548D01*
G37*
G36*
X019934Y016573D02*
X019785Y016564D01*
X019784Y016587D01*
X019933Y016596D01*
X019934Y016573D01*
G37*
G36*
X019933Y016598D02*
X019784Y016589D01*
X019783Y016612D01*
X019932Y016621D01*
X019933Y016598D01*
G37*
G36*
X019931Y016623D02*
X019782Y016614D01*
X019781Y016637D01*
X019930Y016646D01*
X019931Y016623D01*
G37*
G36*
X019930Y016648D02*
X019781Y016639D01*
X019780Y016662D01*
X019929Y016671D01*
X019930Y016648D01*
G37*
G36*
X019929Y016673D02*
X019780Y016664D01*
X019779Y016687D01*
X019928Y016696D01*
X019929Y016673D01*
G37*
G36*
X019927Y016698D02*
X019778Y016689D01*
X019777Y016712D01*
X019926Y016721D01*
X019927Y016698D01*
G37*
G36*
X019926Y016723D02*
X019777Y016714D01*
X019776Y016737D01*
X019925Y016746D01*
X019926Y016723D01*
G37*
G36*
X019925Y016748D02*
X019776Y016739D01*
X019775Y016762D01*
X019924Y016771D01*
X019925Y016748D01*
G37*
G36*
X019923Y016773D02*
X019774Y016764D01*
X019773Y016787D01*
X019922Y016796D01*
X019923Y016773D01*
G37*
G36*
X019922Y016798D02*
X019773Y016789D01*
X019772Y016812D01*
X019921Y016821D01*
X019922Y016798D01*
G37*
G36*
X019921Y016823D02*
X019772Y016814D01*
X019771Y016837D01*
X019920Y016846D01*
X019921Y016823D01*
G37*
G36*
X019919Y016847D02*
X019770Y016838D01*
X019769Y016861D01*
X019918Y016870D01*
X019919Y016847D01*
G37*
G36*
X019918Y016872D02*
X019769Y016863D01*
X019768Y016886D01*
X019917Y016895D01*
X019918Y016872D01*
G37*
G36*
X019916Y016897D02*
X019767Y016888D01*
X019766Y016911D01*
X019915Y016920D01*
X019916Y016897D01*
G37*
G36*
X019915Y016922D02*
X019766Y016913D01*
X019765Y016936D01*
X019914Y016945D01*
X019915Y016922D01*
G37*
G36*
X019914Y016947D02*
X019765Y016938D01*
X019764Y016961D01*
X019913Y016970D01*
X019914Y016947D01*
G37*
G36*
X019912Y016972D02*
X019763Y016963D01*
X019762Y016986D01*
X019911Y016995D01*
X019912Y016972D01*
G37*
G36*
X019911Y016997D02*
X019762Y016988D01*
X019761Y017011D01*
X019910Y017020D01*
X019911Y016997D01*
G37*
G36*
X019910Y017022D02*
X019761Y017013D01*
X019760Y017036D01*
X019909Y017045D01*
X019910Y017022D01*
G37*
G36*
X019908Y017047D02*
X019759Y017038D01*
X019758Y017061D01*
X019907Y017070D01*
X019908Y017047D01*
G37*
G36*
X019907Y017072D02*
X019758Y017063D01*
X019757Y017086D01*
X019906Y017095D01*
X019907Y017072D01*
G37*
G36*
X019906Y017097D02*
X019757Y017088D01*
X019756Y017111D01*
X019905Y017120D01*
X019906Y017097D01*
G37*
G36*
X020501Y016729D02*
X020352Y016720D01*
X020351Y016743D01*
X020500Y016752D01*
X020501Y016729D01*
G37*
G36*
X020516Y016454D02*
X020367Y016445D01*
X020366Y016468D01*
X020515Y016477D01*
X020516Y016454D01*
G37*
G36*
X021289Y016521D02*
X021140Y016512D01*
X021139Y016535D01*
X021288Y016544D01*
X021289Y016521D01*
G37*
G36*
X021312Y016547D02*
X021163Y016538D01*
X021162Y016561D01*
X021311Y016570D01*
X021312Y016547D01*
G37*
G36*
X021304Y016697D02*
X021155Y016688D01*
X021154Y016711D01*
X021303Y016720D01*
X021304Y016697D01*
G37*
G36*
X021303Y016722D02*
X021154Y016713D01*
X021153Y016736D01*
X021302Y016745D01*
X021303Y016722D01*
G37*
G36*
X021302Y016747D02*
X021153Y016738D01*
X021152Y016761D01*
X021301Y016770D01*
X021302Y016747D01*
G37*
D61*
G36*
X021421Y016828D02*
X021222Y016817D01*
X021221Y016840D01*
X021420Y016851D01*
X021421Y016828D01*
G37*
G36*
X021358Y017075D02*
X021159Y017064D01*
X021158Y017087D01*
X021357Y017098D01*
X021358Y017075D01*
G37*
G36*
X021430Y017129D02*
X021231Y017118D01*
X021230Y017141D01*
X021429Y017152D01*
X021430Y017129D01*
G37*
G36*
X021502Y017183D02*
X021303Y017172D01*
X021302Y017195D01*
X021501Y017206D01*
X021502Y017183D01*
G37*
G36*
X021880Y017154D02*
X021681Y017143D01*
X021680Y017166D01*
X021879Y017177D01*
X021880Y017154D01*
G37*
G36*
X022514Y017013D02*
X022315Y017002D01*
X022314Y017025D01*
X022513Y017036D01*
X022514Y017013D01*
G37*
G36*
X022528Y016763D02*
X022329Y016752D01*
X022328Y016775D01*
X022527Y016786D01*
X022528Y016763D01*
G37*
G36*
X022534Y016638D02*
X022335Y016627D01*
X022334Y016650D01*
X022533Y016661D01*
X022534Y016638D01*
G37*
G36*
X022200Y016320D02*
X022001Y016309D01*
X022000Y016332D01*
X022199Y016343D01*
X022200Y016320D01*
G37*
G36*
X021945Y016431D02*
X021746Y016420D01*
X021745Y016443D01*
X021944Y016454D01*
X021945Y016431D01*
G37*
G36*
X021872Y016377D02*
X021673Y016366D01*
X021672Y016389D01*
X021871Y016400D01*
X021872Y016377D01*
G37*
G36*
X021824Y016349D02*
X021625Y016338D01*
X021624Y016361D01*
X021823Y016372D01*
X021824Y016349D01*
G37*
G36*
X021936Y016130D02*
X021737Y016119D01*
X021736Y016142D01*
X021935Y016153D01*
X021936Y016130D01*
G37*
G36*
X021887Y016102D02*
X021688Y016091D01*
X021687Y016114D01*
X021886Y016125D01*
X021887Y016102D01*
G37*
G36*
X021606Y016187D02*
X021407Y016176D01*
X021406Y016199D01*
X021605Y016210D01*
X021606Y016187D01*
G37*
G36*
X021558Y016160D02*
X021359Y016149D01*
X021358Y016172D01*
X021557Y016183D01*
X021558Y016160D01*
G37*
G36*
X021486Y016106D02*
X021287Y016095D01*
X021286Y016118D01*
X021485Y016129D01*
X021486Y016106D01*
G37*
G36*
X021413Y016052D02*
X021214Y016041D01*
X021213Y016064D01*
X021412Y016075D01*
X021413Y016052D01*
G37*
G36*
X021621Y015913D02*
X021422Y015902D01*
X021421Y015925D01*
X021620Y015936D01*
X021621Y015913D01*
G37*
G36*
X021477Y015805D02*
X021278Y015794D01*
X021277Y015817D01*
X021476Y015828D01*
X021477Y015805D01*
G37*
G36*
X021428Y015777D02*
X021229Y015766D01*
X021228Y015789D01*
X021427Y015800D01*
X021428Y015777D01*
G37*
G36*
X021342Y015998D02*
X021143Y015987D01*
X021142Y016010D01*
X021341Y016021D01*
X021342Y015998D01*
G37*
G36*
X021287Y017021D02*
X021088Y017010D01*
X021087Y017033D01*
X021286Y017044D01*
X021287Y017021D01*
G37*
G36*
X022583Y015740D02*
X022384Y015729D01*
X022383Y015752D01*
X022582Y015763D01*
X022583Y015740D01*
G37*
G36*
X022590Y015615D02*
X022391Y015604D01*
X022390Y015627D01*
X022589Y015638D01*
X022590Y015615D01*
G37*
G36*
X022603Y015365D02*
X022404Y015354D01*
X022403Y015377D01*
X022602Y015388D01*
X022603Y015365D01*
G37*
G36*
X023147Y015495D02*
X022948Y015484D01*
X022947Y015507D01*
X023146Y015518D01*
X023147Y015495D01*
G37*
G36*
X023198Y015472D02*
X022999Y015461D01*
X022998Y015484D01*
X023197Y015495D01*
X023198Y015472D01*
G37*
G36*
X023276Y015427D02*
X023077Y015416D01*
X023076Y015439D01*
X023275Y015450D01*
X023276Y015427D01*
G37*
G36*
X023240Y015174D02*
X023041Y015163D01*
X023040Y015186D01*
X023239Y015197D01*
X023240Y015174D01*
G37*
G36*
X023162Y015220D02*
X022963Y015209D01*
X022962Y015232D01*
X023161Y015243D01*
X023162Y015220D01*
G37*
G36*
X024519Y016045D02*
X024320Y016034D01*
X024319Y016057D01*
X024518Y016068D01*
X024519Y016045D01*
G37*
G36*
X024494Y016519D02*
X024295Y016508D01*
X024294Y016531D01*
X024493Y016542D01*
X024494Y016519D01*
G37*
G36*
X019627Y016230D02*
X019428Y016219D01*
X019427Y016242D01*
X019626Y016253D01*
X019627Y016230D01*
G37*
G36*
X019628Y016205D02*
X019429Y016194D01*
X019428Y016217D01*
X019627Y016228D01*
X019628Y016205D01*
G37*
G36*
X019630Y016181D02*
X019431Y016170D01*
X019430Y016193D01*
X019629Y016204D01*
X019630Y016181D01*
G37*
G36*
X019631Y016156D02*
X019432Y016145D01*
X019431Y016168D01*
X019630Y016179D01*
X019631Y016156D01*
G37*
G36*
X019657Y015681D02*
X019458Y015670D01*
X019457Y015693D01*
X019656Y015704D01*
X019657Y015681D01*
G37*
G36*
X019658Y015656D02*
X019459Y015645D01*
X019458Y015668D01*
X019657Y015679D01*
X019658Y015656D01*
G37*
G36*
X019660Y015631D02*
X019461Y015620D01*
X019460Y015643D01*
X019659Y015654D01*
X019660Y015631D01*
G37*
G36*
X019661Y015606D02*
X019462Y015595D01*
X019461Y015618D01*
X019660Y015629D01*
X019661Y015606D01*
G37*
D62*
G36*
X022614Y016993D02*
X022191Y016970D01*
X022190Y016993D01*
X022613Y017016D01*
X022614Y016993D01*
G37*
G36*
X024591Y017025D02*
X024168Y017002D01*
X024167Y017025D01*
X024590Y017048D01*
X024591Y017025D01*
G37*
G36*
X024574Y017325D02*
X024151Y017302D01*
X024150Y017325D01*
X024573Y017348D01*
X024574Y017325D01*
G37*
G36*
X024670Y015552D02*
X024247Y015529D01*
X024246Y015552D01*
X024669Y015575D01*
X024670Y015552D01*
G37*
G36*
X024687Y015253D02*
X024264Y015230D01*
X024263Y015253D01*
X024686Y015276D01*
X024687Y015253D01*
G37*
D63*
G36*
X023302Y015403D02*
X023129Y015394D01*
X023128Y015417D01*
X023301Y015426D01*
X023302Y015403D01*
G37*
G36*
X023224Y015449D02*
X023051Y015440D01*
X023050Y015463D01*
X023223Y015472D01*
X023224Y015449D01*
G37*
G36*
X023095Y015517D02*
X022922Y015508D01*
X022921Y015531D01*
X023094Y015540D01*
X023095Y015517D01*
G37*
G36*
X023110Y015242D02*
X022937Y015233D01*
X022936Y015256D01*
X023109Y015265D01*
X023110Y015242D01*
G37*
G36*
X023188Y015196D02*
X023015Y015187D01*
X023014Y015210D01*
X023187Y015219D01*
X023188Y015196D01*
G37*
G36*
X022903Y015356D02*
X022730Y015347D01*
X022729Y015370D01*
X022902Y015379D01*
X022903Y015356D01*
G37*
G36*
X022874Y015880D02*
X022701Y015871D01*
X022700Y015894D01*
X022873Y015903D01*
X022874Y015880D01*
G37*
G36*
X022202Y015819D02*
X022029Y015810D01*
X022028Y015833D01*
X022201Y015842D01*
X022202Y015819D01*
G37*
G36*
X022219Y015494D02*
X022046Y015485D01*
X022045Y015508D01*
X022218Y015517D01*
X022219Y015494D01*
G37*
G36*
X021838Y016074D02*
X021665Y016065D01*
X021664Y016088D01*
X021837Y016097D01*
X021838Y016074D01*
G37*
G36*
X021959Y016156D02*
X021786Y016147D01*
X021785Y016170D01*
X021958Y016179D01*
X021959Y016156D01*
G37*
G36*
X021896Y016403D02*
X021723Y016394D01*
X021722Y016417D01*
X021895Y016426D01*
X021896Y016403D01*
G37*
G36*
X021968Y016457D02*
X021795Y016448D01*
X021794Y016471D01*
X021967Y016480D01*
X021968Y016457D01*
G37*
G36*
X022146Y016842D02*
X021973Y016833D01*
X021972Y016856D01*
X022145Y016865D01*
X022146Y016842D01*
G37*
G36*
X022819Y016904D02*
X022646Y016895D01*
X022645Y016918D01*
X022818Y016927D01*
X022819Y016904D01*
G37*
G36*
X022839Y016529D02*
X022666Y016520D01*
X022665Y016543D01*
X022838Y016552D01*
X022839Y016529D01*
G37*
G36*
X021904Y017180D02*
X021731Y017171D01*
X021730Y017194D01*
X021903Y017203D01*
X021904Y017180D01*
G37*
G36*
X021831Y017126D02*
X021658Y017117D01*
X021657Y017140D01*
X021830Y017149D01*
X021831Y017126D01*
G37*
G36*
X021783Y017098D02*
X021610Y017089D01*
X021609Y017112D01*
X021782Y017121D01*
X021783Y017098D01*
G37*
G36*
X021565Y016936D02*
X021392Y016927D01*
X021391Y016950D01*
X021564Y016959D01*
X021565Y016936D01*
G37*
G36*
X021517Y016908D02*
X021344Y016899D01*
X021343Y016922D01*
X021516Y016931D01*
X021517Y016908D01*
G37*
G36*
X021372Y016800D02*
X021199Y016791D01*
X021198Y016814D01*
X021371Y016823D01*
X021372Y016800D01*
G37*
G36*
X021381Y017101D02*
X021208Y017092D01*
X021207Y017115D01*
X021380Y017124D01*
X021381Y017101D01*
G37*
G36*
X021290Y016495D02*
X021117Y016486D01*
X021116Y016509D01*
X021289Y016518D01*
X021290Y016495D01*
G37*
G36*
X021436Y016078D02*
X021263Y016069D01*
X021262Y016092D01*
X021435Y016101D01*
X021436Y016078D01*
G37*
G36*
X021572Y015885D02*
X021399Y015876D01*
X021398Y015899D01*
X021571Y015908D01*
X021572Y015885D01*
G37*
G36*
X021345Y015472D02*
X021172Y015463D01*
X021171Y015486D01*
X021344Y015495D01*
X021345Y015472D01*
G37*
G36*
X019630Y015705D02*
X019457Y015696D01*
X019456Y015719D01*
X019629Y015728D01*
X019630Y015705D01*
G37*
G36*
X019629Y015729D02*
X019456Y015720D01*
X019455Y015743D01*
X019628Y015752D01*
X019629Y015729D01*
G37*
G36*
X019627Y015754D02*
X019454Y015745D01*
X019453Y015768D01*
X019626Y015777D01*
X019627Y015754D01*
G37*
G36*
X019626Y015779D02*
X019453Y015770D01*
X019452Y015793D01*
X019625Y015802D01*
X019626Y015779D01*
G37*
G36*
X019625Y015804D02*
X019452Y015795D01*
X019451Y015818D01*
X019624Y015827D01*
X019625Y015804D01*
G37*
G36*
X019623Y015829D02*
X019450Y015820D01*
X019449Y015843D01*
X019622Y015852D01*
X019623Y015829D01*
G37*
G36*
X019622Y015854D02*
X019449Y015845D01*
X019448Y015868D01*
X019621Y015877D01*
X019622Y015854D01*
G37*
G36*
X019621Y015879D02*
X019448Y015870D01*
X019447Y015893D01*
X019620Y015902D01*
X019621Y015879D01*
G37*
G36*
X019619Y015904D02*
X019446Y015895D01*
X019445Y015918D01*
X019618Y015927D01*
X019619Y015904D01*
G37*
G36*
X019618Y015929D02*
X019445Y015920D01*
X019444Y015943D01*
X019617Y015952D01*
X019618Y015929D01*
G37*
G36*
X019617Y015954D02*
X019444Y015945D01*
X019443Y015968D01*
X019616Y015977D01*
X019617Y015954D01*
G37*
G36*
X019615Y015979D02*
X019442Y015970D01*
X019441Y015993D01*
X019614Y016002D01*
X019615Y015979D01*
G37*
G36*
X019614Y016004D02*
X019441Y015995D01*
X019440Y016018D01*
X019613Y016027D01*
X019614Y016004D01*
G37*
G36*
X019612Y016029D02*
X019439Y016020D01*
X019438Y016043D01*
X019611Y016052D01*
X019612Y016029D01*
G37*
G36*
X019611Y016054D02*
X019438Y016045D01*
X019437Y016068D01*
X019610Y016077D01*
X019611Y016054D01*
G37*
G36*
X019610Y016079D02*
X019437Y016070D01*
X019436Y016093D01*
X019609Y016102D01*
X019610Y016079D01*
G37*
G36*
X019608Y016104D02*
X019435Y016095D01*
X019434Y016118D01*
X019607Y016127D01*
X019608Y016104D01*
G37*
G36*
X019607Y016129D02*
X019434Y016120D01*
X019433Y016143D01*
X019606Y016152D01*
X019607Y016129D01*
G37*
D64*
G36*
X024613Y017075D02*
X024140Y017051D01*
X024139Y017075D01*
X024612Y017099D01*
X024613Y017075D01*
G37*
G36*
X024612Y017100D02*
X024139Y017076D01*
X024138Y017100D01*
X024611Y017124D01*
X024612Y017100D01*
G37*
G36*
X024603Y017275D02*
X024130Y017251D01*
X024129Y017275D01*
X024602Y017299D01*
X024603Y017275D01*
G37*
G36*
X024601Y017300D02*
X024128Y017276D01*
X024127Y017300D01*
X024600Y017324D01*
X024601Y017300D01*
G37*
G36*
X024650Y016401D02*
X024177Y016377D01*
X024176Y016401D01*
X024649Y016425D01*
X024650Y016401D01*
G37*
G36*
X024651Y016376D02*
X024178Y016352D01*
X024177Y016376D01*
X024650Y016400D01*
X024651Y016376D01*
G37*
G36*
X024661Y016201D02*
X024188Y016177D01*
X024187Y016201D01*
X024660Y016225D01*
X024661Y016201D01*
G37*
G36*
X024662Y016176D02*
X024189Y016152D01*
X024188Y016176D01*
X024661Y016200D01*
X024662Y016176D01*
G37*
G36*
X024699Y015502D02*
X024226Y015478D01*
X024225Y015502D01*
X024698Y015526D01*
X024699Y015502D01*
G37*
G36*
X024700Y015477D02*
X024227Y015453D01*
X024226Y015477D01*
X024699Y015501D01*
X024700Y015477D01*
G37*
G36*
X024709Y015302D02*
X024236Y015278D01*
X024235Y015302D01*
X024708Y015326D01*
X024709Y015302D01*
G37*
G36*
X024711Y015278D02*
X024238Y015254D01*
X024237Y015278D01*
X024710Y015302D01*
X024711Y015278D01*
G37*
D65*
G36*
X023510Y015239D02*
X023411Y015234D01*
X023410Y015257D01*
X023509Y015262D01*
X023510Y015239D01*
G37*
D66*
G36*
X024709Y015328D02*
X024211Y015302D01*
X024209Y015326D01*
X024707Y015352D01*
X024709Y015328D01*
G37*
G36*
X024707Y015353D02*
X024209Y015327D01*
X024207Y015351D01*
X024705Y015377D01*
X024707Y015353D01*
G37*
G36*
X024706Y015378D02*
X024208Y015352D01*
X024206Y015376D01*
X024704Y015402D01*
X024706Y015378D01*
G37*
G36*
X024703Y015428D02*
X024205Y015402D01*
X024203Y015426D01*
X024701Y015452D01*
X024703Y015428D01*
G37*
G36*
X024702Y015453D02*
X024204Y015427D01*
X024202Y015451D01*
X024700Y015477D01*
X024702Y015453D01*
G37*
G36*
X024660Y016226D02*
X024162Y016200D01*
X024160Y016224D01*
X024658Y016250D01*
X024660Y016226D01*
G37*
G36*
X024659Y016251D02*
X024161Y016225D01*
X024159Y016249D01*
X024657Y016275D01*
X024659Y016251D01*
G37*
G36*
X024654Y016326D02*
X024156Y016300D01*
X024154Y016324D01*
X024652Y016350D01*
X024654Y016326D01*
G37*
G36*
X024653Y016351D02*
X024155Y016325D01*
X024153Y016349D01*
X024651Y016375D01*
X024653Y016351D01*
G37*
G36*
X024611Y017125D02*
X024113Y017099D01*
X024111Y017123D01*
X024609Y017149D01*
X024611Y017125D01*
G37*
G36*
X024610Y017150D02*
X024112Y017124D01*
X024110Y017148D01*
X024608Y017174D01*
X024610Y017150D01*
G37*
G36*
X024607Y017200D02*
X024109Y017174D01*
X024107Y017198D01*
X024605Y017224D01*
X024607Y017200D01*
G37*
G36*
X024606Y017225D02*
X024108Y017199D01*
X024106Y017223D01*
X024604Y017249D01*
X024606Y017225D01*
G37*
G36*
X024604Y017250D02*
X024106Y017224D01*
X024104Y017248D01*
X024602Y017274D01*
X024604Y017250D01*
G37*
D67*
G36*
X023069Y015541D02*
X022870Y015530D01*
X022869Y015553D01*
X023068Y015564D01*
X023069Y015541D01*
G37*
G36*
X023006Y015312D02*
X022807Y015301D01*
X022806Y015324D01*
X023005Y015335D01*
X023006Y015312D01*
G37*
G36*
X023084Y015266D02*
X022885Y015255D01*
X022884Y015278D01*
X023083Y015289D01*
X023084Y015266D01*
G37*
G36*
X022955Y015334D02*
X022756Y015323D01*
X022755Y015346D01*
X022954Y015357D01*
X022955Y015334D01*
G37*
G36*
X023533Y015290D02*
X023334Y015279D01*
X023333Y015302D01*
X023532Y015313D01*
X023533Y015290D01*
G37*
G36*
X022323Y015450D02*
X022124Y015439D01*
X022123Y015462D01*
X022322Y015473D01*
X022323Y015450D01*
G37*
G36*
X022271Y015472D02*
X022072Y015461D01*
X022071Y015484D01*
X022270Y015495D01*
X022271Y015472D01*
G37*
G36*
X022251Y015847D02*
X022052Y015836D01*
X022051Y015859D01*
X022250Y015870D01*
X022251Y015847D01*
G37*
G36*
X022300Y015874D02*
X022101Y015863D01*
X022100Y015886D01*
X022299Y015897D01*
X022300Y015874D01*
G37*
G36*
X022273Y016374D02*
X022074Y016363D01*
X022073Y016386D01*
X022272Y016397D01*
X022273Y016374D01*
G37*
G36*
X022393Y016455D02*
X022194Y016444D01*
X022193Y016467D01*
X022392Y016478D01*
X022393Y016455D01*
G37*
G36*
X022196Y016870D02*
X021997Y016859D01*
X021996Y016882D01*
X022195Y016893D01*
X022196Y016870D01*
G37*
G36*
X022244Y016898D02*
X022045Y016887D01*
X022044Y016910D01*
X022243Y016921D01*
X022244Y016898D01*
G37*
G36*
X021759Y017072D02*
X021560Y017061D01*
X021559Y017084D01*
X021758Y017095D01*
X021759Y017072D01*
G37*
G36*
X021687Y017018D02*
X021488Y017007D01*
X021487Y017030D01*
X021686Y017041D01*
X021687Y017018D01*
G37*
G36*
X021751Y016295D02*
X021552Y016284D01*
X021551Y016307D01*
X021750Y016318D01*
X021751Y016295D01*
G37*
G36*
X021679Y016241D02*
X021480Y016230D01*
X021479Y016253D01*
X021678Y016264D01*
X021679Y016241D01*
G37*
G36*
X021815Y016048D02*
X021616Y016037D01*
X021615Y016060D01*
X021814Y016071D01*
X021815Y016048D01*
G37*
G36*
X021742Y015994D02*
X021543Y015983D01*
X021542Y016006D01*
X021741Y016017D01*
X021742Y015994D01*
G37*
G36*
X021670Y015940D02*
X021471Y015929D01*
X021470Y015952D01*
X021669Y015963D01*
X021670Y015940D01*
G37*
G36*
X021100Y015835D02*
X020901Y015824D01*
X020900Y015847D01*
X021099Y015858D01*
X021100Y015835D01*
G37*
D68*
G36*
X024632Y017177D02*
X024110Y017149D01*
X024108Y017173D01*
X024630Y017201D01*
X024632Y017177D01*
G37*
G36*
X024680Y016303D02*
X024158Y016275D01*
X024156Y016299D01*
X024678Y016327D01*
X024680Y016303D01*
G37*
G36*
X024681Y016278D02*
X024159Y016250D01*
X024157Y016274D01*
X024679Y016302D01*
X024681Y016278D01*
G37*
G36*
X024728Y015404D02*
X024206Y015376D01*
X024204Y015400D01*
X024726Y015428D01*
X024728Y015404D01*
G37*
D69*
G36*
X023528Y015390D02*
X023379Y015381D01*
X023378Y015404D01*
X023527Y015413D01*
X023528Y015390D01*
G37*
G36*
X023526Y015415D02*
X023377Y015406D01*
X023376Y015429D01*
X023525Y015438D01*
X023526Y015415D01*
G37*
G36*
X023525Y015440D02*
X023376Y015431D01*
X023375Y015454D01*
X023524Y015463D01*
X023525Y015440D01*
G37*
G36*
X023524Y015465D02*
X023375Y015456D01*
X023374Y015479D01*
X023523Y015488D01*
X023524Y015465D01*
G37*
G36*
X023522Y015490D02*
X023373Y015481D01*
X023372Y015504D01*
X023521Y015513D01*
X023522Y015490D01*
G37*
G36*
X023521Y015515D02*
X023372Y015506D01*
X023371Y015529D01*
X023520Y015538D01*
X023521Y015515D01*
G37*
G36*
X023520Y015540D02*
X023371Y015531D01*
X023370Y015554D01*
X023519Y015563D01*
X023520Y015540D01*
G37*
G36*
X023518Y015565D02*
X023369Y015556D01*
X023368Y015579D01*
X023517Y015588D01*
X023518Y015565D01*
G37*
G36*
X023517Y015590D02*
X023368Y015581D01*
X023367Y015604D01*
X023516Y015613D01*
X023517Y015590D01*
G37*
G36*
X023516Y015615D02*
X023367Y015606D01*
X023366Y015629D01*
X023515Y015638D01*
X023516Y015615D01*
G37*
G36*
X023514Y015640D02*
X023365Y015631D01*
X023364Y015654D01*
X023513Y015663D01*
X023514Y015640D01*
G37*
G36*
X023513Y015665D02*
X023364Y015656D01*
X023363Y015679D01*
X023512Y015688D01*
X023513Y015665D01*
G37*
G36*
X023512Y015690D02*
X023363Y015681D01*
X023362Y015704D01*
X023511Y015713D01*
X023512Y015690D01*
G37*
G36*
X023510Y015715D02*
X023361Y015706D01*
X023360Y015729D01*
X023509Y015738D01*
X023510Y015715D01*
G37*
G36*
X023509Y015740D02*
X023360Y015731D01*
X023359Y015754D01*
X023508Y015763D01*
X023509Y015740D01*
G37*
G36*
X023507Y015765D02*
X023358Y015756D01*
X023357Y015779D01*
X023506Y015788D01*
X023507Y015765D01*
G37*
G36*
X023506Y015790D02*
X023357Y015781D01*
X023356Y015804D01*
X023505Y015813D01*
X023506Y015790D01*
G37*
G36*
X023505Y015815D02*
X023356Y015806D01*
X023355Y015829D01*
X023504Y015838D01*
X023505Y015815D01*
G37*
G36*
X023503Y015840D02*
X023354Y015831D01*
X023353Y015854D01*
X023502Y015863D01*
X023503Y015840D01*
G37*
G36*
X023502Y015865D02*
X023353Y015856D01*
X023352Y015879D01*
X023501Y015888D01*
X023502Y015865D01*
G37*
G36*
X023501Y015890D02*
X023352Y015881D01*
X023351Y015904D01*
X023500Y015913D01*
X023501Y015890D01*
G37*
G36*
X023499Y015915D02*
X023350Y015906D01*
X023349Y015929D01*
X023498Y015938D01*
X023499Y015915D01*
G37*
G36*
X023498Y015940D02*
X023349Y015931D01*
X023348Y015954D01*
X023497Y015963D01*
X023498Y015940D01*
G37*
G36*
X023497Y015965D02*
X023348Y015956D01*
X023347Y015979D01*
X023496Y015988D01*
X023497Y015965D01*
G37*
G36*
X023495Y015990D02*
X023346Y015981D01*
X023345Y016004D01*
X023494Y016013D01*
X023495Y015990D01*
G37*
G36*
X023494Y016015D02*
X023345Y016006D01*
X023344Y016029D01*
X023493Y016038D01*
X023494Y016015D01*
G37*
G36*
X023493Y016040D02*
X023344Y016031D01*
X023343Y016054D01*
X023492Y016063D01*
X023493Y016040D01*
G37*
G36*
X023491Y016065D02*
X023342Y016056D01*
X023341Y016079D01*
X023490Y016088D01*
X023491Y016065D01*
G37*
G36*
X023490Y016089D02*
X023341Y016080D01*
X023340Y016103D01*
X023489Y016112D01*
X023490Y016089D01*
G37*
G36*
X023489Y016114D02*
X023340Y016105D01*
X023339Y016128D01*
X023488Y016137D01*
X023489Y016114D01*
G37*
G36*
X023487Y016139D02*
X023338Y016130D01*
X023337Y016153D01*
X023486Y016162D01*
X023487Y016139D01*
G37*
G36*
X023486Y016164D02*
X023337Y016155D01*
X023336Y016178D01*
X023485Y016187D01*
X023486Y016164D01*
G37*
G36*
X023484Y016189D02*
X023335Y016180D01*
X023334Y016203D01*
X023483Y016212D01*
X023484Y016189D01*
G37*
G36*
X023483Y016214D02*
X023334Y016205D01*
X023333Y016228D01*
X023482Y016237D01*
X023483Y016214D01*
G37*
G36*
X023482Y016239D02*
X023333Y016230D01*
X023332Y016253D01*
X023481Y016262D01*
X023482Y016239D01*
G37*
G36*
X023480Y016264D02*
X023331Y016255D01*
X023330Y016278D01*
X023479Y016287D01*
X023480Y016264D01*
G37*
G36*
X023479Y016289D02*
X023330Y016280D01*
X023329Y016303D01*
X023478Y016312D01*
X023479Y016289D01*
G37*
G36*
X023478Y016314D02*
X023329Y016305D01*
X023328Y016328D01*
X023477Y016337D01*
X023478Y016314D01*
G37*
G36*
X023476Y016339D02*
X023327Y016330D01*
X023326Y016353D01*
X023475Y016362D01*
X023476Y016339D01*
G37*
G36*
X023475Y016364D02*
X023326Y016355D01*
X023325Y016378D01*
X023474Y016387D01*
X023475Y016364D01*
G37*
G36*
X023474Y016389D02*
X023325Y016380D01*
X023324Y016403D01*
X023473Y016412D01*
X023474Y016389D01*
G37*
G36*
X023472Y016414D02*
X023323Y016405D01*
X023322Y016428D01*
X023471Y016437D01*
X023472Y016414D01*
G37*
G36*
X023471Y016439D02*
X023322Y016430D01*
X023321Y016453D01*
X023470Y016462D01*
X023471Y016439D01*
G37*
G36*
X023470Y016464D02*
X023321Y016455D01*
X023320Y016478D01*
X023469Y016487D01*
X023470Y016464D01*
G37*
G36*
X023468Y016489D02*
X023319Y016480D01*
X023318Y016503D01*
X023467Y016512D01*
X023468Y016489D01*
G37*
G36*
X023467Y016514D02*
X023318Y016505D01*
X023317Y016528D01*
X023466Y016537D01*
X023467Y016514D01*
G37*
G36*
X023466Y016539D02*
X023317Y016530D01*
X023316Y016553D01*
X023465Y016562D01*
X023466Y016539D01*
G37*
G36*
X023464Y016564D02*
X023315Y016555D01*
X023314Y016578D01*
X023463Y016587D01*
X023464Y016564D01*
G37*
G36*
X023463Y016589D02*
X023314Y016580D01*
X023313Y016603D01*
X023462Y016612D01*
X023463Y016589D01*
G37*
G36*
X023461Y016614D02*
X023312Y016605D01*
X023311Y016628D01*
X023460Y016637D01*
X023461Y016614D01*
G37*
G36*
X023460Y016639D02*
X023311Y016630D01*
X023310Y016653D01*
X023459Y016662D01*
X023460Y016639D01*
G37*
G36*
X023459Y016664D02*
X023310Y016655D01*
X023309Y016678D01*
X023458Y016687D01*
X023459Y016664D01*
G37*
G36*
X023457Y016689D02*
X023308Y016680D01*
X023307Y016703D01*
X023456Y016712D01*
X023457Y016689D01*
G37*
G36*
X023456Y016714D02*
X023307Y016705D01*
X023306Y016728D01*
X023455Y016737D01*
X023456Y016714D01*
G37*
G36*
X023455Y016739D02*
X023306Y016730D01*
X023305Y016753D01*
X023454Y016762D01*
X023455Y016739D01*
G37*
G36*
X023453Y016763D02*
X023304Y016754D01*
X023303Y016777D01*
X023452Y016786D01*
X023453Y016763D01*
G37*
G36*
X023452Y016788D02*
X023303Y016779D01*
X023302Y016802D01*
X023451Y016811D01*
X023452Y016788D01*
G37*
G36*
X023451Y016813D02*
X023302Y016804D01*
X023301Y016827D01*
X023450Y016836D01*
X023451Y016813D01*
G37*
G36*
X023449Y016838D02*
X023300Y016829D01*
X023299Y016852D01*
X023448Y016861D01*
X023449Y016838D01*
G37*
G36*
X023448Y016863D02*
X023299Y016854D01*
X023298Y016877D01*
X023447Y016886D01*
X023448Y016863D01*
G37*
G36*
X023447Y016888D02*
X023298Y016879D01*
X023297Y016902D01*
X023446Y016911D01*
X023447Y016888D01*
G37*
G36*
X023445Y016913D02*
X023296Y016904D01*
X023295Y016927D01*
X023444Y016936D01*
X023445Y016913D01*
G37*
G36*
X023444Y016938D02*
X023295Y016929D01*
X023294Y016952D01*
X023443Y016961D01*
X023444Y016938D01*
G37*
G36*
X023443Y016963D02*
X023294Y016954D01*
X023293Y016977D01*
X023442Y016986D01*
X023443Y016963D01*
G37*
G36*
X023441Y016988D02*
X023292Y016979D01*
X023291Y017002D01*
X023440Y017011D01*
X023441Y016988D01*
G37*
G36*
X023440Y017013D02*
X023291Y017004D01*
X023290Y017027D01*
X023439Y017036D01*
X023440Y017013D01*
G37*
G36*
X023438Y017038D02*
X023289Y017029D01*
X023288Y017052D01*
X023437Y017061D01*
X023438Y017038D01*
G37*
G36*
X023437Y017063D02*
X023288Y017054D01*
X023287Y017077D01*
X023436Y017086D01*
X023437Y017063D01*
G37*
G36*
X023436Y017088D02*
X023287Y017079D01*
X023286Y017102D01*
X023435Y017111D01*
X023436Y017088D01*
G37*
G36*
X023434Y017113D02*
X023285Y017104D01*
X023284Y017127D01*
X023433Y017136D01*
X023434Y017113D01*
G37*
G36*
X023433Y017138D02*
X023284Y017129D01*
X023283Y017152D01*
X023432Y017161D01*
X023433Y017138D01*
G37*
G36*
X023432Y017163D02*
X023283Y017154D01*
X023282Y017177D01*
X023431Y017186D01*
X023432Y017163D01*
G37*
G36*
X023430Y017188D02*
X023281Y017179D01*
X023280Y017202D01*
X023429Y017211D01*
X023430Y017188D01*
G37*
G36*
X023429Y017213D02*
X023280Y017204D01*
X023279Y017227D01*
X023428Y017236D01*
X023429Y017213D01*
G37*
G36*
X023428Y017238D02*
X023279Y017229D01*
X023278Y017252D01*
X023427Y017261D01*
X023428Y017238D01*
G37*
G36*
X023426Y017263D02*
X023277Y017254D01*
X023276Y017277D01*
X023425Y017286D01*
X023426Y017263D01*
G37*
G36*
X023425Y017288D02*
X023276Y017279D01*
X023275Y017302D01*
X023424Y017311D01*
X023425Y017288D01*
G37*
G36*
X022899Y016834D02*
X022750Y016825D01*
X022749Y016848D01*
X022898Y016857D01*
X022899Y016834D01*
G37*
G36*
X022926Y016785D02*
X022777Y016776D01*
X022776Y016799D01*
X022925Y016808D01*
X022926Y016785D01*
G37*
G36*
X022928Y016760D02*
X022779Y016751D01*
X022778Y016774D01*
X022927Y016783D01*
X022928Y016760D01*
G37*
G36*
X022933Y016660D02*
X022784Y016651D01*
X022783Y016674D01*
X022932Y016683D01*
X022933Y016660D01*
G37*
G36*
X022911Y016609D02*
X022762Y016600D01*
X022761Y016623D01*
X022910Y016632D01*
X022911Y016609D01*
G37*
G36*
X022887Y016583D02*
X022738Y016574D01*
X022737Y016597D01*
X022886Y016606D01*
X022887Y016583D01*
G37*
G36*
X022864Y016556D02*
X022715Y016547D01*
X022714Y016570D01*
X022863Y016579D01*
X022864Y016556D01*
G37*
G36*
X022872Y016857D02*
X022723Y016848D01*
X022722Y016871D01*
X022871Y016880D01*
X022872Y016857D01*
G37*
G36*
X022846Y016881D02*
X022697Y016872D01*
X022696Y016895D01*
X022845Y016904D01*
X022846Y016881D01*
G37*
G36*
X022902Y015857D02*
X022753Y015848D01*
X022752Y015871D01*
X022901Y015880D01*
X022902Y015857D01*
G37*
G36*
X022954Y015810D02*
X022805Y015801D01*
X022804Y015824D01*
X022953Y015833D01*
X022954Y015810D01*
G37*
G36*
X022982Y015762D02*
X022833Y015753D01*
X022832Y015776D01*
X022981Y015785D01*
X022982Y015762D01*
G37*
G36*
X022987Y015662D02*
X022838Y015653D01*
X022837Y015676D01*
X022986Y015685D01*
X022987Y015662D01*
G37*
G36*
X022989Y015637D02*
X022840Y015628D01*
X022839Y015651D01*
X022988Y015660D01*
X022989Y015637D01*
G37*
G36*
X022928Y015834D02*
X022779Y015825D01*
X022778Y015848D01*
X022927Y015857D01*
X022928Y015834D01*
G37*
G36*
X020533Y015679D02*
X020384Y015670D01*
X020383Y015693D01*
X020532Y015702D01*
X020533Y015679D01*
G37*
G36*
X020510Y015628D02*
X020361Y015619D01*
X020360Y015642D01*
X020509Y015651D01*
X020510Y015628D01*
G37*
G36*
X020516Y015528D02*
X020367Y015519D01*
X020366Y015542D01*
X020515Y015551D01*
X020516Y015528D01*
G37*
G36*
X020517Y015503D02*
X020368Y015494D01*
X020367Y015517D01*
X020516Y015526D01*
X020517Y015503D01*
G37*
G36*
X020545Y015454D02*
X020396Y015445D01*
X020395Y015468D01*
X020544Y015477D01*
X020545Y015454D01*
G37*
G36*
X020489Y016478D02*
X020340Y016469D01*
X020339Y016492D01*
X020488Y016501D01*
X020489Y016478D01*
G37*
G36*
X020462Y016526D02*
X020313Y016517D01*
X020312Y016540D01*
X020461Y016549D01*
X020462Y016526D01*
G37*
G36*
X020456Y016626D02*
X020307Y016617D01*
X020306Y016640D01*
X020455Y016649D01*
X020456Y016626D01*
G37*
G36*
X020455Y016651D02*
X020306Y016642D01*
X020305Y016665D01*
X020454Y016674D01*
X020455Y016651D01*
G37*
G36*
X020477Y016702D02*
X020328Y016693D01*
X020327Y016716D01*
X020476Y016725D01*
X020477Y016702D01*
G37*
D70*
G36*
X021104Y015309D02*
X020679Y015286D01*
X020678Y015309D01*
X021103Y015332D01*
X021104Y015309D01*
G37*
D71*
G36*
X022825Y015401D02*
X022279Y015373D01*
X022277Y015397D01*
X022823Y015425D01*
X022825Y015401D01*
G37*
D72*
G36*
X021178Y015337D02*
X020604Y015307D01*
X020602Y015331D01*
X021176Y015361D01*
X021178Y015337D01*
G37*
G36*
X021094Y016885D02*
X020520Y016855D01*
X020518Y016879D01*
X021092Y016909D01*
X021094Y016885D01*
G37*
D73*
G36*
X021123Y016361D02*
X020525Y016329D01*
X020523Y016353D01*
X021121Y016385D01*
X021123Y016361D01*
G37*
G36*
X021150Y015861D02*
X020552Y015829D01*
X020550Y015853D01*
X021148Y015885D01*
X021150Y015861D01*
G37*
G36*
X022771Y015949D02*
X022173Y015917D01*
X022171Y015941D01*
X022769Y015973D01*
X022771Y015949D01*
G37*
G36*
X022744Y016448D02*
X022146Y016416D01*
X022144Y016440D01*
X022742Y016472D01*
X022744Y016448D01*
G37*
G36*
X022748Y015447D02*
X022150Y015415D01*
X022148Y015439D01*
X022746Y015471D01*
X022748Y015447D01*
G37*
G36*
X022800Y015425D02*
X022202Y015393D01*
X022200Y015417D01*
X022798Y015449D01*
X022800Y015425D01*
G37*
D74*
G36*
X022694Y015970D02*
X022247Y015946D01*
X022246Y015970D01*
X022693Y015994D01*
X022694Y015970D01*
G37*
G36*
X024589Y017049D02*
X024142Y017025D01*
X024141Y017049D01*
X024588Y017073D01*
X024589Y017049D01*
G37*
G36*
X024623Y016425D02*
X024176Y016401D01*
X024175Y016425D01*
X024622Y016449D01*
X024623Y016425D01*
G37*
G36*
X024637Y016151D02*
X024190Y016127D01*
X024189Y016151D01*
X024636Y016175D01*
X024637Y016151D01*
G37*
G36*
X024671Y015526D02*
X024224Y015502D01*
X024223Y015526D01*
X024670Y015550D01*
X024671Y015526D01*
G37*
D75*
G36*
X022742Y016949D02*
X022070Y016913D01*
X022068Y016937D01*
X022740Y016973D01*
X022742Y016949D01*
G37*
G36*
X021226Y015365D02*
X020554Y015329D01*
X020552Y015353D01*
X021224Y015389D01*
X021226Y015365D01*
G37*
D76*
G36*
X020725Y015364D02*
X020502Y015351D01*
X020501Y015374D01*
X020724Y015387D01*
X020725Y015364D01*
G37*
G36*
X019691Y015508D02*
X019468Y015495D01*
X019467Y015518D01*
X019690Y015531D01*
X019691Y015508D01*
G37*
G36*
X019689Y015533D02*
X019466Y015520D01*
X019465Y015543D01*
X019688Y015556D01*
X019689Y015533D01*
G37*
G36*
X019688Y015558D02*
X019465Y015545D01*
X019464Y015568D01*
X019687Y015581D01*
X019688Y015558D01*
G37*
G36*
X019687Y015583D02*
X019464Y015570D01*
X019463Y015593D01*
X019686Y015606D01*
X019687Y015583D01*
G37*
G36*
X019650Y016257D02*
X019427Y016244D01*
X019426Y016267D01*
X019649Y016280D01*
X019650Y016257D01*
G37*
G36*
X019649Y016282D02*
X019426Y016269D01*
X019425Y016292D01*
X019648Y016305D01*
X019649Y016282D01*
G37*
G36*
X019648Y016307D02*
X019425Y016294D01*
X019424Y016317D01*
X019647Y016330D01*
X019648Y016307D01*
G37*
G36*
X020647Y016812D02*
X020424Y016799D01*
X020423Y016822D01*
X020646Y016835D01*
X020647Y016812D01*
G37*
D77*
G36*
X024567Y016999D02*
X024194Y016978D01*
X024193Y017001D01*
X024566Y017022D01*
X024567Y016999D01*
G37*
G36*
X024596Y016475D02*
X024223Y016454D01*
X024222Y016477D01*
X024595Y016498D01*
X024596Y016475D01*
G37*
G36*
X024616Y016100D02*
X024243Y016079D01*
X024242Y016102D01*
X024615Y016123D01*
X024616Y016100D01*
G37*
G36*
X024644Y015576D02*
X024271Y015555D01*
X024270Y015578D01*
X024643Y015599D01*
X024644Y015576D01*
G37*
D78*
G36*
X022193Y015518D02*
X022020Y015509D01*
X022019Y015532D01*
X022192Y015541D01*
X022193Y015518D01*
G37*
G36*
X022178Y015792D02*
X022005Y015783D01*
X022004Y015806D01*
X022177Y015815D01*
X022178Y015792D01*
G37*
G36*
X022031Y016210D02*
X021858Y016201D01*
X021857Y016224D01*
X022030Y016233D01*
X022031Y016210D01*
G37*
G36*
X022088Y016539D02*
X021915Y016530D01*
X021914Y016553D01*
X022087Y016562D01*
X022088Y016539D01*
G37*
G36*
X022123Y016816D02*
X021950Y016807D01*
X021949Y016830D01*
X022122Y016839D01*
X022123Y016816D01*
G37*
G36*
X021445Y016854D02*
X021272Y016845D01*
X021271Y016868D01*
X021444Y016877D01*
X021445Y016854D01*
G37*
G36*
X021324Y016773D02*
X021151Y016764D01*
X021150Y016787D01*
X021323Y016796D01*
X021324Y016773D01*
G37*
G36*
X021237Y016993D02*
X021064Y016984D01*
X021063Y017007D01*
X021236Y017016D01*
X021237Y016993D01*
G37*
G36*
X021309Y017047D02*
X021136Y017038D01*
X021135Y017061D01*
X021308Y017070D01*
X021309Y017047D01*
G37*
G36*
X021266Y016469D02*
X021093Y016460D01*
X021092Y016483D01*
X021265Y016492D01*
X021266Y016469D01*
G37*
G36*
X021509Y016132D02*
X021336Y016123D01*
X021335Y016146D01*
X021508Y016155D01*
X021509Y016132D01*
G37*
G36*
X021500Y015831D02*
X021327Y015822D01*
X021326Y015845D01*
X021499Y015854D01*
X021500Y015831D01*
G37*
G36*
X021380Y015749D02*
X021207Y015740D01*
X021206Y015763D01*
X021379Y015772D01*
X021380Y015749D01*
G37*
G36*
X021244Y015942D02*
X021071Y015933D01*
X021070Y015956D01*
X021243Y015965D01*
X021244Y015942D01*
G37*
G36*
X021321Y015446D02*
X021148Y015437D01*
X021147Y015460D01*
X021320Y015469D01*
X021321Y015446D01*
G37*
G36*
X020648Y015384D02*
X020475Y015375D01*
X020474Y015398D01*
X020647Y015407D01*
X020648Y015384D01*
G37*
G36*
X020628Y015759D02*
X020455Y015750D01*
X020454Y015773D01*
X020627Y015782D01*
X020628Y015759D01*
G37*
G36*
X020593Y016408D02*
X020420Y016399D01*
X020419Y016422D01*
X020592Y016431D01*
X020593Y016408D01*
G37*
G36*
X020573Y016782D02*
X020400Y016773D01*
X020399Y016796D01*
X020572Y016805D01*
X020573Y016782D01*
G37*
D79*
G36*
X020524Y016755D02*
X020377Y016747D01*
X020376Y016769D01*
X020523Y016777D01*
X020524Y016755D01*
G37*
G36*
X020541Y016431D02*
X020394Y016423D01*
X020393Y016445D01*
X020540Y016453D01*
X020541Y016431D01*
G37*
G36*
X020579Y015732D02*
X020432Y015724D01*
X020431Y015746D01*
X020578Y015754D01*
X020579Y015732D01*
G37*
G36*
X020597Y015407D02*
X020450Y015399D01*
X020449Y015421D01*
X020596Y015429D01*
X020597Y015407D01*
G37*
G36*
X022140Y015566D02*
X021993Y015558D01*
X021992Y015580D01*
X022139Y015588D01*
X022140Y015566D01*
G37*
G36*
X022167Y015542D02*
X022020Y015534D01*
X022019Y015556D01*
X022166Y015564D01*
X022167Y015542D01*
G37*
G36*
X022131Y015741D02*
X021984Y015733D01*
X021983Y015755D01*
X022130Y015763D01*
X022131Y015741D01*
G37*
G36*
X022154Y015767D02*
X022007Y015759D01*
X022006Y015781D01*
X022153Y015789D01*
X022154Y015767D01*
G37*
G36*
X022086Y016564D02*
X021939Y016556D01*
X021938Y016578D01*
X022085Y016586D01*
X022086Y016564D01*
G37*
G36*
X022085Y016589D02*
X021938Y016581D01*
X021937Y016603D01*
X022084Y016611D01*
X022085Y016589D01*
G37*
G36*
X022075Y016764D02*
X021928Y016756D01*
X021927Y016778D01*
X022074Y016786D01*
X022075Y016764D01*
G37*
G36*
X022099Y016790D02*
X021952Y016782D01*
X021951Y016804D01*
X022098Y016812D01*
X022099Y016790D01*
G37*
D80*
G36*
X022793Y016928D02*
X022570Y016915D01*
X022569Y016938D01*
X022792Y016951D01*
X022793Y016928D01*
G37*
G36*
X024495Y016945D02*
X024272Y016932D01*
X024271Y016955D01*
X024494Y016968D01*
X024495Y016945D01*
G37*
G36*
X024566Y015622D02*
X024343Y015609D01*
X024342Y015632D01*
X024565Y015645D01*
X024566Y015622D01*
G37*
D81*
G36*
X022986Y015686D02*
X022861Y015679D01*
X022860Y015702D01*
X022985Y015709D01*
X022986Y015686D01*
G37*
G36*
X022985Y015711D02*
X022860Y015704D01*
X022859Y015727D01*
X022984Y015734D01*
X022985Y015711D01*
G37*
G36*
X022984Y015736D02*
X022859Y015729D01*
X022858Y015752D01*
X022983Y015759D01*
X022984Y015736D01*
G37*
G36*
X022956Y015785D02*
X022831Y015778D01*
X022830Y015801D01*
X022955Y015808D01*
X022956Y015785D01*
G37*
G36*
X022965Y015610D02*
X022840Y015603D01*
X022839Y015626D01*
X022964Y015633D01*
X022965Y015610D01*
G37*
G36*
X022910Y016634D02*
X022785Y016627D01*
X022784Y016650D01*
X022909Y016657D01*
X022910Y016634D01*
G37*
G36*
X022932Y016685D02*
X022807Y016678D01*
X022806Y016701D01*
X022931Y016708D01*
X022932Y016685D01*
G37*
G36*
X022931Y016710D02*
X022806Y016703D01*
X022805Y016726D01*
X022930Y016733D01*
X022931Y016710D01*
G37*
G36*
X022930Y016735D02*
X022805Y016728D01*
X022804Y016751D01*
X022929Y016758D01*
X022930Y016735D01*
G37*
G36*
X022901Y016808D02*
X022776Y016801D01*
X022775Y016824D01*
X022900Y016831D01*
X022901Y016808D01*
G37*
G36*
X021306Y016672D02*
X021181Y016665D01*
X021180Y016688D01*
X021305Y016695D01*
X021306Y016672D01*
G37*
G36*
X021307Y016647D02*
X021182Y016640D01*
X021181Y016663D01*
X021306Y016670D01*
X021307Y016647D01*
G37*
G36*
X021308Y016622D02*
X021183Y016615D01*
X021182Y016638D01*
X021307Y016645D01*
X021308Y016622D01*
G37*
G36*
X021310Y016597D02*
X021185Y016590D01*
X021184Y016613D01*
X021309Y016620D01*
X021310Y016597D01*
G37*
G36*
X021311Y016572D02*
X021186Y016565D01*
X021185Y016588D01*
X021310Y016595D01*
X021311Y016572D01*
G37*
G36*
X020464Y016501D02*
X020339Y016494D01*
X020338Y016517D01*
X020463Y016524D01*
X020464Y016501D01*
G37*
G36*
X020436Y016550D02*
X020311Y016543D01*
X020310Y016566D01*
X020435Y016573D01*
X020436Y016550D01*
G37*
G36*
X020435Y016575D02*
X020310Y016568D01*
X020309Y016591D01*
X020434Y016598D01*
X020435Y016575D01*
G37*
G36*
X020433Y016600D02*
X020308Y016593D01*
X020307Y016616D01*
X020432Y016623D01*
X020433Y016600D01*
G37*
G36*
X020454Y016676D02*
X020329Y016669D01*
X020328Y016692D01*
X020453Y016699D01*
X020454Y016676D01*
G37*
G36*
X020510Y015652D02*
X020385Y015645D01*
X020384Y015668D01*
X020509Y015675D01*
X020510Y015652D01*
G37*
G36*
X020487Y015601D02*
X020362Y015594D01*
X020361Y015617D01*
X020486Y015624D01*
X020487Y015601D01*
G37*
G36*
X020489Y015576D02*
X020364Y015569D01*
X020363Y015592D01*
X020488Y015599D01*
X020489Y015576D01*
G37*
G36*
X020490Y015551D02*
X020365Y015544D01*
X020364Y015567D01*
X020489Y015574D01*
X020490Y015551D01*
G37*
G36*
X020519Y015478D02*
X020394Y015471D01*
X020393Y015494D01*
X020518Y015501D01*
X020519Y015478D01*
G37*
G36*
X021366Y015548D02*
X021241Y015541D01*
X021240Y015564D01*
X021365Y015571D01*
X021366Y015548D01*
G37*
G36*
X021365Y015573D02*
X021240Y015566D01*
X021239Y015589D01*
X021364Y015596D01*
X021365Y015573D01*
G37*
G36*
X021364Y015598D02*
X021239Y015591D01*
X021238Y015614D01*
X021363Y015621D01*
X021364Y015598D01*
G37*
G36*
X021362Y015623D02*
X021237Y015616D01*
X021236Y015639D01*
X021361Y015646D01*
X021362Y015623D01*
G37*
G36*
X021361Y015648D02*
X021236Y015641D01*
X021235Y015664D01*
X021360Y015671D01*
X021361Y015648D01*
G37*
G36*
X021360Y015673D02*
X021235Y015666D01*
X021234Y015689D01*
X021359Y015696D01*
X021360Y015673D01*
G37*
D82*
G36*
X022108Y015714D02*
X021985Y015707D01*
X021984Y015730D01*
X022107Y015737D01*
X022108Y015714D01*
G37*
G36*
X022109Y015689D02*
X021986Y015682D01*
X021985Y015705D01*
X022108Y015712D01*
X022109Y015689D01*
G37*
G36*
X022110Y015664D02*
X021987Y015657D01*
X021986Y015680D01*
X022109Y015687D01*
X022110Y015664D01*
G37*
G36*
X022112Y015639D02*
X021989Y015632D01*
X021988Y015655D01*
X022111Y015662D01*
X022112Y015639D01*
G37*
G36*
X022113Y015614D02*
X021990Y015607D01*
X021989Y015630D01*
X022112Y015637D01*
X022113Y015614D01*
G37*
G36*
X022114Y015589D02*
X021991Y015582D01*
X021990Y015605D01*
X022113Y015612D01*
X022114Y015589D01*
G37*
G36*
X022059Y016613D02*
X021936Y016606D01*
X021935Y016629D01*
X022058Y016636D01*
X022059Y016613D01*
G37*
G36*
X022058Y016638D02*
X021935Y016631D01*
X021934Y016654D01*
X022057Y016661D01*
X022058Y016638D01*
G37*
G36*
X022056Y016662D02*
X021933Y016655D01*
X021932Y016678D01*
X022055Y016685D01*
X022056Y016662D01*
G37*
G36*
X022055Y016687D02*
X021932Y016680D01*
X021931Y016703D01*
X022054Y016710D01*
X022055Y016687D01*
G37*
G36*
X022054Y016712D02*
X021931Y016705D01*
X021930Y016728D01*
X022053Y016735D01*
X022054Y016712D01*
G37*
G36*
X022052Y016737D02*
X021929Y016730D01*
X021928Y016753D01*
X022051Y016760D01*
X022052Y016737D01*
G37*
D83*
G36*
X022792Y016477D02*
X022495Y016460D01*
X022494Y016483D01*
X022791Y016500D01*
X022792Y016477D01*
G37*
G36*
X022822Y015928D02*
X022525Y015911D01*
X022524Y015934D01*
X022821Y015951D01*
X022822Y015928D01*
G37*
D84*
G36*
X021173Y015887D02*
X020625Y015859D01*
X020623Y015883D01*
X021171Y015911D01*
X021173Y015887D01*
G37*
D85*
G36*
X021048Y016332D02*
X020599Y016308D01*
X020598Y016332D01*
X021047Y016356D01*
X021048Y016332D01*
G37*
D86*
G36*
X022671Y016419D02*
X022123Y016391D01*
X022121Y016415D01*
X022669Y016443D01*
X022671Y016419D01*
G37*
D87*
G36*
X022690Y016971D02*
X022118Y016941D01*
X022116Y016965D01*
X022688Y016995D01*
X022690Y016971D01*
G37*
G36*
X021045Y016857D02*
X020473Y016827D01*
X020471Y016851D01*
X021043Y016881D01*
X021045Y016857D01*
G37*
D88*
G36*
X021118Y016911D02*
X020594Y016883D01*
X020592Y016907D01*
X021116Y016935D01*
X021118Y016911D01*
G37*
D89*
G36*
X021576Y017237D02*
X019803Y017141D01*
X019802Y017165D01*
X021575Y017261D01*
X021576Y017237D01*
G37*
D90*
G36*
X023372Y017334D02*
X021851Y017252D01*
X021850Y017276D01*
X023371Y017358D01*
X023372Y017334D01*
G37*
D91*
G36*
X021574Y017261D02*
X019827Y017167D01*
X019826Y017191D01*
X021573Y017285D01*
X021574Y017261D01*
G37*
D92*
G36*
X023346Y017357D02*
X021875Y017279D01*
X021874Y017303D01*
X023345Y017381D01*
X023346Y017357D01*
G37*
D93*
G36*
X021546Y017285D02*
X019901Y017197D01*
X019900Y017221D01*
X021545Y017309D01*
X021546Y017285D01*
G37*
D94*
G36*
X023269Y017378D02*
X021924Y017306D01*
X021923Y017330D01*
X023268Y017402D01*
X023269Y017378D01*
G37*
M02*
