G75*
G70*
%OFA0B0*%
%FSLAX24Y24*%
%IPPOS*%
%LPD*%
%AMOC8*
5,1,8,0,0,1.08239X$1,22.5*
%
%ADD10C,0.0100*%
%ADD11OC8,0.0740*%
%ADD12R,0.0594X0.0594*%
%ADD13R,0.1266X0.1266*%
%ADD14C,0.0000*%
%ADD15R,0.0740X0.0740*%
%ADD16C,0.0740*%
%ADD17R,0.0356X0.0356*%
%ADD18C,0.0240*%
D10*
X000304Y002050D02*
X000304Y030914D01*
X039674Y030914D01*
X039674Y002050D01*
X000304Y002050D01*
X000150Y002101D01*
D11*
X003794Y014410D03*
X004794Y014410D03*
X005794Y014410D03*
X006794Y014410D03*
X007794Y014410D03*
X007794Y015510D03*
X006794Y015510D03*
X005794Y015510D03*
X004794Y015510D03*
X003794Y015510D03*
X017016Y015458D03*
X018016Y015458D03*
X019016Y015458D03*
X020016Y015458D03*
X021016Y015458D03*
X021016Y014358D03*
X020016Y014358D03*
X019016Y014358D03*
X018016Y014358D03*
X017016Y014358D03*
X030239Y014410D03*
X031239Y014410D03*
X032239Y014410D03*
X033239Y014410D03*
X034239Y014410D03*
X034239Y015510D03*
X033239Y015510D03*
X032239Y015510D03*
X031239Y015510D03*
X030239Y015510D03*
X029916Y027142D03*
X030916Y027142D03*
X030916Y028142D03*
X029916Y028142D03*
X031916Y028142D03*
X031916Y027142D03*
X023153Y027142D03*
X023153Y028142D03*
X022153Y028142D03*
X021153Y028142D03*
X021153Y027142D03*
X022153Y027142D03*
X014543Y027142D03*
X013543Y027142D03*
X013543Y028142D03*
X014543Y028142D03*
X012543Y028142D03*
X012543Y027142D03*
X005779Y027142D03*
X005779Y028142D03*
X004779Y028142D03*
X004779Y027142D03*
X003779Y027142D03*
X003779Y028142D03*
D12*
X002030Y023448D03*
X002030Y022463D03*
X002030Y021479D03*
X007738Y021479D03*
X007738Y023448D03*
X010793Y023448D03*
X010793Y022463D03*
X010793Y021479D03*
X016502Y021479D03*
X016502Y023448D03*
X019403Y023448D03*
X019403Y022463D03*
X019403Y021479D03*
X025112Y021479D03*
X025112Y023448D03*
X028167Y023448D03*
X028167Y022463D03*
X028167Y021479D03*
X033876Y021479D03*
X033876Y023448D03*
D13*
X031120Y024865D03*
X031120Y020062D03*
X022356Y020062D03*
X022356Y024865D03*
X013746Y024865D03*
X013746Y020062D03*
X004983Y020062D03*
X004983Y024865D03*
D14*
X004260Y006436D02*
X004262Y006471D01*
X004268Y006506D01*
X004278Y006540D01*
X004291Y006573D01*
X004308Y006604D01*
X004329Y006632D01*
X004352Y006659D01*
X004379Y006682D01*
X004407Y006703D01*
X004438Y006720D01*
X004471Y006733D01*
X004505Y006743D01*
X004540Y006749D01*
X004575Y006751D01*
X004610Y006749D01*
X004645Y006743D01*
X004679Y006733D01*
X004712Y006720D01*
X004743Y006703D01*
X004771Y006682D01*
X004798Y006659D01*
X004821Y006632D01*
X004842Y006604D01*
X004859Y006573D01*
X004872Y006540D01*
X004882Y006506D01*
X004888Y006471D01*
X004890Y006436D01*
X004888Y006401D01*
X004882Y006366D01*
X004872Y006332D01*
X004859Y006299D01*
X004842Y006268D01*
X004821Y006240D01*
X004798Y006213D01*
X004771Y006190D01*
X004743Y006169D01*
X004712Y006152D01*
X004679Y006139D01*
X004645Y006129D01*
X004610Y006123D01*
X004575Y006121D01*
X004540Y006123D01*
X004505Y006129D01*
X004471Y006139D01*
X004438Y006152D01*
X004407Y006169D01*
X004379Y006190D01*
X004352Y006213D01*
X004329Y006240D01*
X004308Y006268D01*
X004291Y006299D01*
X004278Y006332D01*
X004268Y006366D01*
X004262Y006401D01*
X004260Y006436D01*
X008197Y006436D02*
X008199Y006471D01*
X008205Y006506D01*
X008215Y006540D01*
X008228Y006573D01*
X008245Y006604D01*
X008266Y006632D01*
X008289Y006659D01*
X008316Y006682D01*
X008344Y006703D01*
X008375Y006720D01*
X008408Y006733D01*
X008442Y006743D01*
X008477Y006749D01*
X008512Y006751D01*
X008547Y006749D01*
X008582Y006743D01*
X008616Y006733D01*
X008649Y006720D01*
X008680Y006703D01*
X008708Y006682D01*
X008735Y006659D01*
X008758Y006632D01*
X008779Y006604D01*
X008796Y006573D01*
X008809Y006540D01*
X008819Y006506D01*
X008825Y006471D01*
X008827Y006436D01*
X008825Y006401D01*
X008819Y006366D01*
X008809Y006332D01*
X008796Y006299D01*
X008779Y006268D01*
X008758Y006240D01*
X008735Y006213D01*
X008708Y006190D01*
X008680Y006169D01*
X008649Y006152D01*
X008616Y006139D01*
X008582Y006129D01*
X008547Y006123D01*
X008512Y006121D01*
X008477Y006123D01*
X008442Y006129D01*
X008408Y006139D01*
X008375Y006152D01*
X008344Y006169D01*
X008316Y006190D01*
X008289Y006213D01*
X008266Y006240D01*
X008245Y006268D01*
X008228Y006299D01*
X008215Y006332D01*
X008205Y006366D01*
X008199Y006401D01*
X008197Y006436D01*
X017483Y006385D02*
X017485Y006420D01*
X017491Y006455D01*
X017501Y006489D01*
X017514Y006522D01*
X017531Y006553D01*
X017552Y006581D01*
X017575Y006608D01*
X017602Y006631D01*
X017630Y006652D01*
X017661Y006669D01*
X017694Y006682D01*
X017728Y006692D01*
X017763Y006698D01*
X017798Y006700D01*
X017833Y006698D01*
X017868Y006692D01*
X017902Y006682D01*
X017935Y006669D01*
X017966Y006652D01*
X017994Y006631D01*
X018021Y006608D01*
X018044Y006581D01*
X018065Y006553D01*
X018082Y006522D01*
X018095Y006489D01*
X018105Y006455D01*
X018111Y006420D01*
X018113Y006385D01*
X018111Y006350D01*
X018105Y006315D01*
X018095Y006281D01*
X018082Y006248D01*
X018065Y006217D01*
X018044Y006189D01*
X018021Y006162D01*
X017994Y006139D01*
X017966Y006118D01*
X017935Y006101D01*
X017902Y006088D01*
X017868Y006078D01*
X017833Y006072D01*
X017798Y006070D01*
X017763Y006072D01*
X017728Y006078D01*
X017694Y006088D01*
X017661Y006101D01*
X017630Y006118D01*
X017602Y006139D01*
X017575Y006162D01*
X017552Y006189D01*
X017531Y006217D01*
X017514Y006248D01*
X017501Y006281D01*
X017491Y006315D01*
X017485Y006350D01*
X017483Y006385D01*
X021420Y006385D02*
X021422Y006420D01*
X021428Y006455D01*
X021438Y006489D01*
X021451Y006522D01*
X021468Y006553D01*
X021489Y006581D01*
X021512Y006608D01*
X021539Y006631D01*
X021567Y006652D01*
X021598Y006669D01*
X021631Y006682D01*
X021665Y006692D01*
X021700Y006698D01*
X021735Y006700D01*
X021770Y006698D01*
X021805Y006692D01*
X021839Y006682D01*
X021872Y006669D01*
X021903Y006652D01*
X021931Y006631D01*
X021958Y006608D01*
X021981Y006581D01*
X022002Y006553D01*
X022019Y006522D01*
X022032Y006489D01*
X022042Y006455D01*
X022048Y006420D01*
X022050Y006385D01*
X022048Y006350D01*
X022042Y006315D01*
X022032Y006281D01*
X022019Y006248D01*
X022002Y006217D01*
X021981Y006189D01*
X021958Y006162D01*
X021931Y006139D01*
X021903Y006118D01*
X021872Y006101D01*
X021839Y006088D01*
X021805Y006078D01*
X021770Y006072D01*
X021735Y006070D01*
X021700Y006072D01*
X021665Y006078D01*
X021631Y006088D01*
X021598Y006101D01*
X021567Y006118D01*
X021539Y006139D01*
X021512Y006162D01*
X021489Y006189D01*
X021468Y006217D01*
X021451Y006248D01*
X021438Y006281D01*
X021428Y006315D01*
X021422Y006350D01*
X021420Y006385D01*
X030705Y006436D02*
X030707Y006471D01*
X030713Y006506D01*
X030723Y006540D01*
X030736Y006573D01*
X030753Y006604D01*
X030774Y006632D01*
X030797Y006659D01*
X030824Y006682D01*
X030852Y006703D01*
X030883Y006720D01*
X030916Y006733D01*
X030950Y006743D01*
X030985Y006749D01*
X031020Y006751D01*
X031055Y006749D01*
X031090Y006743D01*
X031124Y006733D01*
X031157Y006720D01*
X031188Y006703D01*
X031216Y006682D01*
X031243Y006659D01*
X031266Y006632D01*
X031287Y006604D01*
X031304Y006573D01*
X031317Y006540D01*
X031327Y006506D01*
X031333Y006471D01*
X031335Y006436D01*
X031333Y006401D01*
X031327Y006366D01*
X031317Y006332D01*
X031304Y006299D01*
X031287Y006268D01*
X031266Y006240D01*
X031243Y006213D01*
X031216Y006190D01*
X031188Y006169D01*
X031157Y006152D01*
X031124Y006139D01*
X031090Y006129D01*
X031055Y006123D01*
X031020Y006121D01*
X030985Y006123D01*
X030950Y006129D01*
X030916Y006139D01*
X030883Y006152D01*
X030852Y006169D01*
X030824Y006190D01*
X030797Y006213D01*
X030774Y006240D01*
X030753Y006268D01*
X030736Y006299D01*
X030723Y006332D01*
X030713Y006366D01*
X030707Y006401D01*
X030705Y006436D01*
X034642Y006436D02*
X034644Y006471D01*
X034650Y006506D01*
X034660Y006540D01*
X034673Y006573D01*
X034690Y006604D01*
X034711Y006632D01*
X034734Y006659D01*
X034761Y006682D01*
X034789Y006703D01*
X034820Y006720D01*
X034853Y006733D01*
X034887Y006743D01*
X034922Y006749D01*
X034957Y006751D01*
X034992Y006749D01*
X035027Y006743D01*
X035061Y006733D01*
X035094Y006720D01*
X035125Y006703D01*
X035153Y006682D01*
X035180Y006659D01*
X035203Y006632D01*
X035224Y006604D01*
X035241Y006573D01*
X035254Y006540D01*
X035264Y006506D01*
X035270Y006471D01*
X035272Y006436D01*
X035270Y006401D01*
X035264Y006366D01*
X035254Y006332D01*
X035241Y006299D01*
X035224Y006268D01*
X035203Y006240D01*
X035180Y006213D01*
X035153Y006190D01*
X035125Y006169D01*
X035094Y006152D01*
X035061Y006139D01*
X035027Y006129D01*
X034992Y006123D01*
X034957Y006121D01*
X034922Y006123D01*
X034887Y006129D01*
X034853Y006139D01*
X034820Y006152D01*
X034789Y006169D01*
X034761Y006190D01*
X034734Y006213D01*
X034711Y006240D01*
X034690Y006268D01*
X034673Y006299D01*
X034660Y006332D01*
X034650Y006366D01*
X034644Y006401D01*
X034642Y006436D01*
D15*
X037939Y013210D03*
X024716Y013158D03*
X011494Y013210D03*
D16*
X011594Y014210D03*
X011494Y015210D03*
X011594Y016210D03*
X024716Y015158D03*
X024816Y014158D03*
X024816Y016158D03*
X037939Y015210D03*
X038039Y014210D03*
X038039Y016210D03*
D17*
X035051Y013017D03*
X031989Y009210D03*
X030364Y011210D03*
X029290Y010960D03*
X028114Y010960D03*
X028614Y009585D03*
X028114Y007835D03*
X025058Y006457D03*
X024033Y006457D03*
X020391Y004533D03*
X022266Y002908D03*
X019641Y006658D03*
X018766Y009158D03*
X017141Y011158D03*
X016067Y010908D03*
X014891Y010908D03*
X015391Y009533D03*
X014891Y007783D03*
X011835Y006508D03*
X010810Y006508D03*
X007169Y004585D03*
X009044Y002960D03*
X006419Y006710D03*
X005544Y009210D03*
X002845Y010960D03*
X003919Y011210D03*
X001669Y010960D03*
X002169Y009585D03*
X001669Y007835D03*
X008606Y013017D03*
X021829Y012966D03*
X032864Y006710D03*
X033614Y004585D03*
X035489Y002960D03*
X037255Y006508D03*
X038280Y006508D03*
D18*
X038280Y010660D01*
X036691Y012248D01*
X036691Y013236D01*
X037665Y014210D01*
X038039Y014210D01*
X037139Y014410D02*
X037939Y015210D01*
X037139Y014410D02*
X034239Y014410D01*
X034239Y015510D02*
X036570Y015510D01*
X037358Y016297D01*
X037951Y016297D01*
X038039Y016210D01*
X035051Y013017D02*
X035051Y009378D01*
X034744Y009071D01*
X032128Y009071D01*
X031989Y009210D01*
X029364Y009210D01*
X029364Y010886D01*
X029290Y010960D01*
X030239Y011335D02*
X030239Y014410D01*
X030239Y011335D02*
X030364Y011210D01*
X028114Y010960D02*
X028114Y007835D01*
X028614Y008210D02*
X028989Y007835D01*
X030239Y007835D01*
X030739Y007335D01*
X032239Y007335D01*
X032864Y006710D01*
X032950Y006623D01*
X032950Y005893D01*
X033206Y005637D01*
X035410Y005637D01*
X036281Y006508D01*
X037255Y006508D01*
X033614Y004585D02*
X033614Y003085D01*
X033739Y002960D01*
X035489Y002960D01*
X028614Y008210D02*
X028614Y009585D01*
X025058Y010608D02*
X023469Y012197D01*
X023469Y013185D01*
X024443Y014158D01*
X024816Y014158D01*
X023916Y014358D02*
X024716Y015158D01*
X023916Y014358D02*
X021016Y014358D01*
X021016Y015458D02*
X023348Y015458D01*
X024135Y016246D01*
X024729Y016246D01*
X024816Y016158D01*
X021829Y012966D02*
X021829Y009327D01*
X021521Y009020D01*
X018905Y009020D01*
X018766Y009158D01*
X016141Y009158D01*
X016141Y010835D01*
X016067Y010908D01*
X017016Y011283D02*
X017016Y014358D01*
X017016Y011283D02*
X017141Y011158D01*
X015391Y009533D02*
X015391Y008158D01*
X015766Y007783D01*
X017016Y007783D01*
X017516Y007283D01*
X019016Y007283D01*
X019641Y006658D01*
X019728Y006572D01*
X019728Y005842D01*
X019984Y005586D01*
X022188Y005586D01*
X023059Y006457D01*
X024033Y006457D01*
X025058Y006457D02*
X025058Y010608D01*
X020391Y004533D02*
X020391Y003033D01*
X020516Y002908D01*
X022266Y002908D01*
X014891Y007783D02*
X014891Y010908D01*
X011835Y010660D02*
X010246Y012248D01*
X010246Y013236D01*
X011220Y014210D01*
X011594Y014210D01*
X010694Y014410D02*
X011494Y015210D01*
X010694Y014410D02*
X007794Y014410D01*
X007794Y015510D02*
X010125Y015510D01*
X010913Y016297D01*
X011506Y016297D01*
X011594Y016210D01*
X008606Y013017D02*
X008606Y009378D01*
X008299Y009071D01*
X005683Y009071D01*
X005544Y009210D01*
X002919Y009210D01*
X002919Y010886D01*
X002845Y010960D01*
X003794Y011335D02*
X003794Y014410D01*
X003794Y011335D02*
X003919Y011210D01*
X001669Y010960D02*
X001669Y007835D01*
X002169Y008210D02*
X002544Y007835D01*
X003794Y007835D01*
X004294Y007335D01*
X005794Y007335D01*
X006419Y006710D01*
X006505Y006623D01*
X006505Y005893D01*
X006761Y005637D01*
X008965Y005637D01*
X009836Y006508D01*
X010810Y006508D01*
X011835Y006508D02*
X011835Y010660D01*
X007169Y004585D02*
X007169Y003085D01*
X007294Y002960D01*
X009044Y002960D01*
X002169Y008210D02*
X002169Y009585D01*
X007738Y021479D02*
X007738Y021989D01*
X008350Y022601D01*
X008350Y023933D01*
X007325Y024958D01*
X007325Y027931D01*
X006710Y028546D01*
X006710Y028802D01*
X006608Y028905D01*
X004916Y028905D01*
X004814Y028802D01*
X004814Y028177D01*
X004779Y028142D01*
X005779Y027142D02*
X005779Y026641D01*
X005378Y026240D01*
X003891Y026240D01*
X003635Y026496D01*
X003635Y026998D01*
X003779Y027142D01*
X007738Y023448D02*
X006754Y022463D01*
X002030Y022463D01*
X010793Y022463D02*
X015518Y022463D01*
X016502Y023448D01*
X017114Y023933D02*
X016089Y024958D01*
X016089Y027931D01*
X015474Y028546D01*
X015474Y028802D01*
X015371Y028905D01*
X013680Y028905D01*
X013578Y028802D01*
X013578Y028177D01*
X013543Y028142D01*
X014543Y027142D02*
X014543Y026641D01*
X014141Y026240D01*
X012655Y026240D01*
X012399Y026496D01*
X012399Y026998D01*
X012543Y027142D01*
X017114Y023933D02*
X017114Y022601D01*
X016502Y021989D01*
X016502Y021479D01*
X019403Y022463D02*
X024128Y022463D01*
X025112Y023448D01*
X025724Y023933D02*
X024699Y024958D01*
X024699Y027931D01*
X024084Y028546D01*
X024084Y028802D01*
X023981Y028905D01*
X022290Y028905D01*
X022188Y028802D01*
X022188Y028177D01*
X022153Y028142D01*
X023153Y027142D02*
X023153Y026641D01*
X022751Y026240D01*
X021265Y026240D01*
X021009Y026496D01*
X021009Y026998D01*
X021153Y027142D01*
X025724Y023933D02*
X025724Y022601D01*
X025112Y021989D01*
X025112Y021479D01*
X028167Y022463D02*
X032892Y022463D01*
X033876Y023448D01*
X034488Y023933D02*
X033463Y024958D01*
X033463Y027931D01*
X032848Y028546D01*
X032848Y028802D01*
X032745Y028905D01*
X031054Y028905D01*
X030951Y028802D01*
X030951Y028177D01*
X030916Y028142D01*
X029916Y027142D02*
X029773Y026998D01*
X029773Y026496D01*
X030029Y026240D01*
X031515Y026240D01*
X031916Y026641D01*
X031916Y027142D01*
X034488Y023933D02*
X034488Y022601D01*
X033876Y021989D01*
X033876Y021479D01*
M02*
