G75*
G70*
%OFA0B0*%
%FSLAX24Y24*%
%IPPOS*%
%LPD*%
%AMOC8*
5,1,8,0,0,1.08239X$1,22.5*
%
%ADD10C,0.0100*%
%ADD11OC8,0.0740*%
%ADD12R,0.0594X0.0594*%
%ADD13R,0.1266X0.1266*%
%ADD14R,0.2283X0.2441*%
%ADD15R,0.0630X0.1181*%
%ADD16R,0.0630X0.0709*%
%ADD17R,0.0260X0.0800*%
%ADD18R,0.0591X0.0531*%
%ADD19R,0.0551X0.0394*%
%ADD20R,0.0512X0.0394*%
%ADD21R,0.0295X0.0591*%
%ADD22C,0.0000*%
%ADD23R,0.0472X0.0551*%
%ADD24R,0.0630X0.0787*%
%ADD25R,0.0740X0.0740*%
%ADD26C,0.0740*%
%ADD27C,0.0240*%
%ADD28R,0.0356X0.0356*%
%ADD29C,0.0160*%
D10*
X000304Y002050D02*
X000304Y030914D01*
X039674Y030914D01*
X039674Y002050D01*
X000304Y002050D01*
X000150Y002101D01*
D11*
X003794Y014410D03*
X004794Y014410D03*
X005794Y014410D03*
X006794Y014410D03*
X007794Y014410D03*
X007794Y015510D03*
X006794Y015510D03*
X005794Y015510D03*
X004794Y015510D03*
X003794Y015510D03*
X017016Y015458D03*
X018016Y015458D03*
X019016Y015458D03*
X020016Y015458D03*
X021016Y015458D03*
X021016Y014358D03*
X020016Y014358D03*
X019016Y014358D03*
X018016Y014358D03*
X017016Y014358D03*
X030239Y014410D03*
X031239Y014410D03*
X032239Y014410D03*
X033239Y014410D03*
X034239Y014410D03*
X034239Y015510D03*
X033239Y015510D03*
X032239Y015510D03*
X031239Y015510D03*
X030239Y015510D03*
X029916Y027142D03*
X030916Y027142D03*
X030916Y028142D03*
X029916Y028142D03*
X031916Y028142D03*
X031916Y027142D03*
X023153Y027142D03*
X023153Y028142D03*
X022153Y028142D03*
X021153Y028142D03*
X021153Y027142D03*
X022153Y027142D03*
X014543Y027142D03*
X013543Y027142D03*
X013543Y028142D03*
X014543Y028142D03*
X012543Y028142D03*
X012543Y027142D03*
X005779Y027142D03*
X005779Y028142D03*
X004779Y028142D03*
X004779Y027142D03*
X003779Y027142D03*
X003779Y028142D03*
D12*
X002030Y023448D03*
X002030Y022463D03*
X002030Y021479D03*
X007738Y021479D03*
X007738Y023448D03*
X010793Y023448D03*
X010793Y022463D03*
X010793Y021479D03*
X016502Y021479D03*
X016502Y023448D03*
X019403Y023448D03*
X019403Y022463D03*
X019403Y021479D03*
X025112Y021479D03*
X025112Y023448D03*
X028167Y023448D03*
X028167Y022463D03*
X028167Y021479D03*
X033876Y021479D03*
X033876Y023448D03*
D13*
X031120Y024865D03*
X031120Y020062D03*
X022356Y020062D03*
X022356Y024865D03*
X013746Y024865D03*
X013746Y020062D03*
X004983Y020062D03*
X004983Y024865D03*
D14*
X010919Y010647D03*
X024141Y010595D03*
X037364Y010647D03*
D15*
X038261Y007820D03*
X036466Y007820D03*
X025039Y007769D03*
X023244Y007769D03*
X011816Y007820D03*
X010021Y007820D03*
D16*
X014965Y010158D03*
X016067Y010158D03*
X016067Y011658D03*
X014965Y011658D03*
X002845Y011710D03*
X001743Y011710D03*
X001743Y010210D03*
X002845Y010210D03*
X028188Y010210D03*
X029290Y010210D03*
X029290Y011710D03*
X028188Y011710D03*
D17*
X030614Y012420D03*
X031114Y012420D03*
X031614Y012420D03*
X032114Y012420D03*
X032614Y012420D03*
X033114Y012420D03*
X033614Y012420D03*
X034114Y012420D03*
X034114Y010000D03*
X033614Y010000D03*
X033114Y010000D03*
X032614Y010000D03*
X032114Y010000D03*
X031614Y010000D03*
X031114Y010000D03*
X030614Y010000D03*
X020891Y009948D03*
X020391Y009948D03*
X019891Y009948D03*
X019391Y009948D03*
X018891Y009948D03*
X018391Y009948D03*
X017891Y009948D03*
X017391Y009948D03*
X017391Y012368D03*
X017891Y012368D03*
X018391Y012368D03*
X018891Y012368D03*
X019391Y012368D03*
X019891Y012368D03*
X020391Y012368D03*
X020891Y012368D03*
X007669Y012420D03*
X007169Y012420D03*
X006669Y012420D03*
X006169Y012420D03*
X005669Y012420D03*
X005169Y012420D03*
X004669Y012420D03*
X004169Y012420D03*
X004169Y010000D03*
X004669Y010000D03*
X005169Y010000D03*
X005669Y010000D03*
X006169Y010000D03*
X006669Y010000D03*
X007169Y010000D03*
X007669Y010000D03*
D18*
X009329Y004507D03*
X003758Y004487D03*
X016981Y004436D03*
X022552Y004456D03*
X030203Y004487D03*
X035774Y004507D03*
D19*
X031197Y004448D03*
X017975Y004397D03*
X004752Y004448D03*
D20*
X008424Y004448D03*
X021646Y004397D03*
X034869Y004448D03*
D21*
X035085Y007903D03*
X034652Y007903D03*
X034140Y007903D03*
X033707Y007903D03*
X033274Y007903D03*
X032841Y007903D03*
X032408Y007903D03*
X031975Y007903D03*
X031542Y007903D03*
X031109Y007903D03*
X021863Y007851D03*
X021430Y007851D03*
X020918Y007851D03*
X020485Y007851D03*
X020052Y007851D03*
X019619Y007851D03*
X019186Y007851D03*
X018752Y007851D03*
X018319Y007851D03*
X017886Y007851D03*
X008640Y007903D03*
X008207Y007903D03*
X007695Y007903D03*
X007262Y007903D03*
X006829Y007903D03*
X006396Y007903D03*
X005963Y007903D03*
X005530Y007903D03*
X005097Y007903D03*
X004664Y007903D03*
D22*
X004260Y006436D02*
X004262Y006471D01*
X004268Y006506D01*
X004278Y006540D01*
X004291Y006573D01*
X004308Y006604D01*
X004329Y006632D01*
X004352Y006659D01*
X004379Y006682D01*
X004407Y006703D01*
X004438Y006720D01*
X004471Y006733D01*
X004505Y006743D01*
X004540Y006749D01*
X004575Y006751D01*
X004610Y006749D01*
X004645Y006743D01*
X004679Y006733D01*
X004712Y006720D01*
X004743Y006703D01*
X004771Y006682D01*
X004798Y006659D01*
X004821Y006632D01*
X004842Y006604D01*
X004859Y006573D01*
X004872Y006540D01*
X004882Y006506D01*
X004888Y006471D01*
X004890Y006436D01*
X004888Y006401D01*
X004882Y006366D01*
X004872Y006332D01*
X004859Y006299D01*
X004842Y006268D01*
X004821Y006240D01*
X004798Y006213D01*
X004771Y006190D01*
X004743Y006169D01*
X004712Y006152D01*
X004679Y006139D01*
X004645Y006129D01*
X004610Y006123D01*
X004575Y006121D01*
X004540Y006123D01*
X004505Y006129D01*
X004471Y006139D01*
X004438Y006152D01*
X004407Y006169D01*
X004379Y006190D01*
X004352Y006213D01*
X004329Y006240D01*
X004308Y006268D01*
X004291Y006299D01*
X004278Y006332D01*
X004268Y006366D01*
X004262Y006401D01*
X004260Y006436D01*
X008197Y006436D02*
X008199Y006471D01*
X008205Y006506D01*
X008215Y006540D01*
X008228Y006573D01*
X008245Y006604D01*
X008266Y006632D01*
X008289Y006659D01*
X008316Y006682D01*
X008344Y006703D01*
X008375Y006720D01*
X008408Y006733D01*
X008442Y006743D01*
X008477Y006749D01*
X008512Y006751D01*
X008547Y006749D01*
X008582Y006743D01*
X008616Y006733D01*
X008649Y006720D01*
X008680Y006703D01*
X008708Y006682D01*
X008735Y006659D01*
X008758Y006632D01*
X008779Y006604D01*
X008796Y006573D01*
X008809Y006540D01*
X008819Y006506D01*
X008825Y006471D01*
X008827Y006436D01*
X008825Y006401D01*
X008819Y006366D01*
X008809Y006332D01*
X008796Y006299D01*
X008779Y006268D01*
X008758Y006240D01*
X008735Y006213D01*
X008708Y006190D01*
X008680Y006169D01*
X008649Y006152D01*
X008616Y006139D01*
X008582Y006129D01*
X008547Y006123D01*
X008512Y006121D01*
X008477Y006123D01*
X008442Y006129D01*
X008408Y006139D01*
X008375Y006152D01*
X008344Y006169D01*
X008316Y006190D01*
X008289Y006213D01*
X008266Y006240D01*
X008245Y006268D01*
X008228Y006299D01*
X008215Y006332D01*
X008205Y006366D01*
X008199Y006401D01*
X008197Y006436D01*
X017483Y006385D02*
X017485Y006420D01*
X017491Y006455D01*
X017501Y006489D01*
X017514Y006522D01*
X017531Y006553D01*
X017552Y006581D01*
X017575Y006608D01*
X017602Y006631D01*
X017630Y006652D01*
X017661Y006669D01*
X017694Y006682D01*
X017728Y006692D01*
X017763Y006698D01*
X017798Y006700D01*
X017833Y006698D01*
X017868Y006692D01*
X017902Y006682D01*
X017935Y006669D01*
X017966Y006652D01*
X017994Y006631D01*
X018021Y006608D01*
X018044Y006581D01*
X018065Y006553D01*
X018082Y006522D01*
X018095Y006489D01*
X018105Y006455D01*
X018111Y006420D01*
X018113Y006385D01*
X018111Y006350D01*
X018105Y006315D01*
X018095Y006281D01*
X018082Y006248D01*
X018065Y006217D01*
X018044Y006189D01*
X018021Y006162D01*
X017994Y006139D01*
X017966Y006118D01*
X017935Y006101D01*
X017902Y006088D01*
X017868Y006078D01*
X017833Y006072D01*
X017798Y006070D01*
X017763Y006072D01*
X017728Y006078D01*
X017694Y006088D01*
X017661Y006101D01*
X017630Y006118D01*
X017602Y006139D01*
X017575Y006162D01*
X017552Y006189D01*
X017531Y006217D01*
X017514Y006248D01*
X017501Y006281D01*
X017491Y006315D01*
X017485Y006350D01*
X017483Y006385D01*
X021420Y006385D02*
X021422Y006420D01*
X021428Y006455D01*
X021438Y006489D01*
X021451Y006522D01*
X021468Y006553D01*
X021489Y006581D01*
X021512Y006608D01*
X021539Y006631D01*
X021567Y006652D01*
X021598Y006669D01*
X021631Y006682D01*
X021665Y006692D01*
X021700Y006698D01*
X021735Y006700D01*
X021770Y006698D01*
X021805Y006692D01*
X021839Y006682D01*
X021872Y006669D01*
X021903Y006652D01*
X021931Y006631D01*
X021958Y006608D01*
X021981Y006581D01*
X022002Y006553D01*
X022019Y006522D01*
X022032Y006489D01*
X022042Y006455D01*
X022048Y006420D01*
X022050Y006385D01*
X022048Y006350D01*
X022042Y006315D01*
X022032Y006281D01*
X022019Y006248D01*
X022002Y006217D01*
X021981Y006189D01*
X021958Y006162D01*
X021931Y006139D01*
X021903Y006118D01*
X021872Y006101D01*
X021839Y006088D01*
X021805Y006078D01*
X021770Y006072D01*
X021735Y006070D01*
X021700Y006072D01*
X021665Y006078D01*
X021631Y006088D01*
X021598Y006101D01*
X021567Y006118D01*
X021539Y006139D01*
X021512Y006162D01*
X021489Y006189D01*
X021468Y006217D01*
X021451Y006248D01*
X021438Y006281D01*
X021428Y006315D01*
X021422Y006350D01*
X021420Y006385D01*
X030705Y006436D02*
X030707Y006471D01*
X030713Y006506D01*
X030723Y006540D01*
X030736Y006573D01*
X030753Y006604D01*
X030774Y006632D01*
X030797Y006659D01*
X030824Y006682D01*
X030852Y006703D01*
X030883Y006720D01*
X030916Y006733D01*
X030950Y006743D01*
X030985Y006749D01*
X031020Y006751D01*
X031055Y006749D01*
X031090Y006743D01*
X031124Y006733D01*
X031157Y006720D01*
X031188Y006703D01*
X031216Y006682D01*
X031243Y006659D01*
X031266Y006632D01*
X031287Y006604D01*
X031304Y006573D01*
X031317Y006540D01*
X031327Y006506D01*
X031333Y006471D01*
X031335Y006436D01*
X031333Y006401D01*
X031327Y006366D01*
X031317Y006332D01*
X031304Y006299D01*
X031287Y006268D01*
X031266Y006240D01*
X031243Y006213D01*
X031216Y006190D01*
X031188Y006169D01*
X031157Y006152D01*
X031124Y006139D01*
X031090Y006129D01*
X031055Y006123D01*
X031020Y006121D01*
X030985Y006123D01*
X030950Y006129D01*
X030916Y006139D01*
X030883Y006152D01*
X030852Y006169D01*
X030824Y006190D01*
X030797Y006213D01*
X030774Y006240D01*
X030753Y006268D01*
X030736Y006299D01*
X030723Y006332D01*
X030713Y006366D01*
X030707Y006401D01*
X030705Y006436D01*
X034642Y006436D02*
X034644Y006471D01*
X034650Y006506D01*
X034660Y006540D01*
X034673Y006573D01*
X034690Y006604D01*
X034711Y006632D01*
X034734Y006659D01*
X034761Y006682D01*
X034789Y006703D01*
X034820Y006720D01*
X034853Y006733D01*
X034887Y006743D01*
X034922Y006749D01*
X034957Y006751D01*
X034992Y006749D01*
X035027Y006743D01*
X035061Y006733D01*
X035094Y006720D01*
X035125Y006703D01*
X035153Y006682D01*
X035180Y006659D01*
X035203Y006632D01*
X035224Y006604D01*
X035241Y006573D01*
X035254Y006540D01*
X035264Y006506D01*
X035270Y006471D01*
X035272Y006436D01*
X035270Y006401D01*
X035264Y006366D01*
X035254Y006332D01*
X035241Y006299D01*
X035224Y006268D01*
X035203Y006240D01*
X035180Y006213D01*
X035153Y006190D01*
X035125Y006169D01*
X035094Y006152D01*
X035061Y006139D01*
X035027Y006129D01*
X034992Y006123D01*
X034957Y006121D01*
X034922Y006123D01*
X034887Y006129D01*
X034853Y006139D01*
X034820Y006152D01*
X034789Y006169D01*
X034761Y006190D01*
X034734Y006213D01*
X034711Y006240D01*
X034690Y006268D01*
X034673Y006299D01*
X034660Y006332D01*
X034650Y006366D01*
X034644Y006401D01*
X034642Y006436D01*
D23*
X036396Y002962D03*
X037577Y002962D03*
X029329Y002982D03*
X028148Y002982D03*
X024354Y002911D03*
X023173Y002911D03*
X016107Y002931D03*
X014926Y002931D03*
X011132Y002962D03*
X009951Y002962D03*
X002884Y002982D03*
X001703Y002982D03*
D24*
X001743Y006960D03*
X002845Y006960D03*
X002845Y008710D03*
X001743Y008710D03*
X014965Y008658D03*
X016067Y008658D03*
X016067Y006908D03*
X014965Y006908D03*
X028188Y006960D03*
X029290Y006960D03*
X029290Y008710D03*
X028188Y008710D03*
D25*
X024716Y013158D03*
X037939Y013210D03*
X011494Y013210D03*
D26*
X011594Y014210D03*
X011494Y015210D03*
X011594Y016210D03*
X024716Y015158D03*
X024816Y014158D03*
X024816Y016158D03*
X037939Y015210D03*
X038039Y014210D03*
X038039Y016210D03*
D27*
X035769Y015990D02*
X035769Y014555D01*
X036114Y014210D01*
X038039Y014210D01*
X037939Y013240D02*
X037358Y013222D01*
X035461Y013222D01*
X035461Y013017D01*
X035051Y013017D01*
X035256Y013478D02*
X035525Y013210D01*
X037939Y013210D01*
X037939Y013240D01*
X036614Y011585D02*
X036364Y011335D01*
X037364Y010335D01*
X037364Y006617D01*
X037255Y006508D01*
X038261Y006527D02*
X038280Y006508D01*
X038261Y006527D02*
X038261Y007820D01*
X036466Y007820D02*
X036364Y007718D01*
X036364Y007210D01*
X036239Y007085D01*
X035989Y007085D01*
X035774Y006870D01*
X035774Y004507D01*
X035774Y003549D01*
X035864Y003460D01*
X035864Y003785D01*
X035871Y003792D01*
X037460Y003792D01*
X037614Y003638D01*
X037614Y002999D01*
X037577Y002962D01*
X035864Y003460D02*
X030239Y003460D01*
X030203Y003495D01*
X030203Y004487D01*
X030239Y004452D01*
X030239Y003460D01*
X029864Y003085D01*
X029329Y002982D01*
X028148Y002982D02*
X028148Y005550D01*
X027614Y006085D01*
X027614Y008460D01*
X027864Y008710D01*
X028188Y008710D01*
X028614Y009585D02*
X028188Y010011D01*
X028188Y010210D01*
X028114Y010960D02*
X028188Y011159D01*
X028188Y011710D01*
X028188Y012284D01*
X028489Y012585D01*
X029239Y012585D01*
X029364Y012710D01*
X029364Y015085D01*
X029739Y015460D01*
X030189Y015460D01*
X030239Y015510D01*
X030234Y015515D01*
X030234Y016451D01*
X030490Y016707D01*
X035051Y016707D01*
X035769Y015990D01*
X035308Y015682D02*
X034744Y016246D01*
X032386Y016246D01*
X032233Y016092D01*
X032233Y015516D01*
X032239Y015510D01*
X031739Y015010D02*
X031239Y015510D01*
X031239Y014410D02*
X031114Y014285D01*
X031114Y012420D01*
X031114Y011835D01*
X030989Y011710D01*
X030239Y011710D01*
X029938Y011460D01*
X029938Y009283D01*
X029915Y009210D01*
X029290Y008710D01*
X030239Y009335D02*
X030239Y011085D01*
X030364Y011210D01*
X029290Y010960D02*
X029290Y010210D01*
X030239Y009335D02*
X030364Y009210D01*
X031489Y009210D01*
X031542Y009157D01*
X031542Y007903D01*
X031975Y007903D02*
X031975Y006348D01*
X032239Y006085D01*
X034239Y006085D01*
X034364Y006210D01*
X034364Y006835D01*
X034614Y007085D01*
X035989Y007085D01*
X034870Y008630D02*
X033893Y008630D01*
X033707Y008496D01*
X033707Y007903D01*
X033274Y007903D02*
X033274Y008841D01*
X033415Y008982D01*
X034591Y008982D01*
X034790Y009181D01*
X034790Y010835D01*
X034489Y011187D01*
X032931Y011187D01*
X032614Y011505D01*
X032614Y012420D01*
X032114Y012420D02*
X032114Y013585D01*
X031739Y013960D01*
X033114Y014285D02*
X033239Y014410D01*
X033114Y014285D02*
X033114Y012420D01*
X033614Y012420D02*
X033614Y011636D01*
X033739Y011511D01*
X034614Y011511D01*
X035091Y011085D01*
X035091Y008851D01*
X034870Y008630D01*
X034364Y009335D02*
X034489Y009460D01*
X034489Y010710D01*
X034364Y010835D01*
X031989Y010835D01*
X031614Y011210D01*
X031614Y012420D01*
X030614Y012420D02*
X029915Y012420D01*
X029290Y011710D01*
X029290Y010960D01*
X031975Y009196D02*
X031989Y009210D01*
X031975Y009196D02*
X031975Y007903D01*
X032408Y007903D02*
X032408Y009129D01*
X032614Y009335D01*
X034364Y009335D01*
X032864Y007880D02*
X032841Y007903D01*
X032841Y006857D01*
X032989Y006710D01*
X032864Y006710D02*
X032864Y007880D01*
X033114Y005085D02*
X029864Y005085D01*
X029290Y005659D01*
X029290Y006960D01*
X028188Y006960D02*
X028114Y007034D01*
X028114Y007835D01*
X025039Y007769D02*
X025039Y006476D01*
X025058Y006457D01*
X024141Y006566D02*
X024033Y006457D01*
X024141Y006566D02*
X024141Y010283D01*
X023141Y011283D01*
X023391Y011533D01*
X022556Y012368D01*
X020891Y012368D01*
X020391Y012368D02*
X020391Y011585D01*
X020516Y011460D01*
X021391Y011460D01*
X021869Y011033D01*
X021869Y008800D01*
X021648Y008578D01*
X020670Y008578D01*
X020485Y008444D01*
X020485Y007851D01*
X020052Y007851D02*
X020052Y008790D01*
X020193Y008931D01*
X021369Y008931D01*
X021568Y009130D01*
X021568Y010783D01*
X021266Y011136D01*
X019709Y011136D01*
X019391Y011453D01*
X019391Y012368D01*
X018891Y012368D02*
X018891Y013533D01*
X018516Y013908D01*
X018016Y014358D02*
X017891Y014233D01*
X017891Y012368D01*
X017891Y011783D01*
X017766Y011658D01*
X017016Y011658D01*
X016715Y011408D01*
X016715Y009232D01*
X016693Y009158D01*
X016067Y008658D01*
X017016Y009283D02*
X017016Y011033D01*
X017141Y011158D01*
X016067Y010908D02*
X016067Y010158D01*
X015391Y009533D02*
X014965Y009960D01*
X014965Y010158D01*
X014891Y010908D02*
X014965Y011107D01*
X014965Y011658D01*
X014965Y012232D01*
X015266Y012533D01*
X016016Y012533D01*
X016141Y012658D01*
X016141Y015033D01*
X016516Y015408D01*
X016966Y015408D01*
X017016Y015458D01*
X017011Y015463D01*
X017011Y016400D01*
X017268Y016656D01*
X021829Y016656D01*
X022546Y015938D01*
X022546Y014503D01*
X022891Y014158D01*
X024816Y014158D01*
X024716Y013188D02*
X024135Y013171D01*
X022239Y013171D01*
X022239Y012966D01*
X021829Y012966D01*
X022034Y013427D02*
X022085Y015631D01*
X021521Y016195D01*
X019164Y016195D01*
X019010Y016041D01*
X019010Y015465D01*
X019016Y015458D01*
X018516Y014958D02*
X018016Y015458D01*
X019891Y014233D02*
X020016Y014358D01*
X019891Y014233D02*
X019891Y012368D01*
X018391Y012368D02*
X018391Y011158D01*
X018766Y010783D01*
X021141Y010783D01*
X021266Y010658D01*
X021266Y009408D01*
X021141Y009283D01*
X019391Y009283D01*
X019186Y009078D01*
X019186Y007851D01*
X019619Y007851D02*
X019619Y006806D01*
X019766Y006658D01*
X019641Y006658D02*
X019641Y007829D01*
X019619Y007851D01*
X018752Y007851D02*
X018752Y006297D01*
X019016Y006033D01*
X021016Y006033D01*
X021141Y006158D01*
X021141Y006783D01*
X021391Y007033D01*
X022766Y007033D01*
X022552Y006819D01*
X022552Y004456D01*
X022552Y003498D01*
X022641Y003408D01*
X022641Y003733D01*
X022649Y003741D01*
X024238Y003741D01*
X024391Y003587D01*
X024391Y002948D01*
X024354Y002911D01*
X022641Y003408D02*
X017016Y003408D01*
X016981Y003444D01*
X016981Y004436D01*
X017016Y004401D01*
X017016Y003408D01*
X016641Y003033D01*
X016107Y002931D01*
X014926Y002931D02*
X014926Y005499D01*
X014391Y006033D01*
X014391Y008408D01*
X014641Y008658D01*
X014965Y008658D01*
X014891Y007783D02*
X014891Y006982D01*
X014965Y006908D01*
X016067Y006908D02*
X016067Y005607D01*
X016641Y005033D01*
X019891Y005033D01*
X020391Y004533D01*
X022766Y007033D02*
X023016Y007033D01*
X023141Y007158D01*
X023141Y007666D01*
X023244Y007769D01*
X024141Y010595D02*
X022618Y012368D01*
X022556Y012368D01*
X022303Y013158D02*
X022034Y013427D01*
X022303Y013158D02*
X024716Y013158D01*
X024716Y013188D01*
X018766Y009158D02*
X018752Y009145D01*
X018752Y007851D01*
X018319Y007851D02*
X018319Y009105D01*
X018266Y009158D01*
X017141Y009158D01*
X017016Y009283D01*
X016067Y010908D02*
X016067Y011658D01*
X016692Y012368D01*
X017391Y012368D01*
X011594Y014210D02*
X009669Y014210D01*
X009324Y014555D01*
X009324Y015990D01*
X008606Y016707D01*
X004045Y016707D01*
X003789Y016451D01*
X003789Y015515D01*
X003794Y015510D01*
X003744Y015460D01*
X003294Y015460D01*
X002919Y015085D01*
X002919Y012710D01*
X002794Y012585D01*
X002044Y012585D01*
X001743Y012284D01*
X001743Y011710D01*
X001743Y011159D01*
X001669Y010960D01*
X001743Y010210D02*
X001743Y010011D01*
X002169Y009585D01*
X002845Y010210D02*
X002845Y010960D01*
X002845Y011710D01*
X003470Y012420D01*
X004169Y012420D01*
X004669Y012420D02*
X004669Y011835D01*
X004544Y011710D01*
X003794Y011710D01*
X003493Y011460D01*
X003493Y009283D01*
X003470Y009210D01*
X002845Y008710D01*
X003794Y009335D02*
X003794Y011085D01*
X003919Y011210D01*
X005169Y011210D02*
X005169Y012420D01*
X004669Y012420D02*
X004669Y014285D01*
X004794Y014410D01*
X005294Y013960D02*
X005669Y013585D01*
X005669Y012420D01*
X006169Y012420D02*
X006169Y011505D01*
X006486Y011187D01*
X008044Y011187D01*
X008345Y010835D01*
X008345Y009181D01*
X008146Y008982D01*
X006970Y008982D01*
X006829Y008841D01*
X006829Y007903D01*
X006419Y007880D02*
X006396Y007903D01*
X006396Y006857D01*
X006544Y006710D01*
X006419Y006710D02*
X006419Y007880D01*
X005963Y007903D02*
X005963Y009129D01*
X006169Y009335D01*
X007919Y009335D01*
X008044Y009460D01*
X008044Y010710D01*
X007919Y010835D01*
X005544Y010835D01*
X005169Y011210D01*
X006669Y012420D02*
X006669Y014285D01*
X006794Y014410D01*
X005794Y015510D02*
X005788Y015516D01*
X005788Y016092D01*
X005941Y016246D01*
X008299Y016246D01*
X008863Y015682D01*
X008811Y013478D01*
X009080Y013210D01*
X011494Y013210D01*
X011494Y013240D01*
X010913Y013222D01*
X009016Y013222D01*
X009016Y013017D01*
X008606Y013017D01*
X009334Y012420D02*
X007669Y012420D01*
X007169Y012420D02*
X007169Y011636D01*
X007294Y011511D01*
X008169Y011511D01*
X008646Y011085D01*
X008646Y008851D01*
X008425Y008630D01*
X007448Y008630D01*
X007262Y008496D01*
X007262Y007903D01*
X008169Y007085D02*
X007919Y006835D01*
X007919Y006210D01*
X007794Y006085D01*
X005794Y006085D01*
X005530Y006348D01*
X005530Y007903D01*
X005530Y009196D01*
X005544Y009210D01*
X005097Y009157D02*
X005044Y009210D01*
X003919Y009210D01*
X003794Y009335D01*
X005097Y009157D02*
X005097Y007903D01*
X002845Y006960D02*
X002845Y005659D01*
X003419Y005085D01*
X006669Y005085D01*
X007169Y004585D01*
X009329Y004507D02*
X009329Y003549D01*
X009419Y003460D01*
X009419Y003785D01*
X009426Y003792D01*
X011015Y003792D01*
X011169Y003638D01*
X011169Y002999D01*
X011132Y002962D01*
X009419Y003460D02*
X003794Y003460D01*
X003758Y003495D01*
X003758Y004487D01*
X003794Y004452D01*
X003794Y003460D01*
X003419Y003085D01*
X002884Y002982D01*
X001703Y002982D02*
X001703Y005550D01*
X001169Y006085D01*
X001169Y008460D01*
X001419Y008710D01*
X001743Y008710D01*
X001669Y007835D02*
X001669Y007034D01*
X001743Y006960D01*
X008169Y007085D02*
X009544Y007085D01*
X009329Y006870D01*
X009329Y004507D01*
X010810Y006508D02*
X010919Y006617D01*
X010919Y010335D01*
X009919Y011335D01*
X010169Y011585D01*
X009334Y012420D01*
X009396Y012420D01*
X010919Y010647D01*
X011816Y007820D02*
X011816Y006527D01*
X011835Y006508D01*
X009919Y007210D02*
X009794Y007085D01*
X009544Y007085D01*
X009919Y007210D02*
X009919Y007718D01*
X010021Y007820D01*
X005294Y015010D02*
X004794Y015510D01*
X006152Y021479D02*
X002030Y021479D01*
X002030Y023448D02*
X002030Y024071D01*
X004506Y026547D01*
X004506Y026870D01*
X004779Y027142D01*
X005785Y028136D02*
X005779Y028142D01*
X005785Y028136D02*
X006198Y028136D01*
X006608Y027726D01*
X006608Y021935D01*
X006152Y021479D01*
X010793Y021479D02*
X014916Y021479D01*
X015371Y021935D01*
X015371Y027726D01*
X014961Y028136D01*
X014549Y028136D01*
X014543Y028142D01*
X013543Y027142D02*
X013270Y026870D01*
X013270Y026547D01*
X010793Y024071D01*
X010793Y023448D01*
X019403Y023448D02*
X019403Y024071D01*
X021880Y026547D01*
X021880Y026870D01*
X022153Y027142D01*
X023159Y028136D02*
X023153Y028142D01*
X023159Y028136D02*
X023571Y028136D01*
X023981Y027726D01*
X023981Y021935D01*
X023526Y021479D01*
X019403Y021479D01*
X028167Y021479D02*
X032289Y021479D01*
X032745Y021935D01*
X032745Y027726D01*
X032335Y028136D01*
X031923Y028136D01*
X031916Y028142D01*
X030916Y027142D02*
X030644Y026870D01*
X030644Y026547D01*
X028167Y024071D01*
X028167Y023448D01*
X035308Y015682D02*
X035256Y013478D01*
X035779Y012420D02*
X034114Y012420D01*
X035779Y012420D02*
X036614Y011585D01*
X035841Y012420D02*
X037364Y010647D01*
X035841Y012420D02*
X035779Y012420D01*
X033114Y005085D02*
X033614Y004585D01*
D28*
X033614Y004585D03*
X035489Y002960D03*
X037255Y006508D03*
X038280Y006508D03*
X032864Y006710D03*
X031989Y009210D03*
X030364Y011210D03*
X029290Y010960D03*
X028114Y010960D03*
X028614Y009585D03*
X028114Y007835D03*
X025058Y006457D03*
X024033Y006457D03*
X020391Y004533D03*
X022266Y002908D03*
X019641Y006658D03*
X018766Y009158D03*
X017141Y011158D03*
X016067Y010908D03*
X014891Y010908D03*
X015391Y009533D03*
X014891Y007783D03*
X011835Y006508D03*
X010810Y006508D03*
X007169Y004585D03*
X009044Y002960D03*
X006419Y006710D03*
X005544Y009210D03*
X002845Y010960D03*
X003919Y011210D03*
X001669Y010960D03*
X002169Y009585D03*
X001669Y007835D03*
X008606Y013017D03*
X021829Y012966D03*
X035051Y013017D03*
D29*
X031739Y013960D02*
X031739Y015010D01*
X018516Y014958D02*
X018516Y013908D01*
X005294Y013960D02*
X005294Y015010D01*
X009044Y002960D02*
X009948Y002960D01*
X009951Y002962D01*
X022266Y002908D02*
X023171Y002908D01*
X023173Y002911D01*
X035489Y002960D02*
X036393Y002960D01*
X036396Y002962D01*
M02*
